<!-- Generated by IcoMoon.io -->
<svg version="1.1" xmlns="http://www.w3.org/2000/svg" width="1024" height="1024" viewBox="0 0 1024 1024">
<title></title>
<g id="icomoon-ignore">
</g>
<path d="M512 0c-282.317 0-512 229.683-512 512s229.683 512 512 512 512-229.683 512-512-229.683-512-512-512zM512 915.055c-222.243 0-403.066-180.802-403.066-403.055s180.823-403.055 403.066-403.055 403.066 180.802 403.066 403.055-180.823 403.055-403.066 403.055zM778.834 496.191h-230.094v-276.657c0-23.281-18.876-42.157-42.157-42.157s-42.157 18.876-42.157 42.157v318.814c0 23.281 18.876 42.157 42.157 42.157h272.252c23.281 0 42.157-18.876 42.157-42.157s-18.876-42.157-42.157-42.157z"></path>
</svg>
