<!-- Generated by IcoMoon.io -->
<svg version="1.1" xmlns="http://www.w3.org/2000/svg" width="594" height="1024" viewBox="0 0 594 1024">
<title></title>
<g id="icomoon-ignore">
</g>
<path fill="#000" d="M505.856 112.64q88.064 63.488 88.064 188.416 0 65.536-43.008 126.976-12.288 20.48-90.112 81.92l-47.104 30.72q-40.96 34.816-49.152 61.44-6.144 16.384-8.192 45.056 0 14.336-16.384 14.336h-131.072q-16.384 0-16.384-12.288 4.096-100.352 28.672-126.976 16.384-22.528 49.152-49.152t57.344-43.008l24.576-14.336q22.528-16.384 34.816-34.816 28.672-45.056 28.672-71.68 0-40.96-26.624-79.872-28.672-36.864-94.208-36.864-69.632 0-96.256 45.056-28.672 43.008-28.672 94.208h-169.984q6.144-165.888 116.736-237.568 71.68-43.008 169.984-43.008 133.12 0 219.136 61.44zM284.672 763.904q45.056 0 74.752 30.72t27.648 75.776q-2.048 47.104-32.768 74.752t-75.776 25.6q-45.056 0-74.752-29.696t-27.648-76.8 32.768-74.752 75.776-25.6z"></path>
</svg>
