<!-- Generated by IcoMoon.io -->
<svg version="1.1" xmlns="http://www.w3.org/2000/svg" width="1024" height="1024" viewBox="0 0 1024 1024">
<title></title>
<g id="icomoon-ignore">
</g>
<path d="M180.224 80.896c-126.976 41.984-160.768 54.272-164.864 58.368l-5.12 5.12v770.048l6.144 6.144c3.072 3.072 7.168 6.144 10.24 6.144 2.048 0 74.752-23.552 160.768-52.224l157.696-53.248 59.392 26.624c33.792 13.312 62.464 25.6 65.536 25.6 11.264 0 18.432-11.264 15.36-23.552-2.048-7.168-4.096-8.192-77.824-39.936l-44.032-18.432v-717.824l20.48 11.264c11.264 5.12 69.632 36.864 131.072 68.608l110.592 59.392 1.024 156.672c1.024 119.808 2.048 157.696 4.096 160.768 3.072 6.144 13.312 9.216 20.48 7.168 2.048-1.024 6.144-4.096 8.192-6.144 4.096-4.096 4.096-7.168 4.096-160.768l1.024-156.672 130.048-53.248c71.68-29.696 131.072-53.248 132.096-53.248 0 0 1.024 117.76 1.024 261.12 0 269.312 0 266.24 7.168 272.384 4.096 2.048 14.336 3.072 19.456 1.024 9.216-3.072 8.192 6.144 8.192-290.816v-277.504l-5.12-6.144c-3.072-3.072-8.192-6.144-11.264-6.144-2.048 0-70.656 27.648-152.576 61.44l-147.456 60.416-147.456-77.824c-101.376-54.272-150.528-78.848-153.6-78.848s-76.8 24.576-164.864 54.272zM326.656 430.080v360.448l-139.264 46.080c-76.8 25.6-139.264 46.080-140.288 46.080s-1.024-161.792-1.024-359.424v-360.448l138.24-47.104c76.8-24.576 140.288-46.080 141.312-46.080 0 0 1.024 161.792 1.024 360.448zM746.496 567.296c-8.192 4.096-11.264 9.216-116.736 189.44-96.256 165.888-107.52 185.344-108.544 194.56-1.024 17.408 7.168 33.792 23.552 41.984 7.168 3.072 13.312 4.096 222.208 4.096 203.776 0 215.040-1.024 222.208-4.096 16.384-7.168 25.6-23.552 24.576-41.984-1.024-9.216-11.264-27.648-106.496-190.464-57.344-98.304-106.496-182.272-108.544-185.344-8.192-12.288-34.816-17.408-52.224-8.192zM875.52 776.192c58.368 99.328 105.472 181.248 106.496 183.296s-43.008 2.048-214.016 2.048c-118.784 0-216.064 0-216.064-1.024s151.552-261.12 201.728-345.088c7.168-13.312 14.336-22.528 14.336-21.504 1.024 1.024 49.152 82.944 107.52 182.272zM760.832 681.984c-10.24 5.12-10.24 8.192-9.216 89.088v74.752l6.144 5.12c7.168 6.144 16.384 6.144 23.552-1.024l5.12-5.12v-153.6l-4.096-5.12c-6.144-6.144-15.36-8.192-21.504-4.096zM760.832 892.928c-6.144 2.048-10.24 12.288-9.216 19.456 2.048 7.168 9.216 14.336 16.384 14.336 16.384 0 24.576-18.432 12.288-29.696-6.144-6.144-11.264-7.168-19.456-4.096z"></path>
</svg>
