<?xml version="1.0" encoding="iso-8859-1"?>
<!-- Generator: Adobe Illustrator 18.0.0, SVG Export Plug-In . SVG Version: 6.00 Build 0)  -->
<!DOCTYPE svg PUBLIC "-//W3C//DTD SVG 1.1//EN" "http://www.w3.org/Graphics/SVG/1.1/DTD/svg11.dtd">
<svg version="1.1" id="Capa_1" xmlns="http://www.w3.org/2000/svg" xmlns:xlink="http://www.w3.org/1999/xlink" x="0px" y="0px"
	 width="10px" height="10px" viewBox="0 0 54.776 54.776" style="enable-background:new 0 0 54.776 54.776;" xml:space="preserve">
<path d="M12.63,30.218c-0.559-0.509-0.651-1.354-0.217-1.972c2.309-3.284,7.297-5.298,10.6-6.169v-1.451
	c-3.391-2.489-5.391-7.329-5.391-10.859C17.622,4.381,22.003,0,27.388,0c5.385,0,9.767,4.381,9.767,9.767
	c0,3.53-2.001,8.371-5.392,10.859v1.451c3.304,0.871,8.292,2.885,10.601,6.169c0.435,0.618,0.342,1.463-0.217,1.972
	c-1.707,1.555-7.274,7.158-7.274,13.995c0,0.593,0.023,1.179,0.063,1.756c0.03,0.415-0.115,0.824-0.398,1.128
	c-0.284,0.305-0.681,0.478-1.098,0.478H21.336c-0.417,0-0.814-0.173-1.098-0.478c-0.284-0.305-0.428-0.713-0.398-1.128
	c0.041-0.578,0.063-1.163,0.063-1.756C19.904,37.375,14.336,31.772,12.63,30.218z M41.7,48.984H13.075c-0.829,0-1.5,0.671-1.5,1.5
	v2.792c0,0.829,0.671,1.5,1.5,1.5H41.7c0.829,0,1.5-0.671,1.5-1.5v-2.792C43.2,49.655,42.529,48.984,41.7,48.984z"/>
<g>
</g>
<g>
</g>
<g>
</g>
<g>
</g>
<g>
</g>
<g>
</g>
<g>
</g>
<g>
</g>
<g>
</g>
<g>
</g>
<g>
</g>
<g>
</g>
<g>
</g>
<g>
</g>
<g>
</g>
</svg>
