<svg height="10px" viewBox="0 -9 512 511" width="10px" xmlns="http://www.w3.org/2000/svg"><path d="m295.1875 420.800781h-.078125c-10.410156 0-18.878906 8.46875-18.878906 18.878907v35.527343c0 10.410157 8.46875 18.878907 18.878906 18.878907h198.011719c10.410156 0 18.878906-8.46875 18.878906-18.878907v-35.527343c0-10.410157-8.46875-18.878907-18.878906-18.878907zm0 0"/><path d="m18.878906 420.800781c-10.410156 0-18.878906 8.46875-18.878906 18.878907v35.527343c0 10.410157 8.46875 18.878907 18.878906 18.878907h198.011719c10.410156 0 18.878906-8.46875 18.878906-18.878907v-35.527343c0-10.410157-8.46875-18.878907-18.878906-18.878907zm0 0"/><path d="m216.8125 369.5h78.375v19.558594h193.429688l-27.234376-241.46875c-.941406-8.375-8.28125-14.933594-16.707031-14.933594h-377.351562c-8.425781 0-15.765625 6.558594-16.707031 14.933594l-27.234376 241.46875h193.429688zm0-155.976562h78.375v75.109374h-78.375zm0 0"/><path d="m439.484375 70.53125c0-8.347656-6.484375-15.195312-14.679687-15.808594v-33.40625c0-11.476562-9.335938-20.816406-20.816407-20.816406h-53.203125c-11.480468 0-20.816406 9.339844-20.816406 20.816406v33.40625c-8.195312.613282-14.679688 7.460938-14.679688 15.808594v30.382812h124.195313zm0 0"/><path d="m196.710938 70.53125c0-8.347656-6.484376-15.195312-14.679688-15.808594v-33.40625c0-11.476562-9.335938-20.816406-20.816406-20.816406h-53.203125c-11.480469 0-20.816407 9.339844-20.816407 20.816406v33.40625c-8.195312.613282-14.679687 7.460938-14.679687 15.808594v30.382812h124.195313zm0 0"/></svg>
