<?xml version="1.0" encoding="iso-8859-1"?>
<!-- Generator: Adobe Illustrator 17.1.0, SVG Export Plug-In . SVG Version: 6.00 Build 0)  -->
<!DOCTYPE svg PUBLIC "-//W3C//DTD SVG 1.1//EN" "http://www.w3.org/Graphics/SVG/1.1/DTD/svg11.dtd">
<svg version="1.1" id="Capa_1" xmlns="http://www.w3.org/2000/svg" xmlns:xlink="http://www.w3.org/1999/xlink" x="0px" y="0px"
	 width="10px" height="10px" viewBox="0 0 235.21 235.21" style="enable-background:new 0 0 235.21 235.21;" xml:space="preserve">
<path d="M225.529,70.224c-1.024,0-2.075,0.146-3.124,0.436l-11.87,3.27l-12.326-30.026c-3.491-8.507-13.814-15.427-23.009-15.427
	H59.844c-9.196,0-19.518,6.92-23.009,15.427l-12.31,29.985l-11.721-3.229c-1.048-0.289-2.1-0.436-3.123-0.436
	C4.072,70.224,0,74.509,0,80.414v6.999c0,6.893,5.607,12.5,12.5,12.5h1.342l-1.989,4.846c-3.244,7.904-5.883,21.283-5.883,29.826
	v59.651c0,6.893,5.608,12.5,12.5,12.5h16.326c6.893,0,12.5-5.607,12.5-12.5v-14.897H187.75v14.897c0,6.893,5.607,12.5,12.5,12.5
	h16.325c6.893,0,12.5-5.607,12.5-12.5v-59.651c0-8.542-2.639-21.922-5.884-29.826l-1.989-4.846h1.508c6.892,0,12.5-5.607,12.5-12.5
	v-6.999C235.21,74.509,231.139,70.224,225.529,70.224z M33.489,93.123l18.645-45.417c2.089-5.088,8.298-9.251,13.798-9.251h103.182
	c5.5,0,11.709,4.163,13.797,9.251l18.645,45.417c2.089,5.088-0.702,9.251-6.202,9.251H39.692
	C34.192,102.374,31.401,98.211,33.489,93.123z M75.112,150.569c0,2.75-2.25,5-5,5h-35.42c-2.75,0-5-2.25-5-5V133.57
	c0-2.75,2.25-5,5-5h35.42c2.75,0,5,2.25,5,5V150.569z M205.018,150.569c0,2.75-2.25,5-5,5h-35.419c-2.75,0-5-2.25-5-5V133.57
	c0-2.75,2.25-5,5-5h35.419c2.75,0,5,2.25,5,5V150.569z"/>
<g>
</g>
<g>
</g>
<g>
</g>
<g>
</g>
<g>
</g>
<g>
</g>
<g>
</g>
<g>
</g>
<g>
</g>
<g>
</g>
<g>
</g>
<g>
</g>
<g>
</g>
<g>
</g>
<g>
</g>
</svg>
