<?xml version="1.0" encoding="iso-8859-1"?>
<!-- Generator: Adobe Illustrator 16.0.0, SVG Export Plug-In . SVG Version: 6.00 Build 0)  -->
<!DOCTYPE svg PUBLIC "-//W3C//DTD SVG 1.1//EN" "http://www.w3.org/Graphics/SVG/1.1/DTD/svg11.dtd">
<svg version="1.1" id="Capa_1" xmlns="http://www.w3.org/2000/svg" xmlns:xlink="http://www.w3.org/1999/xlink" x="0px" y="0px"
	 width="10px" height="10px" viewBox="0 0 46.225 46.225" style="enable-background:new 0 0 46.225 46.225;"
	 xml:space="preserve">
<g>
	<path d="M44.928,25.677l-8.949-2.209c-0.834-0.205-1.418-0.952-1.422-1.812l-0.027-5.575c-0.004-0.917-0.67-1.697-1.576-1.843
		L31.41,13.99c-0.908-0.146-1.577-0.931-1.578-1.852V9.261c0-1.005-0.792-1.832-1.795-1.874c-1.581-0.066-3.223-0.101-4.904-0.101
		C10.358,7.286,0,9.292,0,11.767c0,0.034,0.013,0.067,0.013,0.101v25.359c0,0.951,0.772,1.711,1.723,1.711h42.793
		c0.951,0,1.695-0.76,1.695-1.711v-9.881C46.225,26.556,45.697,25.866,44.928,25.677z M8.574,32.41c0,0.342-0.279,0.61-0.622,0.61
		H4.813c-0.342,0-0.647-0.269-0.647-0.61v-3.048c0-1.198,0.999-2.197,2.197-2.197h0.04c1.198,0,2.171,0.999,2.171,2.197V32.41z
		 M8.574,20.193c0,0.341-0.279,0.614-0.622,0.614H4.813c-0.342,0-0.647-0.273-0.647-0.614v-3.049c0-1.197,0.999-2.192,2.197-2.192
		h0.04c1.198,0,2.171,0.995,2.171,2.192V20.193z M18.962,32.41c0,0.342-0.292,0.61-0.634,0.61H15.19
		c-0.342,0-0.634-0.269-0.634-0.61v-3.048c0-1.198,0.986-2.197,2.183-2.197h0.041c1.198,0,2.183,0.999,2.183,2.197L18.962,32.41
		L18.962,32.41z M18.962,20.193c0,0.341-0.292,0.614-0.634,0.614H15.19c-0.342,0-0.634-0.273-0.634-0.614v-3.049
		c0-1.197,0.986-2.192,2.183-2.192h0.041c1.198,0,2.183,0.995,2.183,2.192L18.962,20.193L18.962,20.193z M29.35,32.41
		c0,0.342-0.304,0.61-0.646,0.61h-3.14c-0.34,0-0.621-0.269-0.621-0.61v-3.048c0-1.198,0.974-2.197,2.17-2.197h0.041
		c1.199,0,2.195,0.999,2.195,2.197V32.41z M29.35,20.193c0,0.341-0.304,0.614-0.646,0.614h-3.14c-0.34,0-0.621-0.273-0.621-0.614
		v-3.049c0-1.197,0.974-2.192,2.17-2.192h0.041c1.199,0,2.195,0.995,2.195,2.192V20.193z M39.361,32.41
		c0,0.342-0.264,0.61-0.605,0.61h-3.139c-0.342,0-0.6-0.269-0.6-0.61v-3.048c0-1.198,0.951-2.197,2.148-2.197h0.04
		c1.196,0,2.155,0.999,2.155,2.197V32.41z"/>
</g>
<g>
</g>
<g>
</g>
<g>
</g>
<g>
</g>
<g>
</g>
<g>
</g>
<g>
</g>
<g>
</g>
<g>
</g>
<g>
</g>
<g>
</g>
<g>
</g>
<g>
</g>
<g>
</g>
<g>
</g>
</svg>
