<svg height="10px" viewBox="0 -31 512 512" width="10px" xmlns="http://www.w3.org/2000/svg"><path d="m346 0h-180c-90.980469 0-166 74.019531-166 165v15h512v-15c0-90.980469-75.019531-165-166-165zm-225 150h-30v-30h30zm60-60h-30v-30h30zm45 60h-30v-30h30zm45-60h-30v-30h30zm45 60h-30v-30h30zm45-60h-30v-30h30zm60 60h-30v-30h30zm0 0"/><path d="m256.132812 272.445312c-13.007812-.160156-26.472656 3.722657-37.558593 11.105469-12.113281 8.066407-25.542969 13.117188-39.304688 15.15625l76.730469 57.542969 76.734375-57.546875c-13.761719-2.039063-27.195313-7.082031-39.308594-15.152344-11.085937-7.382812-23.421875-10.722656-37.292969-11.105469zm0 0"/><path d="m45 276.96875v53.03125h126.007812l-69.761718-52.320312c-19.542969-8.734376-38.667969-5.433594-56.246094-.710938zm0 0"/><path d="m504.945312 254.929688-11.238281-44.929688h-475.414062l-11.238281 44.929688c4.125-.023438 10.535156-1.5 21.582031-4.644532 36.203125-10.265625 67.03125-13.636718 99.9375 8.304688 22.292969 14.855468 51.0625 14.855468 73.359375 0 16.097656-10.75 35.960937-16.304688 54.199218-16.144532 20.285157.765626 37.835938 5.40625 53.933594 16.144532 22.296875 14.855468 51.066406 14.855468 73.359375 0 38.203125-25.445313 75.691407-15.117188 99.832031-8.261719 7.535157 2.132813 16.371094 4.574219 21.6875 4.601563zm0 0"/><path d="m301 360-45 33.75-45-33.753906-211 .003906v15c0 41.351562 34.648438 75 76 75h360c41.351562 0 76-33.648438 76-75v-15zm0 0"/><path d="m340.992188 330h126.007812v-50.996094c.027344.011719.054688-.804687.082031-1.941406-17.65625-4.742188-36.816406-8.078125-56.378906.648438zm0 0"/></svg>
