<?xml version="1.0" encoding="utf-8"?>
<!-- Generator: Adobe Illustrator 23.0.0, SVG Export Plug-In . SVG Version: 6.00 Build 0)  -->
<svg version="1.1" id="Capa_1" xmlns="http://www.w3.org/2000/svg" xmlns:xlink="http://www.w3.org/1999/xlink" x="0px" y="0px"
	 width="10px" height="10px" viewBox="0 0 475.1 475.1" style="enable-background:new 0 0 475.1 475.1;" xml:space="preserve">
<path d="M463,189.2c0-6.7-5.1-10.8-15.2-12.5l-136-19.8l-61-123.3c-3.4-7.4-7.9-11.1-13.3-11.1c-5.4,0-9.8,3.7-13.3,11.1l-61,123.3
	l-136,19.8c-10.1,1.6-15.2,5.8-15.2,12.5c0,3.8,2.3,8.1,6.8,13l98.6,95.9L94.2,433.6c-0.4,2.5-0.5,4.3-0.5,5.4c0,3.8,0.9,7,2.8,9.6
	c1.9,2.6,4.7,3.9,8.5,3.9c3.3,0,6.9-1.1,10.8-3.2l121.7-64l121.7,64c3.8,2.2,7.4,3.3,10.8,3.3c7.4,0,11.1-4.5,11.1-13.5
	c0-2.3-0.1-4.2-0.3-5.4l-23.3-135.5l98.4-95.9C460.7,197.5,463,193.1,463,189.2z"/>
</svg>
