<svg height="10px" viewBox="-75 0 512 512" width="10px" xmlns="http://www.w3.org/2000/svg"><path d="m298.667969 0c-35.289063 0-64 28.710938-64 64v213.332031h-42.667969v-106.664062h-42.667969v106.664062h-21.332031v-146.664062c0-35.289063-28.710938-64-64-64s-64 28.710937-64 64v40h42.667969v-40c0-11.765625 9.570312-21.335938 21.332031-21.335938s21.332031 9.570313 21.332031 21.335938v146.664062h-21.332031c-11.78125 0-21.332031 9.554688-21.332031 21.335938 0 70.578125 57.417969 128 128 128 70.578125 0 128-57.421875 128-128 0-11.78125-9.554688-21.335938-21.335938-21.335938v-213.332031c0-11.761719 9.570313-21.332031 21.335938-21.332031 11.761719 0 21.332031 9.570312 21.332031 21.332031v21.332031h42.667969v-21.332031c0-35.289062-28.714844-64-64-64zm0 0"/><path d="m149.332031 85.332031h42.667969v42.667969h-42.667969zm0 0"/><path d="m320 128h42.667969v42.667969h-42.667969zm0 0"/><path d="m0 213.332031h42.667969v42.667969h-42.667969zm0 0"/><path d="m244.019531 428.664062c-21.679687 12.285157-46.703125 19.335938-73.351562 19.335938-26.652344 0-51.671875-7.050781-73.355469-19.335938l-11.5625 57.816407c-2.601562 13.003906 7.664062 25.519531 20.917969 25.519531h128c13.25 0 23.515625-12.515625 20.917969-25.515625zm0 0"/></svg>
