<?xml version="1.0" encoding="iso-8859-1"?>
<!-- Generator: Adobe Illustrator 18.0.0, SVG Export Plug-In . SVG Version: 6.00 Build 0)  -->
<!DOCTYPE svg PUBLIC "-//W3C//DTD SVG 1.1//EN" "http://www.w3.org/Graphics/SVG/1.1/DTD/svg11.dtd">
<svg version="1.1" id="Capa_1" xmlns="http://www.w3.org/2000/svg" xmlns:xlink="http://www.w3.org/1999/xlink" x="0px" y="0px"
	 width="10px" height="10px" viewBox="0 0 310 310" style="enable-background:new 0 0 310 310;" xml:space="preserve">
<g>
	<polygon points="253.381,206.25 253.381,299.157 253.381,299.465 310,299.465 310,238.977 	"/>
	<polygon points="0,299.465 56.619,299.465 56.619,299.157 56.619,206.178 0,238.977 	"/>
	<path d="M66.619,174.559v124.598h58.047v-52.825c0-16.568,13.432-30,30-30h0.668c16.568,0,30,13.432,30,30v52.825h58.047V174.559
		L155,101.247L66.619,174.559z"/>
	<polygon points="27.502,161.587 42.498,179.785 155,87.083 267.502,179.785 282.498,161.587 162,62.297 162,40.202 183.631,40.202
		183.631,26.202 162,26.202 162,10.535 148,10.535 148,26.202 126.369,26.202 126.369,40.202 148,40.202 148,62.297 	"/>
</g>
<g>
</g>
<g>
</g>
<g>
</g>
<g>
</g>
<g>
</g>
<g>
</g>
<g>
</g>
<g>
</g>
<g>
</g>
<g>
</g>
<g>
</g>
<g>
</g>
<g>
</g>
<g>
</g>
<g>
</g>
</svg>
