<svg height="10px" viewBox="0 0 512 512" width="10px" xmlns="http://www.w3.org/2000/svg"><path d="m241 91c0 8.277344 6.722656 15 15 15s15-6.722656 15-15-6.722656-15-15-15-15 6.722656-15 15zm0 0"/><path d="m0 126.726562v54.273438h512v-54.273438l-256-126.726562zm301-35.726562c0 24.8125-20.1875 45-45 45s-45-20.1875-45-45 20.1875-45 45-45 45 20.1875 45 45zm0 0"/><path d="m0 452h512v60h-512zm0 0"/><path d="m45 211h61v211h-61zm0 0"/><path d="m166 211h60v211h-60zm0 0"/><path d="m286 211h60v211h-60zm0 0"/><path d="m406 211h60v211h-60zm0 0"/></svg>
