<!-- Generated by IcoMoon.io -->
<svg version="1.1" xmlns="http://www.w3.org/2000/svg" width="475" height="512" viewBox="0 0 475 512">
<g id="icomoon-ignore">
</g>
<path fill="#000" d="M109.568 420.352q0-7.168-5.12-12.8t-12.8-5.12-12.8 5.12-5.632 12.8 5.632 12.8 12.8 5.632 12.8-5.632 5.12-12.8zM293.888 300.544l-195.072 195.072q-10.752 10.24-25.6 10.24t-26.112-10.24l-30.208-31.232q-10.752-10.24-10.752-25.6 0-14.848 10.752-26.112l194.56-194.56q11.264 28.16 32.768 49.664t49.664 32.768zM475.136 176.128q0 11.264-6.656 30.208-13.824 38.4-47.104 62.464t-73.728 23.552q-53.248 0-90.624-37.376t-37.376-90.624 37.376-90.112 90.624-37.888q16.384 0 34.304 5.12t30.72 13.312q4.608 3.072 4.608 7.68t-4.608 8.192l-83.456 48.128v64l55.296 30.72q1.024-1.024 22.528-13.824t38.4-23.040 20.48-10.24q4.096 0 6.656 2.56t2.56 7.168z"></path>
</svg>
