<?xml version="1.0" standalone="no"?>
<!DOCTYPE svg PUBLIC "-//W3C//DTD SVG 1.1//EN" "http://www.w3.org/Graphics/SVG/1.1/DTD/svg11.dtd" >
<svg xmlns="http://www.w3.org/2000/svg">
<metadata>Generated by IcoMoon</metadata>
<defs>
<font id="vectorsmanagement" horiz-adv-x="1024">
<font-face units-per-em="1024" ascent="870.850439882698" descent="-153.14956011730206" />
<missing-glyph horiz-adv-x="1024" />
<glyph unicode="&#x20;" horiz-adv-x="0" d="" />
<glyph unicode="&#xe800;" glyph-name="arrows-cw" horiz-adv-x="879" d="M864.076 254.269q0-3.075 0-4.1-36.9-153.75-153.75-249.075t-273.675-95.325q-83.025 0-160.925 31.775t-139.4 90.2l-73.8-73.8q-11.275-11.275-25.625-11.275t-25.625 11.275-11.275 25.625v256.25q0 14.35 11.275 25.625t25.625 11.275h256.25q14.35 0 25.625-11.275t10.25-25.625-10.25-25.625l-78.925-78.925q41-36.9 92.25-58.425t107.625-20.5q75.85 0 142.475 37.925t106.6 101.475q6.15 10.25 30.75 67.65 4.1 13.325 16.4 13.325h109.675q8.2 0 13.325-6.15t5.125-12.3zM878.426 711.419v-256.25q0-14.35-10.25-25.625t-26.65-11.275h-256.25q-14.35 0-25.625 11.275t-10.25 25.625 10.25 25.625l78.925 78.925q-84.050 78.925-198.85 78.925-76.875 0-143.5-37.925t-106.6-101.475q-6.15-10.25-29.725-67.65-5.125-13.325-17.425-13.325h-113.775q-7.175 0-13.325 6.15t-5.125 12.3v4.1q36.9 153.75 154.775 249.075t274.7 95.325q83.025 0 161.95-31.775t140.425-90.2l73.8 73.8q11.275 11.275 25.625 11.275t26.65-11.275 10.25-25.625z" />
<glyph unicode="&#xe801;" glyph-name="font" d="M1020.901-76.807c-22.55 9.225-44.075 14.35-62.525 17.425-19.475 1.025-33.825 6.15-43.050 13.325-5.125 4.1-12.3 15.375-21.525 35.875-16.4 33.825-29.725 63.55-39.975 91.225-16.4 44.075-29.725 77.9-39.975 101.475-23.575 54.325-43.050 102.5-59.45 144.525-8.2 22.55-33.825 84.050-75.85 183.475l-126.075 295.2-7.175 13.325h-78.925l-172.2-445.875-146.575-380.275c-11.275-21.525-21.525-34.85-29.725-42.025-8.2-6.15-30.75-12.3-67.65-18.45-23.575-5.125-39.975-8.2-49.2-11.275l-1.025-49.2h13.325c34.85 0 69.7 3.075 102.5 9.225l29.725 5.125c115.825-8.2 187.575-12.3 215.25-12.3 0 4.1 1.025 9.225 1.025 16.4 0 12.3 0 23.575-1.025 35.875-8.2 1.025-16.4 2.050-24.6 3.075s-14.35 2.050-18.45 3.075c-4.1 1.025-7.175 1.025-8.2 1.025-31.775 5.125-53.3 11.275-63.55 20.5-7.175 5.125-10.25 13.325-10.25 26.65 0 8.2 4.1 24.6 13.325 51.25 30.75 86.1 52.275 142.475 64.575 169.125l276.75-1.025 57.4-140.425 28.7-70.725c2.050-7.175 4.1-13.325 4.1-19.475s-3.075-12.3-8.2-16.4c-5.125-4.1-18.45-9.225-42.025-14.35l-79.95-17.425c-2.050-13.325-3.075-29.725-3.075-48.175l35.875 1.025 123 7.175c23.575 1.025 51.25 1.025 83.025 1.025 39.975 0 78.925-2.050 116.85-5.125 46.125-3.075 85.075-5.125 117.875-5.125 1.025 5.125 1.025 10.25 1.025 16.4 0 7.175-1.025 19.475-4.1 34.85zM542.226 273.744c-6.15 0-16.4 0-32.8 0-15.375 0-39.975 1.025-72.775 1.025s-64.575 1.025-94.3 1.025l104.55 277.775c15.375-32.8 34.85-75.85 56.375-130.175 24.6-60.475 44.075-109.675 56.375-148.625l-17.425-1.025z" />
<glyph unicode="&#xe802;" glyph-name="layers" horiz-adv-x="951" d="M18.45 174.318l457.15-114.8 458.175 114.8v-114.8l-458.175-114.8-457.15 114.8v114.8zM18.45 402.894l457.15-114.8 458.175 114.8v-114.8l-458.175-113.775-457.15 113.775v114.8zM18.45 631.469l457.15 114.8 458.175-114.8v-113.775l-458.175-114.8-457.15 114.8v113.775z" />
<glyph unicode="&#xe803;" glyph-name="linea" d="M940.951 779.069c-48.175 48.175-125.050 48.175-173.225 0-34.85-34.85-44.075-85.075-27.675-129.15l-518.65-518.65c-43.050 16.4-94.3 7.175-129.15-27.675-48.175-47.15-48.175-125.050-1.025-172.2 48.175-48.175 125.050-48.175 173.225 0 34.85 34.85 44.075 85.075 27.675 129.15l518.65 518.65c44.075-16.4 95.325-7.175 130.175 27.675 47.15 47.15 47.15 125.050 0 172.2z" />
<glyph unicode="&#xe806;" glyph-name="poligono" d="M296.225-49.132v0h-24.6l-238.825 414.1 238.825 414.1h477.65l238.825-414.1-238.825-414.1h-453.050zM146.575 364.969l182.45-314.675h363.875l181.425 314.675-181.425 315.7h-363.875l-182.45-315.7z" />
<glyph unicode="&#xe807;" glyph-name="pin" d="M488.925-145.482c-6.15 2.050-12.3 5.125-18.45 8.2v0c-12.3 6.15-23.575 14.35-34.85 23.575v0c-23.575 18.45-49.2 44.075-75.85 73.8v0c-54.325 60.475-112.75 140.425-159.9 222.425v0c-30.75 55.35-57.4 112.75-72.775 167.075v0c-9.225 30.75-14.35 61.5-14.35 91.225v0c0 110.7 45.1 210.125 117.875 282.9v0c71.75 71.75 172.2 116.85 281.875 116.85v0c109.675 0 210.125-45.1 282.9-116.85v0c71.75-72.775 116.85-172.2 116.85-282.9v0c0-36.9-8.2-74.825-20.5-112.75v0c-13.325-38.95-30.75-78.925-51.25-117.875v0c-42.025-77.9-95.325-154.775-146.575-216.275v0c-34.85-42.025-67.65-76.875-97.375-102.5v0c-17.425-14.35-32.8-25.625-50.225-32.8v0c-9.225-4.1-19.475-8.2-33.825-8.2v0 0c-9.225 0-16.4 2.050-23.575 4.1v0zM294.175 660.169c-56.375-56.375-91.225-133.25-91.225-219.35v0c0-21.525 5.125-50.225 15.375-79.95v0c9.225-30.75 23.575-64.575 41-98.4v0c34.85-67.65 82-137.35 128.125-194.75v0c30.75-38.95 60.475-71.75 85.075-94.3v0c14.35-13.325 27.675-23.575 35.875-28.7v0c1.025-1.025 3.075-2.050 4.1-2.050v0c5.125 2.050 12.3 7.175 20.5 14.35v0c18.45 14.35 41 35.875 65.6 63.55v0c49.2 55.35 104.55 131.2 147.6 207.050v0c29.725 50.225 52.275 101.475 64.575 146.575v0c7.175 24.6 11.275 48.175 11.275 66.625v0c0 86.1-34.85 162.975-91.225 219.35v0c-55.35 55.35-133.25 90.2-218.325 90.2v0c-85.075 0-161.95-34.85-218.325-90.2v0zM512.5 205.069c-64.575 0-124.025 26.65-167.075 68.675v0c-43.050 43.050-69.7 102.5-69.7 167.075v0c0 65.6 26.65 125.050 69.7 167.075v0c43.050 43.050 102.5 69.7 167.075 69.7v0-90.2c-39.975 0-76.875-16.4-103.525-43.050v0c-26.65-26.65-42.025-62.525-43.050-103.525v0c1.025-39.975 16.4-75.85 43.050-102.5v0c26.65-26.65 63.55-43.050 103.525-43.050v0c39.975 0 76.875 16.4 103.525 43.050v0c26.65 26.65 43.050 62.525 43.050 102.5v0c0 41-16.4 76.875-43.050 103.525v0c-26.65 26.65-63.55 43.050-103.525 43.050v0 90.2c65.6 0 124.025-26.65 167.075-69.7v0c43.050-42.025 69.7-101.475 69.7-167.075v0c0-64.575-26.65-124.025-69.7-167.075v0c-43.050-42.025-101.475-68.675-167.075-68.675v0c0 0 0 0 0 0v0z" />
<glyph unicode="&#xe819;" glyph-name="vectors" d="M0 32.868c0 13.325 2.050 26.65 8.2 38.95 18.45 33.825 45.1 54.325 84.050 54.325 31.775-1.025 63.55 0 95.325 0 3.075 0 5.125 1.025 7.175 4.1 17.425 28.7 34.85 58.425 52.275 88.15 2.050 3.075 2.050 4.1 0 7.175-18.45 19.475-26.65 42.025-26.65 68.675-1.025 33.825-1.025 68.675 0 103.525 0 25.625 8.2 49.2 25.625 68.675 3.075 2.050 3.075 4.1 1.025 7.175-17.425 29.725-34.85 58.425-52.275 88.15-2.050 3.075-4.1 4.1-7.175 4.1-31.775 0-62.525 0-94.3 0-10.25 0-21.525 2.050-30.75 5.125-29.725 9.225-63.55 43.050-62.525 88.15 1.025 34.85 0 69.7 0 104.55 1.025 11.275 2.050 21.525 5.125 32.8 5.125 16.4 16.4 29.725 29.725 41 14.35 12.3 30.75 19.475 50.225 19.475 41 1.025 82 1.025 124.025 0 35.875 0 67.65-31.775 77.9-58.425 6.15-13.325 6.15-27.675 6.15-42.025 0-3.075 0-5.125 0-8.2h391.55l-73.8-73.8h-317.75c0-3.075 0-7.175 0-10.25 0-28.7-8.2-53.3-27.675-73.8-2.050-2.050-2.050-3.075-1.025-5.125 18.45-30.75 36.9-60.475 54.325-91.225 1.025-1.025 4.1-2.050 6.15-2.050 31.775 0 62.525 0 94.3 0 25.625 0 46.125-8.2 62.525-23.575 8.2-8.2 16.4-18.45 22.55-30.75s8.2-25.625 8.2-38.95c0-29.725-1.025-58.425 0-88.15 0-6.15 0-12.3 0-18.45 1.025-45.1-32.8-78.925-62.525-88.15-9.225-3.075-20.5-4.1-30.75-5.125-31.775 0-62.525 0-94.3 0-3.075 0-5.125-1.025-6.15-3.075-17.425-29.725-35.875-59.45-53.3-89.175-2.050-3.075-2.050-4.1 1.025-7.175 17.425-18.45 25.625-42.025 26.65-67.65 0-5.125 0-10.25 0-15.375h439.725c0 6.15 0 12.3 0 18.45-1.025 42.025 32.8 75.85 61.5 86.1 10.25 3.075 20.5 4.1 30.75 4.1 6.15 0 11.275 0 17.425 0v318.775l73.8 73.8v-392.575c5.125 0 11.275 0 16.4 0 10.25 0 20.5-1.025 30.75-4.1 30.75-11.275 62.525-44.075 61.5-88.15 0-35.875 1.025-70.725 0-106.6 0-11.275-2.050-21.525-5.125-31.775-10.25-29.725-43.050-62.525-88.15-61.5-35.875 1.025-70.725 0-105.575 0-7.175 0-15.375 1.025-22.55 2.050-24.6 5.125-42.025 20.5-56.375 41-11.275 14.35-14.35 30.75-14.35 49.2 0 5.125 0 11.275 0 17.425h-439.725c0-4.1 0-8.2 0-11.275 0-12.3-1.025-24.6-5.125-36.9-10.25-29.725-44.075-62.525-88.15-61.5-35.875 1.025-70.725 0-106.6 0-10.25 0-20.5 2.050-29.725 4.1-31.775 10.25-64.575 45.1-63.55 89.175 1.025 35.875 0 70.725 0 106.6zM220.375 763.694c0 13.325-9.225 21.525-21.525 21.525-17.425 0-34.85 0-52.275 0s-34.85 0-52.275 0c-12.3 0-20.5-9.225-20.5-21.525 0-34.85 0-69.7 0-104.55 0-12.3 8.2-21.525 20.5-21.525 34.85 0 69.7 0 104.55 0 12.3 0 21.525 9.225 21.525 21.525 0 34.85 0 69.7 0 104.55zM293.15 294.244c0-13.325 8.2-21.525 21.525-21.525 33.825 0 68.675 0 102.5 0 14.35 0 22.55 8.2 22.55 21.525 0 33.825 0 68.675 0 102.5 0 14.35-8.2 22.55-21.525 22.55-17.425 0-34.85 0-52.275 0s-34.85 0-52.275 0c-13.325 0-21.525-8.2-21.525-22.55 1.025-33.825 1.025-68.675 1.025-102.5zM805.651-72.707c0-13.325 8.2-21.525 20.5-21.525 34.85 0 69.7 0 104.55 0 13.325 0 21.525 9.225 21.525 21.525 0 17.425 0 34.85 0 52.275s0 34.85 0 52.275c0 12.3-8.2 21.525-21.525 21.525-34.85 0-69.7 0-104.55 0-12.3 0-20.5-9.225-20.5-21.525-1.025-34.85-1.025-69.7 0-104.55zM73.8-72.707c0-13.325 8.2-21.525 20.5-21.525 34.85 0 69.7 0 104.55 0 12.3 0 21.525 8.2 21.525 21.525 0 34.85 0 69.7 0 104.55 0 12.3-9.225 21.525-21.525 21.525-34.85 0-69.7 0-104.55 0-12.3 0-20.5-9.225-20.5-21.525 0-17.425 0-34.85 0-52.275s-1.025-34.85 0-52.275zM897.901 841.594l-42.025-41 111.725-111.725 41 42.025c21.525 21.525 21.525 56.375 0 76.875l-33.825 33.825c-20.5 21.525-55.35 21.525-76.875 0v0zM836.401 781.119l-199.875-199.875c-9.225-9.225-15.375-20.5-18.45-31.775l-30.75-103.525c-2.050-7.175 0-15.375 5.125-20.5s13.325-7.175 20.5-5.125l102.5 30.75c12.3 3.075 23.575 10.25 32.8 18.45l199.875 199.875-111.725 111.725z" />
<glyph unicode="&#xe81b;" glyph-name="profile" d="M1014.751-62.457l-96.35 64.575c-10.25 6.15-23.575 3.075-30.75-7.175-6.15-10.25-4.1-23.575 6.15-30.75l35.875-22.55h-821.026v198.85c22.55-1.025 60.475 0 99.425 11.275 87.125 23.575 142.475 80.975 158.875 166.050 22.55 112.75 82 162.975 130.175 162.975 0 0 1.025 0 1.025 0 51.25 0 93.275-54.325 107.625-140.425 9.225-52.275 13.325-99.425 16.4-140.425 5.125-63.55 9.225-113.775 29.725-150.675 23.575-42.025 66.625-61.5 134.275-61.5 12.3 0 21.525 10.25 21.525 22.55s-9.225 22.55-21.525 22.55c-64.575 0-85.075 19.475-95.325 37.925-16.4 28.7-19.475 74.825-24.6 132.225-3.075 43.050-7.175 90.2-16.4 144.525-22.55 130.175-93.275 177.325-151.7 177.325-37.925 1.025-76.875-18.45-107.625-52.275-31.775-35.875-55.35-86.1-66.625-146.575-13.325-67.65-56.375-111.725-126.075-131.2-34.85-10.25-68.675-11.275-89.175-10.25v578.101l23.575-35.875c4.1-6.15 11.275-9.225 18.45-9.225 4.1 0 8.2 1.025 11.275 3.075 10.25 7.175 13.325 20.5 7.175 30.75l-64.575 96.35c-4.1 6.15-11.275 10.25-18.45 10.25s-14.35-4.1-18.45-10.25l-63.55-96.35c-7.175-10.25-4.1-23.575 6.15-30.75 10.25-6.15 23.575-4.1 30.75 6.15l22.55 35.875v-115.825h-28.7c-12.3 0-21.525-9.225-21.525-21.525s9.225-22.55 21.525-22.55h28.7v-132.225h-28.7c-12.3 0-21.525-9.225-21.525-21.525s9.225-22.55 21.525-22.55h28.7v-132.225h-28.7c-12.3 0-21.525-10.25-21.525-22.55s9.225-21.525 21.525-21.525h28.7v-132.225h-28.7c-12.3 0-21.525-10.25-21.525-22.55s9.225-21.525 21.525-21.525h28.7v-132.225h-28.7c-12.3 0-21.525-10.25-21.525-22.55s9.225-22.55 21.525-22.55h28.7v-28.7c0-12.3 10.25-22.55 22.55-22.55s22.55 10.25 22.55 22.55v28.7h132.225v-28.7c0-12.3 9.225-22.55 21.525-22.55s22.55 10.25 22.55 22.55v28.7h132.225v-28.7c0-12.3 10.25-22.55 21.525-22.55s22.55 10.25 22.55 22.55v28.7h132.225v-28.7c0-12.3 10.25-22.55 22.55-22.55s21.525 10.25 21.525 22.55v28.7h132.225v-28.7c0-12.3 10.25-22.55 22.55-22.55s21.525 10.25 21.525 22.55v28.7h115.825l-35.875-22.55c-10.25-7.175-12.3-20.5-6.15-30.75 4.1-7.175 11.275-10.25 18.45-10.25 4.1 0 8.2 1.025 12.3 4.1l96.35 63.55c6.15 4.1 10.25 11.275 10.25 18.45s-4.1 14.35-10.25 18.45z" />
<glyph unicode="&#xe81c;" glyph-name="hole" horiz-adv-x="1367" d="M520.7 851.844c-125.050-10.25-210.125-39.975-302.375-105.575-132.225-93.275-209.1-242.925-209.1-403.85 0-171.175 87.125-326.975 235.75-420.25 25.625-17.425 76.875-42.025 105.575-51.25 59.45-21.525 112.75-29.725 176.3-29.725 53.3 0 86.1 4.1 131.2 17.425 33.825 10.25 83.025 34.85 110.7 55.35 48.175 35.875 55.35 41 79.95 52.275 35.875 18.45 56.375 23.575 98.4 23.575 19.475-1.025 44.075-2.050 58.425-4.1 38.95-6.15 86.1-8.2 111.725-3.075 37.925 7.175 73.8 22.55 110.7 48.175 121.975 87.125 166.050 244.975 105.575 382.325-18.45 42.025-48.175 80.975-102.5 134.275-167.075 162.975-400.775 279.825-604.751 301.35-23.575 3.075-90.2 5.125-105.575 3.075zM615.001 797.519c180.4-18.45 384.375-111.725 542.226-249.075 48.175-42.025 90.2-88.15 111.725-120.95 34.85-53.3 49.2-121.975 38.95-183.475-7.175-37.925-25.625-84.050-46.125-111.725-14.35-19.475-45.1-48.175-65.6-62.525-56.375-38.95-94.3-46.125-176.3-35.875-89.175 11.275-138.375 5.125-195.775-23.575-23.575-11.275-37.925-20.5-71.75-46.125-45.1-34.85-93.275-55.35-152.725-66.625-34.85-6.15-115.825-7.175-148.625-1.025-84.050 16.4-149.65 43.050-212.175 89.175-154.775 113.775-217.3 313.65-157.85 497.125 36.9 112.75 119.925 206.025 231.65 262.4 59.45 29.725 107.625 44.075 184.5 52.275 15.375 2.050 96.35 2.050 117.875 0zM348.5 565.869c-53.3-9.225-99.425-34.85-135.3-73.8-32.8-33.825-52.275-72.775-58.425-118.9-5.125-29.725-5.125-34.85 0-64.575 13.325-87.125 75.85-157.85 164-183.475 66.625-19.475 130.175-9.225 180.4 27.675 34.85 26.65 49.2 30.75 86.1 27.675 63.55-4.1 80.975-1.025 110.7 18.45 62.525 42.025 82 126.075 42.025 189.625-16.4 27.675-63.55 71.75-108.65 101.475-52.275 35.875-110.7 61.5-167.075 72.775-28.7 7.175-88.15 8.2-113.775 3.075zM454.075 540.244c71.75-13.325 153.75-55.35 214.225-107.625 25.625-22.55 48.175-49.2 56.375-64.575 15.375-32.8 16.4-69.7 1.025-102.5-9.225-18.45-20.5-31.775-36.9-44.075-24.6-18.45-29.725-20.5-64.575-19.475-91.225 3.075-88.15 4.1-147.6-36.9-44.075-30.75-113.775-34.85-174.25-10.25-49.2 19.475-93.275 61.5-112.75 109.675-15.375 36.9-19.475 85.075-9.225 124.025 21.525 84.050 91.225 143.5 183.475 155.8 21.525 3.075 63.55 1.025 90.2-4.1z" />
<glyph unicode="&#xe900;" glyph-name="json-file" d="M145.4 862c-9.8-3-19-11.6-24.8-23.4l-5.6-11.6-0.6-474.6c-0.4-345.6 0.2-477 1.8-483 1.4-5.4 5-11 10.2-15.8 16-14.6-14-13.6 385.6-13.6s369.6-1 385.6 13.6c5.2 4.8 8.8 10.4 10.2 15.8 3.6 13 2.2 761.4-1.4 769.6-4 9-211.6 216.2-221.6 221-8 4-13.2 4-271 3.8-144.6 0-265.4-1-268.4-1.8zM662 725v-103.2l-9 5.4c-5.8 3.4-13.2 5.6-20.8 6.2-10.8 1-12.4 0.6-17-4-6-6-7-16-2.2-22.8 1.8-2.4 7.8-5.6 14-7.6 6.8-1.8 12-4.8 13.8-7.6 2.2-3.4 3-15.2 3.6-50.4 0.8-44.2 1-46.4 6-57.2 2.8-6 8-14.4 11.4-18.4l6.6-7.4-7.2-8.4c-13.8-16-15.8-24.8-17-76.8-1.4-52.4-1.6-53.4-16.6-55.8-11-2-17.6-8.8-17.6-18 0-16.4 18.2-22 39-12.2 11.6 5.4 18.8 12.6 25.4 25.2 4.4 8.6 4.6 11.6 5.6 57 0.6 32.2 1.8 49.4 3.4 52.2 2.2 3.8 15.6 16.8 17.4 16.8 0.4 0 5.4 1 11.4 2 13.6 2.6 19.8 8.2 19.8 18 0 9.6-6.2 15.4-19.6 18-5.8 1-12.2 2.8-14.2 3.8-2.8 1.6-12.8 11.6-16.6 16.8 0 0.2-0.8 22.4-1.4 49.4-1.2 48.8-1.2 49-6.8 58.8-3 5.4-5.2 10-4.8 10.4s46.6 1 103 1.2l102.4 0.6v-441h-724v320.8c0 203.8 0.8 322.8 2 326l2 5.2h508v-103zM773 726l74-74h-149v74c0 40.8 0.2 74 0.6 74 0.2 0 33.8-33.2 74.4-74zM874 10.4c0-98.2-0.6-130.2-2.4-132-3.4-3.4-715.8-3.4-719.2 0-1.8 1.8-2.4 33.8-2.4 132v129.6h724v-129.6zM361.4 631c-12.2-4.6-22.8-14.2-28.8-26.6-5.6-11.2-5.6-11.8-6.6-58.4-1-42.4-1.4-47.6-5-53.6-5.2-8.6-14-14-27.2-16.4-26.8-5-26.6-31 0.2-36 13.8-2.6 23-8.8 28-19.2 3.6-7.2 4-12.2 4-47.4 0-21.6 1-43.8 2.2-49.4 4.8-22.4 23.2-39.4 45.2-41.4 10.4-1 12.4-0.6 17.4 3.8 4.2 3.6 5.6 6.6 5.6 12.2 0 10-4.4 14.6-17.6 18.4-16.2 4.6-16.8 6.8-16.8 54.4 0 51.6-2.6 62.6-19.8 81.2l-5 5.4 6 6.6c16.2 17.2 18.8 28.6 18.8 80 0 44.2 1.2 49.4 12.2 53.2 3.6 1.2 8 2.2 9.8 2.2 4.2 0 11.6 7.8 12 13 0.8 8-0.2 11.2-5 16-5.6 5.8-17.2 6.6-29.6 2zM493 543.6c-8-4.4-13-10.4-15.2-18.2-4-15.2 9-31.4 25.2-31.4 9.6 0 19.8 6.2 23.8 14.8 4.2 9 4 14.2-1.2 23.4-6.6 11.8-22.2 17.2-32.6 11.4zM491 416.8c-4.8-5.2-5-6.2-5-38 0-31.4 0.2-32.8 4.8-38 6.2-7.4 16.8-7.6 24.2-0.8 5 4.6 5 5 5 38.4 0 33.2 0 33.8-5 38.6-6.8 7-17.6 6.8-24-0.2zM288 19.8v-72.2l-5.6-5.6c-10-9.8-25-9.6-57.4 0.8-3.2 1-5.2-0.4-9.8-7.8-3-5-5.4-9.4-5-9.8 3.2-2.8 19.2-9.4 29.2-12 24.2-6.2 51.6-2.8 64.8 8.2 13.4 11.4 13.8 13.2 13.8 96.2v74.4h-30v-72.2zM405 90.8c-17.2-4.4-23.4-7.6-31.8-17-10-11.2-14.4-25-12.4-38.2 2.8-17.4 12.8-28.2 40.4-43.6 23.4-12.8 30.2-18.6 32.4-26.6 4-14.8-4.8-28.6-19.8-31.6-9.6-1.8-28.4 0.8-39.6 5.4-9.4 4-9.8 3.8-12.2-5.4-3-11-1.8-13.2 9.4-18.2 14.6-6.4 42.2-7.4 56.8-1.8 28 10.6 41.6 40.8 29.6 65.4-5.6 11.8-14.2 18.8-37.6 30.8-22.8 11.6-32.2 20.6-32.2 30.6 0 8.4 6.2 18.4 14 22.4 7.2 3.8 29.4 4.6 35.4 1.2 6.2-3.2 6-3.2 11.8 8 5.8 11.4 5.4 12.2-7.2 15.8-8.8 2.4-31.8 4-37 2.8zM549.6 90c-28-4.8-51-29.4-57.6-60.8-3.2-15.2-3-44.4 0.2-57.8 6.2-26.2 19.2-44.4 39.2-54.6 10.6-5.2 13.4-5.8 31.6-5.8s21 0.6 31.8 6c27.4 13.8 41.4 42 41.4 83 0 38.2-12.4 66-36.2 81-13.4 8.4-33.4 12-50.4 9zM582 62.2c9.4-4.6 19.2-19.6 22.2-33.8 3.6-16.2 3.2-44.8-1.2-59.8-4-14.2-14.2-27.6-24.4-31.8-9.8-4.2-25.8-3.6-34.4 1.4-19.4 11-29.8 44.6-24.4 79.8 6.2 40.6 32.6 59.4 62.2 44.2zM678-1v-89.2l29 1.2 1 59.6 1 59.8 34-59.8 34-59.6 29-1.2v178.2h-28v-60.4c-0.2-52.6-0.6-60.2-3-56.8-1.4 2-17.4 29.2-35.2 60.4l-32.2 56.8h-29.6v-89z" />
<glyph unicode="&#xe901;" glyph-name="1046" d="M0 480v-384h213.333c211.2 0 213.333 0 213.333-51.2 0-83.2 40.533-87.467 119.467-10.667 38.4 38.4 76.8 66.133 81.067 59.733 4.267-4.267 34.133-64 64-132.267 27.733-66.133 59.733-121.6 66.133-121.6 19.2 0 181.333 85.333 181.333 96 0 4.267-23.467 61.867-51.2 125.867l-51.2 117.333 177.067 12.8 6.4 337.067 6.4 334.933h-1026.133v-384zM981.333 550.4v-273.067l-253.867 253.867c-145.067 145.067-264.533 247.467-277.333 238.933-14.933-10.667-23.467-121.6-23.467-324.267v-307.2h-384v682.667h938.667v-270.933zM817.067 270.933c-93.867-10.667-98.133-32-40.533-164.267 61.867-136.533 66.133-160 34.133-160-12.8 0-51.2 61.867-85.333 138.667s-68.267 138.667-78.933 138.667c-8.533 0-42.667-25.6-74.667-57.6l-59.733-57.6v531.2l181.333-181.333c177.067-174.933 181.333-181.333 123.733-187.733z" />
<glyph unicode="&#xe902;" glyph-name="design-tool" horiz-adv-x="1026" d="M5.811 856.185l-5.811-5.811v-498.774c0-493.564 0-498.574 4.008-505.187l4.008-6.413h1009.371l3.807 4.208c2.605 2.805 3.807 7.214 3.807 13.025v8.817l-995.945 995.945h-8.617c-7.014 0-9.819-1.202-14.629-5.811zM178.95 611.106c-12.424-12.424-23.245-24.849-24.247-27.854-4.809-12.424 4.609-25.85 18.236-25.85 7.615 0 9.418 1.403 32.263 24.047l24.448 24.047 42.483-42.683 42.483-42.483-21.241-21.041c-26.852-26.852-30.059-32.664-24.648-44.888 3.006-6.413 14.428-12.023 21.442-10.22 3.206 0.601 15.43 11.222 29.057 24.648l23.446 23.446 84.966-84.966-23.245-23.847c-14.027-14.228-23.646-25.65-24.047-28.656-2.004-14.027 6.212-23.847 19.839-23.847 8.617 0 9.619 0.601 32.864 23.446l24.047 23.446 83.764-83.764-22.845-23.446c-12.625-12.825-23.446-25.65-24.247-28.656-3.607-14.829 9.819-28.055 24.648-24.247 3.206 0.802 15.23 11.022 28.656 24.247l23.245 22.845 41.481-41.681c22.845-22.845 41.481-42.283 41.481-43.485 0-1.002-10.42-12.224-23.045-25.049-21.642-22.043-23.045-23.847-23.045-31.461 0-13.025 10.42-21.241 24.047-18.837 3.006 0.601 14.629 10.22 28.656 24.047l23.646 23.045 84.966-84.966-23.446-23.446c-13.426-13.627-24.047-25.85-24.648-29.057-1.804-7.014 3.807-18.436 10.22-21.442 12.224-5.411 15.631-3.607 41.681 21.843l24.448 23.847 160.113-160.113h-916.791v916.791l161.315-161.315-22.444-22.444zM178.148 445.382l-5.811-5.811v-207.205c0-201.393 0.2-207.205 4.008-213.417 2.605-4.208 6.212-7.014 11.422-8.416 10.22-3.006 401.384-3.006 411.604-0.2 10.42 2.805 14.829 8.617 14.829 19.238v8.817l-412.806 412.806h-8.617c-7.014 0-9.819-1.202-14.629-5.811zM379.742 216.736l166.325-166.325h-333.652v166.325c0 91.579 0.2 166.325 0.601 166.325 0.2 0 75.347-74.746 166.726-166.325zM247.684 855.784c-3.206-3.807-5.21-8.617-5.21-12.424 0-3.607 13.025-45.689 29.057-93.583l29.057-87.17 288.163-287.762c319.023-318.823 293.573-295.377 321.027-295.377 22.644 0.2 31.461 5.811 70.337 44.687 40.078 40.078 44.888 47.693 44.687 70.538 0 28.055 22.043 4.208-295.978 322.229l-286.96 286.96-87.17 29.057c-48.895 16.232-90.377 29.057-94.384 29.057-5.811 0-8.617-1.403-12.625-6.212zM355.094 790.657c31.862-10.621 57.713-19.839 57.713-20.44 0-2.405-77.952-79.355-79.155-78.153s-39.076 113.822-39.076 116.227c0 1.002 0.601 1.603 1.403 1.603 1.002 0 27.454-8.617 59.115-19.238zM648.867 540.769l202.796-202.796-85.166-85.166-406.795 406.795 42.082 42.082c23.045 23.045 42.483 42.082 43.084 42.082s92.38-91.378 203.998-202.996zM894.347 295.289l13.426-13.426-85.166-85.166-28.055 28.055 42.082 42.082c23.045 23.245 42.483 42.082 43.084 42.082s7.214-6.012 14.629-13.627zM983.321 203.911c5.811-11.222 3.006-15.831-31.061-49.697-17.234-17.234-33.465-32.263-36.070-33.666-9.418-4.609-16.232-0.601-41.080 23.646l-23.446 23.245 42.483 42.683 42.683 42.683 21.642-21.642c12.023-11.823 23.045-24.047 24.849-27.253zM547.87 566.419c-10.22-5.21-13.426-16.232-8.016-26.652 1.603-3.006 23.045-25.45 47.693-49.897 44.888-44.687 46.29-45.89 58.715-44.888 6.813 0.601 15.029 11.422 15.029 19.638 0 7.014-2.605 10.22-47.493 55.108-51.1 51.1-53.705 52.903-65.929 46.691zM685.138 421.335c-15.23-15.43 1.002-39.878 20.841-31.461 8.416 3.407 11.422 8.216 11.422 18.236 0 10.22-8.817 19.037-19.037 19.037-5.411 0-8.817-1.603-13.226-5.811z" />
<glyph unicode="&#xe903;" glyph-name="pin-located" d="M343.375-137.282c-5.125 1.025-10.25 3.075-14.35 6.15v0c-9.225 4.1-17.425 10.25-26.65 17.425v0c-17.425 14.35-36.9 33.825-57.4 56.375v0c-41 45.1-85.075 105.575-119.925 168.1v0c-23.575 42.025-44.075 84.050-55.35 125.050v0c-7.175 23.575-11.275 47.15-11.275 69.7v0c0 83.025 34.85 158.875 89.175 213.2v0c54.325 55.35 130.175 89.175 213.2 89.175v0c83.025 0 158.875-33.825 213.2-89.175v0c54.325-54.325 89.175-130.175 89.175-213.2v0c-1.025-27.675-6.15-56.375-16.4-86.1v0c-9.225-28.7-22.55-58.425-37.925-88.15v0c-31.775-59.45-71.75-116.85-110.7-164v0c-26.65-31.775-51.25-57.4-73.8-76.875v0c-13.325-10.25-24.6-19.475-37.925-25.625v0c-7.175-3.075-15.375-5.125-25.625-5.125v0 0c-7.175 0-12.3 1.025-17.425 3.075v0zM195.775 470.544c-43.050-42.025-68.675-100.45-68.675-165.025v0c0-16.4 4.1-37.925 11.275-60.475v0c7.175-23.575 18.45-49.2 30.75-74.825v0c26.65-50.225 62.525-103.525 97.375-146.575v0c22.55-28.7 45.1-54.325 64.575-71.75v0c10.25-10.25 19.475-17.425 26.65-21.525v0c1.025 0 2.050-1.025 3.075-2.050v0c3.075 2.050 9.225 6.15 15.375 11.275v0c13.325 11.275 30.75 27.675 49.2 48.175v0c37.925 42.025 79.95 99.425 112.75 156.825v0c21.525 37.925 38.95 76.875 48.175 110.7v0c5.125 18.45 8.2 35.875 8.2 50.225v0c0 64.575-26.65 123-68.675 165.025v0c-42.025 43.050-100.45 68.675-165.025 68.675v0c-64.575 0-123-25.625-165.025-68.675v0zM360.8 127.168c-49.2 0-94.3 20.5-126.075 52.275v0c-32.8 31.775-52.275 76.875-52.275 126.075v0c0 49.2 19.475 94.3 52.275 126.075v0c31.775 32.8 76.875 52.275 126.075 52.275v0-67.65c-30.75 0-58.425-12.3-77.9-32.8v0c-20.5-19.475-32.8-47.15-32.8-77.9v0c0-30.75 12.3-57.4 32.8-77.9v0c19.475-20.5 47.15-32.8 77.9-32.8v0c30.75 0 57.4 12.3 77.9 32.8v0c20.5 20.5 32.8 47.15 32.8 77.9v0c0 30.75-12.3 58.425-32.8 77.9v0c-20.5 20.5-47.15 32.8-77.9 32.8v0 67.65c49.2 0 94.3-19.475 126.075-52.275v0c32.8-31.775 52.275-76.875 52.275-126.075v0c0-49.2-19.475-94.3-52.275-126.075v0c-31.775-31.775-76.875-52.275-126.075-52.275v0c0 0 0 0 0 0zM553.501 781.119c9.225 7.175 18.45 11.275 25.625 12.3 8.2 1.025 15.375 0 20.5-2.050 6.15-2.050 12.3-5.125 17.425-9.225l45.1-56.375 54.325 55.35c6.15 6.15 13.325 9.225 22.55 9.225 5.125 0 10.25-1.025 14.35-3.075s8.2-3.075 12.3-4.1c3.075-2.050 7.175-5.125 11.275-7.175l-86.1-87.125 34.85-44.075c2.050-3.075 5.125-5.125 7.175-8.2 3.075-3.075 5.125-5.125 8.2-6.15s6.15-1.025 10.25 0 7.175 3.075 12.3 7.175c3.075-4.1 5.125-10.25 5.125-16.4 1.025-5.125 0-10.25-3.075-17.425-2.050-6.15-7.175-13.325-14.35-20.5-7.175-6.15-13.325-10.25-19.475-11.275s-12.3-2.050-16.4-1.025c-6.15 1.025-11.275 4.1-16.4 7.175-2.050 1.025-4.1 3.075-6.15 4.1-2.050 2.050-5.125 4.1-7.175 6.15-3.075 3.075-5.125 6.15-8.2 10.25-2.050 2.050-5.125 7.175-12.3 15.375s-13.325 16.4-22.55 27.675l-55.35-55.35c-5.125-6.15-12.3-8.2-21.525-8.2-4.1 0-7.175 0-12.3 2.050-4.1 1.025-8.2 3.075-12.3 4.1-5.125 2.050-9.225 5.125-13.325 7.175l85.075 87.125c-4.1 5.125-8.2 10.25-11.275 15.375s-7.175 9.225-10.25 12.3c-3.075 4.1-6.15 8.2-9.225 12.3-7.175 9.225-14.35 14.35-19.475 15.375-6.15 1.025-13.325-2.050-21.525-8.2-3.075 2.050-4.1 5.125-5.125 9.225-1.025 5.125-2.050 10.25-1.025 15.375s3.075 11.275 6.15 16.4 6.15 10.25 12.3 14.35zM802.576 788.294c6.15 2.050 11.275 4.1 15.375 5.125s9.225 1.025 13.325 1.025c4.1 0 7.175-1.025 10.25-2.050s6.15-2.050 8.2-3.075c6.15-4.1 10.25-8.2 14.35-14.35l9.225-17.425h1.025l37.925-76.875 42.025 96.35c4.1 5.125 7.175 8.2 12.3 10.25s9.225 4.1 14.35 4.1c6.15 0 11.275 0 16.4-2.050s11.275-3.075 16.4-5.125l-120.95-267.525c-2.050-6.15-5.125-11.275-10.25-14.35-3.075-3.075-8.2-5.125-13.325-6.15-6.15-1.025-13.325 0-21.525 4.1-8.2 3.075-14.35 7.175-17.425 12.3s-5.125 9.225-6.15 14.35c0 5.125 0 10.25 2.050 16.4 8.2-3.075 14.35-4.1 18.45-2.050s7.175 7.175 11.275 15.375l21.525 47.15c-2.050 5.125-5.125 10.25-8.2 15.375s-5.125 12.3-8.2 18.45c-3.075 6.15-7.175 12.3-10.25 19.475-3.075 6.15-6.15 12.3-9.225 19.475-7.175 14.35-15.375 29.725-23.575 45.1-5.125 10.25-10.25 16.4-15.375 19.475s-12.3 1.025-22.55-4.1c-1.025 2.050-2.050 5.125-2.050 10.25s1.025 9.225 3.075 14.35c1.025 5.125 4.1 10.25 7.175 14.35 4.1 5.125 9.225 9.225 14.35 12.3z" />
<glyph unicode="&#xe905;" glyph-name="cancelar" d="M704.176 492.069c0 11.275-5.125 22.55-13.325 31.775-9.225 8.2-20.5 13.325-31.775 13.325-13.325 1.025-26.65-4.1-36.9-13.325l-109.675-110.7-109.675 110.7c-10.25 9.225-23.575 14.35-35.875 13.325-12.3 0-23.575-5.125-32.8-13.325-8.2-9.225-13.325-20.5-13.325-31.775-1.025-13.325 4.1-26.65 13.325-35.875l110.7-110.7-110.7-109.675c-9.225-10.25-14.35-23.575-13.325-35.875 0-12.3 5.125-23.575 13.325-32.8 9.225-8.2 20.5-13.325 32.8-13.325 12.3-1.025 25.625 4.1 35.875 13.325l109.675 110.7 110.7-110.7c9.225-9.225 22.55-14.35 35.875-13.325 11.275 0 22.55 5.125 31.775 13.325 8.2 9.225 13.325 20.5 13.325 32.8 1.025 12.3-4.1 25.625-13.325 35.875l-110.7 109.675 110.7 109.675c9.225 10.25 14.35 23.575 13.325 36.9zM512.5 857.994c-282.9 0-512.5-229.6-512.5-512.5s229.6-512.5 512.5-512.5c282.9 0 512.5 229.6 512.5 512.5s-229.6 512.5-512.5 512.5zM512.5-70.657c-229.6 0-416.15 186.55-416.15 416.15s186.55 416.15 416.15 416.15 416.15-186.55 416.15-416.15c0-229.6-186.55-416.15-416.15-416.15z" />
<glyph unicode="&#xe908;" glyph-name="aceptar" d="M512.5 857.994c-282.9 0-512.5-229.6-512.5-512.5s229.6-512.5 512.5-512.5 512.5 229.6 512.5 512.5-229.6 512.5-512.5 512.5zM512.5-70.657c-229.6 0-416.15 186.55-416.15 416.15s186.55 416.15 416.15 416.15 416.15-186.55 416.15-416.15-186.55-416.15-416.15-416.15zM722.626 505.394c-13.325 0-25.625-4.1-35.875-13.325l-222.425-222.425-126.075 126.075c-10.25 9.225-22.55 14.35-35.875 13.325-11.275 0-23.575-5.125-31.775-13.325-9.225-9.225-13.325-20.5-14.35-31.775 0-13.325 4.1-26.65 14.35-35.875l159.9-160.925c9.225-9.225 21.525-13.325 33.825-13.325s24.6 4.1 33.825 13.325l256.25 256.25c10.25 10.25 14.35 23.575 14.35 35.875-1.025 12.3-5.125 23.575-14.35 32.8-8.2 8.2-20.5 12.3-31.775 13.325z" />
<glyph unicode="&#xe90b;" glyph-name="radio-vacio" d="M512.5 857.994c-282.9 0-512.5-229.6-512.5-512.5s229.6-512.5 512.5-512.5c282.9 0 512.5 229.6 512.5 512.5s-229.6 512.5-512.5 512.5zM512.5-70.657c-229.6 0-416.15 186.55-416.15 416.15s186.55 416.15 416.15 416.15 416.15-186.55 416.15-416.15-186.55-416.15-416.15-416.15z" />
<glyph unicode="&#xe90c;" glyph-name="radio-relleno" d="M512.5 857.994c-282.9 0-512.5-229.6-512.5-512.5s229.6-512.5 512.5-512.5c282.9 0 512.5 229.6 512.5 512.5s-229.6 512.5-512.5 512.5zM512.5-70.657c-229.6 0-416.15 186.55-416.15 416.15s186.55 416.15 416.15 416.15 416.15-186.55 416.15-416.15-186.55-416.15-416.15-416.15zM765.676 345.494c0-139.4-113.775-253.175-253.175-253.175s-253.175 113.775-253.175 253.175c0 139.4 113.775 253.175 253.175 253.175s253.175-113.775 253.175-253.175z" />
<glyph unicode="&#xe90e;" glyph-name="descargar" d="M928.651 267.594c30.75 0 54.325-24.6 54.325-54.325v-294.175c0-29.725-23.575-54.325-54.325-54.325h-836.401c-29.725 0-56.375 24.6-56.375 54.325v294.175c0 29.725 26.65 54.325 56.375 54.325s54.325-24.6 54.325-54.325v-237.8h728.776v237.8c0 29.725 23.575 54.325 53.3 54.325zM472.525 145.618l-220.375 220.375c-21.525 21.525-21.525 53.3 0 75.85s54.325 21.525 75.85 0l128.125-126.075v468.425c0 29.725 24.6 54.325 54.325 54.325s54.325-24.6 54.325-54.325v-468.425l126.075 126.075c21.525 21.525 56.375 21.525 77.9 0s22.55-54.325 0-75.85l-220.375-220.375c-10.25-10.25-23.575-16.4-37.925-16.4s-27.675 6.15-37.925 16.4z" />
<glyph unicode="&#xe90f;" glyph-name="editar" d="M1013.726 581.244l-265.475 265.475c-8.2 7.175-17.425 11.275-27.675 11.275s-19.475-4.1-26.65-11.275l-693.926-692.901v-320.825h320.825l692.901 693.926c7.175 7.175 11.275 17.425 11.275 26.65 0 10.25-4.1 19.475-11.275 27.675zM96.35-70.657v155.8l155.8-155.8h-155.8zM338.25-21.457l-191.675 192.7 443.825 444.85 192.7-192.7-444.85-444.85zM850.751 492.069l-191.675 191.675 61.5 62.525 192.7-192.7-62.525-61.5z" />
<glyph unicode="&#xe910;" glyph-name="editar2" d="M913.276 377.269c-26.65 0-48.175-21.525-48.175-48.175v-399.75h-768.751v768.751h399.75c26.65 0 48.175 21.525 48.175 48.175s-21.525 48.175-48.175 48.175h-431.525c-35.875 0-64.575-28.7-64.575-64.575v-833.326c0-34.85 28.7-63.55 64.575-63.55h832.301c35.875 0 64.575 28.7 64.575 63.55v432.55c0 26.65-21.525 48.175-48.175 48.175zM1013.726 709.369l-137.35 137.35c-8.2 7.175-17.425 11.275-27.675 11.275s-19.475-4.1-26.65-11.275l-534.026-533.001v-192.7h192.7l533.001 534.026c7.175 7.175 11.275 17.425 11.275 26.65 0 10.25-4.1 19.475-11.275 27.675zM448.95 217.369h-64.575v64.575l464.325 464.325 64.575-64.575-464.325-464.325z" />
<glyph unicode="&#xe91c;" glyph-name="estilo" d="M923.526 857.994q39.975 0 70.725-26.65t29.725-66.625q0-35.875-25.625-86.1-189.625-359.775-266.5-430.5-55.35-52.275-124.025-52.275-72.775 0-124.025 53.3t-52.275 126.075q0 72.775 53.3 120.95l364.9 331.075q33.825 30.75 73.8 30.75zM403.85 266.569q22.55-43.050 60.475-74.825t86.1-43.050l1.025-41q2.050-120.95-73.8-197.825t-199.875-76.875q-69.7 0-124.025 26.65t-87.125 72.775-50.225 104.55-16.4 126.075q4.1-3.075 23.575-17.425t35.875-25.625 32.8-20.5 26.65-9.225q23.575 0 31.775 20.5 14.35 37.925 32.8 64.575t39.975 43.050 50.225 27.675 58.425 14.35 71.75 6.15z" />
<glyph unicode="&#xe921;" glyph-name="mover" d="M972.726 379.319l-145.55 146.575c-18.45 17.425-44.075 17.425-60.475 0-17.425-18.45-17.425-44.075 0-62.525l69.7-71.75h-281.875v288.025l69.7-69.7c8.2-8.2 20.5-12.3 32.8-12.3s21.525 4.1 29.725 12.3c18.45 17.425 18.45 44.075 0 61.5l-144.525 144.525c-7.175 8.2-19.475 14.35-31.775 14.35s-21.525-6.15-29.725-14.35l-146.575-144.525c-17.425-17.425-17.425-44.075 0-61.5s46.125-18.45 62.525 0l69.7 69.7v-288.025h-281.875l69.7 71.75c18.45 18.45 18.45 44.075 0 62.525s-44.075 17.425-61.5 0l-144.525-146.575c-8.2-8.2-14.35-17.425-14.35-29.725s6.15-23.575 14.35-31.775l144.525-146.575c7.175-8.2 19.475-12.3 31.775-12.3s21.525 6.15 29.725 14.35c18.45 18.45 18.45 42.025 0 60.475l-69.7 71.75h281.875v-281.875l-69.7 69.7c-18.45 18.45-44.075 16.4-62.525 0-17.425-18.45-17.425-46.125 0-62.525l146.575-143.5c8.2-8.2 17.425-14.35 29.725-14.35s24.6 6.15 31.775 14.35l144.525 143.5c18.45 18.45 18.45 46.125 0 62.525-18.45 18.45-46.125 18.45-62.525 0l-69.7-69.7v281.875h281.875l-69.7-71.75c-17.425-18.45-17.425-42.025 0-60.475 8.2-8.2 18.45-14.35 29.725-14.35s22.55 4.1 30.75 12.3l145.55 146.575c8.2 8.2 12.3 19.475 12.3 31.775s-4.1 21.525-12.3 29.725z" />
<glyph unicode="&#xe931;" glyph-name="seleccionar" d="M131.2 264.519c0 24.6 10.25 49.2 30.75 66.625 35.875 32.8 92.25 28.7 125.050-7.175l31.775-35.875v401.8c0 49.2 39.975 89.175 89.175 89.175s89.175-39.975 89.175-89.175v-208.075c12.3 7.175 28.7 12.3 45.1 12.3 37.925 0 69.7-23.575 83.025-56.375 13.325 8.2 29.725 13.325 47.15 13.325 44.075 0 79.95-30.75 88.15-71.75 12.3 7.175 27.675 11.275 44.075 11.275 49.2 0 89.175-39.975 89.175-89.175v-217.3c0-95.325-86.1-172.2-191.675-172.2h-190.65c-57.4 0-124.025 36.9-162.975 74.825l-194.75 218.325c-14.35 17.425-22.55 37.925-22.55 59.45zM52.275 264.519v0c0-41 15.375-80.975 42.025-111.725l194.75-218.325c1.025-2.050 2.050-3.075 4.1-4.1 25.625-25.625 59.45-49.2 95.325-66.625 42.025-20.5 84.050-30.75 123-30.75h190.65c70.725 0 137.35 24.6 188.6 70.725 53.3 47.15 82 111.725 82 180.4v217.3c0 93.275-75.85 169.125-168.1 169.125-1.025 0-2.050 0-3.075 0-30.75 36.9-77.9 60.475-129.15 60.475-6.15 0-11.275-1.025-17.425-1.025-5.125 4.1-11.275 9.225-16.4 13.325-19.475 13.325-39.975 21.525-62.525 26.65v119.925c0 92.25-75.85 168.1-168.1 168.1-93.275 0-169.125-75.85-169.125-168.1v-258.3c-2.050 1.025-5.125 1.025-8.2 1.025-45.1 3.075-88.15-12.3-121.975-42.025-35.875-31.775-56.375-77.9-56.375-126.075v0 0z" />
<glyph unicode="&#xe935;" glyph-name="mas" d="M545.301 584.319c-9.225 8.2-20.5 13.325-32.8 13.325s-23.575-5.125-32.8-13.325c-9.225-8.2-15.375-20.5-15.375-34.85v-155.8h-155.8c-13.325 0-25.625-6.15-34.85-15.375-8.2-9.225-13.325-20.5-13.325-32.8s5.125-23.575 13.325-31.775c9.225-10.25 21.525-16.4 34.85-16.4h155.8v-155.8c0-13.325 6.15-25.625 15.375-34.85 9.225-8.2 20.5-13.325 32.8-13.325s23.575 5.125 32.8 13.325c9.225 9.225 15.375 21.525 15.375 34.85v155.8h155.8c14.35 0 26.65 6.15 34.85 15.375s13.325 20.5 13.325 32.8c0 12.3-5.125 23.575-13.325 32.8s-20.5 15.375-34.85 15.375h-155.8v155.8c0 14.35-6.15 26.65-15.375 34.85zM149.65 708.344c-199.875-200.9-199.875-524.801 0-725.701s524.801-199.875 725.701 0 199.875 524.801 0 725.701c-200.9 199.875-524.801 199.875-725.701 0zM806.676 51.318c-161.95-162.975-426.4-162.975-588.351 0-162.975 161.95-162.975 426.4 0 588.351s426.4 162.975 588.351 0c162.975-161.95 162.975-426.4 0-588.351z" />
<glyph unicode="&#xe936;" glyph-name="medir-area" d="M986.051 216.344h-941.976v-353.625h941.976v353.625zM102.5-77.832v234.725h88.15v-116.85h59.45v116.85h58.425v-58.425h59.45v58.425h58.425v-116.85h59.45v116.85h58.425v-58.425h59.45v58.425h58.425v-116.85h59.45v116.85h58.425v-58.425h58.425v58.425h89.175v-234.725h-825.126zM396.675 320.894v0h-24.6l-138.375 239.85 138.375 239.85h276.75l139.4-239.85-139.4-239.85h-252.15zM600.651 404.944l90.2 155.8-90.2 155.8h-180.4l-89.175-155.8 89.175-155.8h180.4z" />
<glyph unicode="&#xe938;" glyph-name="analisis" d="M196.8 850.819c-78.925-17.425-134.275-85.075-135.3-164 0-18.45 1.025-24.6 5.125-38.95 11.275-33.825 33.825-73.8 67.65-117.875l19.475-27.675-13.325-13.325c-47.15-49.2-79.95-107.625-97.375-172.2-15.375-58.425-15.375-129.15-1.025-188.6 34.85-137.35 144.525-247.025 280.85-279.825 104.55-25.625 214.225-7.175 304.425 52.275l21.525 14.35 8.2-2.050c8.2-2.050 10.25-2.050 20.5 3.075l11.275 6.15 4.1-5.125 5.125-4.1-6.15-11.275c-10.25-19.475-4.1-29.725 21.525-42.025 11.275-6.15 13.325-7.175 21.525-5.125 6.15 2.050 9.225 4.1 14.35 13.325 7.175 10.25 8.2 11.275 13.325 9.225s6.15-3.075 6.15-11.275c0-21.525 9.225-28.7 33.825-28.7 25.625 0 33.825 7.175 33.825 27.675 0 9.225 1.025 10.25 7.175 12.3 6.15 1.025 7.175 1.025 10.25-5.125 7.175-11.275 11.275-14.35 18.45-17.425 6.15-2.050 8.2-1.025 22.55 5.125 24.6 13.325 29.725 24.6 19.475 44.075l-5.125 8.2 4.1 5.125 5.125 4.1 11.275-5.125c18.45-9.225 28.7-4.1 41 19.475 3.075 7.175 6.15 14.35 6.15 17.425 0 8.2-6.15 17.425-15.375 22.55-8.2 4.1-9.225 5.125-7.175 13.325 1.025 4.1 2.050 4.1 10.25 4.1 11.275 0 21.525 4.1 25.625 11.275 4.1 6.15 6.15 27.675 3.075 37.925-3.075 13.325-10.25 17.425-24.6 18.45-11.275 1.025-13.325 2.050-14.35 5.125-2.050 8.2-1.025 9.225 8.2 14.35 9.225 6.15 14.35 14.35 14.35 22.55s-16.4 35.875-22.55 37.925c-8.2 4.1-17.425 3.075-26.65-2.050l-9.225-5.125-9.225 9.225 4.1 9.225c6.15 10.25 7.175 19.475 2.050 27.675-3.075 6.15-24.6 19.475-33.825 21.525-9.225 1.025-19.475-4.1-25.625-14.35-5.125-9.225-6.15-10.25-14.35-8.2-4.1 1.025-4.1 3.075-5.125 14.35-1.025 17.425-6.15 23.575-24.6 24.6l-12.3 1.025-1.025 23.575c-9.225 156.825-110.7 291.1-259.325 342.35-42.025 14.35-98.4 22.55-139.4 20.5l-21.525-2.050 8.2 17.425c12.3 25.625 16.4 43.050 16.4 66.625 0 73.8-52.275 140.425-125.050 160.925-19.475 6.15-60.475 7.175-80.975 3.075zM257.275 733.969c35.875-18.45 42.025-66.625 13.325-93.275-23.575-20.5-56.375-19.475-77.9 1.025-30.75 30.75-19.475 79.95 20.5 95.325 11.275 4.1 33.825 3.075 44.075-3.075zM475.6 579.194c10.25-2.050 24.6-5.125 32.8-7.175 16.4-5.125 52.275-17.425 54.325-20.5 3.075-2.050-9.225-15.375-18.45-19.475-5.125-3.075-18.45-5.125-33.825-7.175-29.725-3.075-35.875-5.125-50.225-13.325-7.175-5.125-12.3-10.25-16.4-16.4-6.15-9.225-6.15-11.275-6.15-26.65 0-12.3 1.025-20.5 6.15-34.85 11.275-35.875 11.275-38.95-7.175-80.975-11.275-25.625-11.275-26.65-11.275-45.1 0-15.375 1.025-20.5 4.1-25.625 7.175-15.375 17.425-24.6 30.75-30.75 11.275-6.15 15.375-7.175 28.7-7.175 12.3 1.025 16.4 2.050 27.675 7.175 23.575 10.25 35.875 26.65 48.175 64.575 5.125 15.375 10.25 24.6 18.45 30.75 4.1 3.075 8.2 4.1 20.5 4.1s17.425-2.050 42.025-11.275c34.85-12.3 48.175-14.35 68.675-8.2 7.175 2.050 18.45 8.2 25.625 12.3 7.175 5.125 13.325 8.2 13.325 8.2 1.025-1.025 4.1-9.225 7.175-20.5 9.225-27.675 14.35-54.325 16.4-87.125 2.050-27.675 2.050-28.7-2.050-34.85-3.075-4.1-5.125-9.225-6.15-17.425 0-11.275-1.025-12.3-6.15-13.325-3.075-1.025-6.15-1.025-6.15-1.025-9.225 14.35-12.3 18.45-18.45 21.525-8.2 4.1-15.375 2.050-30.75-6.15-13.325-8.2-20.5-16.4-20.5-24.6 0-3.075 2.050-9.225 5.125-15.375l5.125-10.25-4.1-4.1-4.1-5.125-10.25 5.125c-8.2 4.1-12.3 5.125-18.45 4.1-10.25-1.025-14.35-5.125-22.55-20.5-11.275-20.5-8.2-33.825 10.25-44.075 6.15-3.075 6.15-4.1 5.125-8.2-1.025-8.2-2.050-8.2-12.3-8.2-20.5 0-27.675-9.225-27.675-33.825 0-25.625 5.125-32.8 26.65-34.85 11.275-1.025 12.3-1.025 13.325-6.15 2.050-6.15 1.025-7.175-15.375-16.4-3.075-2.050-25.625 9.225-33.825 17.425-15.375 15.375-17.425 28.7-13.325 73.8 4.1 42.025-1.025 61.5-18.45 76.875-10.25 9.225-18.45 13.325-31.775 13.325-20.5 0-36.9-13.325-51.25-42.025-15.375-29.725-25.625-38.95-39.975-37.925-10.25 1.025-14.35 7.175-17.425 31.775-2.050 11.275-5.125 25.625-8.2 30.75-7.175 17.425-24.6 27.675-47.15 27.675-18.45 0-31.775-5.125-45.1-17.425-21.525-19.475-29.725-43.050-36.9-93.275-5.125-35.875-8.2-51.25-13.325-64.575-9.225-21.525-32.8-44.075-55.35-54.325-20.5-8.2-19.475-9.225-36.9 5.125-49.2 38.95-87.125 91.225-111.725 151.7l-7.175 18.45 6.15 8.2c7.175 10.25 18.45 17.425 26.65 18.45 4.1 0 14.35-4.1 24.6-8.2 22.55-10.25 29.725-11.275 42.025-8.2 21.525 7.175 36.9 31.775 33.825 56.375-2.050 21.525-9.225 34.85-41 65.6-17.425 16.4-28.7 29.725-30.75 33.825-5.125 14.35-4.1 24.6 7.175 47.15 11.275 23.575 14.35 38.95 10.25 53.3-4.1 10.25-18.45 23.575-31.775 30.75l-10.25 5.125 3.075 7.175c8.2 12.3 26.65 36.9 43.050 53.3l15.375 16.4 5.125-7.175c7.175-8.2 33.825-37.925 45.1-50.225 5.125-6.15 11.275-10.25 13.325-10.25 10.25 0 86.1 89.175 120.95 141.45 5.125 9.225 11.275 16.4 12.3 18.45 5.125 5.125 79.95 5.125 110.7 0zM816.926 181.493c0-9.225 1.025-16.4 2.050-17.425 4.1-3.075 36.9-11.275 41-10.25 1.025 1.025 6.15 7.175 9.225 13.325 4.1 7.175 7.175 12.3 8.2 12.3 2.050 0 18.45-8.2 21.525-11.275 0 0-3.075-6.15-7.175-12.3-4.1-7.175-7.175-13.325-7.175-15.375 0-5.125 26.65-30.75 30.75-30.75 2.050 0 9.225 2.050 15.375 6.15 5.125 3.075 11.275 5.125 13.325 5.125 2.050-1.025 11.275-15.375 11.275-19.475 0-1.025-6.15-4.1-12.3-8.2-14.35-7.175-15.375-11.275-11.275-25.625 2.050-5.125 4.1-12.3 4.1-15.375 2.050-10.25 8.2-13.325 23.575-13.325h13.325v-23.575h-14.35c-11.275 0-15.375-1.025-17.425-4.1-4.1-4.1-12.3-33.825-11.275-38.95 1.025-3.075 6.15-7.175 13.325-11.275 6.15-3.075 12.3-7.175 12.3-8.2 0-3.075-10.25-19.475-12.3-19.475-1.025 0-6.15 2.050-12.3 6.15-6.15 3.075-12.3 6.15-15.375 6.15-4.1 0-30.75-25.625-30.75-30.75 0-2.050 3.075-9.225 7.175-15.375s6.15-12.3 6.15-13.325c-1.025 0-5.125-3.075-10.25-6.15-11.275-6.15-9.225-7.175-20.5 11.275-5.125 7.175-7.175 9.225-11.275 9.225-5.125 0-34.85-7.175-36.9-9.225-1.025 0-1.025-8.2-2.050-17.425l-1.025-16.4h-23.575l-1.025 15.375c-1.025 9.225-2.050 16.4-3.075 17.425-2.050 2.050-29.725 10.25-34.85 11.275-6.15 0-9.225-2.050-15.375-13.325-4.1-7.175-8.2-12.3-8.2-13.325-1.025-1.025-21.525 11.275-21.525 12.3s3.075 6.15 6.15 11.275c10.25 16.4 10.25 16.4-5.125 32.8-15.375 15.375-18.45 16.4-33.825 7.175-5.125-3.075-10.25-5.125-11.275-5.125-2.050 0-14.35 19.475-13.325 20.5 0 0 6.15 3.075 12.3 7.175 15.375 8.2 16.4 10.25 11.275 26.65-2.050 6.15-4.1 14.35-4.1 15.375 0 8.2-5.125 11.275-21.525 12.3l-15.375 1.025v21.525l16.4 1.025c15.375 1.025 20.5 4.1 20.5 12.3 0 2.050 2.050 9.225 4.1 16.4 5.125 15.375 4.1 17.425-10.25 25.625-6.15 3.075-12.3 7.175-12.3 8.2-1.025 0 2.050 6.15 5.125 11.275l6.15 10.25 9.225-5.125c5.125-3.075 10.25-6.15 11.275-7.175s4.1-1.025 6.15-1.025c6.15 0 31.775 24.6 31.775 29.725 0 3.075-3.075 9.225-6.15 15.375-4.1 6.15-6.15 12.3-6.15 13.325 1.025 1.025 5.125 4.1 10.25 7.175 9.225 5.125 10.25 5.125 12.3 1.025 8.2-14.35 14.35-21.525 17.425-22.55 2.050 0 9.225 1.025 14.35 2.050 5.125 2.050 12.3 4.1 15.375 4.1 10.25 2.050 12.3 6.15 12.3 22.55v15.375l12.3-1.025h12.3l1.025-15.375zM776.951 96.418c-28.7-11.275-45.1-33.825-47.15-62.525-3.075-32.8 14.35-61.5 45.1-75.85 7.175-3.075 13.325-4.1 27.675-4.1 16.4 0 20.5 1.025 30.75 5.125 15.375 7.175 27.675 19.475 35.875 34.85 6.15 11.275 7.175 13.325 7.175 33.825 0 18.45-1.025 21.525-6.15 31.775-7.175 14.35-21.525 28.7-34.85 34.85-9.225 5.125-14.35 6.15-29.725 6.15-15.375 1.025-19.475 0-28.7-4.1zM825.126 75.918c24.6-11.275 35.875-37.925 28.7-63.55-4.1-15.375-19.475-30.75-32.8-34.85-36.9-11.275-70.725 13.325-70.725 49.2 0 39.975 38.95 64.575 74.825 49.2z" />
<glyph unicode="&#xe93e;" glyph-name="papelera" d="M912.251 698.094h-207.050v96.35c0 34.85-28.7 63.55-63.55 63.55h-256.25c-35.875 0-64.575-28.7-64.575-63.55v-96.35h-207.050c-26.65 0-48.175-21.525-48.175-48.175s21.525-48.175 48.175-48.175h47.15v-705.201c0-34.85 28.7-63.55 63.55-63.55h577.076c34.85 0 63.55 28.7 63.55 63.55v705.201h47.15c26.65 0 48.175 21.525 48.175 48.175s-21.525 48.175-48.175 48.175zM417.175 761.644h191.675v-63.55h-191.675v63.55zM769.776-70.657h-512.5v672.401h512.5v-672.401zM472.525 74.893v359.775c0 23.575 17.425 39.975 41 39.975 22.55 0 39.975-16.4 39.975-39.975v-359.775c0-22.55-17.425-39.975-39.975-39.975-23.575 0-41 17.425-41 39.975zM630.376 74.893v359.775c0 23.575 17.425 39.975 41 39.975s39.975-16.4 39.975-39.975v-359.775c0-22.55-17.425-39.975-39.975-39.975-23.575 0-41 17.425-41 39.975zM314.675 74.893v359.775c0 23.575 17.425 39.975 41 39.975s39.975-16.4 39.975-39.975v-359.775c0-22.55-17.425-39.975-39.975-39.975-23.575 0-41 17.425-41 39.975z" />
<glyph unicode="&#xe95e;" glyph-name="subir" d="M928.651 267.594c30.75 0 54.325-24.6 54.325-54.325v-294.175c0-29.725-23.575-54.325-54.325-54.325h-836.401c-29.725 0-56.375 24.6-56.375 54.325v294.175c0 29.725 26.65 54.325 56.375 54.325s54.325-24.6 54.325-54.325v-237.8h728.776v237.8c0 29.725 23.575 54.325 53.3 54.325zM328 525.894c-21.525-22.55-53.3-22.55-75.85 0s-21.525 54.325 0 75.85l220.375 220.375c10.25 10.25 23.575 16.4 37.925 16.4s27.675-6.15 37.925-16.4l220.375-220.375c22.55-21.525 22.55-54.325 0-75.85-10.25-10.25-23.575-16.4-37.925-16.4s-29.725 6.15-39.975 16.4l-126.075 126.075v-468.425c0-29.725-24.6-54.325-54.325-54.325s-54.325 24.6-54.325 54.325v468.425l-128.125-126.075z" />
<glyph unicode="&#xe95f;" glyph-name="tamano" d="M730.826 616.094h-679.576c-28.7 0-51.25-22.55-51.25-51.25v-679.576c0-27.675 22.55-51.25 51.25-51.25h679.576c27.675 0 51.25 23.575 51.25 51.25v679.576c0 28.7-23.575 51.25-51.25 51.25zM679.576-63.482h-577.076v578.101h577.076v-578.101zM1014.751-0.957h-55.35v594.501h55.35c4.1 0 8.2 3.075 9.225 7.175 2.050 3.075 1.025 7.175-2.050 10.25l-89.175 89.175c-4.1 4.1-10.25 4.1-14.35 0l-89.175-89.175c-3.075-3.075-4.1-7.175-2.050-10.25 1.025-4.1 5.125-7.175 9.225-7.175h55.35v-594.501h-55.35c-4.1 0-8.2-2.050-9.225-6.15-2.050-4.1-1.025-8.2 2.050-11.275l89.175-89.175c4.1-4.1 10.25-4.1 14.35 0l89.175 89.175c3.075 3.075 4.1 7.175 2.050 11.275-1.025 4.1-5.125 6.15-9.225 6.15zM147.6 661.194c3.075-3.075 7.175-4.1 11.275-2.050 3.075 1.025 6.15 5.125 6.15 9.225v55.35h594.501v-55.35c0-4.1 2.050-8.2 6.15-9.225 4.1-2.050 8.2-1.025 11.275 2.050l89.175 89.175c4.1 4.1 4.1 10.25 0 14.35l-89.175 89.175c-3.075 3.075-7.175 3.075-11.275 2.050-4.1-2.050-6.15-5.125-6.15-9.225v-55.35h-594.501v55.35c0 4.1-3.075 7.175-6.15 9.225-4.1 1.025-8.2 1.025-11.275-2.050l-89.175-89.175c-4.1-4.1-4.1-10.25 0-14.35l89.175-89.175z" />
<glyph unicode="&#xe981;" glyph-name="ayuda" d="M585.276 70.793v109.675q0 8.2-5.125 13.325t-12.3 5.125h-110.7q-7.175 0-12.3-5.125t-5.125-13.325v-109.675q0-8.2 5.125-13.325t12.3-5.125h110.7q7.175 0 12.3 5.125t5.125 13.325zM731.851 455.169q0 50.225-31.775 93.275t-78.925 66.625-97.375 23.575q-138.375 0-212.175-121.975-8.2-13.325 5.125-24.6l74.825-56.375q4.1-4.1 11.275-4.1 9.225 0 14.35 7.175 29.725 38.95 49.2 52.275 19.475 14.35 49.2 14.35 27.675 0 49.2-15.375t20.5-33.825q0-21.525-11.275-34.85t-38.95-25.625q-35.875-15.375-65.6-49.2t-29.725-71.75v-20.5q0-8.2 5.125-13.325t12.3-5.125h110.7q7.175 0 12.3 5.125t5.125 13.325q0 10.25 12.3 27.675t31.775 28.7q18.45 10.25 27.675 16.4t26.65 19.475 25.625 27.675 15.375 34.85 7.175 46.125zM952.226 345.494q0-119.925-59.45-220.375t-159.9-159.9-220.375-59.45-220.375 59.45-159.9 159.9-59.45 220.375 59.45 220.375 159.9 159.9 220.375 59.45 220.375-59.45 159.9-159.9 59.45-220.375z" />
<glyph unicode="&#xea5a;" glyph-name="scissors" d="M549.401 345.494q14.35 0 25.625-11.275t10.25-25.625-10.25-25.625-25.625-10.25-25.625 10.25-11.275 25.625 11.275 25.625 25.625 11.275zM720.576 308.594l290.075-227.55q16.4-11.275 14.35-31.775-3.075-20.5-19.475-28.7l-73.8-36.9q-7.175-4.1-16.4-4.1-10.25 0-17.425 4.1l-394.625 221.4-63.55-36.9q-4.1-3.075-7.175-3.075 8.2-28.7 6.15-55.35-4.1-44.075-31.775-85.075t-75.85-70.725q-75.85-48.175-157.85-48.175-77.9 0-127.1 45.1-52.275 48.175-45.1 118.9 4.1 43.050 31.775 84.050t74.825 70.725q75.85 48.175 158.875 48.175 47.15 0 86.1-18.45 5.125 8.2 13.325 13.325l69.7 41-69.7 42.025q-8.2 5.125-13.325 12.3-38.95-17.425-86.1-17.425-83.025 0-158.875 48.175-47.15 30.75-74.825 70.725t-31.775 84.050q-3.075 33.825 8.2 64.575t36.9 53.3q48.175 45.1 127.1 45.1 82 0 157.85-48.175 47.15-29.725 75.85-69.7t31.775-85.075q2.050-27.675-6.15-55.35 3.075-1.025 7.175-3.075l63.55-37.925 394.625 221.4q7.175 5.125 17.425 5.125 9.225 0 16.4-4.1l73.8-36.9q16.4-9.225 19.475-28.7 2.050-20.5-14.35-32.8zM331.075 457.219q26.65 24.6 12.3 62.525t-60.475 66.625q-53.3 33.825-109.675 33.825-43.050 0-64.575-20.5-26.65-24.6-12.3-61.5t60.475-67.65q52.275-33.825 109.675-33.825 42.025 0 64.575 20.5zM282.9 31.843q46.125 28.7 60.475 66.625t-12.3 61.5q-22.55 20.5-64.575 20.5-57.4 0-109.675-33.825-46.125-28.7-60.475-66.625t12.3-61.5q21.525-20.5 64.575-20.5 56.375 0 109.675 33.825zM384.375 382.394l55.35-33.825v7.175q0 20.5 18.45 31.775l8.2 4.1-45.1 26.65-15.375-14.35q-1.025-2.050-5.125-6.15t-7.175-7.175q-1.025-1.025-2.050-2.050t-2.050-1.025zM512.5 254.269l55.35-18.45 420.25 329.025-72.775 36.9-439.725-246v-65.6l-91.225-54.325 5.125-5.125q1.025-1.025 4.1-3.075 2.050-2.050 6.15-7.175t6.15-6.15l15.375-15.375zM915.326 16.468l72.775 35.875-297.25 233.7-101.475-78.925q-1.025-2.050-7.175-4.1z" />
<glyph unicode="&#xf0b2;" glyph-name="resize-full-alt" horiz-adv-x="879" d="M733.901 548.444l-202.95-202.95 202.95-202.95 82 82q17.425 18.45 39.975 8.2 22.55-9.225 22.55-33.825v-256.25q0-14.35-10.25-25.625t-26.65-11.275h-256.25q-23.575 0-32.8 23.575-10.25 21.525 7.175 38.95l83.025 83.025-202.95 202.95-202.95-202.95 82-83.025q17.425-17.425 8.2-38.95-10.25-23.575-33.825-23.575h-256.25q-15.375 0-25.625 11.275t-11.275 25.625v256.25q0 24.6 22.55 33.825 22.55 10.25 39.975-8.2l82-82 202.95 202.95-202.95 202.95-82-82q-11.275-11.275-25.625-11.275-7.175 0-14.35 3.075-22.55 9.225-22.55 33.825v256.25q0 14.35 11.275 25.625t25.625 11.275h256.25q23.575 0 33.825-23.575 9.225-21.525-8.2-38.95l-82-83.025 202.95-202.95 202.95 202.95-83.025 83.025q-17.425 17.425-7.175 38.95 9.225 23.575 32.8 23.575h256.25q15.375 0 26.65-11.275t10.25-25.625v-256.25q0-24.6-22.55-33.825-7.175-3.075-14.35-3.075-14.35 0-25.625 11.275z" />
<glyph unicode="&#xf0ce;" glyph-name="table" horiz-adv-x="951" d="M293.15 70.793v109.675q0 8.2-5.125 13.325t-13.325 5.125h-183.475q-7.175 0-12.3-5.125t-6.15-13.325v-109.675q0-8.2 6.15-13.325t12.3-5.125h183.475q8.2 0 13.325 5.125t5.125 13.325zM293.15 290.144v110.7q0 7.175-5.125 12.3t-13.325 5.125h-183.475q-7.175 0-12.3-5.125t-6.15-12.3v-110.7q0-7.175 6.15-12.3t12.3-5.125h183.475q8.2 0 13.325 5.125t5.125 12.3zM585.276 70.793v109.675q0 8.2-5.125 13.325t-12.3 5.125h-183.475q-8.2 0-13.325-5.125t-5.125-13.325v-109.675q0-8.2 5.125-13.325t13.325-5.125h183.475q7.175 0 12.3 5.125t5.125 13.325zM293.15 510.519v109.675q0 8.2-5.125 13.325t-13.325 5.125h-183.475q-7.175 0-12.3-5.125t-6.15-13.325v-109.675q0-8.2 6.15-13.325t12.3-5.125h183.475q8.2 0 13.325 5.125t5.125 13.325zM585.276 290.144v110.7q0 7.175-5.125 12.3t-12.3 5.125h-183.475q-8.2 0-13.325-5.125t-5.125-12.3v-110.7q0-7.175 5.125-12.3t13.325-5.125h183.475q7.175 0 12.3 5.125t5.125 12.3zM878.426 70.793v109.675q0 8.2-5.125 13.325t-13.325 5.125h-182.45q-8.2 0-13.325-5.125t-5.125-13.325v-109.675q0-8.2 5.125-13.325t13.325-5.125h182.45q8.2 0 13.325 5.125t5.125 13.325zM585.276 510.519v109.675q0 8.2-5.125 13.325t-12.3 5.125h-183.475q-8.2 0-13.325-5.125t-5.125-13.325v-109.675q0-8.2 5.125-13.325t13.325-5.125h183.475q7.175 0 12.3 5.125t5.125 13.325zM878.426 290.144v110.7q0 7.175-5.125 12.3t-13.325 5.125h-182.45q-8.2 0-13.325-5.125t-5.125-12.3v-110.7q0-7.175 5.125-12.3t13.325-5.125h182.45q8.2 0 13.325 5.125t5.125 12.3zM878.426 510.519v109.675q0 8.2-5.125 13.325t-13.325 5.125h-182.45q-8.2 0-13.325-5.125t-5.125-13.325v-109.675q0-8.2 5.125-13.325t13.325-5.125h182.45q8.2 0 13.325 5.125t5.125 13.325zM952.226 692.969v-622.176q0-37.925-27.675-64.575t-64.575-26.65h-768.751q-36.9 0-64.575 26.65t-26.65 64.575v622.176q0 37.925 26.65 64.575t64.575 27.675h768.751q37.925 0 64.575-27.675t27.675-64.575z" />
</font>
</defs>
</svg>
