<?xml version="1.0" standalone="no"?>
<!DOCTYPE svg PUBLIC "-//W3C//DTD SVG 1.1//EN" "http://www.w3.org/Graphics/SVG/1.1/DTD/svg11.dtd" >
<svg xmlns="http://www.w3.org/2000/svg">
<metadata>Generated by IcoMoon</metadata>
<defs>
<font id="vectorsmanagement" horiz-adv-x="1024">
<font-face units-per-em="1024" ascent="870.4" descent="-153.6" />
<missing-glyph horiz-adv-x="1024" />
<glyph unicode="&#x20;" horiz-adv-x="0" d="" />
<glyph unicode="&#xe800;" glyph-name="arrows-cw" horiz-adv-x="878" d="M863.232 260.864q0-3.072 0-4.096-36.864-153.6-153.6-248.832t-273.408-95.232q-82.944 0-160.768 31.744t-139.264 90.112l-73.728-73.728q-11.264-11.264-25.6-11.264t-25.6 11.264-11.264 25.6v256q0 14.336 11.264 25.6t25.6 11.264h256q14.336 0 25.6-11.264t10.24-25.6-10.24-25.6l-78.848-78.848q40.96-36.864 92.16-58.368t107.52-20.48q75.776 0 142.336 37.888t106.496 101.376q6.144 10.24 30.72 67.584 4.096 13.312 16.384 13.312h109.568q8.192 0 13.312-6.144t5.12-12.288zM877.568 717.568v-256q0-14.336-10.24-25.6t-26.624-11.264h-256q-14.336 0-25.6 11.264t-10.24 25.6 10.24 25.6l78.848 78.848q-83.968 78.848-198.656 78.848-76.8 0-143.36-37.888t-106.496-101.376q-6.144-10.24-29.696-67.584-5.12-13.312-17.408-13.312h-113.664q-7.168 0-13.312 6.144t-5.12 12.288v4.096q36.864 153.6 154.624 248.832t274.432 95.232q82.944 0 161.792-31.744t140.288-90.112l73.728 73.728q11.264 11.264 25.6 11.264t26.624-11.264 10.24-25.6z" />
<glyph unicode="&#xe801;" glyph-name="font" d="M1019.904-69.888c-22.528 9.216-44.032 14.336-62.464 17.408-19.456 1.024-33.792 6.144-43.008 13.312-5.12 4.096-12.288 15.36-21.504 35.84-16.384 33.792-29.696 63.488-39.936 91.136-16.384 44.032-29.696 77.824-39.936 101.376-23.552 54.272-43.008 102.4-59.392 144.384-8.192 22.528-33.792 83.968-75.776 183.296l-125.952 294.912-7.168 13.312h-78.848l-172.032-445.44-146.432-379.904c-11.264-21.504-21.504-34.816-29.696-41.984-8.192-6.144-30.72-12.288-67.584-18.432-23.552-5.12-39.936-8.192-49.152-11.264l-1.024-49.152h13.312c34.816 0 69.632 3.072 102.4 9.216l29.696 5.12c115.712-8.192 187.392-12.288 215.040-12.288 0 4.096 1.024 9.216 1.024 16.384 0 12.288 0 23.552-1.024 35.84-8.192 1.024-16.384 2.048-24.576 3.072s-14.336 2.048-18.432 3.072c-4.096 1.024-7.168 1.024-8.192 1.024-31.744 5.12-53.248 11.264-63.488 20.48-7.168 5.12-10.24 13.312-10.24 26.624 0 8.192 4.096 24.576 13.312 51.2 30.72 86.016 52.224 142.336 64.512 168.96l276.48-1.024 57.344-140.288 28.672-70.656c2.048-7.168 4.096-13.312 4.096-19.456s-3.072-12.288-8.192-16.384c-5.12-4.096-18.432-9.216-41.984-14.336l-79.872-17.408c-2.048-13.312-3.072-29.696-3.072-48.128l35.84 1.024 122.88 7.168c23.552 1.024 51.2 1.024 82.944 1.024 39.936 0 78.848-2.048 116.736-5.12 46.080-3.072 84.992-5.12 117.76-5.12 1.024 5.12 1.024 10.24 1.024 16.384 0 7.168-1.024 19.456-4.096 34.816zM541.696 280.32c-6.144 0-16.384 0-32.768 0-15.36 0-39.936 1.024-72.704 1.024s-64.512 1.024-94.208 1.024l104.448 277.504c15.36-32.768 34.816-75.776 56.32-130.048 24.576-60.416 44.032-109.568 56.32-148.48l-17.408-1.024z" />
<glyph unicode="&#xe802;" glyph-name="layers" horiz-adv-x="950" d="M18.432 180.992l456.704-114.688 457.728 114.688v-114.688l-457.728-114.688-456.704 114.688v114.688zM18.432 409.344l456.704-114.688 457.728 114.688v-114.688l-457.728-113.664-456.704 113.664v114.688zM18.432 637.696l456.704 114.688 457.728-114.688v-113.664l-457.728-114.688-456.704 114.688v113.664z" />
<glyph unicode="&#xe803;" glyph-name="linea" d="M940.032 785.152c-48.128 48.128-124.928 48.128-173.056 0-34.816-34.816-44.032-84.992-27.648-129.024l-518.144-518.144c-43.008 16.384-94.208 7.168-129.024-27.648-48.128-47.104-48.128-124.928-1.024-172.032 48.128-48.128 124.928-48.128 173.056 0 34.816 34.816 44.032 84.992 27.648 129.024l518.144 518.144c44.032-16.384 95.232-7.168 130.048 27.648 47.104 47.104 47.104 124.928 0 172.032z" />
<glyph unicode="&#xe806;" glyph-name="poligono" d="M295.936-42.24v0h-24.576l-238.592 413.696 238.592 413.696h477.184l238.592-413.696-238.592-413.696h-452.608zM146.432 371.456l182.272-314.368h363.52l181.248 314.368-181.248 315.392h-363.52l-182.272-315.392z" />
<glyph unicode="&#xe807;" glyph-name="pin" d="M488.448-138.496c-6.144 2.048-12.288 5.12-18.432 8.192v0c-12.288 6.144-23.552 14.336-34.816 23.552v0c-23.552 18.432-49.152 44.032-75.776 73.728v0c-54.272 60.416-112.64 140.288-159.744 222.208v0c-30.72 55.296-57.344 112.64-72.704 166.912v0c-9.216 30.72-14.336 61.44-14.336 91.136v0c0 110.592 45.056 209.92 117.76 282.624v0c71.68 71.68 172.032 116.736 281.6 116.736v0c109.568 0 209.92-45.056 282.624-116.736v0c71.68-72.704 116.736-172.032 116.736-282.624v0c0-36.864-8.192-74.752-20.48-112.64v0c-13.312-38.912-30.72-78.848-51.2-117.76v0c-41.984-77.824-95.232-154.624-146.432-216.064v0c-34.816-41.984-67.584-76.8-97.28-102.4v0c-17.408-14.336-32.768-25.6-50.176-32.768v0c-9.216-4.096-19.456-8.192-33.792-8.192v0 0c-9.216 0-16.384 2.048-23.552 4.096v0zM293.888 666.368c-56.32-56.32-91.136-133.12-91.136-219.136v0c0-21.504 5.12-50.176 15.36-79.872v0c9.216-30.72 23.552-64.512 40.96-98.304v0c34.816-67.584 81.92-137.216 128-194.56v0c30.72-38.912 60.416-71.68 84.992-94.208v0c14.336-13.312 27.648-23.552 35.84-28.672v0c1.024-1.024 3.072-2.048 4.096-2.048v0c5.12 2.048 12.288 7.168 20.48 14.336v0c18.432 14.336 40.96 35.84 65.536 63.488v0c49.152 55.296 104.448 131.072 147.456 206.848v0c29.696 50.176 52.224 101.376 64.512 146.432v0c7.168 24.576 11.264 48.128 11.264 66.56v0c0 86.016-34.816 162.816-91.136 219.136v0c-55.296 55.296-133.12 90.112-218.112 90.112v0c-84.992 0-161.792-34.816-218.112-90.112v0zM512 211.712c-64.512 0-123.904 26.624-166.912 68.608v0c-43.008 43.008-69.632 102.4-69.632 166.912v0c0 65.536 26.624 124.928 69.632 166.912v0c43.008 43.008 102.4 69.632 166.912 69.632v0-90.112c-39.936 0-76.8-16.384-103.424-43.008v0c-26.624-26.624-41.984-62.464-43.008-103.424v0c1.024-39.936 16.384-75.776 43.008-102.4v0c26.624-26.624 63.488-43.008 103.424-43.008v0c39.936 0 76.8 16.384 103.424 43.008v0c26.624 26.624 43.008 62.464 43.008 102.4v0c0 40.96-16.384 76.8-43.008 103.424v0c-26.624 26.624-63.488 43.008-103.424 43.008v0 90.112c65.536 0 123.904-26.624 166.912-69.632v0c43.008-41.984 69.632-101.376 69.632-166.912v0c0-64.512-26.624-123.904-69.632-166.912v0c-43.008-41.984-101.376-68.608-166.912-68.608v0c0 0 0 0 0 0v0z" />
<glyph unicode="&#xe819;" glyph-name="vectors" d="M0 39.68c0 13.312 2.048 26.624 8.192 38.912 18.432 33.792 45.056 54.272 83.968 54.272 31.744-1.024 63.488 0 95.232 0 3.072 0 5.12 1.024 7.168 4.096 17.408 28.672 34.816 58.368 52.224 88.064 2.048 3.072 2.048 4.096 0 7.168-18.432 19.456-26.624 41.984-26.624 68.608-1.024 33.792-1.024 68.608 0 103.424 0 25.6 8.192 49.152 25.6 68.608 3.072 2.048 3.072 4.096 1.024 7.168-17.408 29.696-34.816 58.368-52.224 88.064-2.048 3.072-4.096 4.096-7.168 4.096-31.744 0-62.464 0-94.208 0-10.24 0-21.504 2.048-30.72 5.12-29.696 9.216-63.488 43.008-62.464 88.064 1.024 34.816 0 69.632 0 104.448 1.024 11.264 2.048 21.504 5.12 32.768 5.12 16.384 16.384 29.696 29.696 40.96 14.336 12.288 30.72 19.456 50.176 19.456 40.96 1.024 81.92 1.024 123.904 0 35.84 0 67.584-31.744 77.824-58.368 6.144-13.312 6.144-27.648 6.144-41.984 0-3.072 0-5.12 0-8.192h391.168l-73.728-73.728h-317.44c0-3.072 0-7.168 0-10.24 0-28.672-8.192-53.248-27.648-73.728-2.048-2.048-2.048-3.072-1.024-5.12 18.432-30.72 36.864-60.416 54.272-91.136 1.024-1.024 4.096-2.048 6.144-2.048 31.744 0 62.464 0 94.208 0 25.6 0 46.080-8.192 62.464-23.552 8.192-8.192 16.384-18.432 22.528-30.72s8.192-25.6 8.192-38.912c0-29.696-1.024-58.368 0-88.064 0-6.144 0-12.288 0-18.432 1.024-45.056-32.768-78.848-62.464-88.064-9.216-3.072-20.48-4.096-30.72-5.12-31.744 0-62.464 0-94.208 0-3.072 0-5.12-1.024-6.144-3.072-17.408-29.696-35.84-59.392-53.248-89.088-2.048-3.072-2.048-4.096 1.024-7.168 17.408-18.432 25.6-41.984 26.624-67.584 0-5.12 0-10.24 0-15.36h439.296c0 6.144 0 12.288 0 18.432-1.024 41.984 32.768 75.776 61.44 86.016 10.24 3.072 20.48 4.096 30.72 4.096 6.144 0 11.264 0 17.408 0v318.464l73.728 73.728v-392.192c5.12 0 11.264 0 16.384 0 10.24 0 20.48-1.024 30.72-4.096 30.72-11.264 62.464-44.032 61.44-88.064 0-35.84 1.024-70.656 0-106.496 0-11.264-2.048-21.504-5.12-31.744-10.24-29.696-43.008-62.464-88.064-61.44-35.84 1.024-70.656 0-105.472 0-7.168 0-15.36 1.024-22.528 2.048-24.576 5.12-41.984 20.48-56.32 40.96-11.264 14.336-14.336 30.72-14.336 49.152 0 5.12 0 11.264 0 17.408h-439.296c0-4.096 0-8.192 0-11.264 0-12.288-1.024-24.576-5.12-36.864-10.24-29.696-44.032-62.464-88.064-61.44-35.84 1.024-70.656 0-106.496 0-10.24 0-20.48 2.048-29.696 4.096-31.744 10.24-64.512 45.056-63.488 89.088 1.024 35.84 0 70.656 0 106.496zM220.16 769.792c0 13.312-9.216 21.504-21.504 21.504-17.408 0-34.816 0-52.224 0s-34.816 0-52.224 0c-12.288 0-20.48-9.216-20.48-21.504 0-34.816 0-69.632 0-104.448 0-12.288 8.192-21.504 20.48-21.504 34.816 0 69.632 0 104.448 0 12.288 0 21.504 9.216 21.504 21.504 0 34.816 0 69.632 0 104.448zM292.864 300.8c0-13.312 8.192-21.504 21.504-21.504 33.792 0 68.608 0 102.4 0 14.336 0 22.528 8.192 22.528 21.504 0 33.792 0 68.608 0 102.4 0 14.336-8.192 22.528-21.504 22.528-17.408 0-34.816 0-52.224 0s-34.816 0-52.224 0c-13.312 0-21.504-8.192-21.504-22.528 1.024-33.792 1.024-68.608 1.024-102.4zM804.864-65.792c0-13.312 8.192-21.504 20.48-21.504 34.816 0 69.632 0 104.448 0 13.312 0 21.504 9.216 21.504 21.504 0 17.408 0 34.816 0 52.224s0 34.816 0 52.224c0 12.288-8.192 21.504-21.504 21.504-34.816 0-69.632 0-104.448 0-12.288 0-20.48-9.216-20.48-21.504-1.024-34.816-1.024-69.632 0-104.448zM73.728-65.792c0-13.312 8.192-21.504 20.48-21.504 34.816 0 69.632 0 104.448 0 12.288 0 21.504 8.192 21.504 21.504 0 34.816 0 69.632 0 104.448 0 12.288-9.216 21.504-21.504 21.504-34.816 0-69.632 0-104.448 0-12.288 0-20.48-9.216-20.48-21.504 0-17.408 0-34.816 0-52.224s-1.024-34.816 0-52.224zM897.024 847.616l-41.984-40.96 111.616-111.616 40.96 41.984c21.504 21.504 21.504 56.32 0 76.8l-33.792 33.792c-20.48 21.504-55.296 21.504-76.8 0v0zM835.584 787.2l-199.68-199.68c-9.216-9.216-15.36-20.48-18.432-31.744l-30.72-103.424c-2.048-7.168 0-15.36 5.12-20.48s13.312-7.168 20.48-5.12l102.4 30.72c12.288 3.072 23.552 10.24 32.768 18.432l199.68 199.68-111.616 111.616z" />
<glyph unicode="&#xe81b;" glyph-name="profile" d="M1013.76-55.552l-96.256 64.512c-10.24 6.144-23.552 3.072-30.72-7.168-6.144-10.24-4.096-23.552 6.144-30.72l35.84-22.528h-820.224v198.656c22.528-1.024 60.416 0 99.328 11.264 87.040 23.552 142.336 80.896 158.72 165.888 22.528 112.64 81.92 162.816 130.048 162.816 0 0 1.024 0 1.024 0 51.2 0 93.184-54.272 107.52-140.288 9.216-52.224 13.312-99.328 16.384-140.288 5.12-63.488 9.216-113.664 29.696-150.528 23.552-41.984 66.56-61.44 134.144-61.44 12.288 0 21.504 10.24 21.504 22.528s-9.216 22.528-21.504 22.528c-64.512 0-84.992 19.456-95.232 37.888-16.384 28.672-19.456 74.752-24.576 132.096-3.072 43.008-7.168 90.112-16.384 144.384-22.528 130.048-93.184 177.152-151.552 177.152-37.888 1.024-76.8-18.432-107.52-52.224-31.744-35.84-55.296-86.016-66.56-146.432-13.312-67.584-56.32-111.616-125.952-131.072-34.816-10.24-68.608-11.264-89.088-10.24v577.536l23.552-35.84c4.096-6.144 11.264-9.216 18.432-9.216 4.096 0 8.192 1.024 11.264 3.072 10.24 7.168 13.312 20.48 7.168 30.72l-64.512 96.256c-4.096 6.144-11.264 10.24-18.432 10.24s-14.336-4.096-18.432-10.24l-63.488-96.256c-7.168-10.24-4.096-23.552 6.144-30.72 10.24-6.144 23.552-4.096 30.72 6.144l22.528 35.84v-115.712h-28.672c-12.288 0-21.504-9.216-21.504-21.504s9.216-22.528 21.504-22.528h28.672v-132.096h-28.672c-12.288 0-21.504-9.216-21.504-21.504s9.216-22.528 21.504-22.528h28.672v-132.096h-28.672c-12.288 0-21.504-10.24-21.504-22.528s9.216-21.504 21.504-21.504h28.672v-132.096h-28.672c-12.288 0-21.504-10.24-21.504-22.528s9.216-21.504 21.504-21.504h28.672v-132.096h-28.672c-12.288 0-21.504-10.24-21.504-22.528s9.216-22.528 21.504-22.528h28.672v-28.672c0-12.288 10.24-22.528 22.528-22.528s22.528 10.24 22.528 22.528v28.672h132.096v-28.672c0-12.288 9.216-22.528 21.504-22.528s22.528 10.24 22.528 22.528v28.672h132.096v-28.672c0-12.288 10.24-22.528 21.504-22.528s22.528 10.24 22.528 22.528v28.672h132.096v-28.672c0-12.288 10.24-22.528 22.528-22.528s21.504 10.24 21.504 22.528v28.672h132.096v-28.672c0-12.288 10.24-22.528 22.528-22.528s21.504 10.24 21.504 22.528v28.672h115.712l-35.84-22.528c-10.24-7.168-12.288-20.48-6.144-30.72 4.096-7.168 11.264-10.24 18.432-10.24 4.096 0 8.192 1.024 12.288 4.096l96.256 63.488c6.144 4.096 10.24 11.264 10.24 18.432s-4.096 14.336-10.24 18.432z" />
<glyph unicode="&#xe81c;" glyph-name="hole" horiz-adv-x="1366" d="M520.192 857.856c-124.928-10.24-209.92-39.936-302.080-105.472-132.096-93.184-208.896-242.688-208.896-403.456 0-171.008 87.040-326.656 235.52-419.84 25.6-17.408 76.8-41.984 105.472-51.2 59.392-21.504 112.64-29.696 176.128-29.696 53.248 0 86.016 4.096 131.072 17.408 33.792 10.24 82.944 34.816 110.592 55.296 48.128 35.84 55.296 40.96 79.872 52.224 35.84 18.432 56.32 23.552 98.304 23.552 19.456-1.024 44.032-2.048 58.368-4.096 38.912-6.144 86.016-8.192 111.616-3.072 37.888 7.168 73.728 22.528 110.592 48.128 121.856 87.040 165.888 244.736 105.472 381.952-18.432 41.984-48.128 80.896-102.4 134.144-166.912 162.816-400.384 279.552-604.16 301.056-23.552 3.072-90.112 5.12-105.472 3.072zM614.4 803.584c180.224-18.432 384-111.616 541.696-248.832 48.128-41.984 90.112-88.064 111.616-120.832 34.816-53.248 49.152-121.856 38.912-183.296-7.168-37.888-25.6-83.968-46.080-111.616-14.336-19.456-45.056-48.128-65.536-62.464-56.32-38.912-94.208-46.080-176.128-35.84-89.088 11.264-138.24 5.12-195.584-23.552-23.552-11.264-37.888-20.48-71.68-46.080-45.056-34.816-93.184-55.296-152.576-66.56-34.816-6.144-115.712-7.168-148.48-1.024-83.968 16.384-149.504 43.008-211.968 89.088-154.624 113.664-217.088 313.344-157.696 496.64 36.864 112.64 119.808 205.824 231.424 262.144 59.392 29.696 107.52 44.032 184.32 52.224 15.36 2.048 96.256 2.048 117.76 0zM348.16 572.16c-53.248-9.216-99.328-34.816-135.168-73.728-32.768-33.792-52.224-72.704-58.368-118.784-5.12-29.696-5.12-34.816 0-64.512 13.312-87.040 75.776-157.696 163.84-183.296 66.56-19.456 130.048-9.216 180.224 27.648 34.816 26.624 49.152 30.72 86.016 27.648 63.488-4.096 80.896-1.024 110.592 18.432 62.464 41.984 81.92 125.952 41.984 189.44-16.384 27.648-63.488 71.68-108.544 101.376-52.224 35.84-110.592 61.44-166.912 72.704-28.672 7.168-88.064 8.192-113.664 3.072zM453.632 546.56c71.68-13.312 153.6-55.296 214.016-107.52 25.6-22.528 48.128-49.152 56.32-64.512 15.36-32.768 16.384-69.632 1.024-102.4-9.216-18.432-20.48-31.744-36.864-44.032-24.576-18.432-29.696-20.48-64.512-19.456-91.136 3.072-88.064 4.096-147.456-36.864-44.032-30.72-113.664-34.816-174.080-10.24-49.152 19.456-93.184 61.44-112.64 109.568-15.36 36.864-19.456 84.992-9.216 123.904 21.504 83.968 91.136 143.36 183.296 155.648 21.504 3.072 63.488 1.024 90.112-4.096z" />
<glyph unicode="&#xe900;" glyph-name="pin-located" d="M343.040-130.304c-5.12 1.024-10.24 3.072-14.336 6.144v0c-9.216 4.096-17.408 10.24-26.624 17.408v0c-17.408 14.336-36.864 33.792-57.344 56.32v0c-40.96 45.056-84.992 105.472-119.808 167.936v0c-23.552 41.984-44.032 83.968-55.296 124.928v0c-7.168 23.552-11.264 47.104-11.264 69.632v0c0 82.944 34.816 158.72 89.088 212.992v0c54.272 55.296 130.048 89.088 212.992 89.088v0c82.944 0 158.72-33.792 212.992-89.088v0c54.272-54.272 89.088-130.048 89.088-212.992v0c-1.024-27.648-6.144-56.32-16.384-86.016v0c-9.216-28.672-22.528-58.368-37.888-88.064v0c-31.744-59.392-71.68-116.736-110.592-163.84v0c-26.624-31.744-51.2-57.344-73.728-76.8v0c-13.312-10.24-24.576-19.456-37.888-25.6v0c-7.168-3.072-15.36-5.12-25.6-5.12v0 0c-7.168 0-12.288 1.024-17.408 3.072v0zM195.584 476.928c-43.008-41.984-68.608-100.352-68.608-164.864v0c0-16.384 4.096-37.888 11.264-60.416v0c7.168-23.552 18.432-49.152 30.72-74.752v0c26.624-50.176 62.464-103.424 97.28-146.432v0c22.528-28.672 45.056-54.272 64.512-71.68v0c10.24-10.24 19.456-17.408 26.624-21.504v0c1.024 0 2.048-1.024 3.072-2.048v0c3.072 2.048 9.216 6.144 15.36 11.264v0c13.312 11.264 30.72 27.648 49.152 48.128v0c37.888 41.984 79.872 99.328 112.64 156.672v0c21.504 37.888 38.912 76.8 48.128 110.592v0c5.12 18.432 8.192 35.84 8.192 50.176v0c0 64.512-26.624 122.88-68.608 164.864v0c-41.984 43.008-100.352 68.608-164.864 68.608v0c-64.512 0-122.88-25.6-164.864-68.608v0zM360.448 133.888c-49.152 0-94.208 20.48-125.952 52.224v0c-32.768 31.744-52.224 76.8-52.224 125.952v0c0 49.152 19.456 94.208 52.224 125.952v0c31.744 32.768 76.8 52.224 125.952 52.224v0-67.584c-30.72 0-58.368-12.288-77.824-32.768v0c-20.48-19.456-32.768-47.104-32.768-77.824v0c0-30.72 12.288-57.344 32.768-77.824v0c19.456-20.48 47.104-32.768 77.824-32.768v0c30.72 0 57.344 12.288 77.824 32.768v0c20.48 20.48 32.768 47.104 32.768 77.824v0c0 30.72-12.288 58.368-32.768 77.824v0c-20.48 20.48-47.104 32.768-77.824 32.768v0 67.584c49.152 0 94.208-19.456 125.952-52.224v0c32.768-31.744 52.224-76.8 52.224-125.952v0c0-49.152-19.456-94.208-52.224-125.952v0c-31.744-31.744-76.8-52.224-125.952-52.224v0c0 0 0 0 0 0zM552.96 787.2c9.216 7.168 18.432 11.264 25.6 12.288 8.192 1.024 15.36 0 20.48-2.048 6.144-2.048 12.288-5.12 17.408-9.216l45.056-56.32 54.272 55.296c6.144 6.144 13.312 9.216 22.528 9.216 5.12 0 10.24-1.024 14.336-3.072s8.192-3.072 12.288-4.096c3.072-2.048 7.168-5.12 11.264-7.168l-86.016-87.040 34.816-44.032c2.048-3.072 5.12-5.12 7.168-8.192 3.072-3.072 5.12-5.12 8.192-6.144s6.144-1.024 10.24 0 7.168 3.072 12.288 7.168c3.072-4.096 5.12-10.24 5.12-16.384 1.024-5.12 0-10.24-3.072-17.408-2.048-6.144-7.168-13.312-14.336-20.48-7.168-6.144-13.312-10.24-19.456-11.264s-12.288-2.048-16.384-1.024c-6.144 1.024-11.264 4.096-16.384 7.168-2.048 1.024-4.096 3.072-6.144 4.096-2.048 2.048-5.12 4.096-7.168 6.144-3.072 3.072-5.12 6.144-8.192 10.24-2.048 2.048-5.12 7.168-12.288 15.36s-13.312 16.384-22.528 27.648l-55.296-55.296c-5.12-6.144-12.288-8.192-21.504-8.192-4.096 0-7.168 0-12.288 2.048-4.096 1.024-8.192 3.072-12.288 4.096-5.12 2.048-9.216 5.12-13.312 7.168l84.992 87.040c-4.096 5.12-8.192 10.24-11.264 15.36s-7.168 9.216-10.24 12.288c-3.072 4.096-6.144 8.192-9.216 12.288-7.168 9.216-14.336 14.336-19.456 15.36-6.144 1.024-13.312-2.048-21.504-8.192-3.072 2.048-4.096 5.12-5.12 9.216-1.024 5.12-2.048 10.24-1.024 15.36s3.072 11.264 6.144 16.384 6.144 10.24 12.288 14.336zM801.792 794.368c6.144 2.048 11.264 4.096 15.36 5.12s9.216 1.024 13.312 1.024c4.096 0 7.168-1.024 10.24-2.048s6.144-2.048 8.192-3.072c6.144-4.096 10.24-8.192 14.336-14.336l9.216-17.408h1.024l37.888-76.8 41.984 96.256c4.096 5.12 7.168 8.192 12.288 10.24s9.216 4.096 14.336 4.096c6.144 0 11.264 0 16.384-2.048s11.264-3.072 16.384-5.12l-120.832-267.264c-2.048-6.144-5.12-11.264-10.24-14.336-3.072-3.072-8.192-5.12-13.312-6.144-6.144-1.024-13.312 0-21.504 4.096-8.192 3.072-14.336 7.168-17.408 12.288s-5.12 9.216-6.144 14.336c0 5.12 0 10.24 2.048 16.384 8.192-3.072 14.336-4.096 18.432-2.048s7.168 7.168 11.264 15.36l21.504 47.104c-2.048 5.12-5.12 10.24-8.192 15.36s-5.12 12.288-8.192 18.432c-3.072 6.144-7.168 12.288-10.24 19.456-3.072 6.144-6.144 12.288-9.216 19.456-7.168 14.336-15.36 29.696-23.552 45.056-5.12 10.24-10.24 16.384-15.36 19.456s-12.288 1.024-22.528-4.096c-1.024 2.048-2.048 5.12-2.048 10.24s1.024 9.216 3.072 14.336c1.024 5.12 4.096 10.24 7.168 14.336 4.096 5.12 9.216 9.216 14.336 12.288z" />
<glyph unicode="&#xe901;" d="M849 877c-1.244-2.253-2.91-4.253-5-6-1-23.324-1.334-46.657-1-70-256 0.333-512 0-768-1-34.958-8.96-55.291-31.294-61-67-1.333-196-1.333-392 0-588 6.084-38.75 28.417-61.75 67-69 285.334-1.334 570.666-1.334 856 0 40.562 7.896 64.23 32.23 71 73 1.334 218.666 1.334 437.334 0 656-5.7 38.364-27.366 62.030-65 71-31.326 1-62.66 1.333-94 1zM875 845c20.012 0.333 40.012 0 60-1 20.134-4.8 33.134-17.133 39-37 1.334-193.334 1.334-386.666 0-580-9.458 6.222-19.79 10.556-31 13-22.656 1-45.324 1.334-68 1 1.008 201.266 1.008 402.6 0 604zM83 769c137.334 0 274.666 0 412 0 0-40.667 0-81.334 0-122-19.344 0.332-38.678 0-58-1-3.572-1.57-6.572-3.902-9-7-1.334-6-1.334-12 0-18 2.638-3.974 6.304-6.308 11-7 48-1.334 96-1.334 144 0 4.696 0.692 8.362 3.026 11 7 1.334 6 1.334 12 0 18-2.428 3.098-5.428 5.43-9 7-19.322 1-38.656 1.332-58 1 0 40.666 0 81.333 0 122 105.334 0 210.666 0 316 0 0-85.334 0-170.666 0-256-53.338-0.334-106.67 0-160 1-16 16-32 32-48 48-13.954 5.354-22.62 0.688-26-14 0.25-3.254 1.25-6.254 3-9 19-19 38-38 57-57 57.996-1 115.996-1.334 174-1-0.334-88.002 0-176.002 1-264 1-3.666 3.334-6 7-7 27.334-0.666 54.666-1.334 82-2 34.35-9.68 47.35-32.012 39-67-6.702-16.040-18.368-26.374-35-31-73.33-1-146.664-1.334-220-1 0.334 83.336 0 166.67-1 250-6.732 10.218-15.732 12.552-27 7-2.434-3.296-4.1-6.962-5-11-1-81.998-1.334-163.998-1-246-200.668-0.334-401.334 0-602 1-17.667 4.334-28.667 15.334-33 33-1 156.666-1.333 313.332-1 470 62.67 0.334 125.337 0 188-1 18-18 36-36 54-54 21.834-6.83 30.168 0.836 25 23-21.726 22.394-44.058 44.060-67 65-66.663 1-133.33 1.334-200 1-0.333 29.34 0 58.674 1 88 6.219 17.223 17.886 28.556 35 34z" />
<glyph unicode="&#xe902;" d="M375 509c40.258-1.234 57.592-21.568 52-61 16.506-7.58 19.172-18.246 8-32-19.132-3.226-38.466-3.894-58-2-12.098 6.138-14.764 15.138-8 27 5.788 4.642 12.454 6.976 20 7 11.874 12.842 9.54 21.842-7 27-5.818-0.462-10.818-2.794-15-7-18.334-3-26 4.666-23 23 8.58 9.442 18.914 15.442 31 18z" />
<glyph unicode="&#xe903;" d="M483 467c19.344 0.332 38.678 0 58-1 12.098-6.138 14.764-15.138 8-27-5.056-4.748-11.056-6.748-18-6 0-60 0-120 0-180 19.158-0.996 25.158-10.33 18-28-2.33-2.168-4.996-3.834-8-5-20.814-1.852-41.482-1.184-62 2-6.606 7.59-7.606 15.924-3 25 6.082 4.858 13.082 6.858 21 6 0 60 0 120 0 180-18.36-1.978-26.026 6.022-23 24 2.050 4.374 5.050 7.708 9 10z" />
<glyph unicode="&#xe904;" d="M149 445c6.787 0.876 12.787-0.79 18-5 24.333-24.334 48.666-48.666 73-73 25.058 25.726 50.724 50.726 77 75 10.408 4.958 18.74 2.624 25-7 0.334-28.334 0.666-56.666 1-85 0.302-29.846-0.698-59.512-3-89-8.926-7.91-17.926-7.91-27 0-1.196 2.59-2.196 5.256-3 8-0.666 39.334-1.334 78.666-2 118-19.726-20.394-40.058-40.060-61-59-6.268-1.58-12.268-0.914-18 2-19 19-38 38-57 57-0.667-40-1.333-80-2-120-1-6.334-4.667-10-11-11-10.333-2.354-17.333 1.314-21 11-1.333 55.334-1.333 110.666 0 166 1.366 6.358 5.033 10.358 11 12z" />
<glyph unicode="&#xe905;" glyph-name="cancelar" d="M703.488 498.432c0 11.264-5.12 22.528-13.312 31.744-9.216 8.192-20.48 13.312-31.744 13.312-13.312 1.024-26.624-4.096-36.864-13.312l-109.568-110.592-109.568 110.592c-10.24 9.216-23.552 14.336-35.84 13.312-12.288 0-23.552-5.12-32.768-13.312-8.192-9.216-13.312-20.48-13.312-31.744-1.024-13.312 4.096-26.624 13.312-35.84l110.592-110.592-110.592-109.568c-9.216-10.24-14.336-23.552-13.312-35.84 0-12.288 5.12-23.552 13.312-32.768 9.216-8.192 20.48-13.312 32.768-13.312 12.288-1.024 25.6 4.096 35.84 13.312l109.568 110.592 110.592-110.592c9.216-9.216 22.528-14.336 35.84-13.312 11.264 0 22.528 5.12 31.744 13.312 8.192 9.216 13.312 20.48 13.312 32.768 1.024 12.288-4.096 25.6-13.312 35.84l-110.592 109.568 110.592 109.568c9.216 10.24 14.336 23.552 13.312 36.864zM512 864c-282.624 0-512-229.376-512-512s229.376-512 512-512c282.624 0 512 229.376 512 512s-229.376 512-512 512zM512-63.744c-229.376 0-415.744 186.368-415.744 415.744s186.368 415.744 415.744 415.744 415.744-186.368 415.744-415.744c0-229.376-186.368-415.744-415.744-415.744z" />
<glyph unicode="&#xe906;" d="M99 241c18.945 3.052 27.612-4.948 26-24 77.334 0 154.666 0 232 0-1.626 19.378 7.042 27.044 26 23 3.098-2.428 5.43-5.428 7-9 1.334-19.334 1.334-38.666 0-58-1.166-3.004-2.832-5.67-5-8-17.794-6.846-27.128-0.846-28 18-77.334 0-154.666 0-232 0-0.449-17.438-9.115-23.772-26-19-3.518 2.016-5.851 5.016-7 9-1.333 19.334-1.333 38.666 0 58 1.995 3.646 4.328 6.98 7 10z" />
<glyph unicode="&#xe907;" d="M125 53c-2.672-3.020-5.005-6.354-7-10-1.333-46.666-1.333-93.334 0-140 1.569-3.572 3.902-6.572 7-9 257.334-1.334 514.666-1.334 772 0 3.098 2.428 5.43 5.428 7 9 1.334 46.666 1.334 93.334 0 140-1.57 3.572-3.902 6.572-7 9-257.332 1-514.666 1.334-772 1zM151 21c17.333 0 34.667 0 52 0-0.332-8.028 0.002-16.028 1-24 8.020-9.006 17.352-10.34 28-4 2.758 9.072 3.758 18.406 3 28 13.334 0 26.666 0 40 0-0.768-14.178 0.232-28.178 3-42 7.59-6.606 15.924-7.606 25-3 2.402 1.806 4.070 4.138 5 7 1 12.65 1.332 25.316 1 38 13.334 0 26.666 0 40 0-0.332-8.028 0.002-16.028 1-24 3.058-6.032 8.058-8.698 15-8 4.852-0.192 9.186 1.14 13 4 2.758 9.072 3.758 18.406 3 28 13.334 0 26.666 0 40 0-0.768-14.178 0.232-28.178 3-42 9.334-8 18.666-8 28 0 2.768 13.822 3.768 27.822 3 42 13.334 0 26.666 0 40 0-0.332-8.028 0.002-16.028 1-24 3.058-6.032 8.058-8.698 15-8 4.852-0.192 9.186 1.14 13 4 2.758 9.072 3.758 18.406 3 28 13.334 0 26.666 0 40 0-0.768-14.178 0.232-28.178 3-42 9.334-8 18.666-8 28 0 2.768 13.822 3.768 27.822 3 42 13.334 0 26.666 0 40 0-0.332-8.028 0.002-16.028 1-24 3.058-6.032 8.058-8.698 15-8 4.852-0.192 9.186 1.14 13 4 2.758 9.072 3.758 18.406 3 28 13.334 0 26.666 0 40 0-0.332-12.684 0-25.35 1-38 3.058-6.868 8.392-10.2 16-10 5.628-0.184 10.294 1.816 14 6 2.768 13.822 3.768 27.822 3 42 13.334 0 26.666 0 40 0-0.332-8.028 0.002-16.028 1-24 3.058-6.032 8.058-8.698 15-8 6.582-0.442 11.582 2.226 15 8 0.998 7.972 1.332 15.972 1 24 17.334 0 34.666 0 52 0 0-32 0-64 0-96-240 0-480 0-720 0 0 32 0 64 0 96z" />
<glyph unicode="&#xe908;" glyph-name="aceptar" d="M512 864c-282.624 0-512-229.376-512-512s229.376-512 512-512 512 229.376 512 512-229.376 512-512 512zM512-63.744c-229.376 0-415.744 186.368-415.744 415.744s186.368 415.744 415.744 415.744 415.744-186.368 415.744-415.744-186.368-415.744-415.744-415.744zM721.92 511.744c-13.312 0-25.6-4.096-35.84-13.312l-222.208-222.208-125.952 125.952c-10.24 9.216-22.528 14.336-35.84 13.312-11.264 0-23.552-5.12-31.744-13.312-9.216-9.216-13.312-20.48-14.336-31.744 0-13.312 4.096-26.624 14.336-35.84l159.744-160.768c9.216-9.216 21.504-13.312 33.792-13.312s24.576 4.096 33.792 13.312l256 256c10.24 10.24 14.336 23.552 14.336 35.84-1.024 12.288-5.12 23.552-14.336 32.768-8.192 8.192-20.48 12.288-31.744 13.312z" />
<glyph unicode="&#xe90b;" glyph-name="radio-vacio" d="M512 864c-282.624 0-512-229.376-512-512s229.376-512 512-512c282.624 0 512 229.376 512 512s-229.376 512-512 512zM512-63.744c-229.376 0-415.744 186.368-415.744 415.744s186.368 415.744 415.744 415.744 415.744-186.368 415.744-415.744-186.368-415.744-415.744-415.744z" />
<glyph unicode="&#xe90c;" glyph-name="radio-relleno" d="M512 864c-282.624 0-512-229.376-512-512s229.376-512 512-512c282.624 0 512 229.376 512 512s-229.376 512-512 512zM512-63.744c-229.376 0-415.744 186.368-415.744 415.744s186.368 415.744 415.744 415.744 415.744-186.368 415.744-415.744-186.368-415.744-415.744-415.744zM764.928 352c0-139.264-113.664-252.928-252.928-252.928s-252.928 113.664-252.928 252.928c0 139.264 113.664 252.928 252.928 252.928s252.928-113.664 252.928-252.928z" />
<glyph unicode="&#xe90e;" glyph-name="descargar" d="M927.744 274.176c30.72 0 54.272-24.576 54.272-54.272v-293.888c0-29.696-23.552-54.272-54.272-54.272h-835.584c-29.696 0-56.32 24.576-56.32 54.272v293.888c0 29.696 26.624 54.272 56.32 54.272s54.272-24.576 54.272-54.272v-237.568h728.064v237.568c0 29.696 23.552 54.272 53.248 54.272zM472.064 152.32l-220.16 220.16c-21.504 21.504-21.504 53.248 0 75.776s54.272 21.504 75.776 0l128-125.952v467.968c0 29.696 24.576 54.272 54.272 54.272s54.272-24.576 54.272-54.272v-467.968l125.952 125.952c21.504 21.504 56.32 21.504 77.824 0s22.528-54.272 0-75.776l-220.16-220.16c-10.24-10.24-23.552-16.384-37.888-16.384s-27.648 6.144-37.888 16.384z" />
<glyph unicode="&#xe90f;" glyph-name="editar" d="M1012.736 587.52l-265.216 265.216c-8.192 7.168-17.408 11.264-27.648 11.264s-19.456-4.096-26.624-11.264l-693.248-692.224v-320.512h320.512l692.224 693.248c7.168 7.168 11.264 17.408 11.264 26.624 0 10.24-4.096 19.456-11.264 27.648zM96.256-63.744v155.648l155.648-155.648h-155.648zM337.92-14.592l-191.488 192.512 443.392 444.416 192.512-192.512-444.416-444.416zM849.92 498.432l-191.488 191.488 61.44 62.464 192.512-192.512-62.464-61.44z" />
<glyph unicode="&#xe910;" glyph-name="editar2" d="M912.384 383.744c-26.624 0-48.128-21.504-48.128-48.128v-399.36h-768v768h399.36c26.624 0 48.128 21.504 48.128 48.128s-21.504 48.128-48.128 48.128h-431.104c-35.84 0-64.512-28.672-64.512-64.512v-832.512c0-34.816 28.672-63.488 64.512-63.488h831.488c35.84 0 64.512 28.672 64.512 63.488v432.128c0 26.624-21.504 48.128-48.128 48.128zM1012.736 715.52l-137.216 137.216c-8.192 7.168-17.408 11.264-27.648 11.264s-19.456-4.096-26.624-11.264l-533.504-532.48v-192.512h192.512l532.48 533.504c7.168 7.168 11.264 17.408 11.264 26.624 0 10.24-4.096 19.456-11.264 27.648zM448.512 224h-64.512v64.512l463.872 463.872 64.512-64.512-463.872-463.872z" />
<glyph unicode="&#xe91c;" glyph-name="estilo" d="M922.624 864q39.936 0 70.656-26.624t29.696-66.56q0-35.84-25.6-86.016-189.44-359.424-266.24-430.080-55.296-52.224-123.904-52.224-72.704 0-123.904 53.248t-52.224 125.952q0 72.704 53.248 120.832l364.544 330.752q33.792 30.72 73.728 30.72zM403.456 273.152q22.528-43.008 60.416-74.752t86.016-43.008l1.024-40.96q2.048-120.832-73.728-197.632t-199.68-76.8q-69.632 0-123.904 26.624t-87.040 72.704-50.176 104.448-16.384 125.952q4.096-3.072 23.552-17.408t35.84-25.6 32.768-20.48 26.624-9.216q23.552 0 31.744 20.48 14.336 37.888 32.768 64.512t39.936 43.008 50.176 27.648 58.368 14.336 71.68 6.144z" />
<glyph unicode="&#xe921;" glyph-name="mover" d="M971.776 385.792l-145.408 146.432c-18.432 17.408-44.032 17.408-60.416 0-17.408-18.432-17.408-44.032 0-62.464l69.632-71.68h-281.6v287.744l69.632-69.632c8.192-8.192 20.48-12.288 32.768-12.288s21.504 4.096 29.696 12.288c18.432 17.408 18.432 44.032 0 61.44l-144.384 144.384c-7.168 8.192-19.456 14.336-31.744 14.336s-21.504-6.144-29.696-14.336l-146.432-144.384c-17.408-17.408-17.408-44.032 0-61.44s46.080-18.432 62.464 0l69.632 69.632v-287.744h-281.6l69.632 71.68c18.432 18.432 18.432 44.032 0 62.464s-44.032 17.408-61.44 0l-144.384-146.432c-8.192-8.192-14.336-17.408-14.336-29.696s6.144-23.552 14.336-31.744l144.384-146.432c7.168-8.192 19.456-12.288 31.744-12.288s21.504 6.144 29.696 14.336c18.432 18.432 18.432 41.984 0 60.416l-69.632 71.68h281.6v-281.6l-69.632 69.632c-18.432 18.432-44.032 16.384-62.464 0-17.408-18.432-17.408-46.080 0-62.464l146.432-143.36c8.192-8.192 17.408-14.336 29.696-14.336s24.576 6.144 31.744 14.336l144.384 143.36c18.432 18.432 18.432 46.080 0 62.464-18.432 18.432-46.080 18.432-62.464 0l-69.632-69.632v281.6h281.6l-69.632-71.68c-17.408-18.432-17.408-41.984 0-60.416 8.192-8.192 18.432-14.336 29.696-14.336s22.528 4.096 30.72 12.288l145.408 146.432c8.192 8.192 12.288 19.456 12.288 31.744s-4.096 21.504-12.288 29.696z" />
<glyph unicode="&#xe931;" glyph-name="seleccionar" d="M131.072 271.104c0 24.576 10.24 49.152 30.72 66.56 35.84 32.768 92.16 28.672 124.928-7.168l31.744-35.84v401.408c0 49.152 39.936 89.088 89.088 89.088s89.088-39.936 89.088-89.088v-207.872c12.288 7.168 28.672 12.288 45.056 12.288 37.888 0 69.632-23.552 82.944-56.32 13.312 8.192 29.696 13.312 47.104 13.312 44.032 0 79.872-30.72 88.064-71.68 12.288 7.168 27.648 11.264 44.032 11.264 49.152 0 89.088-39.936 89.088-89.088v-217.088c0-95.232-86.016-172.032-191.488-172.032h-190.464c-57.344 0-123.904 36.864-162.816 74.752l-194.56 218.112c-14.336 17.408-22.528 37.888-22.528 59.392zM52.224 271.104v0c0-40.96 15.36-80.896 41.984-111.616l194.56-218.112c1.024-2.048 2.048-3.072 4.096-4.096 25.6-25.6 59.392-49.152 95.232-66.56 41.984-20.48 83.968-30.72 122.88-30.72h190.464c70.656 0 137.216 24.576 188.416 70.656 53.248 47.104 81.92 111.616 81.92 180.224v217.088c0 93.184-75.776 168.96-167.936 168.96-1.024 0-2.048 0-3.072 0-30.72 36.864-77.824 60.416-129.024 60.416-6.144 0-11.264-1.024-17.408-1.024-5.12 4.096-11.264 9.216-16.384 13.312-19.456 13.312-39.936 21.504-62.464 26.624v119.808c0 92.16-75.776 167.936-167.936 167.936-93.184 0-168.96-75.776-168.96-167.936v-258.048c-2.048 1.024-5.12 1.024-8.192 1.024-45.056 3.072-88.064-12.288-121.856-41.984-35.84-31.744-56.32-77.824-56.32-125.952v0 0z" />
<glyph unicode="&#xe935;" glyph-name="mas" d="M544.768 590.592c-9.216 8.192-20.48 13.312-32.768 13.312s-23.552-5.12-32.768-13.312c-9.216-8.192-15.36-20.48-15.36-34.816v-155.648h-155.648c-13.312 0-25.6-6.144-34.816-15.36-8.192-9.216-13.312-20.48-13.312-32.768s5.12-23.552 13.312-31.744c9.216-10.24 21.504-16.384 34.816-16.384h155.648v-155.648c0-13.312 6.144-25.6 15.36-34.816 9.216-8.192 20.48-13.312 32.768-13.312s23.552 5.12 32.768 13.312c9.216 9.216 15.36 21.504 15.36 34.816v155.648h155.648c14.336 0 26.624 6.144 34.816 15.36s13.312 20.48 13.312 32.768c0 12.288-5.12 23.552-13.312 32.768s-20.48 15.36-34.816 15.36h-155.648v155.648c0 14.336-6.144 26.624-15.36 34.816zM149.504 714.496c-199.68-200.704-199.68-524.288 0-724.992s524.288-199.68 724.992 0 199.68 524.288 0 724.992c-200.704 199.68-524.288 199.68-724.992 0zM805.888 58.112c-161.792-162.816-425.984-162.816-587.776 0-162.816 161.792-162.816 425.984 0 587.776s425.984 162.816 587.776 0c162.816-161.792 162.816-425.984 0-587.776z" />
<glyph unicode="&#xe936;" glyph-name="medir-area" d="M985.088 222.976h-941.056v-353.28h941.056v353.28zM102.4-70.912v234.496h88.064v-116.736h59.392v116.736h58.368v-58.368h59.392v58.368h58.368v-116.736h59.392v116.736h58.368v-58.368h59.392v58.368h58.368v-116.736h59.392v116.736h58.368v-58.368h58.368v58.368h89.088v-234.496h-824.32zM396.288 327.424v0h-24.576l-138.24 239.616 138.24 239.616h276.48l139.264-239.616-139.264-239.616h-251.904zM600.064 411.392l90.112 155.648-90.112 155.648h-180.224l-89.088-155.648 89.088-155.648h180.224z" />
<glyph unicode="&#xe938;" glyph-name="analisis" d="M196.608 856.832c-78.848-17.408-134.144-84.992-135.168-163.84 0-18.432 1.024-24.576 5.12-38.912 11.264-33.792 33.792-73.728 67.584-117.76l19.456-27.648-13.312-13.312c-47.104-49.152-79.872-107.52-97.28-172.032-15.36-58.368-15.36-129.024-1.024-188.416 34.816-137.216 144.384-246.784 280.576-279.552 104.448-25.6 214.016-7.168 304.128 52.224l21.504 14.336 8.192-2.048c8.192-2.048 10.24-2.048 20.48 3.072l11.264 6.144 4.096-5.12 5.12-4.096-6.144-11.264c-10.24-19.456-4.096-29.696 21.504-41.984 11.264-6.144 13.312-7.168 21.504-5.12 6.144 2.048 9.216 4.096 14.336 13.312 7.168 10.24 8.192 11.264 13.312 9.216s6.144-3.072 6.144-11.264c0-21.504 9.216-28.672 33.792-28.672 25.6 0 33.792 7.168 33.792 27.648 0 9.216 1.024 10.24 7.168 12.288 6.144 1.024 7.168 1.024 10.24-5.12 7.168-11.264 11.264-14.336 18.432-17.408 6.144-2.048 8.192-1.024 22.528 5.12 24.576 13.312 29.696 24.576 19.456 44.032l-5.12 8.192 4.096 5.12 5.12 4.096 11.264-5.12c18.432-9.216 28.672-4.096 40.96 19.456 3.072 7.168 6.144 14.336 6.144 17.408 0 8.192-6.144 17.408-15.36 22.528-8.192 4.096-9.216 5.12-7.168 13.312 1.024 4.096 2.048 4.096 10.24 4.096 11.264 0 21.504 4.096 25.6 11.264 4.096 6.144 6.144 27.648 3.072 37.888-3.072 13.312-10.24 17.408-24.576 18.432-11.264 1.024-13.312 2.048-14.336 5.12-2.048 8.192-1.024 9.216 8.192 14.336 9.216 6.144 14.336 14.336 14.336 22.528s-16.384 35.84-22.528 37.888c-8.192 4.096-17.408 3.072-26.624-2.048l-9.216-5.12-9.216 9.216 4.096 9.216c6.144 10.24 7.168 19.456 2.048 27.648-3.072 6.144-24.576 19.456-33.792 21.504-9.216 1.024-19.456-4.096-25.6-14.336-5.12-9.216-6.144-10.24-14.336-8.192-4.096 1.024-4.096 3.072-5.12 14.336-1.024 17.408-6.144 23.552-24.576 24.576l-12.288 1.024-1.024 23.552c-9.216 156.672-110.592 290.816-259.072 342.016-41.984 14.336-98.304 22.528-139.264 20.48l-21.504-2.048 8.192 17.408c12.288 25.6 16.384 43.008 16.384 66.56 0 73.728-52.224 140.288-124.928 160.768-19.456 6.144-60.416 7.168-80.896 3.072zM257.024 740.096c35.84-18.432 41.984-66.56 13.312-93.184-23.552-20.48-56.32-19.456-77.824 1.024-30.72 30.72-19.456 79.872 20.48 95.232 11.264 4.096 33.792 3.072 44.032-3.072zM475.136 585.472c10.24-2.048 24.576-5.12 32.768-7.168 16.384-5.12 52.224-17.408 54.272-20.48 3.072-2.048-9.216-15.36-18.432-19.456-5.12-3.072-18.432-5.12-33.792-7.168-29.696-3.072-35.84-5.12-50.176-13.312-7.168-5.12-12.288-10.24-16.384-16.384-6.144-9.216-6.144-11.264-6.144-26.624 0-12.288 1.024-20.48 6.144-34.816 11.264-35.84 11.264-38.912-7.168-80.896-11.264-25.6-11.264-26.624-11.264-45.056 0-15.36 1.024-20.48 4.096-25.6 7.168-15.36 17.408-24.576 30.72-30.72 11.264-6.144 15.36-7.168 28.672-7.168 12.288 1.024 16.384 2.048 27.648 7.168 23.552 10.24 35.84 26.624 48.128 64.512 5.12 15.36 10.24 24.576 18.432 30.72 4.096 3.072 8.192 4.096 20.48 4.096s17.408-2.048 41.984-11.264c34.816-12.288 48.128-14.336 68.608-8.192 7.168 2.048 18.432 8.192 25.6 12.288 7.168 5.12 13.312 8.192 13.312 8.192 1.024-1.024 4.096-9.216 7.168-20.48 9.216-27.648 14.336-54.272 16.384-87.040 2.048-27.648 2.048-28.672-2.048-34.816-3.072-4.096-5.12-9.216-6.144-17.408 0-11.264-1.024-12.288-6.144-13.312-3.072-1.024-6.144-1.024-6.144-1.024-9.216 14.336-12.288 18.432-18.432 21.504-8.192 4.096-15.36 2.048-30.72-6.144-13.312-8.192-20.48-16.384-20.48-24.576 0-3.072 2.048-9.216 5.12-15.36l5.12-10.24-4.096-4.096-4.096-5.12-10.24 5.12c-8.192 4.096-12.288 5.12-18.432 4.096-10.24-1.024-14.336-5.12-22.528-20.48-11.264-20.48-8.192-33.792 10.24-44.032 6.144-3.072 6.144-4.096 5.12-8.192-1.024-8.192-2.048-8.192-12.288-8.192-20.48 0-27.648-9.216-27.648-33.792 0-25.6 5.12-32.768 26.624-34.816 11.264-1.024 12.288-1.024 13.312-6.144 2.048-6.144 1.024-7.168-15.36-16.384-3.072-2.048-25.6 9.216-33.792 17.408-15.36 15.36-17.408 28.672-13.312 73.728 4.096 41.984-1.024 61.44-18.432 76.8-10.24 9.216-18.432 13.312-31.744 13.312-20.48 0-36.864-13.312-51.2-41.984-15.36-29.696-25.6-38.912-39.936-37.888-10.24 1.024-14.336 7.168-17.408 31.744-2.048 11.264-5.12 25.6-8.192 30.72-7.168 17.408-24.576 27.648-47.104 27.648-18.432 0-31.744-5.12-45.056-17.408-21.504-19.456-29.696-43.008-36.864-93.184-5.12-35.84-8.192-51.2-13.312-64.512-9.216-21.504-32.768-44.032-55.296-54.272-20.48-8.192-19.456-9.216-36.864 5.12-49.152 38.912-87.040 91.136-111.616 151.552l-7.168 18.432 6.144 8.192c7.168 10.24 18.432 17.408 26.624 18.432 4.096 0 14.336-4.096 24.576-8.192 22.528-10.24 29.696-11.264 41.984-8.192 21.504 7.168 36.864 31.744 33.792 56.32-2.048 21.504-9.216 34.816-40.96 65.536-17.408 16.384-28.672 29.696-30.72 33.792-5.12 14.336-4.096 24.576 7.168 47.104 11.264 23.552 14.336 38.912 10.24 53.248-4.096 10.24-18.432 23.552-31.744 30.72l-10.24 5.12 3.072 7.168c8.192 12.288 26.624 36.864 43.008 53.248l15.36 16.384 5.12-7.168c7.168-8.192 33.792-37.888 45.056-50.176 5.12-6.144 11.264-10.24 13.312-10.24 10.24 0 86.016 89.088 120.832 141.312 5.12 9.216 11.264 16.384 12.288 18.432 5.12 5.12 79.872 5.12 110.592 0zM816.128 188.16c0-9.216 1.024-16.384 2.048-17.408 4.096-3.072 36.864-11.264 40.96-10.24 1.024 1.024 6.144 7.168 9.216 13.312 4.096 7.168 7.168 12.288 8.192 12.288 2.048 0 18.432-8.192 21.504-11.264 0 0-3.072-6.144-7.168-12.288-4.096-7.168-7.168-13.312-7.168-15.36 0-5.12 26.624-30.72 30.72-30.72 2.048 0 9.216 2.048 15.36 6.144 5.12 3.072 11.264 5.12 13.312 5.12 2.048-1.024 11.264-15.36 11.264-19.456 0-1.024-6.144-4.096-12.288-8.192-14.336-7.168-15.36-11.264-11.264-25.6 2.048-5.12 4.096-12.288 4.096-15.36 2.048-10.24 8.192-13.312 23.552-13.312h13.312v-23.552h-14.336c-11.264 0-15.36-1.024-17.408-4.096-4.096-4.096-12.288-33.792-11.264-38.912 1.024-3.072 6.144-7.168 13.312-11.264 6.144-3.072 12.288-7.168 12.288-8.192 0-3.072-10.24-19.456-12.288-19.456-1.024 0-6.144 2.048-12.288 6.144-6.144 3.072-12.288 6.144-15.36 6.144-4.096 0-30.72-25.6-30.72-30.72 0-2.048 3.072-9.216 7.168-15.36s6.144-12.288 6.144-13.312c-1.024 0-5.12-3.072-10.24-6.144-11.264-6.144-9.216-7.168-20.48 11.264-5.12 7.168-7.168 9.216-11.264 9.216-5.12 0-34.816-7.168-36.864-9.216-1.024 0-1.024-8.192-2.048-17.408l-1.024-16.384h-23.552l-1.024 15.36c-1.024 9.216-2.048 16.384-3.072 17.408-2.048 2.048-29.696 10.24-34.816 11.264-6.144 0-9.216-2.048-15.36-13.312-4.096-7.168-8.192-12.288-8.192-13.312-1.024-1.024-21.504 11.264-21.504 12.288s3.072 6.144 6.144 11.264c10.24 16.384 10.24 16.384-5.12 32.768-15.36 15.36-18.432 16.384-33.792 7.168-5.12-3.072-10.24-5.12-11.264-5.12-2.048 0-14.336 19.456-13.312 20.48 0 0 6.144 3.072 12.288 7.168 15.36 8.192 16.384 10.24 11.264 26.624-2.048 6.144-4.096 14.336-4.096 15.36 0 8.192-5.12 11.264-21.504 12.288l-15.36 1.024v21.504l16.384 1.024c15.36 1.024 20.48 4.096 20.48 12.288 0 2.048 2.048 9.216 4.096 16.384 5.12 15.36 4.096 17.408-10.24 25.6-6.144 3.072-12.288 7.168-12.288 8.192-1.024 0 2.048 6.144 5.12 11.264l6.144 10.24 9.216-5.12c5.12-3.072 10.24-6.144 11.264-7.168s4.096-1.024 6.144-1.024c6.144 0 31.744 24.576 31.744 29.696 0 3.072-3.072 9.216-6.144 15.36-4.096 6.144-6.144 12.288-6.144 13.312 1.024 1.024 5.12 4.096 10.24 7.168 9.216 5.12 10.24 5.12 12.288 1.024 8.192-14.336 14.336-21.504 17.408-22.528 2.048 0 9.216 1.024 14.336 2.048 5.12 2.048 12.288 4.096 15.36 4.096 10.24 2.048 12.288 6.144 12.288 22.528v15.36l12.288-1.024h12.288l1.024-15.36zM776.192 103.168c-28.672-11.264-45.056-33.792-47.104-62.464-3.072-32.768 14.336-61.44 45.056-75.776 7.168-3.072 13.312-4.096 27.648-4.096 16.384 0 20.48 1.024 30.72 5.12 15.36 7.168 27.648 19.456 35.84 34.816 6.144 11.264 7.168 13.312 7.168 33.792 0 18.432-1.024 21.504-6.144 31.744-7.168 14.336-21.504 28.672-34.816 34.816-9.216 5.12-14.336 6.144-29.696 6.144-15.36 1.024-19.456 0-28.672-4.096zM824.32 82.688c24.576-11.264 35.84-37.888 28.672-63.488-4.096-15.36-19.456-30.72-32.768-34.816-36.864-11.264-70.656 13.312-70.656 49.152 0 39.936 38.912 64.512 74.752 49.152z" />
<glyph unicode="&#xe93e;" glyph-name="papelera" d="M911.36 704.256h-206.848v96.256c0 34.816-28.672 63.488-63.488 63.488h-256c-35.84 0-64.512-28.672-64.512-63.488v-96.256h-206.848c-26.624 0-48.128-21.504-48.128-48.128s21.504-48.128 48.128-48.128h47.104v-704.512c0-34.816 28.672-63.488 63.488-63.488h576.512c34.816 0 63.488 28.672 63.488 63.488v704.512h47.104c26.624 0 48.128 21.504 48.128 48.128s-21.504 48.128-48.128 48.128zM416.768 767.744h191.488v-63.488h-191.488v63.488zM769.024-63.744h-512v671.744h512v-671.744zM472.064 81.664v359.424c0 23.552 17.408 39.936 40.96 39.936 22.528 0 39.936-16.384 39.936-39.936v-359.424c0-22.528-17.408-39.936-39.936-39.936-23.552 0-40.96 17.408-40.96 39.936zM629.76 81.664v359.424c0 23.552 17.408 39.936 40.96 39.936s39.936-16.384 39.936-39.936v-359.424c0-22.528-17.408-39.936-39.936-39.936-23.552 0-40.96 17.408-40.96 39.936zM314.368 81.664v359.424c0 23.552 17.408 39.936 40.96 39.936s39.936-16.384 39.936-39.936v-359.424c0-22.528-17.408-39.936-39.936-39.936-23.552 0-40.96 17.408-40.96 39.936z" />
<glyph unicode="&#xe95e;" glyph-name="subir" d="M927.744 274.176c30.72 0 54.272-24.576 54.272-54.272v-293.888c0-29.696-23.552-54.272-54.272-54.272h-835.584c-29.696 0-56.32 24.576-56.32 54.272v293.888c0 29.696 26.624 54.272 56.32 54.272s54.272-24.576 54.272-54.272v-237.568h728.064v237.568c0 29.696 23.552 54.272 53.248 54.272zM327.68 532.224c-21.504-22.528-53.248-22.528-75.776 0s-21.504 54.272 0 75.776l220.16 220.16c10.24 10.24 23.552 16.384 37.888 16.384s27.648-6.144 37.888-16.384l220.16-220.16c22.528-21.504 22.528-54.272 0-75.776-10.24-10.24-23.552-16.384-37.888-16.384s-29.696 6.144-39.936 16.384l-125.952 125.952v-467.968c0-29.696-24.576-54.272-54.272-54.272s-54.272 24.576-54.272 54.272v467.968l-128-125.952z" />
<glyph unicode="&#xe95f;" glyph-name="tamano" d="M730.112 622.336h-678.912c-28.672 0-51.2-22.528-51.2-51.2v-678.912c0-27.648 22.528-51.2 51.2-51.2h678.912c27.648 0 51.2 23.552 51.2 51.2v678.912c0 28.672-23.552 51.2-51.2 51.2zM678.912-56.576h-576.512v577.536h576.512v-577.536zM1013.76 5.888h-55.296v593.92h55.296c4.096 0 8.192 3.072 9.216 7.168 2.048 3.072 1.024 7.168-2.048 10.24l-89.088 89.088c-4.096 4.096-10.24 4.096-14.336 0l-89.088-89.088c-3.072-3.072-4.096-7.168-2.048-10.24 1.024-4.096 5.12-7.168 9.216-7.168h55.296v-593.92h-55.296c-4.096 0-8.192-2.048-9.216-6.144-2.048-4.096-1.024-8.192 2.048-11.264l89.088-89.088c4.096-4.096 10.24-4.096 14.336 0l89.088 89.088c3.072 3.072 4.096 7.168 2.048 11.264-1.024 4.096-5.12 6.144-9.216 6.144zM147.456 667.392c3.072-3.072 7.168-4.096 11.264-2.048 3.072 1.024 6.144 5.12 6.144 9.216v55.296h593.92v-55.296c0-4.096 2.048-8.192 6.144-9.216 4.096-2.048 8.192-1.024 11.264 2.048l89.088 89.088c4.096 4.096 4.096 10.24 0 14.336l-89.088 89.088c-3.072 3.072-7.168 3.072-11.264 2.048-4.096-2.048-6.144-5.12-6.144-9.216v-55.296h-593.92v55.296c0 4.096-3.072 7.168-6.144 9.216-4.096 1.024-8.192 1.024-11.264-2.048l-89.088-89.088c-4.096-4.096-4.096-10.24 0-14.336l89.088-89.088z" />
<glyph unicode="&#xe981;" glyph-name="ayuda" d="M584.704 77.568v109.568q0 8.192-5.12 13.312t-12.288 5.12h-110.592q-7.168 0-12.288-5.12t-5.12-13.312v-109.568q0-8.192 5.12-13.312t12.288-5.12h110.592q7.168 0 12.288 5.12t5.12 13.312zM731.136 461.568q0 50.176-31.744 93.184t-78.848 66.56-97.28 23.552q-138.24 0-211.968-121.856-8.192-13.312 5.12-24.576l74.752-56.32q4.096-4.096 11.264-4.096 9.216 0 14.336 7.168 29.696 38.912 49.152 52.224 19.456 14.336 49.152 14.336 27.648 0 49.152-15.36t20.48-33.792q0-21.504-11.264-34.816t-38.912-25.6q-35.84-15.36-65.536-49.152t-29.696-71.68v-20.48q0-8.192 5.12-13.312t12.288-5.12h110.592q7.168 0 12.288 5.12t5.12 13.312q0 10.24 12.288 27.648t31.744 28.672q18.432 10.24 27.648 16.384t26.624 19.456 25.6 27.648 15.36 34.816 7.168 46.080zM951.296 352q0-119.808-59.392-220.16t-159.744-159.744-220.16-59.392-220.16 59.392-159.744 159.744-59.392 220.16 59.392 220.16 159.744 159.744 220.16 59.392 220.16-59.392 159.744-159.744 59.392-220.16z" />
<glyph unicode="&#xea5a;" glyph-name="scissors" d="M548.864 352q14.336 0 25.6-11.264t10.24-25.6-10.24-25.6-25.6-10.24-25.6 10.24-11.264 25.6 11.264 25.6 25.6 11.264zM719.872 315.136l289.792-227.328q16.384-11.264 14.336-31.744-3.072-20.48-19.456-28.672l-73.728-36.864q-7.168-4.096-16.384-4.096-10.24 0-17.408 4.096l-394.24 221.184-63.488-36.864q-4.096-3.072-7.168-3.072 8.192-28.672 6.144-55.296-4.096-44.032-31.744-84.992t-75.776-70.656q-75.776-48.128-157.696-48.128-77.824 0-126.976 45.056-52.224 48.128-45.056 118.784 4.096 43.008 31.744 83.968t74.752 70.656q75.776 48.128 158.72 48.128 47.104 0 86.016-18.432 5.12 8.192 13.312 13.312l69.632 40.96-69.632 41.984q-8.192 5.12-13.312 12.288-38.912-17.408-86.016-17.408-82.944 0-158.72 48.128-47.104 30.72-74.752 70.656t-31.744 83.968q-3.072 33.792 8.192 64.512t36.864 53.248q48.128 45.056 126.976 45.056 81.92 0 157.696-48.128 47.104-29.696 75.776-69.632t31.744-84.992q2.048-27.648-6.144-55.296 3.072-1.024 7.168-3.072l63.488-37.888 394.24 221.184q7.168 5.12 17.408 5.12 9.216 0 16.384-4.096l73.728-36.864q16.384-9.216 19.456-28.672 2.048-20.48-14.336-32.768zM330.752 463.616q26.624 24.576 12.288 62.464t-60.416 66.56q-53.248 33.792-109.568 33.792-43.008 0-64.512-20.48-26.624-24.576-12.288-61.44t60.416-67.584q52.224-33.792 109.568-33.792 41.984 0 64.512 20.48zM282.624 38.656q46.080 28.672 60.416 66.56t-12.288 61.44q-22.528 20.48-64.512 20.48-57.344 0-109.568-33.792-46.080-28.672-60.416-66.56t12.288-61.44q21.504-20.48 64.512-20.48 56.32 0 109.568 33.792zM384 388.864l55.296-33.792v7.168q0 20.48 18.432 31.744l8.192 4.096-45.056 26.624-15.36-14.336q-1.024-2.048-5.12-6.144t-7.168-7.168q-1.024-1.024-2.048-2.048t-2.048-1.024zM512 260.864l55.296-18.432 419.84 328.704-72.704 36.864-439.296-245.76v-65.536l-91.136-54.272 5.12-5.12q1.024-1.024 4.096-3.072 2.048-2.048 6.144-7.168t6.144-6.144l15.36-15.36zM914.432 23.296l72.704 35.84-296.96 233.472-101.376-78.848q-1.024-2.048-7.168-4.096z" />
<glyph unicode="&#xf0b2;" glyph-name="resize-full-alt" horiz-adv-x="878" d="M733.184 554.752l-202.752-202.752 202.752-202.752 81.92 81.92q17.408 18.432 39.936 8.192 22.528-9.216 22.528-33.792v-256q0-14.336-10.24-25.6t-26.624-11.264h-256q-23.552 0-32.768 23.552-10.24 21.504 7.168 38.912l82.944 82.944-202.752 202.752-202.752-202.752 81.92-82.944q17.408-17.408 8.192-38.912-10.24-23.552-33.792-23.552h-256q-15.36 0-25.6 11.264t-11.264 25.6v256q0 24.576 22.528 33.792 22.528 10.24 39.936-8.192l81.92-81.92 202.752 202.752-202.752 202.752-81.92-81.92q-11.264-11.264-25.6-11.264-7.168 0-14.336 3.072-22.528 9.216-22.528 33.792v256q0 14.336 11.264 25.6t25.6 11.264h256q23.552 0 33.792-23.552 9.216-21.504-8.192-38.912l-81.92-82.944 202.752-202.752 202.752 202.752-82.944 82.944q-17.408 17.408-7.168 38.912 9.216 23.552 32.768 23.552h256q15.36 0 26.624-11.264t10.24-25.6v-256q0-24.576-22.528-33.792-7.168-3.072-14.336-3.072-14.336 0-25.6 11.264z" />
<glyph unicode="&#xf0ce;" glyph-name="table" horiz-adv-x="950" d="M292.864 77.568v109.568q0 8.192-5.12 13.312t-13.312 5.12h-183.296q-7.168 0-12.288-5.12t-6.144-13.312v-109.568q0-8.192 6.144-13.312t12.288-5.12h183.296q8.192 0 13.312 5.12t5.12 13.312zM292.864 296.704v110.592q0 7.168-5.12 12.288t-13.312 5.12h-183.296q-7.168 0-12.288-5.12t-6.144-12.288v-110.592q0-7.168 6.144-12.288t12.288-5.12h183.296q8.192 0 13.312 5.12t5.12 12.288zM584.704 77.568v109.568q0 8.192-5.12 13.312t-12.288 5.12h-183.296q-8.192 0-13.312-5.12t-5.12-13.312v-109.568q0-8.192 5.12-13.312t13.312-5.12h183.296q7.168 0 12.288 5.12t5.12 13.312zM292.864 516.864v109.568q0 8.192-5.12 13.312t-13.312 5.12h-183.296q-7.168 0-12.288-5.12t-6.144-13.312v-109.568q0-8.192 6.144-13.312t12.288-5.12h183.296q8.192 0 13.312 5.12t5.12 13.312zM584.704 296.704v110.592q0 7.168-5.12 12.288t-12.288 5.12h-183.296q-8.192 0-13.312-5.12t-5.12-12.288v-110.592q0-7.168 5.12-12.288t13.312-5.12h183.296q7.168 0 12.288 5.12t5.12 12.288zM877.568 77.568v109.568q0 8.192-5.12 13.312t-13.312 5.12h-182.272q-8.192 0-13.312-5.12t-5.12-13.312v-109.568q0-8.192 5.12-13.312t13.312-5.12h182.272q8.192 0 13.312 5.12t5.12 13.312zM584.704 516.864v109.568q0 8.192-5.12 13.312t-12.288 5.12h-183.296q-8.192 0-13.312-5.12t-5.12-13.312v-109.568q0-8.192 5.12-13.312t13.312-5.12h183.296q7.168 0 12.288 5.12t5.12 13.312zM877.568 296.704v110.592q0 7.168-5.12 12.288t-13.312 5.12h-182.272q-8.192 0-13.312-5.12t-5.12-12.288v-110.592q0-7.168 5.12-12.288t13.312-5.12h182.272q8.192 0 13.312 5.12t5.12 12.288zM877.568 516.864v109.568q0 8.192-5.12 13.312t-13.312 5.12h-182.272q-8.192 0-13.312-5.12t-5.12-13.312v-109.568q0-8.192 5.12-13.312t13.312-5.12h182.272q8.192 0 13.312 5.12t5.12 13.312zM951.296 699.136v-621.568q0-37.888-27.648-64.512t-64.512-26.624h-768q-36.864 0-64.512 26.624t-26.624 64.512v621.568q0 37.888 26.624 64.512t64.512 27.648h768q37.888 0 64.512-27.648t27.648-64.512z" />
</font>
</defs>
</svg>
