<?xml version="1.0" encoding="UTF-8" standalone="no"?>
<!-- Created with Inkscape (http://www.inkscape.org/) -->

<svg
   xmlns:dc="http://purl.org/dc/elements/1.1/"
   xmlns:cc="http://creativecommons.org/ns#"
   xmlns:rdf="http://www.w3.org/1999/02/22-rdf-syntax-ns#"
   xmlns:svg="http://www.w3.org/2000/svg"
   xmlns="http://www.w3.org/2000/svg"
   xmlns:sodipodi="http://sodipodi.sourceforge.net/DTD/sodipodi-0.dtd"
   xmlns:inkscape="http://www.inkscape.org/namespaces/inkscape"
   version="1.1"
   id="svg972"
   xml:space="preserve"
   width="12.575507"
   height="4.2575731"
   viewBox="0 0 12.575507 4.2575731"
   sodipodi:docname="ACUEDUCTO_HISTORICO.svg"
   inkscape:version="0.92.4 (5da689c313, 2019-01-14)"><metadata
     id="metadata978"><rdf:RDF><cc:Work
         rdf:about=""><dc:format>image/svg+xml</dc:format><dc:type
           rdf:resource="http://purl.org/dc/dcmitype/StillImage" /><dc:title></dc:title></cc:Work></rdf:RDF></metadata><defs
     id="defs976"><clipPath
       clipPathUnits="userSpaceOnUse"
       id="clipPath988"><path
         d="M 0,3.193 H 9.432 V 0 H 0 Z"
         id="path986"
         inkscape:connector-curvature="0" /></clipPath></defs><sodipodi:namedview
     pagecolor="#ffffff"
     bordercolor="#666666"
     borderopacity="1"
     objecttolerance="10"
     gridtolerance="10"
     guidetolerance="10"
     inkscape:pageopacity="0"
     inkscape:pageshadow="2"
     inkscape:window-width="1916"
     inkscape:window-height="1006"
     id="namedview974"
     showgrid="false"
     inkscape:zoom="21.816808"
     inkscape:cx="-0.69233699"
     inkscape:cy="-2.6582684"
     inkscape:window-x="-6"
     inkscape:window-y="2"
     inkscape:window-maximized="0"
     inkscape:current-layer="g980" /><g
     id="g980"
     inkscape:groupmode="layer"
     inkscape:label="ACUEDUCTO_HISTORICO"
     transform="matrix(1.3333333,0,0,-1.3333333,0,4.2575733)"><g
       id="g982"><g
         id="g984"
         clip-path="url(#clipPath988)"><g
           id="g990"
           transform="translate(0.4631,1.5687)"><path
             d="M 0,0 H 8.537"
             style="fill:none;stroke:#231f20;stroke-width:1.55900002;stroke-linecap:butt;stroke-linejoin:miter;stroke-miterlimit:10;stroke-dasharray:none;stroke-opacity:1"
             id="path992"
             inkscape:connector-curvature="0" /></g><g
           id="g994"
           transform="translate(0.4631,1.5687)"><path
             d="M 0,0 H 8.537"
             style="fill:none;stroke:#ffffff;stroke-width:0.99199998;stroke-linecap:butt;stroke-linejoin:miter;stroke-miterlimit:10;stroke-dasharray:none;stroke-opacity:1"
             id="path996"
             inkscape:connector-curvature="0" /></g><g
           id="g998"
           transform="translate(9.321,2.5985)"><path
             d="m 0,0 c 0,-0.195 -0.158,-0.354 -0.354,-0.354 -0.196,0 -0.354,0.159 -0.354,0.354 0,0.197 0.158,0.354 0.354,0.354 C -0.158,0.354 0,0.197 0,0"
             style="fill:#231f20;fill-opacity:1;fill-rule:nonzero;stroke:none"
             id="path1000"
             inkscape:connector-curvature="0" /></g><g
           id="g1002"
           transform="translate(9.321,0.5375)"><path
             d="m 0,0 c 0,-0.195 -0.158,-0.354 -0.354,-0.354 -0.196,0 -0.354,0.159 -0.354,0.354 0,0.196 0.158,0.354 0.354,0.354 C -0.158,0.354 0,0.196 0,0"
             style="fill:#231f20;fill-opacity:1;fill-rule:nonzero;stroke:none"
             id="path1004"
             inkscape:connector-curvature="0" /></g><g
           id="g1006"
           transform="translate(0.8171,2.5985)"><path
             d="m 0,0 c 0,-0.195 -0.158,-0.354 -0.354,-0.354 -0.196,0 -0.354,0.159 -0.354,0.354 0,0.197 0.158,0.354 0.354,0.354 C -0.158,0.354 0,0.197 0,0"
             style="fill:#231f20;fill-opacity:1;fill-rule:nonzero;stroke:none"
             id="path1008"
             inkscape:connector-curvature="0" /></g><g
           id="g1010"
           transform="translate(0.8171,0.5375)"><path
             d="m 0,0 c 0,-0.195 -0.158,-0.354 -0.354,-0.354 -0.196,0 -0.354,0.159 -0.354,0.354 0,0.196 0.158,0.354 0.354,0.354 C -0.158,0.354 0,0.196 0,0"
             style="fill:#231f20;fill-opacity:1;fill-rule:nonzero;stroke:none"
             id="path1012"
             inkscape:connector-curvature="0" /></g></g></g></g></svg>