<?xml version="1.0" encoding="UTF-8"?>
<svg width="21.963mm" height="23.029mm" version="1.0" xmlns="http://www.w3.org/2000/svg" xmlns:cc="http://creativecommons.org/ns#" xmlns:dc="http://purl.org/dc/elements/1.1/" xmlns:rdf="http://www.w3.org/1999/02/22-rdf-syntax-ns#">
 <metadata>
  <rdf:RDF>
   <cc:Work rdf:about="">
    <dc:format>image/svg+xml</dc:format>
    <dc:type rdf:resource="http://purl.org/dc/dcmitype/StillImage"/>
    <dc:title/>
   </cc:Work>
  </rdf:RDF>
 </metadata>
 <path d="m83 87h-83v-87h83v87z" style="fill:#dee7a2"/>
 <path d="m32.333 39 1.3333 6.3333h-1.3333v1.3333" style="fill:none;stroke-miterlimit:2;stroke-width:.66667px;stroke:#52ae32"/>
 <path d="m32.333 45.333h-1l1-6.3333" style="fill:none;stroke-miterlimit:2;stroke-width:.33333px;stroke:#52ae32"/>
 <path d="m14 15 1.3333 6.3333h-1v1.6667" style="fill:none;stroke-miterlimit:2;stroke-width:.66667px;stroke:#52ae32"/>
 <path d="m14.333 21.333h-1.3333l1-6.3333" style="fill:none;stroke-miterlimit:2;stroke-width:.33333px;stroke:#52ae32"/>
 <path d="m10.333 59.333 1.3333 6.3333h-1.3333l.33333 1.3333" style="fill:none;stroke-miterlimit:2;stroke-width:.66667px;stroke:#52ae32"/>
 <path d="m10.333 65.667h-1l1-6.3333" style="fill:none;stroke-miterlimit:2;stroke-width:.33333px;stroke:#52ae32"/>
 <path d="m42 6.3333 1.3333 6.3333h-1l-.33333 1.3333" style="fill:none;stroke-miterlimit:2;stroke-width:.66667px;stroke:#52ae32"/>
 <path d="m42.333 12.667h-1.3333l1-6.3333" style="fill:none;stroke-miterlimit:2;stroke-width:.33333px;stroke:#52ae32"/>
 <path d="m72.667 6.3333 1.3333 6.3333h-1.3333v1.6667" style="fill:none;stroke-miterlimit:2;stroke-width:.66667px;stroke:#52ae32"/>
 <path d="m72.667 12.667h-1l1-6.3333" style="fill:none;stroke-miterlimit:2;stroke-width:.33333px;stroke:#52ae32"/>
 <path d="m53.333 64.333 1.3333 6.3333h-1.3333v1.6667" style="fill:none;stroke-miterlimit:2;stroke-width:.66667px;stroke:#52ae32"/>
 <path d="m53.333 70.667h-1.3333l1.3333-6.3333" style="fill:none;stroke-miterlimit:2;stroke-width:.33333px;stroke:#52ae32"/>
 <path d="m59.333 30.667 1.3333 6.3333h-1.3333v1.6667" style="fill:none;stroke-miterlimit:2;stroke-width:.66667px;stroke:#52ae32"/>
 <path d="m59.333 37h-1l1-6.3333" style="fill:none;stroke-miterlimit:2;stroke-width:.33333px;stroke:#52ae32"/>
</svg>
