<?xml version="1.0" encoding="UTF-8"?>
<svg width="12.079mm" height="10.127mm" version="1.1" viewBox="0 0 12.079 10.127" xmlns="http://www.w3.org/2000/svg" xmlns:cc="http://creativecommons.org/ns#" xmlns:dc="http://purl.org/dc/elements/1.1/" xmlns:rdf="http://www.w3.org/1999/02/22-rdf-syntax-ns#">
 <defs>
  <clipPath id="clipPath83949">
   <path d="m-3.4242 1.9236h6.8494v-5.7417h-6.8494z"/>
  </clipPath>
 </defs>
 <metadata>
  <rdf:RDF>
   <cc:Work rdf:about="">
    <dc:format>image/svg+xml</dc:format>
    <dc:type rdf:resource="http://purl.org/dc/dcmitype/StillImage"/>
    <dc:title/>
   </cc:Work>
  </rdf:RDF>
 </metadata>
 <g transform="matrix(1.7639 0 0 1.7639 6.0392 6.7341)">
  <g clip-path="url(#clipPath83949)">
   <g transform="translate(-3.1792,1.7818)">
    <path d="m0 0h6.359l-3.179-5.529z" fill="#fff" fill-rule="evenodd"/>
   </g>
   <g transform="translate(-3.1792,1.7818)">
    <path d="m0 0h6.359l-3.179-5.529z" fill="none" stroke="#231f20" stroke-miterlimit="2" stroke-width=".283"/>
   </g>
   <g transform="translate(-1.769 .902)">
    <path d="M 0,0 H 3.54 L 1.77,-3.04 0,0" fill="none" stroke="#231f20" stroke-miterlimit="2" stroke-width=".283"/>
   </g>
   <g transform="translate(.2837 .0172)">
    <path d="m0 0c0 0.156-0.127 0.283-0.283 0.283-0.157 0-0.284-0.127-0.284-0.283 0-0.157 0.127-0.284 0.284-0.284 0.156 0 0.283 0.127 0.283 0.284" fill="#231f20" fill-rule="evenodd"/>
   </g>
  </g>
 </g>
</svg>
