<!-- Generated by IcoMoon.io -->
<svg version="1.1" xmlns="http://www.w3.org/2000/svg" width="512" height="512" viewBox="0 0 512 512">
<title></title>
<g id="icomoon-ignore">
</g>
<path fill="#000" d="M237.714 292.572v109.714q0 14.857-10.857 25.714t-25.715 10.857h-146.286q-14.857 0-25.715-10.857t-10.857-25.714v-109.714q0-14.857 10.857-25.714t25.715-10.857h146.286q14.857 0 25.714 10.857t10.857 25.714zM237.714 73.143v109.715q0 14.857-10.857 25.714t-25.715 10.857h-146.286q-14.857 0-25.715-10.857t-10.857-25.714v-109.715q0-14.857 10.857-25.715t25.715-10.857h146.286q14.857 0 25.714 10.857t10.857 25.715zM493.714 292.572v109.714q0 14.857-10.857 25.714t-25.714 10.857h-146.286q-14.857 0-25.714-10.857t-10.857-25.714v-109.714q0-14.857 10.857-25.714t25.714-10.857h146.286q14.857 0 25.714 10.857t10.857 25.714zM493.714 73.143v109.715q0 14.857-10.857 25.714t-25.714 10.857h-146.286q-14.857 0-25.714-10.857t-10.857-25.714v-109.715q0-14.857 10.857-25.715t25.714-10.857h146.286q14.857 0 25.714 10.857t10.857 25.715z"></path>
</svg>
