<!-- Generated by IcoMoon.io -->
<svg version="1.1" xmlns="http://www.w3.org/2000/svg" width="1024" height="1024" viewBox="0 0 1024 1024">
<title></title>
<g id="icomoon-ignore">
</g>
<path d="M1006.719 745.144l-186.212-186.216 161.573-161.575c14.455-14.453 20.396-35.353 15.704-55.247-4.684-19.896-19.337-35.946-38.724-42.42l-881.369-294.509c-21.209-7.096-44.603-1.579-60.41 14.236-15.813 15.813-21.324 39.203-14.238 60.41l294.519 881.371c6.474 19.386 22.528 34.036 42.42 38.724 19.874 4.692 40.788-1.247 55.247-15.704l165.833-165.833 186.216 186.212c11.52 11.52 26.618 17.281 41.714 17.281 15.094 0 30.196-5.761 41.712-17.281l176.017-176.017c23.036-23.038 23.036-60.393-0.002-83.431zM799.855 896.647l-189.137-187.081c-12.587-12.587-29.084-18.883-45.578-18.883s-32.995 6.296-45.576 18.883l-153.090 153.090-247.843-741.7 741.695 247.845-148.435 148.433c-25.174 25.17-25.174 65.987 0 91.161l189.131 187.087-101.167 101.165z"></path>
</svg>
