<?xml version="1.0" encoding="utf-8"?>
<!-- Generator: Adobe Illustrator 13.0.0, SVG Export Plug-In . SVG Version: 6.00 Build 14948)  -->
<!DOCTYPE svg PUBLIC "-//W3C//DTD SVG 1.1//EN" "http://www.w3.org/Graphics/SVG/1.1/DTD/svg11.dtd">
<svg version="1.1" id="Capa_1" xmlns="http://www.w3.org/2000/svg" xmlns:xlink="http://www.w3.org/1999/xlink" x="0px" y="0px"
	 width="512px" height="512px" viewBox="0 0 512 512" enable-background="new 0 0 512 512" xml:space="preserve">
<path d="M0,350c0,30.327,24.673,55,55,55h402c30.327,0,55-24.673,55-55v-5H0V350z"/>
<path d="M376,467h-29.114l-10.435-32H175.549l-10.435,32H136c-8.284,0-15,6.716-15,15s6.716,15,15,15h240c8.284,0,15-6.716,15-15
	S384.284,467,376,467z"/>
<path d="M457,15H281h-10H55C24.673,15,0,39.673,0,70v245h271h10h231V70C512,39.673,487.327,15,457,15z M146.736,271.307
	c-26.177,0-47.355-7.174-58.436-13.869l-6.634-3.998l13.986-51.868l11.523,6.398c6.04,3.381,21.437,9.728,36.54,9.728
	c5.26,0,22.441-0.965,22.441-13.37c0-15.132-23.115-15.582-25.752-15.582h-27.359V138.17h26.786c8.259,0,21.349-2.808,21.349-10.348
	c0-7.323-10.087-8.426-16.112-8.426c-12.325,0-25.742,5.513-31.759,9.213l-11.6,7.138L87.415,85.019l6.435-4.12
	c10.867-6.961,33.322-15.104,60.859-15.104c47.718,0,69.456,28.437,69.456,54.875c0,16.46-6.775,30.417-19.144,40.319
	c15.644,9.775,25.212,26.264,25.212,45.531C230.232,245.271,196.678,271.307,146.736,271.307z M394.21,243.77
	c-20.87,17.316-52.825,26.427-92.563,26.427c-23.098,0-39.398-1.553-48.995-2.852l-8.916-1.196V66.488l8.669-1.396
	c17.062-2.735,37.701-4.258,58.048-4.258c36.822,0,62.241,6.747,82.408,21.875c23.205,17.243,35.487,44.251,35.473,78.125
	C428.334,205.127,409.777,230.386,394.21,243.77z"/>
<path d="M349.438,203.85c-8.764,8.625-21.625,13.007-38.971,13.007h-0.014c-1.277,0-2.771,0-4.28-0.015V113.93
	c2.364-0.178,5.245-0.305,8.684-0.305c31.795,0,48.589,16.805,48.589,48.582C363.445,180.694,358.723,194.709,349.438,203.85z"/>
</svg>
