<?xml version="1.0" encoding="utf-8"?>
<!-- Generator: Adobe Illustrator 13.0.0, SVG Export Plug-In . SVG Version: 6.00 Build 14948)  -->
<!DOCTYPE svg PUBLIC "-//W3C//DTD SVG 1.1//EN" "http://www.w3.org/Graphics/SVG/1.1/DTD/svg11.dtd">
<svg version="1.1" id="Capa_1" xmlns="http://www.w3.org/2000/svg" xmlns:xlink="http://www.w3.org/1999/xlink" x="0px" y="0px"
	 width="512px" height="512px" viewBox="0 0 512 512" enable-background="new 0 0 512 512" xml:space="preserve">
<path d="M0,350c0,30.327,24.673,55,55,55h402c30.327,0,55-24.673,55-55v-5H0V350z"/>
<path d="M457,15H271v300h241V70C512,39.673,487.327,15,457,15z"/>
<path d="M55,15C24.673,15,0,39.673,0,70v245h241V15H55z"/>
<path d="M376,467h-29.114l-10.435-32H175.549l-10.435,32H136c-8.284,0-15,6.716-15,15s6.716,15,15,15h240c8.284,0,15-6.716,15-15
	S384.284,467,376,467z"/>
</svg>
