<!-- Generated by IcoMoon.io -->
<svg version="1.1" xmlns="http://www.w3.org/2000/svg" width="823" height="1024" viewBox="0 0 823 1024">
<title></title>
<g id="icomoon-ignore">
</g>
<path d="M372.512 812.552c0-133.171 107.953-241.124 241.124-241.124 22.849 0 44.959 3.184 65.923 9.119 38.922-76.571 65.49-150.034 65.49-208.035 0-205.641-166.871-372.512-372.537-372.512s-372.512 166.871-372.512 372.512c0 169.571 227.012 471.473 326.534 596.034 23.868 29.676 68.114 29.676 91.956 0 1.809-2.267 3.668-4.611 5.579-6.98-32.299-41.011-51.557-92.771-51.557-149.015zM248.333 372.512c0-68.496 55.683-124.179 124.179-124.179s124.179 55.683 124.179 124.179-55.683 124.179-124.179 124.179-124.179-55.683-124.179-124.179zM617.1 1024c113.582 0 205.641-92.058 205.641-205.641s-92.058-205.641-205.641-205.641-205.641 92.058-205.641 205.641 92.058 205.641 205.641 205.641zM584.979 882.627h19.283v-51.404h-19.283c-10.673 0-19.283-8.584-19.283-19.283s8.584-19.283 19.283-19.283h38.566c10.673 0 19.283 8.584 19.283 19.283v70.687h6.419c10.673 0 19.283 8.584 19.283 19.283s-8.584 19.283-19.283 19.283h-64.267c-10.673 0-19.283-8.584-19.283-19.283s8.584-19.283 19.283-19.283zM617.1 766.956c-14.214 0-25.702-11.488-25.702-25.702s11.488-25.702 25.702-25.702 25.702 11.488 25.702 25.702-11.488 25.702-25.702 25.702z"></path>
</svg>
