<!-- Generated by IcoMoon.io -->
<svg version="1.1" xmlns="http://www.w3.org/2000/svg" width="527" height="512" viewBox="0 0 527 512">
<title></title>
<g id="icomoon-ignore">
</g>
<path fill="#000" d="M497.094 314.144c-7.537-3.151-16.309-4.995-25.493-4.995-10.312 0-20.087 2.31-28.841 6.445l0.412-0.179-103.44 46.474c0.054-0.841 0.466-1.575 0.466-2.417-0.25-24.544-20.212-44.344-44.791-44.344-1.235 0-2.435 0.054-3.652 0.142l0.161-0.018h-67.725l-85.215-24.956c-1.11-0.34-2.399-0.537-3.742-0.537-0.018 0-0.036 0-0.036 0h-38.83v-13.57c0-7.411-6.015-13.427-13.427-13.427h-69.515c-7.412 0-13.427 6.015-13.427 13.427v0 218.552c0 7.411 6.015 13.427 13.427 13.427h69.515c7.412 0 13.427-6.015 13.427-13.427v0-17.974c32.547 5.084 61.691 13.284 89.297 24.454l-2.685-0.966c20.749 7.447 44.702 11.744 69.658 11.744 28.769 0 56.195-5.711 81.205-16.077l-1.414 0.519c22.252-9.9 41.139-20.337 59.024-32.207l-1.468 0.913c6.051-3.741 12.066-7.483 18.153-11.082 29.378-17.383 52.83-32.565 73.919-47.817 10.384-7.394 19.442-14.716 28.053-22.503l-0.269 0.233c6.624-5.389 11.923-12.156 15.485-19.872l0.143-0.34c0.573-1.432 0.895-3.079 0.895-4.815 0-1.002-0.108-1.987-0.322-2.936l0.018 0.089c-2.631-18.187-13.534-33.404-28.697-41.854l-0.286-0.142zM69.532 481.352h-42.661v-191.698h42.661zM490.918 364.969c-7.376 6.624-15.414 13.069-23.774 19.030l-0.841 0.573c-20.355 14.716-43.18 29.485-71.86 46.474-6.23 3.67-12.37 7.483-18.565 11.296-15.306 10.276-32.904 20.068-51.308 28.393l-2.327 0.931c-20.623 8.468-44.577 13.391-69.658 13.391-21.536 0-42.214-3.616-61.495-10.294l1.325 0.394c-27.838-11.673-60.224-20.588-93.987-25.243l-2.059-0.233v-133.050h36.897l85.215 24.956c1.11 0.34 2.399 0.537 3.742 0.537 0.018 0 0.036 0 0.036 0h69.64c15.808 0 21.429 9.345 21.429 17.365s-5.622 17.365-21.429 17.365h-121.897c-7.411 0-13.427 6.015-13.427 13.427s6.015 13.427 13.427 13.427v0h139.298c1.987 0 3.867-0.43 5.567-1.2l-0.089 0.036 139.549-62.694c5.138-2.363 11.153-3.76 17.49-3.76 4.762 0 9.327 0.77 13.606 2.22l-0.305-0.089c6.839 4.099 11.779 10.813 13.427 18.708l0.036 0.179c-2.417 2.846-4.941 5.406-7.644 7.769l-0.089 0.071z"></path>
<path fill="#000" d="M258.962 70.403q-7.15 0-12.375 5.225t-5.225 12.376 5.225 12.376 12.375 5.225 12.375-5.088 5.225-12.513-5.087-12.513-12.513-5.088zM258.962 123.204q-7.15 0-12.375 5.087t-5.225 12.513v52.802q0 7.15 5.225 12.375t12.375 5.225 12.375-5.225 5.225-12.375v-52.802q0-7.15-5.087-12.375t-12.513-5.225zM258.962 0q-29.151 0-54.727 11.138t-44.689 30.251-30.251 44.689-11.138 54.727 11.138 54.726 30.251 44.689 44.689 30.251 54.727 11.138 54.726-11.138 44.689-30.251 30.251-44.689 11.138-54.726-11.138-54.727-30.251-44.689-44.689-30.251-54.726-11.138zM258.962 255.208q-23.651 0-44.552-8.938t-36.439-24.476-24.476-36.439-8.938-44.552 8.938-44.552 24.476-36.438 36.439-24.476 44.552-8.938 44.551 8.938 36.438 24.476 24.476 36.438 8.938 44.552-8.938 44.552-24.476 36.439-36.438 24.476-44.551 8.938z"></path>
</svg>
