<!-- Generated by IcoMoon.io -->
<svg version="1.1" xmlns="http://www.w3.org/2000/svg" width="1024" height="1024" viewBox="0 0 1024 1024">
<title></title>
<g id="icomoon-ignore">
</g>
<path d="M896 640h-128v-128h128v128zM671.744 159.744c0 24.576-5.12 47.104-14.336 67.584l-145.408 284.672-145.408-284.672c-9.216-20.48-14.336-43.008-14.336-67.584 0-88.064 71.68-159.744 159.744-159.744s159.744 71.68 159.744 159.744zM608.256 159.744c0-53.248-43.008-96.256-96.256-96.256s-96.256 43.008-96.256 96.256 43.008 96.256 96.256 96.256c53.248 0 96.256-43.008 96.256-96.256zM1024 256v640c0 70.656-57.344 128-128 128h-768c-70.656 0-128-57.344-128-128v-640c0-70.656 57.344-128 128-128h162.816c-1.024 10.24-3.072 20.48-3.072 31.744s2.048 21.504 4.096 31.744h-35.84v192.512h118.784l32.768 63.488h-151.552v256h384v-256h-23.552l88.064-171.008v107.52h256v-128c0-35.84-28.672-64.512-64.512-64.512h-163.84c2.048-10.24 4.096-20.48 4.096-31.744s-2.048-21.504-3.072-31.744h162.816c70.656 0 128 57.344 128 128zM192.512 768h-128v128c0 35.84 28.672 64.512 63.488 64.512h64.512v-192.512zM192.512 447.488h-128v256h128v-256zM192.512 191.488h-64.512c-34.816 0-63.488 28.672-63.488 64.512v128h128v-192.512zM640 768h-384v192.512h384v-192.512zM960.512 768h-256v192.512h191.488c35.84 0 64.512-28.672 64.512-64.512v-128zM960.512 447.488h-256v256h256v-256z"></path>
</svg>
