<?xml version="1.0" standalone="no"?>
<!DOCTYPE svg PUBLIC "-//W3C//DTD SVG 1.1//EN" "http://www.w3.org/Graphics/SVG/1.1/DTD/svg11.dtd" >
<svg xmlns="http://www.w3.org/2000/svg">
<metadata>Generated by IcoMoon</metadata>
<defs>
<font id="iberpixcompare" horiz-adv-x="1024">
<font-face units-per-em="1024" ascent="960" descent="-64" />
<missing-glyph horiz-adv-x="1024" />
<glyph unicode="&#x20;" horiz-adv-x="512" d="" />
<glyph unicode="&#xe801;" glyph-name="th-large" horiz-adv-x="1023" d="M132.998 959.116c-72.982 0-132.659-59.653-132.659-132.639v-756.972c0-72.982 59.673-132.649 132.659-132.649h756.972c72.982 0 132.639 59.672 132.639 132.649v756.972c0 72.979-59.653 132.639-132.639 132.639zM132.998 890.068h345.76v-409.138h-409.347v345.551c0 35.96 27.63 63.586 63.59 63.586zM544.19 890.068h345.78c35.96 0 63.573-27.622 63.573-63.586v-345.551h-409.347zM69.411 415.060h409.347v-409.148h-345.76c-35.96 0-63.59 27.626-63.59 63.586zM544.19 415.060h409.347v-345.561c0-35.964-27.614-63.586-63.573-63.586h-345.78z" />
<glyph unicode="&#xe802;" glyph-name="icon" horiz-adv-x="1317" d="M1170.279 960h-1024c-80.67 0-146.279-65.609-146.279-146.279v-731.418c0-80.694 65.609-146.279 146.279-146.279h1024c80.694 0 146.279 65.609 146.279 146.279v731.418c0 80.694-65.609 146.279-146.279 146.279zM1228.066 148.908c0-65.731-56.67-119.195-126.36-119.195h-884.571c-69.69 0-126.36 53.44-126.36 119.195v595.9c0 65.731 56.67 119.195 126.36 119.195h884.571c69.69 0 126.36-53.44 126.36-119.195v-595.9zM861.349 436.535c0-49.237-15.983-94.71-42.897-131.607l135.785-135.907c13.408-13.408 13.408-35.173 0-48.581s-35.173-13.408-48.581 0l-135.785 135.907c-36.898-27.036-82.37-42.897-131.607-42.897-123.251 0-223.11 99.859-223.11 223.11s99.859 223.11 223.11 223.11 223.11-99.859 223.11-223.11zM638.239 282.070c85.285 0 154.465 69.18 154.465 154.465s-69.18 154.465-154.465 154.465-154.465-69.18-154.465-154.465 69.18-154.465 154.465-154.465zM609.697 943.531h61.941v-237.733h-61.941v237.733zM609.697 163.798h61.941v-208.633h-61.941v208.633z" />
<glyph unicode="&#xe803;" glyph-name="modeviz1" d="M133.044 953.994c-73.18 0-133.020-59.832-133.020-133.012v-759.011c0-73.179 59.836-133.020 133.020-133.020h759.027c73.179 0 132.995 59.838 132.995 133.020v759.011c0 73.177-59.815 133.012-132.995 133.012zM133.044 884.746h346.697v-886.499h-346.697c-36.058 0-63.763 27.705-63.763 63.763v759.011c0 36.058 27.705 63.763 63.763 63.763zM545.35 884.746h346.721c36.058 0 63.746-27.702 63.746-63.763v-759.011c0-36.061-27.688-63.763-63.746-63.763h-346.721z" />
<glyph unicode="&#xe804;" glyph-name="modeviz0" d="M133.044 953.994c-73.18 0-133.012-59.831-133.012-133.012v-759.011c0-73.18 59.831-133.012 133.012-133.012h759.027c73.18 0 132.995 59.834 132.995 133.012v759.011c0 73.178-59.814 133.012-132.995 133.012zM133.044 884.742h759.027c36.058 0 63.742-27.697 63.742-63.759v-759.011c0-36.061-27.684-63.763-63.742-63.763h-759.027c-36.058 0-63.763 27.705-63.763 63.763v759.011c0 36.058 27.705 63.759 63.763 63.759z" />
<glyph unicode="&#xe805;" glyph-name="modeviz2" d="M133.044 953.994c-73.179 0-133.012-59.831-133.012-133.012v-759.011c0-73.18 59.832-133.020 133.012-133.020h759.027c73.179 0 133.003 59.838 133.003 133.020v759.011c0 73.178-59.82 133.012-133.003 133.012zM133.044 884.746h186.799v-886.499h-186.799c-36.058 0-63.763 27.705-63.763 63.763v759.011c0 36.058 27.705 63.763 63.763 63.763zM385.452 884.746h254.201v-886.499h-254.201zM705.264 884.746h186.807c36.058 0 63.746-27.702 63.746-63.763v-759.011c0-36.061-27.688-63.763-63.746-63.763h-186.807z" />
<glyph unicode="&#xe806;" glyph-name="modeviz3" d="M133.044 953.994c-73.18 0-133.012-59.832-133.012-133.012v-759.011c0-73.18 59.831-133.020 133.012-133.020h759.027c73.18 0 132.995 59.838 132.995 133.020v759.011c0 73.178-59.815 133.012-132.995 133.012zM133.044 884.746h106.834v-886.499h-106.834c-36.057 0-63.759 27.705-63.759 63.763v759.011c0 36.058 27.701 63.763 63.759 63.763zM305.488 884.746h174.261v-886.499h-174.261zM545.359 884.746h174.252v-886.499h-174.252zM785.221 884.746h106.85c36.058 0 63.746-27.702 63.746-63.763v-759.011c0-36.062-27.689-63.763-63.746-63.763h-106.85z" />
<glyph unicode="&#xe807;" glyph-name="modeviz7" d="M133.044 953.994c-73.18 0-133.012-59.831-133.012-133.012v-759.011c0-73.18 59.832-133.012 133.012-133.012h759.027c73.179 0 132.995 59.834 132.995 133.012v759.011c0 73.177-59.815 133.012-132.995 133.012zM133.044 884.746h346.705v-886.499h-346.705c-36.058 0-63.759 27.705-63.759 63.763v759.011c0 36.058 27.701 63.763 63.759 63.763zM545.359 884.746h174.236v-886.499h-174.236zM785.221 884.746h106.85c36.058 0 63.746-27.702 63.746-63.763v-759.011c0-36.061-27.688-63.763-63.746-63.763h-106.85z" />
<glyph unicode="&#xe808;" glyph-name="modeviz5" d="M133.044 953.994c-73.18 0-133.020-59.815-133.020-132.995v-759.027c0-73.18 59.835-133.012 133.020-133.012h759.027c73.18 0 132.995 59.834 132.995 133.012v759.027c0 73.177-59.815 132.995-132.995 132.995zM133.044 884.758h346.705v-410.253h-410.465v346.492c0 36.058 27.705 63.759 63.763 63.759zM545.35 884.758h346.721c36.058 0 63.746-27.697 63.746-63.759v-346.492h-410.465zM69.276 408.463h410.465v-410.261h-346.697c-36.058 0-63.763 27.701-63.763 63.759zM545.35 408.463h410.465v-346.501c0-36.062-27.689-63.759-63.746-63.759h-346.721z" />
<glyph unicode="&#xe809;" glyph-name="modeviz8" d="M133.044 953.994c-73.18 0-133.012-59.835-133.012-133.020v-759.011c0-73.18 59.832-133.012 133.012-133.012h759.027c73.179 0 133.003 59.834 133.003 133.012v759.011c0 73.178-59.819 133.020-133.003 133.020zM133.044 884.742h759.027c36.058 0 63.746-27.701 63.746-63.763v-346.476h-886.499v346.476c0 36.058 27.705 63.763 63.763 63.763zM69.281 408.463h410.465v-410.261h-346.705c-36.058 0-63.763 27.705-63.763 63.763zM545.355 408.463h410.465v-346.492c0-36.061-27.688-63.763-63.746-63.763h-346.721z" />
<glyph unicode="&#xe828;" glyph-name="control-siguienteresult1" horiz-adv-x="1023" d="M107.084 949.154c-0.229 0.006-0.499 0.009-0.77 0.009-18.508 0-33.512-15.004-33.512-33.512 0-0.011 0-0.021 0-0.032v0.002-935.27c0.032-18.484 15.024-33.456 33.512-33.456 6.157 0 11.927 1.661 16.885 4.558l-0.159-0.086 809.923 467.604c10.119 5.895 16.812 16.693 16.812 29.055 0 0.611-0.016 1.218-0.049 1.821l0.004-0.084c-0.63 11.673-7.145 21.696-16.608 27.215l-0.159 0.086-809.923 467.604c-4.58 2.693-10.061 4.34-15.915 4.487l-0.042 0.001zM139.807 857.591l709.384-409.636-709.384-409.512v819.148z" />
<glyph unicode="&#xe900;" glyph-name="transparency" d="M512.032 960c-282.363 0-512.032-229.668-512.032-512.032s229.668-511.968 512.032-511.968c282.363 0 511.968 229.605 511.968 511.968s-229.605 512.032-511.968 512.032zM481.939 889.633v-235.751c-0.010-0.284-0.015-0.618-0.015-0.953 0-16.628 13.48-30.108 30.108-30.108s30.108 13.48 30.108 30.108c0 0.335-0.005 0.669-0.016 1.002l0.001-0.048v235.751c221.020-14.813 396.699-190.547 411.508-411.572h-233.19c-0.284 0.010-0.618 0.015-0.953 0.015-16.628 0-30.108-13.48-30.108-30.108s13.48-30.108 30.108-30.108c0.335 0 0.669 0.005 1.002 0.016l-0.048-0.001h233.19c-14.808-221.021-190.488-396.699-411.508-411.508v235.687c0.002 0.13 0.003 0.283 0.003 0.436 0 16.628-13.48 30.108-30.108 30.108-0.153 0-0.306-0.001-0.459-0.003h0.023c-16.429-0.259-29.648-13.638-29.648-30.105 0-0.153 0.001-0.307 0.003-0.46v0.023-235.687c-221.025 14.808-396.759 190.487-411.572 411.508h235.751c0.284-0.010 0.618-0.015 0.953-0.015 16.628 0 30.108 13.48 30.108 30.108s-13.48 30.108-30.108 30.108c-0.335 0-0.669-0.005-1.002-0.016l0.048 0.001h-235.751c14.813 221.025 190.547 396.759 411.572 411.572z" />
<glyph unicode="&#xe901;" glyph-name="control-pausa" horiz-adv-x="1023" d="M78.941 943.247c-18.476-0.023-33.448-14.995-33.471-33.469v-923.491c0-0.006 0-0.014 0-0.022 0-18.494 14.981-33.489 33.469-33.512h349.801c18.491 0.023 33.472 15.018 33.472 33.512 0 0.008 0 0.015 0 0.023v-0.001 923.489c-0.023 18.476-14.995 33.448-33.469 33.471h-349.801zM593.792 943.247c-0.006 0-0.014 0-0.022 0-18.494 0-33.489-14.981-33.512-33.469v-923.491c0-0.006 0-0.014 0-0.022 0-18.508 15.004-33.512 33.512-33.512 0.008 0 0.015 0 0.023 0h349.735c0.006 0 0.014 0 0.022 0 18.508 0 33.512 15.004 33.512 33.512 0 0.008 0 0.015 0 0.023v-0.001 923.489c-0.023 18.491-15.018 33.472-33.512 33.472-0.008 0-0.015 0-0.023 0h-349.735zM112.475 876.242h282.731v-856.484h-282.731v856.484zM627.325 876.242h282.731v-856.484h-282.731v856.484z" />
<glyph unicode="&#xe902;" glyph-name="comparador-capas" horiz-adv-x="1140" d="M0 521.222c0 70.287 56.931 127.218 127.218 127.218h25.435c28.157 0 50.892-22.734 50.892-50.892s-22.734-50.892-50.892-50.892h-25.435c-13.994 0-25.435-11.442-25.435-25.435v-458.003c0-13.994 11.442-25.435 25.435-25.435h458.003c13.994 0 25.435 11.442 25.435 25.435v25.435c0 28.157 22.734 50.892 50.892 50.892s50.892-22.734 50.892-50.892v-25.435c0-70.287-56.931-127.218-127.218-127.218h-458.003c-70.287 0-127.218 56.931-127.218 127.218v458.003zM1139.904 476.094c0-58.122-47.085-105.186-105.186-105.186h-21.033c-23.266 0-42.087 18.8-42.087 42.087s18.8 42.087 42.087 42.087h21.033c11.569 0 21.033 9.464 21.033 21.033v378.699c0 11.569-9.464 21.033-21.033 21.033h-378.699c-11.569 0-21.033-9.464-21.033-21.033v-21.033c0-23.266-18.8-42.087-42.087-42.087s-42.087 18.8-42.087 42.087v21.033c0 58.122 47.085 105.186 105.186 105.186h378.699c58.122 0 105.186-47.085 105.186-105.186v-378.72zM870.155 466.523c0-58.697-19.055-112.927-51.147-156.928l161.905-162.032c15.993-15.993 15.993-41.938 0-57.931s-41.938-15.993-57.931 0l-161.905 162.032c-44.001-32.219-98.21-51.147-156.928-51.147-146.933 0-266.006 119.073-266.006 266.006s119.073 266.006 266.006 266.006 266.006-119.073 266.006-266.006zM604.149 282.374c101.677 0 184.15 82.494 184.15 184.15s-82.494 184.15-184.15 184.15-184.15-82.494-184.15-184.15 82.494-184.15 184.15-184.15z" />
<glyph unicode="&#xe90d;" glyph-name="columns-2" horiz-adv-x="1023" d="M132.794 959.105c-72.982 0-132.641-59.659-132.641-132.638v-756.95c0-72.979 59.655-132.638 132.641-132.638h756.95c72.979 0 132.638 59.655 132.638 132.638v756.95c0 72.979-59.659 132.638-132.638 132.638h-756.95zM543.996 890.042h345.748c35.96 0 63.578-27.614 63.578-63.578v-756.95c0-35.963-27.617-63.578-63.578-63.578h-345.748v884.092z" />
<glyph unicode="&#xe90e;" glyph-name="columns-1" horiz-adv-x="1023" d="M889.741 959.105c72.982 0 132.638-59.659 132.638-132.638v-756.95c0-72.979-59.652-132.638-132.638-132.638h-756.95c-72.979 0-132.641 59.655-132.641 132.638v756.95c0 72.979 59.659 132.638 132.641 132.638h756.95zM478.539 890.042h-345.748c-35.96 0-63.578-27.614-63.578-63.578v-756.95c0-35.963 27.617-63.578 63.578-63.578h345.748v884.092z" />
<glyph unicode="&#xe90f;" glyph-name="th-large-4" horiz-adv-x="1023" d="M889.773-63.106c72.982 0 132.638 59.595 132.638 132.577v757.014c0 72.982-59.652 132.638-132.638 132.638h-757.014c-72.982 0-132.641-59.659-132.641-132.638v-757.014c0-72.979 59.659-132.577 132.641-132.577h757.014zM478.571 5.893h-345.812c-35.96 0-63.578 27.613-63.578 63.578v345.557h409.383v-409.128zM953.344 480.922h-409.319v409.128h345.748c35.96 0 63.578-27.617 63.578-63.578v-345.557zM478.571 480.922h-409.383v345.557c0 35.963 27.618 63.578 63.578 63.578h345.812v-409.128z" />
<glyph unicode="&#xe910;" glyph-name="th-large-3" horiz-adv-x="1023" d="M132.765-63.106c-72.982 0-132.641 59.595-132.641 132.577v757.014c0 72.982 59.652 132.638 132.641 132.638h757.014c72.982 0 132.638-59.659 132.638-132.638v-757.014c0-72.979-59.659-132.577-132.638-132.577h-757.014zM543.967 5.893h345.812c35.96 0 63.578 27.613 63.578 63.578v345.557h-409.383v-409.128zM69.194 480.922h409.319v409.128h-345.748c-35.96 0-63.578-27.617-63.578-63.578v-345.557zM543.967 480.922h409.383v345.557c0 35.963-27.618 63.578-63.578 63.578h-345.812v-409.128z" />
<glyph unicode="&#xe911;" glyph-name="th-large-2" horiz-adv-x="1023" d="M889.773 959.105c72.982 0 132.638-59.595 132.638-132.577v-757.014c0-72.982-59.652-132.638-132.638-132.638h-757.014c-72.982 0-132.641 59.659-132.641 132.638v757.014c0 72.979 59.659 132.577 132.641 132.577h757.014zM478.571 890.106h-345.812c-35.96 0-63.578-27.613-63.578-63.578v-345.557h409.383v409.128zM953.344 415.077h-409.319v-409.128h345.748c35.96 0 63.578 27.617 63.578 63.578v345.557zM478.571 415.077h-409.383v-345.557c0-35.963 27.618-63.578 63.578-63.578h345.812v409.128z" />
<glyph unicode="&#xe912;" glyph-name="th-large-1" horiz-adv-x="1023" d="M132.765 959.105c-72.982 0-132.641-59.595-132.641-132.577v-757.014c0-72.982 59.652-132.638 132.641-132.638h757.014c72.982 0 132.638 59.659 132.638 132.638v757.014c0 72.979-59.659 132.577-132.638 132.577h-757.014zM543.967 890.106h345.812c35.96 0 63.578-27.613 63.578-63.578v-345.557h-409.383v409.128zM69.194 415.077h409.319v-409.128h-345.748c-35.96 0-63.578 27.617-63.578 63.578v345.557zM543.967 415.077h409.383v-345.557c0-35.963-27.618-63.578-63.578-63.578h-345.812v409.128z" />
<glyph unicode="&#xe913;" glyph-name="columns1" horiz-adv-x="1023" d="M132.679 959.116c-72.982 0-132.659-59.67-132.659-132.649v-756.952c0-72.981 59.674-132.659 132.659-132.659h756.972c72.981 0 132.639 59.676 132.639 132.659v756.952c0 72.979-59.653 132.649-132.639 132.649zM132.679 890.056h345.76v-884.096h-345.76c-35.96 0-63.59 27.63-63.59 63.59v756.952c0 35.96 27.63 63.59 63.59 63.59zM543.871 890.056h345.78c35.96 0 63.573-27.627 63.573-63.59v-756.952c0-35.963-27.613-63.59-63.573-63.59h-345.78z" />
<glyph unicode="&#xe920;" glyph-name="gestion-reloj2" horiz-adv-x="1023" d="M511.235 960.997c-282.905 0-512.98-230.076-512.98-512.98s230.076-512.98 512.98-512.98c282.905 0 513.043 230.076 513.043 512.98s-230.138 512.98-513.043 512.98zM511.235 892.247c245.743 0 444.23-198.487 444.23-444.23s-198.487-444.23-444.23-444.23c-245.742 0-444.167 198.487-444.167 444.23s198.425 444.23 444.167 444.23zM502.322 799.561c-18.277-0.301-32.977-15.188-32.977-33.508 0-0.184 0.001-0.368 0.004-0.552v0.028-338.081c0.023-18.476 14.995-33.448 33.469-33.471h330.728c0.239-0.006 0.52-0.010 0.802-0.010 18.508 0 33.512 15.004 33.512 33.512s-15.004 33.512-33.512 33.512c-0.282 0-0.563-0.003-0.843-0.010l0.042 0.001h-297.192v304.547c0.003 0.156 0.004 0.34 0.004 0.524 0 18.508-15.004 33.512-33.512 33.512-0.184 0-0.368-0.001-0.552-0.004h0.028z" />
<glyph unicode="&#xe9c4;" glyph-name="simbolo-menu2" d="M951.786 185.244v-73.214q0-14.872-10.868-25.739t-25.739-10.868h-805.357q-14.872 0-25.739 10.868t-10.868 25.739v73.214q0 14.872 10.868 25.739t25.739 10.868h805.357q14.872 0 25.739-10.868t10.868-25.739zM951.786 478.101v-73.214q0-14.872-10.868-25.739t-25.739-10.868h-805.357q-14.872 0-25.739 10.868t-10.868 25.739v73.214q0 14.872 10.868 25.739t25.739 10.868h805.357q14.872 0 25.739-10.868t10.868-25.739zM951.786 770.959v-73.214q0-14.872-10.868-25.739t-25.739-10.868h-805.357q-14.872 0-25.739 10.868t-10.868 25.739v73.214q0 14.872 10.868 25.739t25.739 10.868h805.357q14.872 0 25.739-10.868t10.868-25.739z" />
</font>
</defs>
</svg>
