<!-- Generated by IcoMoon.io -->
<svg version="1.1" xmlns="http://www.w3.org/2000/svg" width="1024" height="1024" viewBox="0 0 1024 1024">
<title></title>
<g id="icomoon-ignore">
</g>
<path d="M730.112 241.664h-678.912c-28.672 0-51.2 22.528-51.2 51.2v678.912c0 27.648 22.528 51.2 51.2 51.2h678.912c27.648 0 51.2-23.552 51.2-51.2v-678.912c0-28.672-23.552-51.2-51.2-51.2zM678.912 920.576h-576.512v-577.536h576.512v577.536zM1013.76 858.112h-55.296v-593.92h55.296c4.096 0 8.192-3.072 9.216-7.168 2.048-3.072 1.024-7.168-2.048-10.24l-89.088-89.088c-4.096-4.096-10.24-4.096-14.336 0l-89.088 89.088c-3.072 3.072-4.096 7.168-2.048 10.24 1.024 4.096 5.12 7.168 9.216 7.168h55.296v593.92h-55.296c-4.096 0-8.192 2.048-9.216 6.144-2.048 4.096-1.024 8.192 2.048 11.264l89.088 89.088c4.096 4.096 10.24 4.096 14.336 0l89.088-89.088c3.072-3.072 4.096-7.168 2.048-11.264-1.024-4.096-5.12-6.144-9.216-6.144zM147.456 196.608c3.072 3.072 7.168 4.096 11.264 2.048 3.072-1.024 6.144-5.12 6.144-9.216v-55.296h593.92v55.296c0 4.096 2.048 8.192 6.144 9.216 4.096 2.048 8.192 1.024 11.264-2.048l89.088-89.088c4.096-4.096 4.096-10.24 0-14.336l-89.088-89.088c-3.072-3.072-7.168-3.072-11.264-2.048-4.096 2.048-6.144 5.12-6.144 9.216v55.296h-593.92v-55.296c0-4.096-3.072-7.168-6.144-9.216-4.096-1.024-8.192-1.024-11.264 2.048l-89.088 89.088c-4.096 4.096-4.096 10.24 0 14.336l89.088 89.088z"></path>
</svg>
