<?xml version="1.0" encoding="utf-8"?>
<!-- Generator: Adobe Illustrator 27.8.1, SVG Export Plug-In . SVG Version: 6.00 Build 0)  -->
<svg version="1.1" id="Capa_2_00000025408410226654895550000013668384733844510392_"
	 xmlns="http://www.w3.org/2000/svg" xmlns:xlink="http://www.w3.org/1999/xlink" x="0px" y="0px" viewBox="0 0 18 18"
	 style="enable-background:new 0 0 18 18;" xml:space="preserve">
<style type="text/css">
	.cls-1{fill:#fff;}.cls-2{fill:#e56e47;}
</style>
<g id="iconos">
	<g id="_2.2.2">
		<circle class="cls-2" cx="9" cy="9" r="9"/>
	</g>
</g>
<g>
	<path class="cls-1" d="M14.9,8.2l-4.5-3.1c-0.1-0.1-0.3-0.1-0.4,0L7.7,6.4V5.8h0c0.2,0,0.4-0.2,0.4-0.4C8.1,5.2,7.9,5,7.7,5H6.3
		C6.1,5,5.9,5.2,5.9,5.4c0,0.2,0.2,0.4,0.4,0.4h0.1v1.3L3.8,8.4C3.6,8.5,3.6,8.7,3.7,8.9l0,0C3.8,9.1,4,9.2,4.1,9.1l6.1-3.2l4.3,2.9
		c0.1,0.1,0.3,0.1,0.4-0.1L15,8.7C15.1,8.5,15.1,8.3,14.9,8.2z"/>
	<path class="cls-1" d="M10.2,6.3L5.6,8.7v3.4c0.4,0.1,0.3,0.7,0.3,0.7c1.3,0,0.7,1.1,0.7,1.1h1.1v-3.1c0,0,0.2-1,1.1-1s1.1,1,1.1,1
		l0,3h1.5c-0.6-1,0.6-1.4,1-1c0.3-0.9,1-0.4,1-0.4c0-0.2,0.3-0.5,0.3-0.5V8.7L10.2,6.3z M12.4,10.6h-1.5v-1c0-0.4,0.3-0.7,0.7-0.7
		c0.4,0,0.8,0.3,0.8,0.8V10.6z"/>
	<path class="cls-1" d="M2.9,13.9h3.3c0,0,0.4-0.2,0.1-0.6s-0.6-0.1-0.6-0.1s0-1-0.6-1c-0.4,0-0.7,0.3-0.7,0.3s0-0.6-0.7-0.6
		c-0.9,0-0.6,1.2-0.6,1.2s-0.6-0.2-0.6,0.3C2.4,13.7,2.7,13.9,2.9,13.9z"/>
	<path class="cls-1" d="M11.8,13.9c0,0,3.1,0,3.4,0c0.3,0,0.7-1.2-0.3-1c0,0,0.3-0.7-0.5-0.9c-0.6-0.1-0.8,1-0.8,1s-0.3-0.4-0.5-0.4
		c-0.5,0.1-0.5,0.8-0.5,0.8s-0.6-0.7-1-0.3C11.2,13.3,11.5,13.9,11.8,13.9z"/>
	<path class="cls-1" d="M7,4.8c0,0-0.2-0.4,0.1-0.8S7.9,3.9,7.9,3S7.1,2.2,7.1,2.2s-0.4,0-0.5,0.2C6.5,2.8,7.1,2.9,7,3
		C7,3.6,6.6,3.6,6.5,4S6.9,4.9,7,4.8z"/>
</g>
</svg>
