<?xml version="1.0" encoding="UTF-8" standalone="no"?>
<svg
   id="Capa_2"
   width="18"
   height="18"
   viewBox="0 0 18 18"
   version="1.1"
   sodipodi:docname="espacioProtegido.svg"
   inkscape:version="1.2.1 (9c6d41e410, 2022-07-14)"
   xmlns:inkscape="http://www.inkscape.org/namespaces/inkscape"
   xmlns:sodipodi="http://sodipodi.sourceforge.net/DTD/sodipodi-0.dtd"
   xmlns="http://www.w3.org/2000/svg"
   xmlns:svg="http://www.w3.org/2000/svg">
  <sodipodi:namedview
     id="namedview9"
     pagecolor="#ffffff"
     bordercolor="#000000"
     borderopacity="0.25"
     inkscape:showpageshadow="2"
     inkscape:pageopacity="0.0"
     inkscape:pagecheckerboard="0"
     inkscape:deskcolor="#d1d1d1"
     showgrid="false"
     inkscape:zoom="32.134075"
     inkscape:cx="4.6212627"
     inkscape:cy="8.9780086"
     inkscape:window-width="1920"
     inkscape:window-height="1002"
     inkscape:window-x="-8"
     inkscape:window-y="-8"
     inkscape:window-maximized="1"
     inkscape:current-layer="_4.3.2" />
  <defs
     id="defs4">
    <style
       id="style2">.cls-1{fill:#fff;}.cls-2{fill:#11491e;}</style>
  </defs>
  <g
     id="iconos">
    <g
       id="_4.3.2">
      <circle
         class="cls-2"
         cx="9.0110025"
         cy="9.0110025"
         r="9"
         id="circle6"
         inkscape:label="circle" />
      <path
         id="path6"
         class="cls-1"
         d="m 3.1308594,2.1796875 a 9,9 0 0 0 -0.048828,0.042969 c 0.016328,-0.014271 0.032397,-0.028814 0.048828,-0.042969 z M 2.2226562,3.0820312 a 9,9 0 0 0 -0.042969,0.048828 c 0.014155,-0.016431 0.028698,-0.0325 0.042969,-0.048828 z m 6.7167969,0.1875 -1.21875,2.0996094 H 8.4101562 L 6.9707031,7.359375 7.9101562,7.3300781 6.2890625,9.3808594 H 7.5898438 L 5.9101562,11.759766 H 12.050781 L 10.390625,9.4101562 h 1.208984 L 10.039062,7.3398438 h 0.861329 L 9.5507812,5.390625 H 10.130859 Z M 4.8203125,3.8808594 3.609375,5.6191406 h 0.6699219 l -1.1894531,1.78125 h 0.75 L 2.359375,9.2207031 H 3.5097656 L 2.0703125,11.410156 h 3.6992187 l 1.28125,-1.7207029 H 5.5703125 L 6.5605469,8.4902344 5.7597656,7.4296875 H 6.4296875 L 5.2792969,5.609375 H 5.859375 Z m 8.3496095,0 -1.039063,1.7285156 h 0.56836 l -1.148438,1.8203125 h 0.679688 l -0.810547,1.0605469 0.990234,1.1894531 h -1.470703 l 1.271485,1.7304685 h 3.699218 L 14.480469,9.2207031 h 1.138672 l -1.46875,-1.8203125 h 0.740234 l -1.191406,-1.78125 h 0.669922 z M 4.5195312,11.689453 v 1.691406 l 0.6347657,0.02149 -0.044922,-1.712891 z m 8.3203128,0 v 1.691406 h 0.589844 v -1.691406 z m -4.199219,0.371094 v 2.048828 h 0.6601562 v -2.048828 z m -6.4609375,2.808594 a 9,9 0 0 0 0.042969,0.04883 c -0.014271,-0.01633 -0.028814,-0.0324 -0.042969,-0.04883 z m 13.6406245,0 c -0.01415,0.01643 -0.0287,0.0325 -0.04297,0.04883 a 9,9 0 0 0 0.04297,-0.04883 z M 3.0820312,15.777344 a 9,9 0 0 0 0.048828,0.04297 c -0.016431,-0.01415 -0.0325,-0.0287 -0.048828,-0.04297 z m 11.8359378,0 c -0.01633,0.01427 -0.0324,0.02881 -0.04883,0.04297 a 9,9 0 0 0 0.04883,-0.04297 z"
         inkscape:label="path" />
    </g>
  </g>
</svg>
