<?xml version="1.0" encoding="utf-8"?>
<!-- Generator: Adobe Illustrator 27.8.1, SVG Export Plug-In . SVG Version: 6.00 Build 0)  -->
<svg version="1.1" id="Capa_2_00000128464468996530202870000013643095124613398458_"
	 xmlns="http://www.w3.org/2000/svg" xmlns:xlink="http://www.w3.org/1999/xlink" x="0px" y="0px" viewBox="0 0 18 18"
	 style="enable-background:new 0 0 18 18;" xml:space="preserve">
<style type="text/css">
	.cls-2{fill:#0569FF;}
	.cls-1{fill:#FFFFFF;}
</style>
<g id="iconos">
	<g id="_6.1.1">
		<circle class="cls-2" cx="9" cy="9" r="9"/>
	</g>
</g>
<g>
	<path class="cls-1" d="M14.9,4.3v-1c-0.4,0-0.7,0.3-1,0.5c-0.3,0.2-0.6,0.5-0.9,0.5c-0.2,0-0.4-0.2-0.7-0.4c-0.3-0.3-0.7-0.6-1.3-0.6
		c-0.4,0-0.7,0.3-1,0.5C9.6,4.1,9.3,4.4,9,4.4C8.8,4.4,8.6,4.2,8.4,4C8,3.7,7.6,3.3,7,3.3c-0.6,0-1,0.4-1.3,0.6
		C5.5,4.2,5.3,4.4,5.1,4.4c0,0,0,0,0,0c-0.3,0-0.6-0.3-0.9-0.5c-0.3-0.3-0.7-0.5-1-0.5v1c0,0,0,0,0,0c0.1,0,0.3,0.2,0.4,0.3
		C3.9,5,4.4,5.4,5,5.4c0,0,0,0,0,0c0.6,0,1-0.4,1.3-0.7C6.6,4.5,6.8,4.3,7,4.3c0.2,0,0.4,0.2,0.7,0.4C8,5,8.4,5.4,9,5.4c0,0,0,0,0,0
		c0.6,0,1.1-0.4,1.5-0.7c0.1-0.1,0.3-0.3,0.4-0.3c0.2,0,0.4,0.2,0.7,0.4C12,5,12.4,5.4,12.9,5.4c0,0,0,0,0,0c0.6,0,1.1-0.4,1.5-0.7
		C14.6,4.5,14.8,4.3,14.9,4.3C14.9,4.3,14.9,4.3,14.9,4.3z"/>
	<path class="cls-1" d="M14.9,6.7v-1c-0.4,0-0.7,0.3-1,0.5c-0.3,0.2-0.6,0.5-0.9,0.5c-0.2,0-0.4-0.2-0.7-0.4c-0.3-0.3-0.7-0.6-1.3-0.6
		c-0.4,0-0.7,0.3-1,0.5C9.6,6.5,9.3,6.8,9,6.8c-0.2,0-0.4-0.2-0.7-0.4C8,6.1,7.6,5.7,7,5.7c-0.6,0-1,0.4-1.3,0.6
		C5.5,6.6,5.3,6.7,5.1,6.8c-0.3,0-0.6-0.3-0.9-0.5C3.8,6,3.5,5.7,3.1,5.7v1c0,0,0,0,0,0c0.1,0,0.3,0.2,0.4,0.3
		C3.9,7.3,4.4,7.7,5,7.7c0,0,0,0,0,0c0.6,0,1-0.4,1.3-0.7C6.6,6.9,6.8,6.7,7,6.7c0.2,0,0.4,0.2,0.7,0.4C8,7.4,8.4,7.7,9,7.7
		c0,0,0,0,0,0c0.6,0,1.1-0.4,1.5-0.7c0.1-0.1,0.3-0.3,0.4-0.3c0.2,0,0.4,0.2,0.7,0.4c0.3,0.3,0.7,0.6,1.3,0.7c0,0,0,0,0,0
		c0.6,0,1.1-0.4,1.5-0.7C14.6,6.9,14.8,6.7,14.9,6.7C14.9,6.7,14.9,6.7,14.9,6.7z"/>
	<path class="cls-1" d="M6.7,8.9c0,0,2.3-1,6,2.5l2.2-2.1v4.9l-2.2-2.1c0,0-2.3,3.1-6,2.5C9.2,13.3,8.8,9.8,6.7,8.9z"/>
	<path class="cls-1" d="M5.8,9.2c-1.5,0.7-2.6,2.5-2.6,2.5c0.2,0.4,1,1.8,2.6,2.5C9.2,12.8,7.4,9.4,5.8,9.2z M5.5,12
		c-0.3,0-0.6-0.3-0.6-0.6c0-0.3,0.3-0.6,0.6-0.6c0.3,0,0.6,0.3,0.6,0.6C6.1,11.8,5.8,12,5.5,12z"/>
</g>
</svg>
