<?xml version="1.0" encoding="UTF-8"?><svg id="Capa_2" xmlns="http://www.w3.org/2000/svg" width="18" height="18" viewBox="0 0 18 18"><defs><style>.cls-1{fill:#fff;}.cls-2{fill:#0569ff;}</style></defs><g id="iconos"><g id="_6.1.1"><circle class="cls-2" cx="9" cy="9" r="9"/><g><path class="cls-1" d="M3.78,8.79c-.19,0-.35,.15-.36,.33,0,.2,.15,.38,.36,.38,.18,.01,.42,.05,.69,.13,.29,.09,.52,.22,.69,.32,.18,.11,.55,.3,1.05,.34,.52,.04,.91-.1,1.11-.19,.38-.18,.91-.64,1.77-.56,.51,.05,.9,.23,1.11,.35,.21,.12,.66,.36,1.28,.38,.59,.02,1.04-.22,1.25-.32,.28-.11,.51-.3,.98-.38,.2-.03,.37-.03,.52-.02,.23-.04,.38-.26,.34-.46-.03-.16-.18-.29-.36-.31-.2,.01-.43,.04-.69,.1-.38,.09-.68,.22-.92,.34-.25,.11-.54,.34-1.09,.32-.39,0-.69-.15-.84-.23-.11-.08-.76-.53-.9-1.39-.12-.75,.11-1.18,.3-1.45,.17-.13,.34-.31,.69-.29,.1,0,.23,.04,.35,.12,.21,.15,.08,.36,.13,.53,.11,.38,.61,.07,.92-.15,.52-.38,.53-1.08,.54-1.22,.01-.58-.27-.99-.36-1.11-.22-.23-.44-.39-.63-.5-1.19-.66-2.58-.14-3.19,.15-.19,.09-.36,.2-.51,.34-.24,.2-.52,.48-.81,.83-.61,.75-1.01,1.57-1.07,1.7-.37,.77-.36,1.05-.75,1.37-.21,.17-.5,.41-.92,.45-.23,.02-.39,.09-.69,.09h0Z"/><path class="cls-1" d="M3.78,10.67c-.17,.03-.29,.16-.31,.31-.02,.19,.15,.38,.38,.38,.16,.01,.38,.05,.63,.13,.26,.09,.45,.21,.59,.31,.22,.12,.62,.29,1.15,.32,.63,.04,1.12-.14,1.36-.25,.18-.13,.66-.44,1.36-.46,.6-.02,1.05,.2,1.24,.31,.19,.12,.61,.34,1.18,.38,.56,.04,.99-.12,1.2-.21,.27-.15,.63-.31,1.07-.42,.21-.05,.4-.08,.57-.1,.21-.06,.33-.26,.29-.44-.03-.13-.14-.23-.29-.27-.19,.02-.39,.05-.61,.1-.43,.1-.79,.24-1.07,.38-.16,.09-.58,.3-1.15,.27-.58-.04-.98-.31-1.13-.42-.21-.13-.59-.32-1.09-.36-.92-.08-1.56,.43-1.78,.52-.2,.09-.59,.23-1.11,.21-.53-.02-.92-.22-1.11-.32-.19-.1-.44-.21-.76-.29-.24-.05-.46-.07-.63-.08h.02Z"/><path class="cls-1" d="M3.79,12.49c-.17,.03-.29,.16-.31,.31-.02,.19,.15,.38,.38,.38,.16,.01,.38,.05,.63,.13,.26,.09,.49,.21,.65,.26,.22,.12,.56,.33,1.09,.37,.63,.04,1.12-.21,1.36-.32,.26-.09,.66-.37,1.36-.39,.6-.02,1.05,.2,1.24,.31,.19,.12,.61,.34,1.18,.38,.56,.04,.99-.12,1.2-.21,.27-.15,.63-.31,1.07-.42,.21-.05,.4-.08,.57-.1,.21-.06,.33-.26,.29-.44-.03-.13-.14-.23-.29-.27-.19,.02-.39,.05-.61,.1-.43,.1-.79,.24-1.07,.38-.16,.09-.58,.3-1.15,.27-.58-.04-.98-.31-1.13-.42-.21-.13-.59-.33-1.09-.36-.91-.06-1.56,.45-1.78,.52-.2,.09-.59,.23-1.11,.21-.53-.02-.92-.22-1.11-.32-.19-.1-.44-.21-.76-.29-.24-.05-.46-.07-.63-.08h.02Z"/></g></g></g></svg>