<?xml version="1.0" encoding="utf-8"?>
<!-- Generator: Adobe Illustrator 27.8.1, SVG Export Plug-In . SVG Version: 6.00 Build 0)  -->
<svg version="1.1" id="Capa_2_00000036961321865434440960000007257772298763559318_"
	 xmlns="http://www.w3.org/2000/svg" xmlns:xlink="http://www.w3.org/1999/xlink" x="0px" y="0px" viewBox="0 0 18 18"
	 style="enable-background:new 0 0 18 18;" xml:space="preserve">
<style type="text/css">
	.cls-2{fill:#E56E47;}
	.cls-1{fill:#FFFFFF;}
</style>
<g id="iconos">
	<g id="_2.1.2">
		<circle class="cls-2" cx="9" cy="9" r="9"/>
	</g>
</g>
<g>
	<polygon class="cls-1" points="2.2,6.8 3,6.8 9,14.6 9,14.9 6.6,14.9 	"/>
	<g>
		<polygon class="cls-1" points="7.5,4.5 6.7,3.8 6.7,2.7 6.1,2.7 6.1,3.2 5.2,2.4 5.2,2.4 5.2,2.4 2.9,4.5 3.2,4.9 5.2,3.1 7.2,4.9 
					"/>
		<path class="cls-1" d="M6.1,4.4L5.2,3.7L4.4,4.4L3.5,5.1v1.1c0,0.1,0.1,0.1,0.1,0.1h1c0.1,0,0.1-0.1,0.1-0.1V5.1h0.4h0.4v1.1
			c0,0.1,0.1,0.1,0.1,0.1h1c0.1,0,0.1-0.1,0.1-0.1V5.1L6.1,4.4z"/>
	</g>
	<g>
		<polygon class="cls-1" points="11.5,8 10.5,7 10.5,5.7 9.7,5.7 9.7,6.3 8.6,5.3 8.6,5.3 8.6,5.3 5.7,8 6.2,8.4 8.6,6.2 11.1,8.4 		
			"/>
		<path class="cls-1" d="M9.7,7.8L8.6,6.9L7.6,7.8L6.5,8.6V10c0,0.1,0.1,0.2,0.2,0.2h1.2c0.1,0,0.2-0.1,0.2-0.2V8.6h0.5h0.5V10
			c0,0.1,0.1,0.2,0.2,0.2h1.2c0.1,0,0.2-0.1,0.2-0.2V8.6L9.7,7.8z"/>
	</g>
	<g>
		<polygon class="cls-1" points="15.8,12.3 14.6,11.2 14.6,9.7 13.7,9.7 13.7,10.4 12.4,9.2 12.4,9.2 12.4,9.2 9.1,12.3 9.6,12.8 
			12.4,10.2 15.3,12.8 		"/>
		<path class="cls-1" d="M13.7,12.1l-1.2-1l-1.2,1l-1.2,1v1.6c0,0.1,0.1,0.2,0.2,0.2h1.4c0.1,0,0.2-0.1,0.2-0.2v-1.6h0.6h0.6v1.6
			c0,0.1,0.1,0.2,0.2,0.2h1.4c0.1,0,0.2-0.1,0.2-0.2v-1.6L13.7,12.1z"/>
	</g>
</g>
</svg>
