<?xml version="1.0" encoding="UTF-8" standalone="no"?>
<svg
   id="Capa_2"
   width="18"
   height="18"
   viewBox="0 0 18 18"
   version="1.1"
   sodipodi:docname="unidadAdministrativa.svg"
   inkscape:version="1.2.1 (9c6d41e410, 2022-07-14)"
   xmlns:inkscape="http://www.inkscape.org/namespaces/inkscape"
   xmlns:sodipodi="http://sodipodi.sourceforge.net/DTD/sodipodi-0.dtd"
   xmlns="http://www.w3.org/2000/svg"
   xmlns:svg="http://www.w3.org/2000/svg">
  <sodipodi:namedview
     id="namedview77"
     pagecolor="#ffffff"
     bordercolor="#000000"
     borderopacity="0.25"
     inkscape:showpageshadow="2"
     inkscape:pageopacity="0.0"
     inkscape:pagecheckerboard="0"
     inkscape:deskcolor="#d1d1d1"
     showgrid="false"
     inkscape:zoom="45.444444"
     inkscape:cx="9.0110024"
     inkscape:cy="9.0110024"
     inkscape:window-width="1920"
     inkscape:window-height="1002"
     inkscape:window-x="-8"
     inkscape:window-y="-8"
     inkscape:window-maximized="1"
     inkscape:current-layer="Capa_2" />
  <defs
     id="defs4">
    <style
       id="style2">.cls-1{fill:#fff;}.cls-2{fill:#7f0018;}</style>
  </defs>
  <g
     id="iconos">
    <g
       id="_1.1.1">
      <circle
         class="cls-2"
         cx="9"
         cy="9"
         r="9"
         id="circle6"
        />
      <g
         id="g72">
        <path
           class="cls-1"
           d="M10.83,6.48s-.06-.06-.07-.08c0,0,0,0,0-.01-.02,0-.05-.02-.06-.04h0s-.01,0-.02,0c-.07,0-.11-.03-.14-.08-.05,0-.09-.03-.11-.05,0,0-.02-.01-.03-.02,0,0,0,0-.01,0h0s-.1,0-.16-.05c-.01,0-.02,0-.03,0-.02,0-.03,.01-.05,.01h-.02s-.02,0-.04,0c-.05,0-.14,0-.21-.1,0,0,0,0,0-.01-.01,0-.03,0-.04,0-.01,0-.02,0-.03,0-.03,0-.06-.03-.07-.05,0,0-.02,0-.02,0,0,0-.02,0-.03,0,.01,.06,.02,.11,.02,.15,0,.07-.02,.11-.05,.14,0,.07-.01,.16,0,.19,0,0,0,.01,0,.01,.01,0,.02,.01,.03,.01,.03,.01,.06,.03,.09,.05,.03-.05,.07-.09,.14-.09h.02c.08,0,.12,.05,.13,.07,0,.01,.01,.03,.02,.04,.04-.07,.11-.16,.25-.16,.03,0,.07,0,.11,.02,.03,0,.05,.03,.07,.05,.01,0,.02,0,.03,0,.04,0,.09,.01,.13,.03,.03,.02,.05,.04,.06,.07,0,.03,0,.07-.01,.1,0,.01,.02,.03,.03,.04,0-.01,0-.03,0-.05,0-.07,.03-.15,.09-.2h0Z"
           id="path8"
            />
        <path
           class="cls-1"
           d="M10.28,5.66c0-.05,.02-.1,.04-.15,.02-.05,.03-.11,.05-.17,.01-.06,.06-.1,.11-.1,.07,0,.1-.02,.12-.11,0-.04,.03-.07,.06-.09,.02,0,.03-.02,.04-.02,0-.11,.09-.2,.26-.31,0-.01,0-.02,.01-.03-.1,.03-.19,.09-.22,.11-.06,.02-.12,.03-.19,.03-.16,0-.34-.06-.49-.14-.07-.05-.15-.06-.22-.06-.15,0-.26,.07-.22,.16h0s-.01,0-.02-.02c0,.01,0,.03,0,.04,0,.04-.02,.09-.06,.11,.04,.02,.06,.05,.07,.09,0,.03,0,.05-.01,.08,0,.02,.01,.05,0,.07,.02,0,.05,.02,.06,.04,.04,.04,.14,.15,.09,.26-.01,.02-.04,.07-.11,.09,.02,.01,.04,.02,.05,.04,0,0,0,0,0,0,.03-.04,.07-.07,.14-.1,.02,0,.03-.01,.05-.01,0,0,.02,0,.02,0h.03c.14,.03,.29,.06,.31,.18,0,0,0,.02,0,.03,0,0,0,0,0,0,.01,0,.02,0,.03,0h.01Z"
           id="path10"
            />
        <path
           class="cls-1"
           d="M10.14,6.04s0-.02,.01-.03c0,0,0-.02,0-.02-.02-.01-.05-.03-.07-.06,0,0,0,0,0,0,0,0,0,0-.01,0,0,0-.02,0-.03,0-.03,0-.06-.01-.08-.02,.01,.03,.02,.08,.02,.09,.05,.06,.09,.05,.16,.05Z"
           id="path12"
            />
        <path
           class="cls-1"
           d="M9.83,5.93s0,0,0,0h0s0,0,0,0h0Z"
           id="path14"
            />
        <path
           class="cls-1"
           d="M9.25,4.85s.05-.04,.09-.04c.02,0,.03,0,.03,0h.02c.16,0-.02-.16-.1-.17,0,0-.01,0-.02,0-.07,0-.21-.03-.18-.04,.12,0-.02-.1-.13-.1-.04,0-.07,.01-.09,.04,0,0-.01,0-.02,0-.05,0-.04,.07-.05,.07,0,0,0,0,0,0,0,0,0,0,0,0,0,0,0-.03,0-.03h0s0,0,0,0c0,0-.03,.03-.02,.04-.03,.02-.04,.02-.04,.02,0,0,.03-.03-.02-.04,.01-.01,.02-.04,.08-.05-.02,0-.05-.01-.08-.01-.17,0-.4,.13-.58,.13-.02,0-.04,0-.06,0,0,0,0,0,0,.01,.02,.05,.02,.14-.06,.24-.02,.03-.06,.05-.09,.05h0s-.04,0-.06-.01c0,0,0,0,0,0-.03,.03-.06,.07-.11,.1,.01,.01,.03,.01,.05,.01,.02,0,.04,0,.06,0,.03,0,.05,0,.08,0,.08,0,.2,.01,.29,.1,.08,.01,.13,.06,.15,.16,0,0,.01,0,.02,0,.01-.06,.07-.12,.13-.18,.16-.18,.44-.24,.63-.26,.01-.02,.04-.04,.09-.04h0Z"
           id="path16"
            />
        <path
           class="cls-1"
           d="M3.11,5.82s0-.02,.01-.02c0,0,0,0,0,0,0,0,0,.01-.02,.02,0,0,0,0,0,0h0Z"
           id="path18"
            />
        <path
           class="cls-1"
           d="M3.09,5.74s0,0,.03-.02c0-.03,0-.04-.04-.05,.02,.03,0,.07,.01,.07Z"
           id="path20"
            />
        <path
           class="cls-1"
           d="M5.1,5.12s.01-.07,.04-.1c0,0,.01-.01,.02-.02,0,0,0,0,0,0-.05-.05-.08-.12-.11-.2-.02-.04-.05-.11-.07-.13-.03-.02-.06-.05-.07-.09,0-.05,0-.09,.05-.12,.02-.01,.05-.05,.07-.08,.02-.03,.04-.05,.07-.08-.03,0-.06,0-.08,0s-.04,0-.04,0c-.03-.09-.19-.28-.29-.28-.03,0-.06,.02-.07,.07h0s0-.12-.05-.12c0,0-.01,0-.02,0-.01,.01-.02,.02-.02,.02,0,0,.05-.08,.01-.09,0,.08-.21,.08-.15,.14,0,0,0,0,0,0,0,0,0,0,0,0-.01,0-.05,0-.01-.01-.01,0-.02,0-.03,0-.05,0,.04,.06-.02,.06h0s-.01,0-.02,0c-.02,0,0-.03,0-.04,.04-.08,.03-.11,0-.11-.06,0-.2,.09-.22,.12h0s0,.02,0,.02c0,0,0,0,.02,0,0,.02-.01,.02-.02,.02-.01,0-.02-.01-.02-.02-.03,.04-.14,.06-.11,.07-.02,.06-.07,.06-.11,.06h-.02s-.02,0-.02,.01c.03,.04-.06,.12-.03,.13h0c.08,0,.08-.02,.1-.02,0,0,.02,0,.04,0-.03,0,.05-.04,.03-.05,0,0,0,0,.01,0,.02,0-.02,.08-.07,.08,0,0-.02,0-.03-.01-.12,.01-.06,.04,.05,.07,0,0,0,0,0,0,0,0-.05,.12-.03,.12h0s0,0,0,0c-.02,0-.06-.11-.11-.11,0,0,0,0-.02,0,0,.01-.02,.07,0,.08,0,0-.02,0-.02,0-.04,0-.03-.07-.04-.07,0,0,0,0-.01,.03,0,0-.01,0-.02,0-.06,0-.17,.1-.29,.1-.05,0-.1-.02-.15-.07,0,0,0-.01,0-.01-.02,0-.09,.07-.14,.07h0s.03,.05,.04,.08c-.02,.01-.03,.01-.04,.01-.02,0-.04,0-.05-.01,0,.05-.04,.06-.08,.06-.03,0-.06,0-.08,0h-.01s-.06,.09-.04,.09c0,0,.02-.01,.04-.04,0,.11-.05,.06-.1,.09,0,0,0,0,0,0,0,0,0,.07-.05,.07,0-.02,0-.03,0-.03,0,0-.01,.03,0,.03h0c.06,.07-.05,.19,0,.24,0-.05,.02-.07,.04-.07,.01,0,.03,0,.04,.03,0-.03,.01-.05,.02-.05,0,0,.01,.06,.07,.07h0s-.02,.24,.03,.24c0,0,0,0,.01,0,0-.02,.03-.07,.05-.07,0,0,.01,0,.02,.02h0s.11-.03,.14-.05c0,0,0,0,0,0,0,0,0,0,0,0-.05,.06-.27,.29-.23,.36h0c.08,0,0,.08,.03,.09,0-.01,.07,0,.05-.06,.07-.01,.08-.11,.11-.11,0,0,.02,.01,.04,.05,0-.05,.03-.08,.03-.11h0s.03,.06,.07,.06c.02,0,.04-.02,.06-.07-.03,.13-.13,.17-.13,.18,.02,.08,.03,.15-.02,.15h0s-.02,.01-.02,.01c-.01,0,.04-.07,0-.07-.01,0-.04,0-.08,.03,0,.05,.1,0,.06,.09,.02,.03,.05,.05,.08,.05,.02,0,.03,0,.05,0,.05-.03,.08-.04,.09-.04,.05,0-.08,.14-.16,.14,0,0-.02,0-.03,0,.02,.02,.03,.09,.01,.09,0,0-.02-.01-.03-.05,0,.02-.04,.09-.02,.09,0,0,.01,0,.03-.01,.01,0,.03,0,.05,0,.07,0,.18-.03,.19-.11,.13,.05-.17,.15-.17,.2-.09,.03-.22,.45-.1,.45,.04,0,.09-.03,.17-.12,.14-.2,.42-.07,.57-.22-.05,.15,.16,.08,.11,.22-.23,.13-.13,.28,.02,.28,.07,0,.16-.04,.21-.13-.03,.07,0,.09,.04,.09,.06,0,.15-.03,.21-.03,.05,0,.07,.02,.05,.08,0,.02,.02,.03,.03,.03,.04,0,.09-.05,.12-.05,.01,0,.02,0,.03,.03,0,.02,.02,.03,.05,.03,.08,0,.23-.05,.26-.13-.02-.06,0-.08,.03-.08,.02,0,.04,0,.07,.01-.02-.07-.02-.15-.02-.19,0-.02,0-.04,.01-.06,.04-.08,.12-.14,.2-.19,.03-.02,.07-.05,.09-.07,0,0-.02-.02-.04-.03-.03-.02-.05-.06-.05-.1v-.02s-.02,0-.03,0c0,0-.01,0-.02,0-.03,0-.14-.02-.18-.11-.04-.08,0-.16,.02-.21,0-.01,.01-.03,.02-.03-.02-.03-.03-.06-.02-.1,0-.04,.04-.07,.07-.09,.1-.04,.16-.13,.16-.16h0s0-.03,0-.05h0c-.1,0-.15-.1-.15-.17h0Zm-1.97,1.01h0Z"
           id="path22"
            />
        <path
           class="cls-1"
           d="M2.94,5.82s0,0,0,0c0,0,0,0,0,0,0-.01-.01-.02-.02-.02,0,0,0,.01,0,.03h0s0-.01,0-.01Z"
           id="path24"
            />
        <path
           class="cls-1"
           d="M3.02,6.16s0,.03,.01,.04c-.02,.01-.02,.02-.02,.02,0,0,.04-.02,0-.05h0Z"
           id="path26"
            />
        <path
           class="cls-1"
           d="M3.03,5.94s-.03,.03-.04,.06c.02,0,.02-.05,.04-.06Z"
           id="path28"
            />
        <path
           class="cls-1"
           d="M3.02,6.23s0,0,0,0h0s0,.02,.02,.02h0s-.01-.02-.02-.02h0Z"
           id="path30"
            />
        <path
           class="cls-1"
           d="M3,6.02h0s0,0,0,0h0s0,0,0,0Z"
           id="path32"
            />
        <path
           class="cls-1"
           d="M4.37,4.07s0,0,0,0"
           id="path34"
            />
        <path
           class="cls-1"
           d="M3.11,5.3s0,0,0,0"
           id="path36"
            />
        <path
           class="cls-1"
           d="M13.91,5.94s0,.03-.02,.04c.01,.02,.02,.05,.02,.08h0s.03,.07,.02,.11c0,.02-.01,.08-.02,.14-.02,.17-.04,.36-.12,.47,.02,.14-.11,.26-.19,.32-.03,.03-.07,.07-.09,.09,.05,.02,.08,.05,.1,.09,.04,.08,0,.15-.03,.21-.05,.09-.07,.15-.02,.24,.02,.03,.02,.06,.01,.09-.02,.1-.09,.16-.14,.22,0,0-.02,.02-.03,.03,.03,.04,.06,.11,.07,.19,0,.05,.01,.18-.04,.3h0s.04,.05,.06,.1c.05,.03,.08,.05,.11,.07,.03,.02,.06,.04,.11,.07,0,0,0,0,0,0,0-.01,.01-.02,.02-.04,.06-.02,.1-.03,.13-.03,.07,0-.01,.09-.09,.09h0s0,.03,.02,.03c.09,0,.4-.3,.1-.35-.13-.44,1.27-.57,1.6-.97,.1-.18,1.13-.7,1.12-.91-.02,0,.02-.03,0-.05-.08-.03,.02-.18-.08-.2-.1-.07-.12-.22,.03-.22,0,0,.02,0,.03,0,0,0,.01,.01,.02,.01,.03,0,.05-.08,.03-.08,.09-.09-.08-.04-.13-.09-.05-.02,.01-.12-.02-.12h0s-.03,0-.04,0c-.07,0-.13-.04-.19-.04-.03,0-.07,0-.1,.03-.14,.13-.24,.17-.32,.17-.11,0-.2-.07-.32-.07-.07,0-.16,.03-.28,.11-.1-.14-.19-.18-.27-.18-.12,0-.22,.09-.31,.09-.04,0-.07-.02-.1-.08,.07-.07-.03-.34-.2-.34-.02,0-.05,0-.08,.02-.14-.06-.34-.17-.47-.17-.07,0-.11,.03-.12,.12,.06,.02,.12,.05,.17,.1,.07,.08,.09,.18,.07,.32h0Z"
           id="path38"
            />
        <path
           class="cls-1"
           d="M7.29,11.38c-.07-.05-.1-.11-.08-.18,0-.02,.02-.09,.1-.12,0-.05,.04-.1,.09-.18,.02-.02,.04-.04,.07-.05,0-.03,0-.06,0-.08-.06,0-.23,0-.35-.13-.09-.1-.14-.23-.14-.43h-.02c-.06,0-.1-.03-.13-.07-.03-.04-.03-.09-.01-.13-.01-.01-.02-.02-.03-.03-.03-.05-.05-.1-.05-.17,0-.09,.03-.18,.08-.25,0,0,0,0,0-.01-.03,.02-.07,.02-.09,.02-.12,0-.21-.09-.29-.16-.01-.01-.03-.03-.05-.05,0,0,0,0-.01,0-.04,.02-.09,.05-.15,.05-.03,0-.11,0-.16-.1-.05-.02-.08-.06-.09-.08-.01-.03-.01-.05-.01-.08-.02-.02-.03-.02-.03-.02-.06,0-.16,.08-.25,.14-.12,.09-.24,.18-.37,.18h0s-.03,0-.04,0c-.08-.02-.12-.07-.14-.14-.13,.02-.19,.08,0,.27,.09,.06-.02,.19,0,.27-.04,.29-.26,.33-.45,.33-.06,0-.12,0-.16,0-.12,0-.16,.03,.02,.23,.11,.13,.15,.44,.25,.59,.67,.19-.7,.72-.05,1.33,.03,.06,.06,.08,.09,.08h0c.03-.06,.08-.14,.2-.14,.05,0,.09,.01,.16,.03,.03,.01,.06,.04,.07,.07,0,.02,.01,.03,.01,.05,.12,0,.17,.07,.2,.11,.03-.02,.06-.03,.1-.03,.08,0,.14,.05,.18,.09,.05,.04,.08,.07,.12,.07,.13-.02,.15-.06,.18-.12,.03-.05,.07-.12,.15-.17,.04-.04,.09-.05,.12-.05,0,0,.01,0,.01,0,.02-.01,.04-.02,.06-.02,.01,0,.03,0,.04,0,.03,0,.05,.02,.07,.03,0-.01,0-.02,0-.03-.03-.09-.08-.27,.09-.38,.27-.25,.43-.35,.59-.37h0c.03-.1,.08-.15,.12-.19h0Z"
           id="path40"
            />
        <path
           class="cls-1"
           d="M10.11,12.74c-.05-.08-.03-.19,.04-.32-.04-.14-.11-.28-.21-.29-.1,.1-.24,.1-.28,.1s-.1,0-.14,0c-.05,0-.09,0-.14,0-.09,0-.15,.02-.2,.06-.02,.02-.05,.03-.09,.03-.01,0-.02,0-.03,0-.07-.02-.13-.03-.18-.03-.06,0-.12,.01-.18,.03-.08,.02-.17,.04-.29,.04-.05,0-.1,0-.16-.01-.04,0-.07,0-.1,0-.24,0-.35-.09-.5-.22-.03-.03-.07-.06-.11-.09-.06-.03-.15-.08-.22-.14-.1-.07-.17-.12-.19-.18-.11,.03-.26,.13-.48,.34-.18,.1,.03,.29-.04,.45-.05,.02-.17,.11-.22,.11-.02,0-.03-.02-.01-.08,.05,0,.08-.06,0-.09-.01,.04-.11,0-.11,.05-.19,.09-.08,.26-.42,.31-.17,0-.23-.16-.31-.16-.02,0-.05,.01-.07,.05-.14,0-.1-.13-.23-.13-.02,0-.03,0-.06,0-.05,0-.11-.02-.06-.13-.05-.02-.09-.02-.12-.02-.12,0-.08,.15-.16,.26-.04,0-.09-.03-.11-.03-.02,0-.02,.01-.01,.05,.02,.02-.21-.01-.15,.05-.11,.34-.46,.48-.29,.8-.02,.68,1.11,.22,1.28,1.02-.31,.19,.22,.26,.13,.4-.01,.02-.01,.02,0,.02,.01,0,.05-.01,.07-.01,0,0,.01,0,.01,.01-.03,.04-.05,.05-.07,.05-.05,0-.06-.09-.06-.1h0c-.07,0,.13,.28,.17,.38,.08,.14,.2,.15,.35,.26,.06,.1,.21,.15,.33,.15s.2-.05,.15-.15c.03-.07,.17-.06,.25-.26,.18-.44,.85-.09,1.01-.58h.05c.38,0,.78-.04,1.17-.04,.26,0,.51,.02,.76,.07,.02,.02,.04,.03,.06,.03,.1,0,.21-.24,.31-.24,.02,0,.04,.01,.07,.04,.04-.02,.07-.02,.1-.02,.13,0,.17,.15,.24,.15,.04,0,.08-.04,.15-.16,.22-.39,.34-.6,.38-.73-.33-.13-.48-.45-.5-.74-.23-.04-.31-.14-.34-.23-.02,0-.03,0-.05,0-.08,0-.15-.04-.18-.1h0Z"
           id="path42"
            />
        <path
           class="cls-1"
           d="M13.31,8.14c-.13-.11,.11-.2,.15-.35-.17-.28,.17-.45,0-.49-.25-.2,.35-.36,.2-.56,.14-.04,.14-.48,.17-.6-.08,0,.02-.06-.05-.11-.02-.09-.05-.07,.02-.11,.04-.25-.11-.3-.31-.3-.15,0-.32,.03-.47,.03-.07,0-.13,0-.18-.03,0-.07-.16-.16-.22-.16,0,0-.01,0-.01,0-.06,.04-.1,.05-.14,.05-.02,0-.04,0-.06,0-.01,0-.02,0-.04,0,0,.02,0,.03,0,.03-.03,0-.11-.07-.16-.12,0,.01-.02,.02-.03,.03-.01,.01-.02,.03-.04,.05,0,.2-.17,.28-.27,.34-.02,.01-.05,.03-.08,.05,.03,0,.06,.03,.08,.06,.04,.06,.08,.12,.05,.2-.02,.04-.07,.07-.12,.07h-.02s-.06,.05-.11,.05c0,0-.05,0-.08-.03,0,.07,0,.16,0,.24,0,.19,0,.36-.09,.46-.05,.05-.11,.07-.18,.07s-.15-.03-.26-.08c0,.02,.01,.04,.02,.06,.04,.13,.09,.31-.15,.46,.01,.08,.01,.24-.05,.31-.03,.03-.07,.05-.11,.05-.02,0-.03,0-.05,0,0,.04,.02,.09,.03,.13,.01,0,.02,0,.03,0,.16,0,.31,.09,.46,.27,0,0,0,0,0,0,.31,.46,.12,.68-.07,.91,0,0,0,0-.01,.01,.02,.02,.03,.04,.05,.06,.06,.07,.1,.12,.22,.17,.02,0,.03,.01,.04,.02,.02-.05,.06-.07,.11-.07,.01,0,.02,0,.03,0,.05,.02,.09,.06,.09,.11,.02,.02,.06,.03,.09,.05,.07,.03,.16,.08,.17,.17,.03,0,.06,.02,.08,.04,.02-.03,.06-.06,.09-.07,.03-.03,.06-.05,.09-.07,.05-.03,.06-.04,.08-.11,0-.06,.02-.1,.04-.12,.05-.06,.11-.06,.16-.07,0-.01,0-.02,.01-.03,.01-.03,.03-.04,.05-.06,0,0,0,0,.01-.01-.02-.02-.04-.06-.04-.09,0-.04,.02-.08,.06-.11,0,0,0,0,0,0,0-.01,0-.03-.01-.04-.02-.01-.05-.03-.07-.06-.03-.04-.04-.1-.02-.17,0-.03,.03-.05,.05-.07,.03-.02,.07-.03,.11-.04,.04-.14,.16-.15,.19-.15,.07,0,.14,.04,.2,.07,.01,0,.02,.01,.03,.02,0,0,0,0,.01,0,.06-.02,.11-.03,.15-.03,.03,0,.05,0,.07,0,.06-.14,.03-.33-.02-.36h0Z"
           id="path44"
            />
        <path
           class="cls-1"
           d="M10.99,9.15c.24-.3,.44-.43,.15-.87-.13-.16-.24-.22-.34-.22h0s.04,.11,0,.17c-.02,.03-.06,.06-.11,.06s-.07-.02-.1-.04c-.06,.02-.11,.02-.16,.03-.04,0-.07,0-.1,.02-.02,0-.03,.01-.05,.01-.02,0-.03,0-.05-.01-.07-.03-.11-.08-.13-.12h0s-.05,0-.07-.02c-.03-.02-.06-.06-.06-.09-.01-.01-.02-.03-.03-.05-.1-.04-.22-.06-.35-.06-.12,0-.24,.02-.37,.05-.03,.02-.06,.04-.1,.07,.09,.14,.09,.3,0,.47,0,0,0,0,0,0,.02,.02,.04,.04,.04,.1,0,.02,0,.03,0,.05,.08,.02,.11,.09,.14,.16,0,.02,.02,.04,.03,.06,.03,0,.06,.02,.09,.05,.02,.03,.03,.06,.03,.11,0,0,0,0,0,0,.02,.01,.07,.04,.06,.11,0,.04-.02,.08-.03,.12,0,0,.02,0,.03,0,.06,.02,.06,.1,.07,.17,0,.03,0,.07,0,.09,.01,0,.02,.02,.02,.03,0,.02,0,.04,0,.05-.06,.09-.14,.09-.19,.08-.04,0-.06,0-.08,.01-.02,.01-.04,.02-.06,0-.07-.03-.09-.02-.15,0-.04,.02-.09,.04-.17,.05-.02,.01-.03,.02-.05,.04-.06,.06-.15,.13-.25,.13-.03,0-.06,0-.09-.02,0,0-.01,0-.02-.01-.02-.02-.03-.06,0-.1,.02-.02,.1-.07,.16-.07,.09-.08,.11-.13,.12-.15-.01,0-.03,0-.07,0-.01,0-.02,0-.03,0-.14-.07-.3-.14-.43-.18h-.03s-.02-.03-.03-.04c0,0,0,0,0,.01-.02,.03-.08,.1-.16,.06-.01,0-.02-.02-.02-.03,0-.02-.02-.04-.02-.05,0,0,0,0,0,0-.02,.03-.07,.1-.14,.11-.03,.04-.08,.08-.16,.08-.02,0-.03,0-.05,0-.04,0-.08-.02-.11-.07,0,0,0,.01-.01,.02-.05,.06-.12,.15-.24,.18-.01,0-.02,0-.03,0-.02,0-.05,0-.07-.02-.03,.02-.05,.04-.09,.05-.01,0-.02,0-.04,0h0c-.11,0-.18-.04-.22-.08-.05,.11-.05,.28,.08,.28h0c-.06,.12-.05,.15-.02,.15s.09-.03,.13-.03c.02,0,.03,.01,.01,.06-.03,.47,.2,.52,.36,.52,.05,0,.09,0,.12,0,.05,0,.08,.01,.05,.07-.16,.15,.12,.29,.03,.29-.02,0-.07,0-.16-.03-.11,.17-.06,.1-.03,.22-.01,0-.03,0-.04,0-.13,0-.17,.07,.03,.15-.02,.12-.15,.13-.2,.32h0c-.08,0,.24,.21,.35,.26,.24,.19,.3,.29,.54,.29,.03,0,.06,0,.1,0,.06,0,.11,.01,.16,.01,.21,0,.3-.07,.47-.07,.06,0,.13,0,.21,.03,.08-.08,.18-.09,.28-.09,.1,0,.19,.02,.28,.02s.17-.02,.22-.09c.02,0,.04,0,.05,0,.2,0,.31,.25,.35,.43-.12,.19-.08,.28,0,.28,.01,0,.02,0,.04,0,.05-.3,.55-.62,.81-.62h0s.07,.02,.1,.05c0,.01,.02,.02,.02,.03,.02-.05,.04-.14,.06-.36v-.02s.03-.08,.06-.1c.03-.02,.06-.04,.09-.06,.08-.05,.16-.11,.26-.11,.05,0,.11,.02,.18,.08,0-.02,0-.05,.02-.07v-.05s-.06,0-.1,.02c0,0-.01,0-.02,0-.02,0-.05,0-.07-.02-.27-.17-.19-.42-.14-.55,0-.01,.01-.03,.01-.04h-.05s-.06-.01-.09-.03c0,0-.01-.01-.01-.01h-.02s-.09-.01-.13-.08c-.02-.02-.03-.03-.04-.04,0,0,0-.01-.02-.02-.02-.02-.03-.04-.04-.07,0-.05,0-.09,.01-.12,0,0,0-.01,0-.02,0,0,0-.02,0-.02-.02-.13,.1-.22,.19-.28,.02-.02,.06-.04,.07-.05h0c0-.08,.04-.17,.09-.25-.16-.03-.29-.18-.31-.32,0-.04,0-.07,.03-.1-.18-.09-.19-.19-.33-.3h0Z"
           id="path46"
            />
        <path
           class="cls-1"
           d="M11.59,9.44c-.03,.08-.04,.12-.09,.12-.02,0-.05,0-.08-.02,.01,.1,.11,.22,.24,.22,.03,0,.06,0,.09-.02,.3-.11-.19-.14-.16-.3h0Z"
           id="path48"
            />
        <path
           class="cls-1"
           d="M12.09,12.2c-.03,.24-.05,.44,.26,.66,.07-.19,.19-.61,.31-.66,.03-.03,.2-.28,.34-.28,.02,0,.03,0,.05,.01,.09-.12,.22-.24,.39-.32-1.28-.88-.45-1.53,.22-2.71-.14-.08-.14-.1-.28-.16,0-.09-.05-.13-.12-.13-.03,0-.07,0-.12,.02,0,.02-.02,.02-.03,.02-.06,0-.17-.1-.25-.1-.04,0-.07,.03-.07,.11-.01,.03-.03,.04-.05,.04-.02,0-.03,0-.05,0-.02,0-.03,0-.05,.02-.04,.14,.13,.02,.09,.14,.01,.09,.06,.13-.05,.2,.15,.1-.03,.19-.05,.22,.04,.16-.21,.03-.2,.17-.04,.2-.13,.17-.22,.28-.17,.05,0,.24-.1,.24-.01,0-.03,0-.06-.01-.02-.13-.07-.19-.13-.19-.12,0-.27,.21-.29,.38,.03,.1-.28,.19-.27,.3,.02,.05-.02,.1,0,.15,.03,.03,.04,.06,.06,.06,0,0,0,0,.01,0,0,.05,0,.05,.02,.05,0,0,.02,0,.03,0,.02,0,.05,0,.09,.05h.02c.42,0-.15,.37,.23,.61,.06-.01,.11-.02,.15-.02,.09,0,.1,.05,.09,.22-.05,.03,.02,.14-.02,.19,.08,.15,.06,.31,.04,.46h0Z"
           id="path50"
            />
        <path
           class="cls-1"
           d="M12.29,12.98c-.67-.47-.08-.95-.45-1.29-.03-.04-.07-.05-.1-.05-.09,0-.18,.09-.29,.15-.01,.12-.03,.51-.17,.51-.04,0-.08-.03-.13-.09-.35,0-1.16,.69-.34,.74-.02,.23,.07,.64,.46,.76,.14-.09,.32-.31,.47-.31,.04,0,.07,.02,.1,.05,.04-.03,.09-.07,.17-.07,0,0,.02,0,.02,0,0-.01,0-.01,0-.01,0,0,.03,.03,.05,.03h0s.04,0,.06,0c.18,0,.24-.12,.17-.33,0,.08,.03,.21-.01,.21-.02,0-.06-.03-.12-.11,.03-.17,.14-.09,.11-.2h0Z"
           id="path52"
            />
        <path
           class="cls-1"
           d="M7.86,4.8s.04,.01,.07,.04c.16-.2-.16-.21-.3-.25-.23-.03-.58-.2-.82-.2-.03,0-.07,0-.1,.01h0s0,0-.01,0c-.02,0-.05-.03,0-.04,0,0-.01,0-.02,0-.05,0-.09-.05-.09-.08,.02-.03-.09-.03-.05-.06-.08,.08-.19,.14-.29,.14-.05,0-.09-.01-.12-.05-.07,.03-.17,.04-.27,.04-.14,0-.28-.02-.42-.03,0,0,0,0,0,0h0s0,0,0,0c-.02,0-.04-.01-.06-.01-.14,0-.23,.19-.32,.26,.09,.03,.17,.38,.26,.38,.02,0,.05-.02,.07-.07,.15,.16-.12,.12-.12,.23,0,0,0,0-.01,0-.04,0,0,.07,0,.07,0,0,.01-.01,0-.05,.02,0,.05,.03,.07,.06,.02,0,.03-.01,.05-.01,.02,0,.03,0,.05,.01,.03,0,.05,.01,.09,.01,.04,0,.09,0,.15-.01,0-.02,.02-.04,.04-.05,.01-.01,.03-.02,.05-.03,0,0,0,0,0,0,.03-.03,.07-.1,.16-.1,.04,0,.07,.01,.11,.04,.02,0,.05-.02,.08-.02,.01,0,.03,0,.04,0,.04-.04,.09-.04,.11-.04,.08,0,.14,.06,.2,.12,0,0,.02,.02,.03,.03,.03-.07,.09-.11,.16-.11,.05,0,.09,.01,.16,.04,.09-.04,.17-.08,.28-.08,.02,0,.05,0,.07,0,.02-.01,.07-.05,.09-.07,.08-.07,.16-.14,.26-.14h0c.05,0,.14,.02,.2,.16,.05-.05,.09-.12,.14-.12h0Z"
           id="path54"
            />
        <polygon
           class="cls-1"
           points="5.43 4.31 5.43 4.31 5.43 4.31 5.43 4.31"
           id="polygon56"
            />
        <path
           class="cls-1"
           d="M11.31,6.89c.31,0-.03-.82,.31-.97,0-.2,.4-.18,.38-.45,.13-.18,.18-.16-.06-.18-.09-.01-.54-.12-.4-.22-.08,.01-.1,.14-.15,.14-.02,0-.04-.03-.08-.1,.07,0,.15-.26,.06-.26,0,0-.01,0-.02,0-.06-.03-.09-.04-.11-.04-.04,0,0,.05-.07,.06h0c-.06,0,0-.09-.06-.09-.02,0-.04,0-.08,.02-.4,.26-.04,.19-.3,.34-.02,.16-.11,.21-.23,.22-.03,.18-.11,.33-.08,.43-.02,0-.04,.01-.06,.01-.02,0-.04,0-.06,0,0,.04-.03,.07-.06,.09,.05,.01,.1-.02,.04,.15,.06,.07,.13,.02,.17,.06,.05,.02,.07,.05,.11,.05,.02,0,.03,0,.06-.02,.02,.08,.04,.09,.07,.09,0,0,.02,0,.03,0,.02,0,.05,0,.08,.04,.09,0,.09,.12,.13,.12h0c.07,.07,.23,.05,.16,.17-.02-.01-.04-.01-.06-.01-.09,0-.15,.09-.15,.16,.01,0,.03-.01,.04-.01,.01,0,.02,0,.04,0,.04,.01,.07,.05,.08,.09,.13,.08,.22,.11,.28,.11h0Z"
           id="path58"
            />
        <path
           class="cls-1"
           d="M11.76,6.02s0,0,0,0c-.02,0-.03,.05-.04,.06,.04,0,.06,.01,.07,.01,.02,0,0-.01-.03-.07Z"
           id="path60"
            />
        <path
           class="cls-1"
           d="M11.69,6.08s-.03,.02-.04,.03c0,.02,0,.03,.01,.03,0,0,.02-.02,.03-.05,0,0,0,0,0,0h0Z"
           id="path62"
            />
        <path
           class="cls-1"
           d="M8.15,9.33h0s.06-.07,.12-.07c.04,0,.07,.03,.08,.05h.01c.12,.05,.28,.11,.42,.19h.02c.05,0,.13,.01,.15,.07,.02,.03,.01,.07,0,.11,.06-.01,.1-.03,.13-.04,.06-.02,.11-.05,.21-.01,.05-.02,.1-.02,.13-.02,.02,0,.04,0,.05,0-.01-.04-.02-.09-.02-.13v-.02s-.04,.02-.06,.02c-.03,0-.05-.02-.06-.05-.02-.05,0-.1,.03-.16,.01-.02,.03-.07,.03-.09h0s-.06-.04-.07-.08c0,0,0-.02,0-.03,0-.03,0-.04,0-.04,0,0-.02,0-.03,0-.02,0-.06,0-.08-.05,0,0,0-.02,0-.03,0-.02-.02-.04-.02-.05,0,0,0,0,0,0-.03,0-.06-.02-.07-.05h0s0,0,0,0h0v-.02s-.04,0-.05,0c-.05-.03-.03-.08-.02-.11,0,0,0,0,0,0,0-.01,0-.02,0-.04h0s-.04-.03-.05-.06c-.01-.04,0-.08,.03-.11,.05-.09,.08-.21,0-.33-.11,.1-.24,.23-.35,.33-.08,.08-.15,.15-.2,.2-.01,.02-.02,.04-.04,.06-.01,.02-.04,.05-.04,.07,.01,.05,0,.09-.02,.11-.01,.02-.05,.07-.13,.07h-.02s-.01,.05-.01,.07c0,.03,0,.06-.02,.1-.01,.05-.05,.08-.1,.09,0,0-.01,.01-.02,.02,.02,.02,.04,.04,.06,.07h0Z"
           id="path64"
            />
        <path
           class="cls-1"
           d="M10.12,5.8c.14-.07-.08-.03-.05-.11,.14-.07-.09-.11-.2-.12-.3,.12,.24,.22,.25,.23Z"
           id="path66"
            />
        <path
           class="cls-1"
           d="M9.7,5.88s0,0,0-.03h0s0,0-.01,0h0s.01,.02,.02,.02h0Z"
           id="path68"
            />
        <path
           class="cls-1"
           d="M5.3,9.32c.18,0,.43-.32,.63-.32,.06,0,.12,.03,.17,.12-.01,.01-.04,.07,.05,.07h0c0,.07,.03,.09,.06,.09,.05,0,.1-.06,.14-.06,0,0,.02-.01,.03-.01,.08,0,.21,.22,.34,.22,.04,0,.07-.02,.11-.07,0,0,.01,0,.02,0,.12,0,0,.25,.28,.26,.05-.01,.12-.1,.16-.1,.02,0,.03,.02,.03,.07,.15-.04,.2-.23,.3-.23,0,0,.01,0,.02,0,.01,0,.02-.01,.03-.01,.04,0,0,.11,.06,.12,.01,0,.02,0,.03,0,.11,0,.09-.2,.12-.2,0,0,.01,0,.02,.02,.08-.01,.11-.15,.21-.16,.02-.08,0-.14,.07-.26-.02-.02-.03-.03-.02-.03,.02,0,.08,.02,.11,.02,.02,0,.03,0,.02-.04,0-.08,.08-.15,.11-.21,.17-.15,.59-.61,.8-.72,.14-.04,.28-.06,.42-.06,.18,0,.35,.04,.49,.12-.05,.06,0,.02,0,.11,.02,0,.03-.01,.04-.01,.06,0,.07,.1,.15,.14,.12-.06,.2,0,.31-.07,0,0,0-.01,.01-.01,.02,0,.07,.07,.09,.07,0,0,0-.01-.01-.06h0s-.22-.49-.02-.49c.02,0,.03,0,.05,0,.02,.05,.03,.06,.04,.06,.04,0,.05-.16,.03-.25-.07-.1,0-.06,.05-.09,.24-.14,.07-.28,.06-.55-.03,.05-.08,.06-.12,.06-.12,0-.24-.14-.18-.24-.03-.01-.05-.02-.07-.02-.02,0-.05,0-.06,0-.02,0-.05-.01-.07-.06-.03,0-.05-.01-.07-.01-.16,0-.15,.22-.3,.22-.02,0-.04,0-.06-.01-.01,0-.02,0-.03,0-.11,0,.08-.16-.02-.16h-.02s-.09,.16-.14,.16c-.02,0-.03-.02-.05-.07-.02-.07-.21-.06-.2-.17-.02-.05,0-.36,.02-.36,0,0,0,.01,0,.04,0,0,0,0,.01,0,.03,0,0-.23-.03-.23,0,0,0,0-.01,.01,0-.14,.07-.16,.14-.16,.05,0,.09,.01,.11,.01,.03,0,.02-.02-.05-.11-.05,0-.13-.09-.15-.09,0,0,0,0,0,0,0,0-.02,0-.02,0-.11,0,0-.12-.03-.2-.03,.05-.07,.07-.1,.07-.06,0-.09-.06,0-.16,.04,.03,.13,.06,.19,.06s.09-.03-.02-.14h-.02c-.12,0-.04-.03-.08-.11,.05-.06-.07-.08,.02-.13-.05,0-.11-.01-.17-.01-.26,0-.54,.06-.68,.22-.12,.12-.11,.14-.07,.14,.04,0,.1-.02,.14-.02,.02,0,.03,.01-.02,.06-.02,0-.03,0-.03,0-.02,0,0,.04-.01,.07h.01s.02,0,.02,0c0,0,0,0,0-.05,.07,.01,.06,.15,0,.15,0,0-.02,0-.03,0-.02,.03-.04,.04-.06,.04-.03,0-.06-.05-.06-.11-.02,.03-.03,.06-.05,.09,0,.01,0,.02,0,.02-.02,0-.05-.06-.08-.06,0,0-.01,0-.02,0-.11-.09,.1-.03,0-.12-.03,.03-.05,.03-.06,.03-.05,0,0-.19-.1-.19,0,0-.02,0-.02,0-.07-.09-.16-.1-.24-.1-.05,0-.09,0-.14,0-.1,0-.18-.03-.2-.22-.02-.06-.05-.08-.08-.08-.1,0-.24,.2-.34,.21-.03,0-.05,0-.08,0-.11,0-.18,.05-.28,.1-.08-.04-.13-.06-.16-.06-.09,0-.03,.12-.15,.12h-.02c-.06,0-.17-.16-.23-.16-.02,0-.03,.01-.04,.05,0,.01-.02,.02-.03,.02-.02,0-.04-.01-.05-.01,0,0,0,0,0,0-.01-.01-.02-.02-.03-.02-.03,0-.05,.03-.09,.03-.01,0-.03,0-.04-.01-.02-.03-.04-.03-.05-.03-.05,0-.07,.1-.12,.1h0s0,.02,.01,.02c0,0,0,0,.01,0,.01,0,.02,0,.02,.05-.12,.01-.22,.03-.31,.03-.04,0-.09,0-.13-.02,0,0-.01,0-.01,0-.03,0,.03,.07,.02,.07,0,0-.01,0-.03-.01,0,.1-.11,.22-.24,.27,.1,.12-.17,.26,.06,.3,.01-.02,.03-.03,.05-.03,.08,0,.18,.09,.1,.16,.29,.2-.12,.29-.2,.45,0,.2,.04,.25,.08,.25s.1-.05,.14-.05c.02,0,.03,.01,.04,.05,.03,0,.06,0,.09,0,.24,0,.11,.11,.14,.38,.26,.11,.52,.1,.2,.49h0c-.09,0-.16,.2-.28,.2-.01,0-.03,0-.04,0-.09,.02-.15,.14-.19,.23-.01,.07-.05,.08-.09,.08-.02,0-.04,0-.06,0-.03,0-.04,.02,.03,.11,.21,.27-.15,1.01,.09,1.09h0Z"
           id="path70"
            />
      </g>
    </g>
  </g>
</svg>
