<!-- Generated by IcoMoon.io -->
<svg version="1.1" xmlns="http://www.w3.org/2000/svg" width="1024" height="1024" viewBox="0 0 1024 1024">
<title></title>
<g id="icomoon-ignore">
</g>
<path d="M912 480c-26.528 0-48 21.504-48 48v400h-768v-768h400c26.528 0 48-21.504 48-48s-21.472-48-48-48h-432c-35.328 0-64 28.64-64 64v832c0 35.36 28.672 64 64 64h832c35.328 0 64-28.64 64-64v-432c0-26.496-21.472-48-48-48zM1012.832 148.832l-137.696-137.696c-7.488-7.488-17.312-11.136-27.136-11.136s-19.648 3.648-27.136 11.168l-532.864 532.832v192h192l532.832-532.832c7.52-7.52 11.168-17.344 11.168-27.168 0-9.856-3.648-19.648-11.168-27.168zM448 640h-64v-64l464-464 64 64-464 464z"></path>
</svg>
