<?xml version="1.0" encoding="UTF-8"?>
<svg width="8.5869mm" height="5.5371mm" version="1.1" viewBox="0 0 8.5869 5.5371" xmlns="http://www.w3.org/2000/svg" xmlns:cc="http://creativecommons.org/ns#" xmlns:dc="http://purl.org/dc/elements/1.1/" xmlns:rdf="http://www.w3.org/1999/02/22-rdf-syntax-ns#">
 <defs>
  <clipPath id="clipPath85783">
   <path d="m-2.4341 1.5696h4.8682v-3.1392h-4.8682z"/>
  </clipPath>
 </defs>
 <metadata>
  <rdf:RDF>
   <cc:Work rdf:about="">
    <dc:format>image/svg+xml</dc:format>
    <dc:type rdf:resource="http://purl.org/dc/dcmitype/StillImage"/>
    <dc:title/>
   </cc:Work>
  </rdf:RDF>
 </metadata>
 <g transform="matrix(1.7639 0 0 1.7639 4.2934 2.7686)">
  <g clip-path="url(#clipPath85783)">
   <g transform="translate(-1.3003,-1.0027)">
    <path d="m0 0c0 0.313-0.254 0.567-0.567 0.567s-0.567-0.254-0.567-0.567 0.254-0.567 0.567-0.567 0.567 0.254 0.567 0.567" fill="#ed1c24" fill-rule="evenodd"/>
   </g>
   <g transform="translate(-1.3003 .9973)">
    <path d="m0 0c0 0.313-0.254 0.567-0.567 0.567s-0.567-0.254-0.567-0.567 0.254-0.567 0.567-0.567 0.567 0.254 0.567 0.567" fill="#ed1c24" fill-rule="evenodd"/>
   </g>
   <g transform="translate(2.4341,-1.0027)">
    <path d="m0 0c0 0.313-0.254 0.567-0.567 0.567s-0.567-0.254-0.567-0.567 0.254-0.567 0.567-0.567 0.567 0.254 0.567 0.567" fill="#ed1c24" fill-rule="evenodd"/>
   </g>
   <g transform="translate(2.4341,1.0027)">
    <path d="m0 0c0 0.313-0.254 0.567-0.567 0.567s-0.567-0.254-0.567-0.567 0.254-0.567 0.567-0.567 0.567 0.254 0.567 0.567" fill="#ed1c24" fill-rule="evenodd"/>
   </g>
   <path d="m1.863-1.003h-3.73v2h3.73z" fill="#fff" stroke="#ed1c24" stroke-miterlimit="2" stroke-width=".283"/>
  </g>
 </g>
</svg>
