<?xml version="1.0" encoding="UTF-8"?>
<svg width="21.971mm" height="22.504mm" version="1.0" xmlns="http://www.w3.org/2000/svg" xmlns:cc="http://creativecommons.org/ns#" xmlns:dc="http://purl.org/dc/elements/1.1/" xmlns:rdf="http://www.w3.org/1999/02/22-rdf-syntax-ns#">
 <metadata>
  <rdf:RDF>
   <cc:Work rdf:about="">
    <dc:format>image/svg+xml</dc:format>
    <dc:type rdf:resource="http://purl.org/dc/dcmitype/StillImage"/>
    <dc:title/>
   </cc:Work>
  </rdf:RDF>
 </metadata>
 <path d="m52.667 66.667-1 .66667-.33333.66667-.33333 1.3333.66667.33333h1l-.66667-.66667.33333-.66667 1 1 .66667-.66667.66667.66667-.66667.33333.33333.33333.66667-.33333.33333-1v-.66667l-.66667-1h-.66667l.33333.33333-.33333.33333-.66667-.33333v-.33333l-.66667-.33333zm-42.333-4.6667-1 .66667-.33333.66667-.33333 1.3333 1 .33333.66667-.33333-.66667-.33333.66667-.66667.66667.66667v.33333l.66667-.66667.66667.66667-.33333.33333h.33333.33333l.33333-1v-1l-.66667-.66667h-.66667l.33333.33333v.33333l-1-.66667v.33333-.33333l-.66667-.33333zm65.333-6-1.3333 1.3333v1.3333l.66667.33333h.66667l-.33333-.66667.33333-.66667 1 1 .66667-.66667.33333.66667-.33333.33333.33333.33333.66667-.33333.33333-1v-.66667l-.66667-1-.66667.33333h.33333l-.33333.33333-.66667-.33333h-.33333v-.33333l-.66667-.33333zm-43.667-14.667-1 .66667-.33333.66667-.33333 1.3333.66667.33333 1-.33333-.66667-.33333.33333-.66667 1 .66667.66667-.33333.33333.33333-.33333.33333v.33333h.33333.66667l.33333-1v-1l-.66667-.66667h-.66667l.33333.33333-.33333.33333-.66667-.66667h-.33333l-.33333-.33333zm26.333-6.3333-1.3333 1.3333v1.3333l.66667.33333h.66667l-.33333-.66667.33333-.66667 1 1 .66667-.66667.33333.66667-.33333.33333.33333.33333.66667-.33333.33333-1v-.66667l-.66667-1-.66667.33333h.33333l-.33333.33333-.66667-.33333h-.33333v-.33333l-.66667-.33333zm-42-20.667-1 .66667-.66667.66667v1.3333l.66667.33333h.66667l-.33333-.66667.33333-.66667 1 1 .66667-.66667.33333.66667-.33333.33333h.33333.66667l.33333-1v-.66667l-.66667-1h-.66667l.33333.33333-.33333.33333-.66667-.33333h-.33333v-.33333l-.33333-.33333zm40.667 0-1.3333 1.3333v1.3333l.66667.33333 1-.33333-.66667-.33333.33333-.66667 1 .66667v.33333l.66667-.66667.33333.33333-.33333.33333v.33333h.33333.66667l.33333-1v-1l-.66667-.66667h-.66667l.33333.33333-.33333.33333-.66667-.66667h-.33333l-.66667-.33333zm-4 52.333 2-.33333 1 1.3333.33333 1.3333-.66667 1.3333h-.33333l-1 .33333-.66667-.33333v.66667h.33333v.66667h-1.3333v-.33333-1.3333h-1l-1-.33333v-.33333l.33333-1.3333.33333-1 1.3333-.66667.33333.33333zm-42.333-4.6667v-.33333h2.3333l.66667 1v.33333l.33333 1-.66667 1.6667h-.33333l-1 .33333v-.33333l-.66667-.33333v.66667h.33333v1h-1.3333v-.33333-1.3333h-1l-1-.33333v-.33333l.33333-1.3333.33333-1 1.3333-.66667.33333.33333zm65.667-6 2-.33333 1 1.3333v1.3333l-.33333 1.3333h-.33333l-1 .33333h-.33333l-.33333-.33333h-.33333l.33333.66667h.33333v.66667h-1.3333v-1.6667h-1l-1-.33333v-.33333-1.3333l1.6667-1.6667.66667.33333zm-44-14.667v-.33333l2-.33333 1 1.3333.33333 1.3333-.66667 1.6667h-.33333-1l-.66667-.33333v.66667h.33333v1h-1.3333v-.66667-1.3333l-1 .33333-1-.66667.33333-1.3333v-.33333l.33333-.66667 1-1 .66667.66667zm26.667-6.3333 2-.33333 1 1.3333v1.3333l-.33333 1.3333h-.33333l-1 .33333h-.33333l-.33333-.33333h-.33333l.33333.66667h.33333v.66667h-1.3333v-.33333-1.3333h-1l-1-.33333v-.33333-1.3333l1.6667-1.6667.66667.33333zm-42.333-20.667v-.33333h2l1 1.3333.33333 1.3333-.66667 1.3333h-.33333l-1 .33333-.66667-.33333v.66667h.33333v.66667h-1.3333v-.33333-1.3333h-1l-1-.33333v-.33333-1.3333l.66667-1 1-.66667.66667.33333zm41 0v-.33333l2-.33333 1 1.3333v.33333 1l-.33333 1.6667h-.33333l-1 .33333v-.33333l-.66667-.33333v.66667h.33333v1h-1.3333v-.66667-1.3333l-1 .33333-1-.66667v-1.3333-.33333l.66667-.66667 1-.66667.66667.33333zm25.667-14.667h-83v85h83v-85z" style="fill:#dee7a2"/>
 <path d="m52.667 66.667-1 .66667-.33333.66667-.33333 1.3333.66667.33333h1l-.66667-.66667.33333-.66667 1 1 .66667-.66667.66667.66667-.66667.33333.33333.33333.66667-.33333.33333-1v-.66667l-.66667-1h-.66667l.33333.33333-.33333.33333-.66667-.33333v-.33333l-.66667-.33333m-42.333-4.6667-1 .66667-.33333.66667-.33333 1.3333 1 .33333.66667-.33333-.66667-.33333.66667-.66667.66667.66667v.33333l.66667-.66667.66667.66667-.33333.33333h.33333.33333l.33333-1v-1l-.66667-.66667h-.66667l.33333.33333v.33333l-1-.66667v.33333-.33333l-.66667-.33333m65.333-6-1.3333 1.3333v1.3333l.66667.33333h.66667l-.33333-.66667.33333-.66667 1 1 .66667-.66667.33333.66667-.33333.33333.33333.33333.66667-.33333.33333-1v-.66667l-.66667-1-.66667.33333h.33333l-.33333.33333-.66667-.33333h-.33333v-.33333l-.66667-.33333m-43.667-14.667-1 .66667-.33333.66667-.33333 1.3333.66667.33333 1-.33333-.66667-.33333.33333-.66667 1 .66667.66667-.33333.33333.33333-.33333.33333v.33333h.33333.66667l.33333-1v-1l-.66667-.66667h-.66667l.33333.33333-.33333.33333-.66667-.66667h-.33333l-.33333-.33333m26.333-6.3333-1.3333 1.3333v1.3333l.66667.33333h.66667l-.33333-.66667.33333-.66667 1 1 .66667-.66667.33333.66667-.33333.33333.33333.33333.66667-.33333.33333-1v-.66667l-.66667-1-.66667.33333h.33333l-.33333.33333-.66667-.33333h-.33333v-.33333l-.66667-.33333m-42-20.667-1 .66667-.66667.66667v1.3333l.66667.33333h.66667l-.33333-.66667.33333-.66667 1 1 .66667-.66667.33333.66667-.33333.33333h.33333.66667l.33333-1v-.66667l-.66667-1h-.66667l.33333.33333-.33333.33333-.66667-.33333h-.33333v-.33333l-.33333-.33333m40.667 0-1.3333 1.3333v1.3333l.66667.33333 1-.33333-.66667-.33333.33333-.66667 1 .66667v.33333l.66667-.66667.33333.33333-.33333.33333v.33333h.33333.66667l.33333-1v-1l-.66667-.66667h-.66667l.33333.33333-.33333.33333-.66667-.66667h-.33333l-.66667-.33333m-4 52.333 2-.33333 1 1.3333.33333 1.3333-.66667 1.3333h-.33333l-1 .33333-.66667-.33333v.66667h.33333v.66667h-1.3333v-.33333-1.3333h-1l-1-.33333v-.33333l.33333-1.3333.33333-1 1.3333-.66667.33333.33333m-42.333-4.6667v-.33333h2.3333l.66667 1v.33333l.33333 1-.66667 1.6667h-.33333l-1 .33333v-.33333l-.66667-.33333v.66667h.33333v1h-1.3333v-.33333-1.3333h-1l-1-.33333v-.33333l.33333-1.3333.33333-1 1.3333-.66667.33333.33333m65.667-6 2-.33333 1 1.3333v1.3333l-.33333 1.3333h-.33333l-1 .33333h-.33333l-.33333-.33333h-.33333l.33333.66667h.33333v.66667h-1.3333v-1.6667h-1l-1-.33333v-.33333-1.3333l1.6667-1.6667.66667.33333m-44-14.667v-.33333l2-.33333 1 1.3333.33333 1.3333-.66667 1.6667h-.33333-1l-.66667-.33333v.66667h.33333v1h-1.3333v-.66667-1.3333l-1 .33333-1-.66667.33333-1.3333v-.33333l.33333-.66667 1-1 .66667.66667m26.667-6.3333 2-.33333 1 1.3333v1.3333l-.33333 1.3333h-.33333l-1 .33333h-.33333l-.33333-.33333h-.33333l.33333.66667h.33333v.66667h-1.3333v-.33333-1.3333h-1l-1-.33333v-.33333-1.3333l1.6667-1.6667.66667.33333m-42.333-20.667v-.33333h2l1 1.3333.33333 1.3333-.66667 1.3333h-.33333l-1 .33333-.66667-.33333v.66667h.33333v.66667h-1.3333v-.33333-1.3333h-1l-1-.33333v-.33333-1.3333l.66667-1 1-.66667.66667.33333m41 0v-.33333l2-.33333 1 1.3333v.33333 1l-.33333 1.6667h-.33333l-1 .33333v-.33333l-.66667-.33333v.66667h.33333v1h-1.3333v-.66667-1.3333l-1 .33333-1-.66667v-1.3333-.33333l.66667-.66667 1-.66667.66667.33333m25.667-14.667h-83v85h83v-85" style="fill:none"/>
 <path d="m76.333 56.667zm0-.33333v.33333h.33333l-.33333-.33333zm2-.66667-2 .33333 1 .66667.66667-.33333.66667 1v.66667l-.33333 1-.66667.33333-.33333-.33333-.66667.33333v.33333h.33333l.33333.33333h.33333l1-.33333h.33333l.33333-1.3333v-1.3333l-1-1.3333z" style="fill:#39aa35"/>
 <path d="m76.333 56.667m0-.33333v.33333h.33333l-.33333-.33333m2-.66667-2 .33333 1 .66667.66667-.33333.66667 1v.66667l-.33333 1-.66667.33333-.33333-.33333-.66667.33333v.33333h.33333l.33333.33333h.33333l1-.33333h.33333l.33333-1.3333v-1.3333l-1-1.3333" style="fill:none"/>
 <path d="m77.333 56.667h-.66667l.66667.33333.33333-.33333h-.33333zm-1.6667-1-1.6667 1.6667v1.3333.33333l1 .33333h1v-.33333h-.33333-.66667l-.66667-.33333v-1.3333l1.3333-1.3333.66667.33333v-.33333l-.66667-.33333z" style="fill:#39aa35"/>
 <path d="m77.333 56.667h-.66667l.66667.33333.33333-.33333h-.33333m-1.6667-1-1.6667 1.6667v1.3333.33333l1 .33333h1v-.33333h-.33333-.66667l-.66667-.33333v-1.3333l1.3333-1.3333.66667.33333v-.33333l-.66667-.33333" style="fill:none"/>
 <path d="m76.333 56v.33333l.33333.33333h.66667l-1-.66667z" style="fill:#39aa35"/>
 <path d="m76.333 56v.33333l.33333.33333h.66667l-1-.66667" style="fill:none"/>
 <path d="m75.333 58.333zm.33333-.66667-.33333.66667.33333.66667h.33333l.33333.33333h-.33333v1.6667h1.3333v-.66667h-.33333l-.66667-1.3333.66667-.33333.33333.33333.33333-.33333-.33333-.66667-.66667.66667-1-1zm-59-43v.33333h.33333l-.33333-.33333zm2-.66667h-2v.33333l1 .33333h.66667l.66667 1v.66667l-.33333 1h-.66667-.33333l-.66667.33333.33333.33333.66667.33333 1-.33333h.33333l.66667-1.3333-.33333-1.3333-1-1.3333z" style="fill:#39aa35"/>
 <path d="m75.333 58.333m.33333-.66667-.33333.66667.33333.66667h.33333l.33333.33333h-.33333v1.6667h1.3333v-.66667h-.33333l-.66667-1.3333.66667-.33333.33333.33333.33333-.33333-.33333-.66667-.66667.66667-1-1m-59-43v.33333h.33333l-.33333-.33333m2-.66667h-2v.33333l1 .33333h.66667l.66667 1v.66667l-.33333 1h-.66667-.33333l-.66667.33333.33333.33333.66667.33333 1-.33333h.33333l.66667-1.3333-.33333-1.3333-1-1.3333" style="fill:none"/>
 <path d="m77 58.667-.66667.33333.33333.66667v-.33333l.66667-.33333-.33333-.33333z" style="fill:#39aa35"/>
 <path d="m77 58.667-.66667.33333.33333.66667v-.33333l.66667-.33333-.33333-.33333" style="fill:none"/>
 <path d="m76 59h-.33333.33333v.33333h.33333l-.33333-.33333z" style="fill:#39aa35"/>
 <path d="m76 59h-.33333.33333v.33333h.33333l-.33333-.33333" style="fill:none"/>
 <path d="m17.667 14.667-.66667.33333.66667.33333.33333-.33333-.33333-.33333zm-1.6667-.66667-1 .66667-.66667 1v1.3333.33333l1 .33333h1v-.33333h-.33333-.66667l-.66667-.33333v-1.3333l.66667-.66667 1-.66667.33333.33333v-.33333l-.66667-.33333z" style="fill:#39aa35"/>
 <path d="m17.667 14.667-.66667.33333.66667.33333.33333-.33333-.33333-.33333m-1.6667-.66667-1 .66667-.66667 1v1.3333.33333l1 .33333h1v-.33333h-.33333-.66667l-.66667-.33333v-1.3333l.66667-.66667 1-.66667.33333.33333v-.33333l-.66667-.33333" style="fill:none"/>
 <path d="m16.667 14.333v.33333l.33333.33333.66667-.33333-1-.33333z" style="fill:#39aa35"/>
 <path d="m16.667 14.333v.33333l.33333.33333.66667-.33333-1-.33333" style="fill:none"/>
 <path d="m16 16-.33333.66667.33333.66667.33333-.33333.33333.66667h-.33333v1.3333.33333h1.3333v-.66667h-.33333v-.66667l-.33333-.33333v-.33333l.66667-.33333v.33333l.33333-.33333-.33333-.66667-.66667.66667-1-1z" style="fill:#39aa35"/>
 <path d="m16 16-.33333.66667.33333.66667.33333-.33333.33333.66667h-.33333v1.3333.33333h1.3333v-.66667h-.33333v-.66667l-.33333-.33333v-.33333l.66667-.33333v.33333l.33333-.33333-.33333-.66667-.66667.66667-1-1" style="fill:none"/>
 <path d="m17.667 17-.66667.33333v.33333l.33333.33333-.33333-.33333.66667-.33333v-.33333z" style="fill:#39aa35"/>
 <path d="m17.667 17-.66667.33333v.33333l.33333.33333-.33333-.33333.66667-.33333v-.33333" style="fill:none"/>
 <path d="m59 35.667zm0-.33333v.33333h.33333l-.33333-.33333zm2-.66667-2 .33333 1 .66667.66667-.33333.66667 1v.66667l-.33333 1-.66667.33333-.33333-.33333-.66667.33333v.33333h.33333l.33333.33333h.33333l1-.33333h.33333l.33333-1.3333v-1.3333l-1-1.3333z" style="fill:#39aa35"/>
 <path d="m59 35.667m0-.33333v.33333h.33333l-.33333-.33333m2-.66667-2 .33333 1 .66667.66667-.33333.66667 1v.66667l-.33333 1-.66667.33333-.33333-.33333-.66667.33333v.33333h.33333l.33333.33333h.33333l1-.33333h.33333l.33333-1.3333v-1.3333l-1-1.3333" style="fill:none"/>
 <path d="m16.333 17-.33333.33333h.33333v.33333h.33333l-.33333-.66667z" style="fill:#39aa35"/>
 <path d="m16.333 17-.33333.33333h.33333v.33333h.33333l-.33333-.66667" style="fill:none"/>
 <path d="m60 35.667h-.66667l.66667.33333.33333-.33333h-.33333zm-1.6667-1-1.6667 1.6667v1.3333.33333l1 .33333h1v-.33333h-.33333-.66667l-.66667-.33333v-1.3333l1.3333-1.3333.66667.33333v-.33333l-.66667-.33333z" style="fill:#39aa35"/>
 <path d="m60 35.667h-.66667l.66667.33333.33333-.33333h-.33333m-1.6667-1-1.6667 1.6667v1.3333.33333l1 .33333h1v-.33333h-.33333-.66667l-.66667-.33333v-1.3333l1.3333-1.3333.66667.33333v-.33333l-.66667-.33333" style="fill:none"/>
 <path d="m59 35v.33333l.33333.33333h.66667l-1-.66667z" style="fill:#39aa35"/>
 <path d="m59 35v.33333l.33333.33333h.66667l-1-.66667" style="fill:none"/>
 <path d="m58.333 36.667-.33333.66667.33333.66667h.33333v.33333 1.3333.33333h1.3333v-.66667h-.33333l-.33333-.66667v-.33333l-.33333-.33333.66667-.33333.33333.33333.33333-.33333-.33333-.66667-.66667.66667-1-1z" style="fill:#39aa35"/>
 <path d="m58.333 36.667-.33333.66667.33333.66667h.33333v.33333 1.3333.33333h1.3333v-.66667h-.33333l-.33333-.66667v-.33333l-.33333-.33333.66667-.33333.33333.33333.33333-.33333-.33333-.66667-.66667.66667-1-1" style="fill:none"/>
 <path d="m59.667 37.667-.66667.33333.33333.33333v.33333-.33333l.66667-.33333-.33333-.33333z" style="fill:#39aa35"/>
 <path d="m59.667 37.667-.66667.33333.33333.33333v.33333-.33333l.66667-.33333-.33333-.33333" style="fill:none"/>
 <path d="m32.667 41.667zm-.33333 0h.33333-.33333zm2-1-2 .33333v.33333l1 .33333h.66667l.66667.66667v1l-.33333 1h-.66667-.33333v-.33333l-.33333.66667.66667.33333h1 .33333l.66667-1.6667-.33333-1.3333-1-1.3333z" style="fill:#39aa35"/>
 <path d="m32.667 41.667m-.33333 0h.33333-.33333m2-1-2 .33333v.33333l1 .33333h.66667l.66667.66667v1l-.33333 1h-.66667-.33333v-.33333l-.33333.66667.66667.33333h1 .33333l.66667-1.6667-.33333-1.3333-1-1.3333" style="fill:none"/>
 <path d="m58.667 38h-.33333.33333v.33333-.33333z" style="fill:#39aa35"/>
 <path d="m58.667 38h-.33333.33333v.33333-.33333" style="fill:none"/>
 <path d="m33.333 41.667h-.66667l.66667.66667.33333-.33333-.33333-.33333zm-1.6667-1-1 1-.33333.66667v.33333l-.33333 1.3333 1 .66667 1-.33333v-.33333l-1 .33333-.66667-.33333.33333-1.3333.33333-.66667 1-.66667.33333.33333v-.33333l-.66667-.66667z" style="fill:#39aa35"/>
 <path d="m33.333 41.667h-.66667l.66667.66667.33333-.33333-.33333-.33333m-1.6667-1-1 1-.33333.66667v.33333l-.33333 1.3333 1 .66667 1-.33333v-.33333l-1 .33333-.66667-.33333.33333-1.3333.33333-.66667 1-.66667.33333.33333v-.33333l-.66667-.66667" style="fill:none"/>
 <path d="m32.333 41.333v.33333h.33333.66667l-1-.33333z" style="fill:#39aa35"/>
 <path d="m32.333 41.333v.33333h.33333.66667l-1-.33333" style="fill:none"/>
 <path d="m31.667 43-.33333.66667.66667.33333.33333.33333h-.33333v1.3333.66667h1.3333v-1h-.33333v-.66667l-.33333-.66667.66667-.33333v.33333l.33333-.33333-.33333-.33333-.66667.33333-1-.66667z" style="fill:#39aa35"/>
 <path d="m31.667 43-.33333.66667.66667.33333.33333.33333h-.33333v1.3333.66667h1.3333v-1h-.33333v-.66667l-.33333-.66667.66667-.33333v.33333l.33333-.33333-.33333-.33333-.66667.33333-1-.66667" style="fill:none"/>
 <path d="m33.333 43.667-.66667.33333.33333.66667.33333-.66667v-.33333z" style="fill:#39aa35"/>
 <path d="m33.333 43.667-.66667.33333.33333.66667.33333-.66667v-.33333" style="fill:none"/>
 <path d="m53.333 67.333zm0-.33333v.33333-.33333zm1.6667-.66667-2 .33333 1 .33333h.66667l.66667 1v.66667l-.33333 1-.66667.33333-.33333-.33333-.33333.33333v.33333l.66667.33333 1-.33333h.33333l.66667-1.3333-.33333-1.3333-1-1.3333z" style="fill:#39aa35"/>
 <path d="m53.333 67.333m0-.33333v.33333-.33333m1.6667-.66667-2 .33333 1 .33333h.66667l.66667 1v.66667l-.33333 1-.66667.33333-.33333-.33333-.33333.33333v.33333l.66667.33333 1-.33333h.33333l.66667-1.3333-.33333-1.3333-1-1.3333" style="fill:none"/>
 <path d="m32 44v.33333h.33333l-.33333-.33333z" style="fill:#39aa35"/>
 <path d="m32 44v.33333h.33333l-.33333-.33333" style="fill:none"/>
 <path d="m54 67-.66667.33333.66667.33333.33333-.33333-.33333-.33333zm-1.3333-.66667-1.3333.66667-.33333 1-.33333 1.3333v.33333l1 .33333h1v-.33333h-1l-.66667-.33333.33333-1.3333.33333-.66667 1-.66667.66667.33333-.66667-.66667z" style="fill:#39aa35"/>
 <path d="m54 67-.66667.33333.66667.33333.33333-.33333-.33333-.33333m-1.3333-.66667-1.3333.66667-.33333 1-.33333 1.3333v.33333l1 .33333h1v-.33333h-1l-.66667-.33333.33333-1.3333.33333-.66667 1-.66667.66667.33333-.66667-.66667" style="fill:none"/>
 <path d="m53 66.667.33333.33333v.33333l.66667-.33333-1-.33333z" style="fill:#39aa35"/>
 <path d="m53 66.667.33333.33333v.33333l.66667-.33333-1-.33333" style="fill:none"/>
 <path d="m52.333 68.333-.33333.66667.66667.66667h.33333v.33333h-.33333v1.3333.33333h1.3333v-.66667h-.33333v-.66667-.33333l-.33333-.33333.66667-.33333v.33333l.66667-.33333-.66667-.66667-.66667.66667-1-1zm-41.333-5.6667zm0-.33333v.33333-.33333zm2-.66667h-2.3333v.33333l1 .33333h.66667l.66667.66667v1l-.33333 1h-.33333-.33333l-.66667.33333.66667.33333v.33333l1-.33333h.33333l.66667-1.6667-.33333-1v-.33333l-.66667-1z" style="fill:#39aa35"/>
 <path d="m52.333 68.333-.33333.66667.66667.66667h.33333v.33333h-.33333v1.3333.33333h1.3333v-.66667h-.33333v-.66667-.33333l-.33333-.33333.66667-.33333v.33333l.66667-.33333-.66667-.66667-.66667.66667-1-1m-41.333-5.6667m0-.33333v.33333-.33333m2-.66667h-2.3333v.33333l1 .33333h.66667l.66667.66667v1l-.33333 1h-.33333-.33333l-.66667.33333.66667.33333v.33333l1-.33333h.33333l.66667-1.6667-.33333-1v-.33333l-.66667-1" style="fill:none"/>
 <path d="m54 69.333-.66667.33333.33333.33333v.33333-.33333l.33333-.33333v-.33333z" style="fill:#39aa35"/>
 <path d="m54 69.333-.66667.33333.33333.33333v.33333-.33333l.33333-.33333v-.33333" style="fill:none"/>
 <path d="m53 69.667h-.33333v.33333h.33333v-.33333z" style="fill:#39aa35"/>
 <path d="m53 69.667h-.33333v.33333h.33333v-.33333" style="fill:none"/>
 <path d="m11.667 62.333h-.66667l1 .66667v-.33333l-.33333-.33333zm-1.3333-.66667-1.3333.66667-.33333 1-.33333 1.3333v.33333l1 .33333h1v-.33333-.33333l-.66667.33333-1-.33333.33333-1.3333.33333-.66667 1-.66667.66667.33333-.66667-.66667z" style="fill:#39aa35"/>
 <path d="m11.667 62.333h-.66667l1 .66667v-.33333l-.33333-.33333m-1.3333-.66667-1.3333.66667-.33333 1-.33333 1.3333v.33333l1 .33333h1v-.33333-.33333l-.66667.33333-1-.33333.33333-1.3333.33333-.66667 1-.66667.66667.33333-.66667-.66667" style="fill:none"/>
 <path d="m10.667 62 .33333.33333h.66667l-1-.33333z" style="fill:#39aa35"/>
 <path d="m10.667 62 .33333.33333h.66667l-1-.33333" style="fill:none"/>
 <path d="m10.333 63.667-.66667.66667.66667.33333h.33333v.33333l-.33333.33333v1.3333.33333h1.3333v-1h-.33333v-.66667l-.33333-.66667.66667-.33333.33333.66667.33333-.33333-.66667-.66667-.66667.66667v-.33333l-.66667-.66667zm47.333-49zm0 0h.33333-.33333zm2-1-2 .33333v.33333l1 .33333h.66667l.66667.66667v1l-.33333 1h-.66667-.33333v-.33333l-.66667.66667h.33333l.66667.33333v.33333l1-.33333h.33333l.33333-1.6667v-1-.33333l-1-1.3333z" style="fill:#39aa35"/>
 <path d="m10.333 63.667-.66667.66667.66667.33333h.33333v.33333l-.33333.33333v1.3333.33333h1.3333v-1h-.33333v-.66667l-.33333-.66667.66667-.33333.33333.66667.33333-.33333-.66667-.66667-.66667.66667v-.33333l-.66667-.66667m47.333-49h.33333-.33333m2-1-2 .33333v.33333l1 .33333h.66667l.66667.66667v1l-.33333 1h-.66667-.33333v-.33333l-.66667.66667h.33333l.66667.33333v.33333l1-.33333h.33333l.33333-1.6667v-1-.33333l-1-1.3333" style="fill:none"/>
 <path d="m11.667 64.333-.66667.33333.33333.66667.66667-.33333-.33333-.66667z" style="fill:#39aa35"/>
 <path d="m11.667 64.333-.66667.33333.33333.66667.66667-.33333-.33333-.66667" style="fill:none"/>
 <path d="m10.667 64.667h-.33333v.33333.33333l.33333-.33333v-.33333z" style="fill:#39aa35"/>
 <path d="m10.667 64.667h-.33333v.33333.33333l.33333-.33333v-.33333" style="fill:none"/>
 <path d="m58.667 14.667h-.66667l.66667.66667.33333-.33333-.33333-.33333zm-1.6667-.66667-1 .66667-.66667.66667v.33333 1.3333l1 .66667 1-.33333v-.33333l-1 .33333-.66667-.33333v-1.3333l1.3333-1.3333.66667.33333v-.33333l-.66667-.33333z" style="fill:#39aa35"/>
 <path d="m58.667 14.667h-.66667l.66667.66667.33333-.33333-.33333-.33333m-1.6667-.66667-1 .66667-.66667.66667v.33333 1.3333l1 .66667 1-.33333v-.33333l-1 .33333-.66667-.33333v-1.3333l1.3333-1.3333.66667.33333v-.33333l-.66667-.33333" style="fill:none"/>
 <path d="m57.667 14.333v.33333h.33333.66667l-1-.33333z" style="fill:#39aa35"/>
 <path d="m57.667 14.333v.33333h.33333.66667l-1-.33333" style="fill:none"/>
 <path d="m57 16-.33333.66667.66667.33333.33333.33333h-.33333v1.3333.66667h1.3333v-1h-.33333v-.66667h-.33333v-.66667l.66667-.33333v.33333l.33333-.33333-.33333-.33333-.66667.66667v-.33333l-1-.66667z" style="fill:#39aa35"/>
 <path d="m57 16-.33333.66667.66667.33333.33333.33333h-.33333v1.3333.66667h1.3333v-1h-.33333v-.66667h-.33333v-.66667l.66667-.33333v.33333l.33333-.33333-.33333-.33333-.66667.66667v-.33333l-1-.66667" style="fill:none"/>
 <path d="m58.667 16.667-.66667.33333v.66667h.33333-.33333l.66667-.66667v-.33333z" style="fill:#39aa35"/>
 <path d="m58.667 16.667-.66667.33333v.66667h.33333-.33333l.66667-.66667v-.33333" style="fill:none"/>
 <path d="m57.333 17v.33333h.33333l-.33333-.33333z" style="fill:#39aa35"/>
 <path d="m57.333 17v.33333h.33333l-.33333-.33333" style="fill:none"/>
</svg>
