<?xml version="1.0" encoding="UTF-8"?>
<!-- Created with Inkscape (http://www.inkscape.org/) -->
<svg width="56.693" height="7.559" version="1.1" viewBox="0 0 56.693 7.559" xml:space="preserve" xmlns="http://www.w3.org/2000/svg" xmlns:cc="http://creativecommons.org/ns#" xmlns:dc="http://purl.org/dc/elements/1.1/" xmlns:rdf="http://www.w3.org/1999/02/22-rdf-syntax-ns#"><metadata><rdf:RDF><cc:Work rdf:about=""><dc:format>image/svg+xml</dc:format><dc:type rdf:resource="http://purl.org/dc/dcmitype/StillImage"/><dc:title/></cc:Work></rdf:RDF></metadata><defs><clipPath id="clipPath104"><path d="M 0,5.669 H 42.52 V 0 H 0 Z"/></clipPath></defs><g transform="matrix(1.3333 0 0 -1.3333 0 7.559)"><g transform="translate(14.261 2.6608)"><path d="m0 0-.895-.058-.623-.102-.521-.121-.571-.153-.333-.07-.213-.031-.137.012-.067.07-.027.131.06.142.3.434-1.289-.332-.58-.072-.598.06-.546.162.99.071.487.091.477.08.461.122.4.091.333.069.086.021.12-.051.033-.13-.094-.252-.145-.213-.162-.192.922.262.69.163h.495l.427-.032z" style="fill-rule:evenodd;fill:#ed1c24"/></g><g clip-path="url(#clipPath104)"><g transform="translate(6.8031,2.6725)"><path d="m0 0c0 .068-.045.121-.102.121s-.103-.053-.103-.121c0-.066.046-.119.103-.119s.102.053.102.119" style="fill-rule:evenodd;fill:#ed1c24"/></g><g transform="translate(5.8905,2.6725)"><path d="m0 0c0 .072-.05.133-.111.133s-.111-.061-.111-.133.05-.131.111-.131.111.059.111.131" style="fill-rule:evenodd;fill:#ed1c24"/></g><g transform="translate(4.7484,2.6725)"><path d="m0 0c0 .129-.088.232-.198.232-.107 0-.196-.103-.196-.232 0-.126.089-.232.196-.232.11 0 .198.106.198.232" style="fill-rule:evenodd;fill:#ed1c24"/></g><g transform="translate(2.5033,2.6725)"><path d="m0 0c0 .068-.045.121-.102.121-.056 0-.102-.053-.102-.121 0-.066.046-.119.102-.119.057 0 .102.053.102.119" style="fill-rule:evenodd;fill:#ed1c24"/></g><g transform="translate(3.4339,2.6725)"><path d="m0 0c0 .072-.05.133-.111.133s-.11-.061-.11-.133.049-.131.11-.131.111.059.111.131" style="fill-rule:evenodd;fill:#ed1c24"/></g><g transform="translate(27.417 2.6608)"><path d="m0 0-.895-.058-.623-.102-.521-.121-.571-.153-.333-.07-.213-.031-.137.012-.067.07-.027.131.06.142.3.434-1.289-.332-.58-.072-.598.06-.546.162.99.071.487.091.477.08.461.122.4.091.333.069.086.021.12-.051.033-.13-.094-.252-.145-.213-.162-.192.922.262.69.163h.495l.427-.032z" style="fill-rule:evenodd;fill:#ed1c24"/></g><g transform="translate(19.96 2.6725)"><path d="m0 0c0 .068-.045.121-.101.121-.058 0-.104-.053-.104-.121 0-.066.046-.119.104-.119.056 0 .101.053.101.119" style="fill-rule:evenodd;fill:#ed1c24"/></g><g transform="translate(19.047 2.6725)"><path d="m0 0c0 .072-.05.133-.111.133s-.11-.061-.11-.133.049-.131.11-.131.111.059.111.131" style="fill-rule:evenodd;fill:#ed1c24"/></g><g transform="translate(17.905 2.6725)"><path d="m0 0c0 .129-.088.232-.198.232-.107 0-.195-.103-.195-.232 0-.126.088-.232.195-.232.11 0 .198.106.198.232" style="fill-rule:evenodd;fill:#ed1c24"/></g><g transform="translate(15.66,2.6725)"><path d="m0 0c0 .068-.045.121-.102.121-.056 0-.102-.053-.102-.121 0-.066.046-.119.102-.119.057 0 .102.053.102.119" style="fill-rule:evenodd;fill:#ed1c24"/></g><g transform="translate(16.591 2.6725)"><path d="m0 0c0 .072-.05.133-.111.133s-.11-.061-.11-.133.049-.131.11-.131.111.059.111.131" style="fill-rule:evenodd;fill:#ed1c24"/></g><g transform="translate(40.574 2.6608)"><path d="m0 0-.895-.058-.623-.102-.521-.121-.571-.153-.333-.07-.213-.031-.136.012-.068.07-.027.131.06.142.3.434-1.289-.332-.58-.072-.597.06-.547.162.991.071.486.091.477.08.462.122.4.091.332.069.086.021.12-.051.033-.13-.094-.252-.145-.213-.161-.192.921.262.69.163h.495l.427-.032z" style="fill-rule:evenodd;fill:#ed1c24"/></g><g transform="translate(33.117,2.6725)"><path d="m0 0c0 .068-.045.121-.102.121s-.103-.053-.103-.121c0-.066.046-.119.103-.119s.102.053.102.119" style="fill-rule:evenodd;fill:#ed1c24"/></g><g transform="translate(32.204 2.6725)"><path d="m0 0c0 .072-.05.133-.111.133s-.111-.061-.111-.133.05-.131.111-.131.111.059.111.131" style="fill-rule:evenodd;fill:#ed1c24"/></g><g transform="translate(31.062 2.6725)"><path d="m0 0c0 .129-.088.232-.198.232-.107 0-.196-.103-.196-.232 0-.126.089-.232.196-.232.11 0 .198.106.198.232" style="fill-rule:evenodd;fill:#ed1c24"/></g><g transform="translate(28.817 2.6725)"><path d="m0 0c0 .068-.045.121-.103.121-.056 0-.101-.053-.101-.121 0-.066.045-.119.101-.119.058 0 .103.053.103.119" style="fill-rule:evenodd;fill:#ed1c24"/></g><g transform="translate(29.747 2.6725)"><path d="m0 0c0 .072-.049.133-.11.133s-.111-.061-.111-.133.05-.131.111-.131.11.059.11.131" style="fill-rule:evenodd;fill:#ed1c24"/></g></g></g></svg>
