<?xml version="1.0" encoding="UTF-8"?>
<svg width="22.233mm" height="22.233mm" version="1.0" xmlns="http://www.w3.org/2000/svg" xmlns:cc="http://creativecommons.org/ns#" xmlns:dc="http://purl.org/dc/elements/1.1/" xmlns:rdf="http://www.w3.org/1999/02/22-rdf-syntax-ns#"><metadata><rdf:RDF><cc:Work rdf:about=""><dc:format>image/svg+xml</dc:format><dc:type rdf:resource="http://purl.org/dc/dcmitype/StillImage"/><dc:title/></cc:Work></rdf:RDF></metadata><defs><clipPath id="clipEmfPath2"><path d="m.66602 66.334v17.332h48v-17.332z"/></clipPath><clipPath id="clipEmfPath3"><path d="m48.666 66.334v17.332h35v-17.332z"/></clipPath><clipPath id="clipEmfPath4"><path d="m.66602 18v48.334h48v-48.334z"/></clipPath><clipPath id="clipEmfPath5"><path d="m48.666 18v48.334h35v-48.334z"/></clipPath><clipPath id="clipEmfPath6"><path d="m.66602 0v18h48v-18z"/></clipPath><clipPath id="clipEmfPath7"><path d="m48.666 0v18h35v-18z"/></clipPath></defs><path d="m48.667 0v5.6667.33333 5.6667.33333 5.6667.33333h-48 11.667 12 .33333 11.667.33333 12v24 .33333 5.6667.33333 5.6667.33333 5.6667.33333 5.6667.33333h-48 11.667 12 .33333 11.667.33333 12v17-17h.33333 11.667.33333 12 10.667-35v-48.333h.33333 11.667.33333 12 10.667-35v-18z" style="fill:#ffffff"/><path d="m48.667 0v5.6667.33333 5.6667.33333 5.6667.33333h-48 11.667 12 .33333 11.667.33333 12v24 .33333 5.6667.33333 5.6667.33333 5.6667.33333 5.6667.33333h-48 11.667 12 .33333 11.667.33333 12v17-17h.33333 11.667.33333 12 10.667-35v-48.333h.33333 11.667.33333 12 10.667-35v-18" style="fill:none"/><path d="m3.3333 80.667v-.66667h1v.66667h-1zm9-2.3333h-11.667v5h3.6667v-.33333h1v.33333h2.6667.66667 3.6667v-5zm8.3333 4.6667v-.66667h1v.66667h-1zm-7-2v-.66667h1v.66667h-1zm8.6667-1.3333v-.66667h.66667v.66667h-.66667zm2-1.3333h-12v5h12v-5zm2.6667 3v-.66667h.66667v.66667h-.66667zm9.3333-3h-2.3333v1h-.66667v-1h-8.6667v5h11.667v-5zm-26-1v-1h.66667v1h-.66667zm-9.3333-1.6667v-.66667h.66667v.66667h-.66667zm11.333-3.3333h-9.6667v1h-1v-.66667h-1v5.6667h6v-.66667h.66667v.66667h5v-6zm5.6667 5v-.66667h.66667v.66667h-.66667zm-4-1.3333v-1h.66667v1h-.66667zm10.333-3.6667h-11v1h-1v5h12v-6zm5.3333 4.3333v-1l.66667.33333v.66667h-.66667zm-3.6667-2v-1h1v1h-1zm10.333-2.3333h-2.3333v1h-1v-1h-8.3333v6h11.667v-6zm-30-1v-1h.66667v1h-.66667zm3.3333-3v-.66667h.66667v.66667h-.66667zm-8.6667-.33333v-1h1v1h-1zm11.333-1.6667h-11.667v6h11.667v-6zm8.3333 5.6667v-.66667h.66667v.66667h-.66667zm-3-2.3333v-1h1v1h-1zm-3.6667-1v-.66667h.66667v.66667h-.66667zm10.333-2.3333h-12v6h12v-6zm.33333 3.3333v-1h1v1h-1zm4.6667-1.3333v-.66667h1v.66667h-1zm5.3333 0h-1v-.66667h1v.66667zm1.6667-2h-11.667v6h11.667v-6zm10.333 15.667v-.66667h.66667v.66667h-.66667zm-3.6667-1h-1v-.66667h1v.66667zm-6-.33333v-.66667h.66667v.66667h-.66667zm3-4v-.66667h1v.66667h-1zm6.6667-.33333v-.66667h.66667v.66667h-.66667zm.33333-5.3333h-1v-.66667h1v.66667zm-2.6667-1.6667h-.66667v-1h.66667v1zm-6-.33333v-.66667h1v.66667h-1zm10.333-2.6667h-12v6h12-8.3333v1h-1v-1h-2.6667v6h12-12v5h6.6667.66667 4.6667v-17z" clip-path="url(#clipEmfPath2)" style="fill:#ffffff"/><path d="m3.3333 80.667v-.66667h1v.66667h-1m9-2.3333h-11.667v5h3.6667v-.33333h1v.33333h2.6667.66667 3.6667v-5m8.3333 4.6667v-.66667h1v.66667h-1m-7-2v-.66667h1v.66667h-1m8.6667-1.3333v-.66667h.66667v.66667h-.66667m2-1.3333h-12v5h12v-5m2.6667 3v-.66667h.66667v.66667h-.66667m9.3333-3h-2.3333v1h-.66667v-1h-8.6667v5h11.667v-5m-26-1v-1h.66667v1h-.66667m-9.3333-1.6667v-.66667h.66667v.66667h-.66667m11.333-3.3333h-9.6667v1h-1v-.66667h-1v5.6667h6v-.66667h.66667v.66667h5v-6m5.6667 5v-.66667h.66667v.66667h-.66667m-4-1.3333v-1h.66667v1h-.66667m10.333-3.6667h-11v1h-1v5h12v-6m5.3333 4.3333v-1l.66667.33333v.66667h-.66667m-3.6667-2v-1h1v1h-1m10.333-2.3333h-2.3333v1h-1v-1h-8.3333v6h11.667v-6m-30-1v-1h.66667v1h-.66667m3.3333-3v-.66667h.66667v.66667h-.66667m-8.6667-.33333v-1h1v1h-1m11.333-1.6667h-11.667v6h11.667v-6m8.3333 5.6667v-.66667h.66667v.66667h-.66667m-3-2.3333v-1h1v1h-1m-3.6667-1v-.66667h.66667v.66667h-.66667m10.333-2.3333h-12v6h12v-6m.33333 3.3333v-1h1v1h-1m4.6667-1.3333v-.66667h1v.66667h-1m5.3333 0h-1v-.66667h1v.66667m1.6667-2h-11.667v6h11.667v-6m10.333 15.667v-.66667h.66667v.66667h-.66667m-3.6667-1h-1v-.66667h1v.66667m-6-.33333v-.66667h.66667v.66667h-.66667m3-4v-.66667h1v.66667h-1m6.6667-.33333v-.66667h.66667v.66667h-.66667m.33333-5.3333h-1v-.66667h1v.66667m-2.6667-1.6667h-.66667v-1h.66667v1m-6-.33333v-.66667h1v.66667h-1m10.333-2.6667h-12v6h12-8.3333v1h-1v-1h-2.6667v6h12-12v5h6.6667.66667 4.6667v-17" clip-path="url(#clipEmfPath2)" style="fill:none"/><path d="m2 67h-1v1h1v-1z" clip-path="url(#clipEmfPath2)" style="fill:#0075bf"/><path d="m2 67h-1v1h1v-1" clip-path="url(#clipEmfPath2)" style="fill:none"/><path d="m7 70.333h-.66667v1h.66667v-1z" clip-path="url(#clipEmfPath2)" style="fill:#0075bf"/><path d="m7 70.333h-.66667v1h.66667v-1" clip-path="url(#clipEmfPath2)" style="fill:none"/><path d="m10.333 67.667h-.66667v.66667h.66667v-.66667z" clip-path="url(#clipEmfPath2)" style="fill:#0075bf"/><path d="m10.333 67.667h-.66667v.66667h.66667v-.66667" clip-path="url(#clipEmfPath2)" style="fill:none"/><path d="m11 76.333h-.66667v1h.66667v-1z" clip-path="url(#clipEmfPath2)" style="fill:#0075bf"/><path d="m11 76.333h-.66667v1h.66667v-1" clip-path="url(#clipEmfPath2)" style="fill:none"/><path d="m2.6667 72.333-1 .33333v.66667h1v-1z" clip-path="url(#clipEmfPath2)" style="fill:#0075bf"/><path d="m2.6667 72.333-1 .33333v.66667h1v-1" clip-path="url(#clipEmfPath2)" style="fill:none"/><path d="m1 75v.66667h.66667v-.66667h-.66667z" clip-path="url(#clipEmfPath2)" style="fill:#0075bf"/><path d="m1 75v.66667h.66667v-.66667h-.66667" clip-path="url(#clipEmfPath2)" style="fill:none"/><path d="m7.3333 77.667h-.66667v.66667h.66667v-.66667z" clip-path="url(#clipEmfPath2)" style="fill:#0075bf"/><path d="m7.3333 77.667h-.66667v.66667h.66667v-.66667" clip-path="url(#clipEmfPath2)" style="fill:none"/><path d="m13.333 72.333h-1v1h1v-1z" clip-path="url(#clipEmfPath2)" style="fill:#0075bf"/><path d="m13.333 72.333h-1v1h1v-1" clip-path="url(#clipEmfPath2)" style="fill:none"/><path d="m14.667 68h-.66667v.66667h.66667v-.66667z" clip-path="url(#clipEmfPath2)" style="fill:#0075bf"/><path d="m14.667 68h-.66667v.66667h.66667v-.66667" clip-path="url(#clipEmfPath2)" style="fill:none"/><path d="m18.667 68.667h-1v1h1v-1z" clip-path="url(#clipEmfPath2)" style="fill:#0075bf"/><path d="m18.667 68.667h-1v1h1v-1" clip-path="url(#clipEmfPath2)" style="fill:none"/><path d="m14.667 75h-.66667v1h.66667v-1z" clip-path="url(#clipEmfPath2)" style="fill:#0075bf"/><path d="m14.667 75h-.66667v1h.66667v-1" clip-path="url(#clipEmfPath2)" style="fill:none"/><path d="m18.667 76.667h-.66667v.66667h.66667v-.66667z" clip-path="url(#clipEmfPath2)" style="fill:#0075bf"/><path d="m18.667 76.667h-.66667v.66667h.66667v-.66667" clip-path="url(#clipEmfPath2)" style="fill:none"/><path d="m14.667 80.333h-1v.66667h1v-.66667z" clip-path="url(#clipEmfPath2)" style="fill:#0075bf"/><path d="m14.667 80.333h-1v.66667h1v-.66667" clip-path="url(#clipEmfPath2)" style="fill:none"/><path d="m8.6667 83.333h-.66667.66667z" clip-path="url(#clipEmfPath2)" style="fill:#0075bf"/><path d="m8.6667 83.333h-.66667.66667" clip-path="url(#clipEmfPath2)" style="fill:none"/><path d="m5.3333 83h-1v.33333h1v-.33333z" clip-path="url(#clipEmfPath2)" style="fill:#0075bf"/><path d="m5.3333 83h-1v.33333h1v-.33333" clip-path="url(#clipEmfPath2)" style="fill:none"/><path d="m3.3333 80v.66667h1v-.66667h-1z" clip-path="url(#clipEmfPath2)" style="fill:#0075bf"/><path d="m3.3333 80v.66667h1v-.66667h-1" clip-path="url(#clipEmfPath2)" style="fill:none"/><path d="m21.667 82.333h-1v.66667h1v-.66667z" clip-path="url(#clipEmfPath2)" style="fill:#0075bf"/><path d="m21.667 82.333h-1v.66667h1v-.66667" clip-path="url(#clipEmfPath2)" style="fill:none"/><path d="m23 79h-.66667v.66667h.66667v-.66667z" clip-path="url(#clipEmfPath2)" style="fill:#0075bf"/><path d="m23 79h-.66667v.66667h.66667v-.66667" clip-path="url(#clipEmfPath2)" style="fill:none"/><path d="m29.667 75.667v1h.66667v-.66667l-.66667-.33333z" clip-path="url(#clipEmfPath2)" style="fill:#0075bf"/><path d="m29.667 75.667v1h.66667v-.66667l-.66667-.33333" clip-path="url(#clipEmfPath2)" style="fill:none"/><path d="m27 73.667h-1v1h1v-1z" clip-path="url(#clipEmfPath2)" style="fill:#0075bf"/><path d="m27 73.667h-1v1h1v-1" clip-path="url(#clipEmfPath2)" style="fill:none"/><path d="m25.667 68.667h-1v1h1v-1z" clip-path="url(#clipEmfPath2)" style="fill:#0075bf"/><path d="m25.667 68.667h-1v1h1v-1" clip-path="url(#clipEmfPath2)" style="fill:none"/><path d="m30.333 67.667h-1v.66667h1v-.66667z" clip-path="url(#clipEmfPath2)" style="fill:#0075bf"/><path d="m30.333 67.667h-1v.66667h1v-.66667" clip-path="url(#clipEmfPath2)" style="fill:none"/><path d="m21.333 71.333h-.66667v.66667h.66667v-.66667z" clip-path="url(#clipEmfPath2)" style="fill:#0075bf"/><path d="m21.333 71.333h-.66667v.66667h.66667v-.66667" clip-path="url(#clipEmfPath2)" style="fill:none"/><path d="m34.667 67.667h-1v.66667h1v-.66667z" clip-path="url(#clipEmfPath2)" style="fill:#0075bf"/><path d="m34.667 67.667h-1v.66667h1v-.66667" clip-path="url(#clipEmfPath2)" style="fill:none"/><path d="m34 72.333h-1v1h1v-1z" clip-path="url(#clipEmfPath2)" style="fill:#0075bf"/><path d="m34 72.333h-1v1h1v-1" clip-path="url(#clipEmfPath2)" style="fill:none"/><path d="m34 78.333h-.66667v1h.66667v-1z" clip-path="url(#clipEmfPath2)" style="fill:#0075bf"/><path d="m34 78.333h-.66667v1h.66667v-1" clip-path="url(#clipEmfPath2)" style="fill:none"/><path d="m37.667 80h-.66667v.66667h.66667v-.66667z" clip-path="url(#clipEmfPath2)" style="fill:#0075bf"/><path d="m37.667 80h-.66667v.66667h.66667v-.66667" clip-path="url(#clipEmfPath2)" style="fill:none"/><path d="m27.667 80.667h-.66667v.66667h.66667v-.66667z" clip-path="url(#clipEmfPath2)" style="fill:#0075bf"/><path d="m27.667 80.667h-.66667v.66667h.66667v-.66667" clip-path="url(#clipEmfPath2)" style="fill:none"/><path d="m41 76h-1v.66667h1v-.66667z" clip-path="url(#clipEmfPath2)" style="fill:#0075bf"/><path d="m41 76h-1v.66667h1v-.66667" clip-path="url(#clipEmfPath2)" style="fill:none"/><path d="m40.333 72.333h-1v1h1v-1z" clip-path="url(#clipEmfPath2)" style="fill:#0075bf"/><path d="m40.333 72.333h-1v1h1v-1" clip-path="url(#clipEmfPath2)" style="fill:none"/><path d="m39.333 68.333h-1v.66667h1v-.66667z" clip-path="url(#clipEmfPath2)" style="fill:#0075bf"/><path d="m39.333 68.333h-1v.66667h1v-.66667" clip-path="url(#clipEmfPath2)" style="fill:none"/><path d="m44.333 68.333h-.66667v1h.66667v-1z" clip-path="url(#clipEmfPath2)" style="fill:#0075bf"/><path d="m44.333 68.333h-.66667v1h.66667v-1" clip-path="url(#clipEmfPath2)" style="fill:none"/><path d="m46 70.333v.66667h1v-.66667h-1z" clip-path="url(#clipEmfPath2)" style="fill:#0075bf"/><path d="m46 70.333v.66667h1v-.66667h-1" clip-path="url(#clipEmfPath2)" style="fill:none"/><path d="m47.333 75.667h-.66667v.66667h.66667v-.66667z" clip-path="url(#clipEmfPath2)" style="fill:#0075bf"/><path d="m47.333 75.667h-.66667v.66667h.66667v-.66667" clip-path="url(#clipEmfPath2)" style="fill:none"/><path d="m46.667 81.333v.66667h.66667v-.66667h-.66667z" clip-path="url(#clipEmfPath2)" style="fill:#0075bf"/><path d="m46.667 81.333v.66667h.66667v-.66667h-.66667" clip-path="url(#clipEmfPath2)" style="fill:none"/><path d="m43 80.333h-1v.66667h1v-.66667z" clip-path="url(#clipEmfPath2)" style="fill:#0075bf"/><path d="m43 80.333h-1v.66667h1v-.66667" clip-path="url(#clipEmfPath2)" style="fill:none"/><path d="m44 83.333h-.66667.66667z" clip-path="url(#clipEmfPath2)" style="fill:#0075bf"/><path d="m44 83.333h-.66667.66667" clip-path="url(#clipEmfPath2)" style="fill:none"/><path d="m12.333 73.333v-1h1 11v6h-12v-5zm20.667-1h1 2.3333v6h-11.667v-6h8.3333zm3.6667-6h-.33333v6h-11.667v-6h-.33333v6h-12v-6 6h-11.667v.33333h1v-.33333h1 9.6667v6h-5-.66667-6 11.667v5-5h12v5h.33333v-5h8.6667.66667 2.3333v5h.33333v-5h12-12v-6h2.6667 1 8.3333-12v-6z" clip-path="url(#clipEmfPath2)" style="fill:#0075bf"/><path d="m12.333 73.333v-1h1 11v6h-12v-5m20.667-1h1 2.3333v6h-11.667v-6h8.3333m3.6667-6h-.33333v6h-11.667v-6h-.33333v6h-12v-6 6h-11.667v.33333h1v-.33333h1 9.6667v6h-5-.66667-6 11.667v5-5h12v5h.33333v-5h8.6667.66667 2.3333v5h.33333v-5h12-12v-6h2.6667 1 8.3333-12v-6" clip-path="url(#clipEmfPath2)" style="fill:none"/><path d="m1.6667 72.333v.33333l1-.33333h-1z" clip-path="url(#clipEmfPath2)" style="fill:#0075bf"/><path d="m1.6667 72.333v.33333l1-.33333h-1" clip-path="url(#clipEmfPath2)" style="fill:none"/><path d="m7.3333 78.333h-.66667.66667z" clip-path="url(#clipEmfPath2)" style="fill:#0075bf"/><path d="m7.3333 78.333h-.66667.66667" clip-path="url(#clipEmfPath2)" style="fill:none"/><path d="m13.333 72.333h-1v1-1h1z" clip-path="url(#clipEmfPath2)" style="fill:#0075bf"/><path d="m13.333 72.333h-1v1-1h1" clip-path="url(#clipEmfPath2)" style="fill:none"/><path d="m34 72.333h-1 1z" clip-path="url(#clipEmfPath2)" style="fill:#0075bf"/><path d="m34 72.333h-1 1" clip-path="url(#clipEmfPath2)" style="fill:none"/><path d="m34 78.333h-.66667.66667z" clip-path="url(#clipEmfPath2)" style="fill:#0075bf"/><path d="m34 78.333h-.66667.66667" clip-path="url(#clipEmfPath2)" style="fill:none"/><path d="m39.333 72.333h1-1z" clip-path="url(#clipEmfPath2)" style="fill:#0075bf"/><path d="m39.333 72.333h1-1" clip-path="url(#clipEmfPath2)" style="fill:none"/><path d="m52 80.667v-.66667h.66667v.66667h-.66667zm8.6667-2.3333h-11.667v5h4v-.33333h.66667v.33333h3 .66667 3.3333v-5zm8.6667 4.6667v-.66667h.66667v.66667h-.66667zm-7-2v-.66667h1v.66667h-1zm8.6667-1.3333v-.66667h.66667v.66667h-.66667zm2-1.3333h-12v5h12v-5zm2.6667 3v-.66667h.66667v.66667h-.66667zm8-3h-1v1h-1v-1h-8.6667v5h10.667v-5zm-25-1v-1h1v1h-1zm-9-1.6667v-.66667h.66667v.66667h-.66667zm11-3.3333h-9.3333v1h-1v-.66667h-1.3333v5.6667h6v-.66667h1v.66667h4.6667v-6zm6 5v-.66667h.66667v.66667h-.66667zm-4.3333-1.3333v-1h1v1h-1zm10.667-3.6667h-11v1h-1v5h12v-6zm5.3333 4.3333v-1l.66667.33333v.66667h-.66667zm-3.6667-2v-1h.66667v1h-.66667zm9-2.3333h-1.3333v1h-.66667v-1h-8.6667v6h10.667v-6zm-35-6v17-17zm6.3333 5v-1h.66667v1h-.66667zm3.3333-3v-.66667h.66667v.66667h-.66667zm-8.6667-.33333v-1h.66667v1h-.66667zm11-1.6667h-11.667v6h11.667v-6zm8.3333 5.6667v-.66667h1v.66667h-1zm-2.6667-2.3333v-1h1v1h-1zm-3.6667-1v-.66667h.66667v.66667h-.66667zm10.333-2.3333h-12v6h12v-6zm.33333 3.3333v-1h.66667v1h-.66667zm4.6667-1.3333v-.66667h.66667v.66667h-.66667zm5 0h-.66667v-.66667h.66667v.66667zm.66667-2h-10.667v6h10.667v-6z" clip-path="url(#clipEmfPath3)" style="fill:#ffffff"/><path d="m52 80.667v-.66667h.66667v.66667h-.66667m8.6667-2.3333h-11.667v5h4v-.33333h.66667v.33333h3 .66667 3.3333v-5m8.6667 4.6667v-.66667h.66667v.66667h-.66667m-7-2v-.66667h1v.66667h-1m8.6667-1.3333v-.66667h.66667v.66667h-.66667m2-1.3333h-12v5h12v-5m2.6667 3v-.66667h.66667v.66667h-.66667m8-3h-1v1h-1v-1h-8.6667v5h10.667v-5m-25-1v-1h1v1h-1m-9-1.6667v-.66667h.66667v.66667h-.66667m11-3.3333h-9.3333v1h-1v-.66667h-1.3333v5.6667h6v-.66667h1v.66667h4.6667v-6m6 5v-.66667h.66667v.66667h-.66667m-4.3333-1.3333v-1h1v1h-1m10.667-3.6667h-11v1h-1v5h12v-6m5.3333 4.3333v-1l.66667.33333v.66667h-.66667m-3.6667-2v-1h.66667v1h-.66667m9-2.3333h-1.3333v1h-.66667v-1h-8.6667v6h10.667v-6m-35-6v17-17m6.3333 5v-1h.66667v1h-.66667m3.3333-3v-.66667h.66667v.66667h-.66667m-8.6667-.33333v-1h.66667v1h-.66667m11-1.6667h-11.667v6h11.667v-6m8.3333 5.6667v-.66667h1v.66667h-1m-2.6667-2.3333v-1h1v1h-1m-3.6667-1v-.66667h.66667v.66667h-.66667m10.333-2.3333h-12v6h12v-6m.33333 3.3333v-1h.66667v1h-.66667m4.6667-1.3333v-.66667h.66667v.66667h-.66667m5 0h-.66667v-.66667h.66667v.66667m.66667-2h-10.667v6h10.667v-6" clip-path="url(#clipEmfPath3)" style="fill:none"/><path d="m50.333 67h-.66667v1h.66667v-1z" clip-path="url(#clipEmfPath3)" style="fill:#0075bf"/><path d="m50.333 67h-.66667v1h.66667v-1" clip-path="url(#clipEmfPath3)" style="fill:none"/><path d="m55.667 70.333h-.66667v1h.66667v-1z" clip-path="url(#clipEmfPath3)" style="fill:#0075bf"/><path d="m55.667 70.333h-.66667v1h.66667v-1" clip-path="url(#clipEmfPath3)" style="fill:none"/><path d="m59 67.667h-.66667v.66667h.66667v-.66667z" clip-path="url(#clipEmfPath3)" style="fill:#0075bf"/><path d="m59 67.667h-.66667v.66667h.66667v-.66667" clip-path="url(#clipEmfPath3)" style="fill:none"/><path d="m59.667 76.333h-1v1h1v-1z" clip-path="url(#clipEmfPath3)" style="fill:#0075bf"/><path d="m59.667 76.333h-1v1h1v-1" clip-path="url(#clipEmfPath3)" style="fill:none"/><path d="m51.333 72.333-1 .33333v.66667h1v-1z" clip-path="url(#clipEmfPath3)" style="fill:#0075bf"/><path d="m51.333 72.333-1 .33333v.66667h1v-1" clip-path="url(#clipEmfPath3)" style="fill:none"/><path d="m49.667 75v.66667h.66667v-.66667h-.66667z" clip-path="url(#clipEmfPath3)" style="fill:#0075bf"/><path d="m49.667 75v.66667h.66667v-.66667h-.66667" clip-path="url(#clipEmfPath3)" style="fill:none"/><path d="m56 77.667h-1v.66667h1v-.66667z" clip-path="url(#clipEmfPath3)" style="fill:#0075bf"/><path d="m56 77.667h-1v.66667h1v-.66667" clip-path="url(#clipEmfPath3)" style="fill:none"/><path d="m62 72.333h-1v1h1v-1z" clip-path="url(#clipEmfPath3)" style="fill:#0075bf"/><path d="m62 72.333h-1v1h1v-1" clip-path="url(#clipEmfPath3)" style="fill:none"/><path d="m63.333 68h-.66667v.66667h.66667v-.66667z" clip-path="url(#clipEmfPath3)" style="fill:#0075bf"/><path d="m63.333 68h-.66667v.66667h.66667v-.66667" clip-path="url(#clipEmfPath3)" style="fill:none"/><path d="m67.333 68.667h-1v1h1v-1z" clip-path="url(#clipEmfPath3)" style="fill:#0075bf"/><path d="m67.333 68.667h-1v1h1v-1" clip-path="url(#clipEmfPath3)" style="fill:none"/><path d="m63.333 75h-1v1h1v-1z" clip-path="url(#clipEmfPath3)" style="fill:#0075bf"/><path d="m63.333 75h-1v1h1v-1" clip-path="url(#clipEmfPath3)" style="fill:none"/><path d="m67.333 76.667h-.66667v.66667h.66667v-.66667z" clip-path="url(#clipEmfPath3)" style="fill:#0075bf"/><path d="m67.333 76.667h-.66667v.66667h.66667v-.66667" clip-path="url(#clipEmfPath3)" style="fill:none"/><path d="m63.333 80.333h-1v.66667h1v-.66667z" clip-path="url(#clipEmfPath3)" style="fill:#0075bf"/><path d="m63.333 80.333h-1v.66667h1v-.66667" clip-path="url(#clipEmfPath3)" style="fill:none"/><path d="m57.333 83.333h-.66667.66667z" clip-path="url(#clipEmfPath3)" style="fill:#0075bf"/><path d="m57.333 83.333h-.66667.66667" clip-path="url(#clipEmfPath3)" style="fill:none"/><path d="m53.667 83h-.66667v.33333h.66667v-.33333z" clip-path="url(#clipEmfPath3)" style="fill:#0075bf"/><path d="m53.667 83h-.66667v.33333h.66667v-.33333" clip-path="url(#clipEmfPath3)" style="fill:none"/><path d="m52 80v.66667h.66667v-.66667h-.66667z" clip-path="url(#clipEmfPath3)" style="fill:#0075bf"/><path d="m52 80v.66667h.66667v-.66667h-.66667" clip-path="url(#clipEmfPath3)" style="fill:none"/><path d="m70 82.333h-.66667v.66667h.66667v-.66667z" clip-path="url(#clipEmfPath3)" style="fill:#0075bf"/><path d="m70 82.333h-.66667v.66667h.66667v-.66667" clip-path="url(#clipEmfPath3)" style="fill:none"/><path d="m71.667 79h-.66667v.66667h.66667v-.66667z" clip-path="url(#clipEmfPath3)" style="fill:#0075bf"/><path d="m71.667 79h-.66667v.66667h.66667v-.66667" clip-path="url(#clipEmfPath3)" style="fill:none"/><path d="m78.333 75.667v1h.66667v-.66667l-.66667-.33333z" clip-path="url(#clipEmfPath3)" style="fill:#0075bf"/><path d="m78.333 75.667v1h.66667v-.66667l-.66667-.33333" clip-path="url(#clipEmfPath3)" style="fill:none"/><path d="m75.333 73.667h-.66667v1h.66667v-1z" clip-path="url(#clipEmfPath3)" style="fill:#0075bf"/><path d="m75.333 73.667h-.66667v1h.66667v-1" clip-path="url(#clipEmfPath3)" style="fill:none"/><path d="m74 68.667h-.66667v1h.66667v-1z" clip-path="url(#clipEmfPath3)" style="fill:#0075bf"/><path d="m74 68.667h-.66667v1h.66667v-1" clip-path="url(#clipEmfPath3)" style="fill:none"/><path d="m78.667 67.667h-.66667v.66667h.66667v-.66667z" clip-path="url(#clipEmfPath3)" style="fill:#0075bf"/><path d="m78.667 67.667h-.66667v.66667h.66667v-.66667" clip-path="url(#clipEmfPath3)" style="fill:none"/><path d="m70 71.333h-1v.66667h1v-.66667z" clip-path="url(#clipEmfPath3)" style="fill:#0075bf"/><path d="m70 71.333h-1v.66667h1v-.66667" clip-path="url(#clipEmfPath3)" style="fill:none"/><path d="m83 67.667h-.66667v.66667h.66667v-.66667z" clip-path="url(#clipEmfPath3)" style="fill:#0075bf"/><path d="m83 67.667h-.66667v.66667h.66667v-.66667" clip-path="url(#clipEmfPath3)" style="fill:none"/><path d="m82.333 72.333h-.66667v1h.66667v-1z" clip-path="url(#clipEmfPath3)" style="fill:#0075bf"/><path d="m82.333 72.333h-.66667v1h.66667v-1" clip-path="url(#clipEmfPath3)" style="fill:none"/><path d="m82.667 78.333h-1v1h1v-1z" clip-path="url(#clipEmfPath3)" style="fill:#0075bf"/><path d="m82.667 78.333h-1v1h1v-1" clip-path="url(#clipEmfPath3)" style="fill:none"/><path d="m76.333 80.667h-.66667v.66667h.66667v-.66667z" clip-path="url(#clipEmfPath3)" style="fill:#0075bf"/><path d="m76.333 80.667h-.66667v.66667h.66667v-.66667" clip-path="url(#clipEmfPath3)" style="fill:none"/><path d="m50.333 72.667v-.33333h1 9.3333v6h-4.6667-1-6v-5.6667h1.3333zm10.667.66667v-1h1 11v6h-12v-5zm12-7v6h-12v-6h-.33333v6h-11.667v-6h-.33333v17h.33333v-5h11.667v5h.33333v-5h12v5-5h8.6667 1 1-10.667v-6h8.6667.66667 1.3333-10.667v-6z" clip-path="url(#clipEmfPath3)" style="fill:#0075bf"/><path d="m50.333 72.667v-.33333h1 9.3333v6h-4.6667-1-6v-5.6667h1.3333m10.667.66667v-1h1 11v6h-12v-5m12-7v6h-12v-6h-.33333v6h-11.667v-6h-.33333v17h.33333v-5h11.667v5h.33333v-5h12v5-5h8.6667 1 1-10.667v-6h8.6667.66667 1.3333-10.667v-6" clip-path="url(#clipEmfPath3)" style="fill:none"/><path d="m50.333 72.333v.33333l1-.33333h-1z" clip-path="url(#clipEmfPath3)" style="fill:#0075bf"/><path d="m50.333 72.333v.33333l1-.33333h-1" clip-path="url(#clipEmfPath3)" style="fill:none"/><path d="m56 78.333h-1 1z" clip-path="url(#clipEmfPath3)" style="fill:#0075bf"/><path d="m56 78.333h-1 1" clip-path="url(#clipEmfPath3)" style="fill:none"/><path d="m62 72.333h-1v1-1h1z" clip-path="url(#clipEmfPath3)" style="fill:#0075bf"/><path d="m62 72.333h-1v1-1h1" clip-path="url(#clipEmfPath3)" style="fill:none"/><path d="m82.333 72.333h-.66667.66667z" clip-path="url(#clipEmfPath3)" style="fill:#0075bf"/><path d="m82.333 72.333h-.66667.66667" clip-path="url(#clipEmfPath3)" style="fill:none"/><path d="m82.667 78.333h-1 1z" clip-path="url(#clipEmfPath3)" style="fill:#0075bf"/><path d="m82.667 78.333h-1 1" clip-path="url(#clipEmfPath3)" style="fill:none"/><path d="m48.667 66.333h-48 48zm-47.667-1v-1h.66667v1h-.66667zm6.6667-1.3333v-1h1v1h-1zm4.6667-3.6667h-11.667v5.6667h11.667v-5.6667zm5.6667 4.3333v-.66667h1v.66667h-1zm-4.3333-.33333v-.66667h.66667v.66667h-.66667zm8.3333-2.3333v-.66667h1v.66667h-1zm2.3333-1.6667h-12v5.6667h12v-5.6667zm10.333 5v-1h.66667v1h-.66667zm-8-.66667v-.66667h.66667v.66667h-.66667zm4.3333-2.3333.33333-.66667h.66667v.66667h-1zm5.3333-2h-11.667v5.6667h11.667v-5.6667zm4 5v-.66667h.66667v.66667h-.66667zm5.3333-3.3333v-1h1v1h-1zm3-1.6667h-12v5.6667h12v-5.6667zm-45.667-.66667v-.66667h.66667v.66667h-.66667zm8.6667-3.3333h-1v-1h1v1zm-8.6667-.66667v-.66667h.66667v.66667h-.66667zm9.3333-1.3333h-11.667v5.6667h11.667v-5.6667zm6 5.3333h-.66667v-.66667h.66667v.66667zm4-1.3333v-1h.66667v1h-.66667zm2-4h-12v5.6667h1v-.66667h1v.66667h10v-5.6667zm9.3333 4.6667v-1h1v1h-1zm-7-2v-.66667h.66667v.66667h-.66667zm4-1.6667v-.66667h.66667v.66667h-.66667zm5.6667-1h-11.667v5.6667h11.667v-5.6667zm2.6667 2v-.66667h.66667v.66667h-.66667zm6.6667 0v-.66667h.66667l.33333.66667h-1zm3-2h-12v5.6667h2.3333v-.66667h1v.66667h8.6667v-5.6667zm-41-1h-1v-1h1v1zm-4.3333-3.6667v-.66667h.66667v.66667h-.66667zm9-1.3333h-11.667v5.6667h11.667v-5.6667zm2.6667 4.6667v-.66667h.66667v.66667h-.66667zm5.3333-1.3333v-1h1v1h-1zm-7.3333-2v-1h.66667v1h-.66667zm11.333-1.3333h-12v5.6667h12v-5.6667zm1.3333 5.3333v-1h.66667v1h-.66667zm8.3333-1.3333v-1h.66667v1h-.66667zm-4.3333-3v-.66667h.66667v.66667h-.66667zm6.6667-1h-11.667v5.6667h11.667v-5.6667zm6.6667 5.3333v-1h1v1h-1zm-2-3h-1v-.66667h1v.66667zm5.3333-1.6667v-.66667h1v.66667h-1zm2.3333-.66667h-12v5.6667h12v-5.6667zm-41-1.6667v-.66667h.66667v.66667h-.66667zm-6-2.6667v-.66667h.66667v.66667h-.66667zm8-.66667v-1h.66667v1h-.66667zm2.6667-1h-11.667v5.6667h11.667v-5.6667zm10 4.6667h-.66667v-1h.66667v1zm-4.6667-.33333v-1h.66667v1h-.66667zm-4-2.6667v-.66667h.66667v.66667h-.66667zm10.667-1.6667h-12v5.6667h12v-5.6667zm10.333 3.6667v-.66667h1v.66667h-1zm-9.6667-.33333v-.66667h.66667v.66667h-.66667zm4.6667-1.3333v-.66667h.66667v.66667h-.66667zm6.6667-2h-11.667v5.6667h11.667v-5.6667zm2.3333 2.3333v-.66667h1v.66667h-1zm6-.66667h-1v-.66667h1v.66667zm4-1.6667h-12v5.6667h12v-5.6667zm-41.667-1.6667h-.66667v-.66667h.66667v.66667zm-6 0v-.66667h1v.66667h-1zm10.333-.33333v-1h.66667l.33333 1h-1zm1-4h-11.667v5.6667h11.667v-5.6667zm8.3333 5-.33333-.66667h1v.66667h-.66667zm-5.6667-2.3333v-.66667h1v.66667h-1zm3.6667-1.6667v-1h1v1h-1zm5.6667-1h-12v5.6667h12v-5.6667zm8.3333 4.6667v-1h.66667v1h-.66667zm-7.6667-.66667v-1h1v1h-1zm4.3333-3.3333v-.66667h.66667v.66667h-.66667zm7-.66667h-11.667v5.6667h11.667v-5.6667zm-32-.66667v-1h1v1h-1zm-1-3.3333v-.66667h1v.66667h-1zm9-2h-11.667v5.6667h7.3333v-.66667h.66667v.66667h3.6667v-5.6667zm8.3333 4.6667v-1h1v1h-1zm-7-2v-1h1v1h-1zm8.6667-1.6667v-.66667h.66667v.66667h-.66667zm2-1h-12v5.6667h12v-5.6667zm2.6667 2.6667v-.66667h.66667v.66667h-.66667zm9.3333-2.6667h-2.3333v.66667h-.66667v-.66667h-8.6667v5.6667h9.3333v-.66667h.66667v.66667h1.6667v-5.6667zm-26-1.3333v-.66667h.66667v.66667h-.66667zm-9.3333-1.3333v-1h.66667v1h-.66667zm11.333-3.3333h-9.6667v.66667h-1v-.66667h-1v5.6667h6v-.66667h.66667v.66667h5v-5.6667zm5.6667 5v-1h.66667v1h-.66667zm-4-1.6667v-.66667h.66667v.66667h-.66667zm10.333-3.3333h-11v.66667h-1v5h12v-5.6667zm5.3333 4v-.66667h.66667v.66667h-.66667zm-3.6667-2v-.66667h1v.66667h-1zm10.333-2h-2.3333v.66667h-1v-.66667h-8.3333v5.6667h11.667v-5.6667zm-30-1.3333v-.66667h.66667v.66667h-.66667zm3.3333-2.6667v-1h.66667v1h-.66667zm-8.6667-.66667v-1h1v1h-1zm11.333-1.6667h-11.667v6h11.667v-6zm8.3333 6v-1h.66667v1h-.66667zm-3-2.6667v-1h1v1h-1zm-3.6667-.66667v-1h.66667v1h-.66667zm10.333-2.6667h-12v6h12v-6zm.33333 3.3333v-.66667h1v.66667h-1zm4.6667-1v-1h1v1h-1zm5.3333-.33333h-1v-.66667h1v.66667zm1.6667-2h-11.667v6h11.667v-6zm10.667 23.667v-1h1v1h-1zm-5.6667-1h-.66667v-.66667h.66667v.66667zm-2.6667-3.3333v-1h.66667v1h-.66667zm4.6667-1.3333v-1h.66667v1h-.66667zm3.3333-2.3333v-.66667h.66667v.66667h-.66667zm-3.6667-1h-1v-.66667h1v.66667zm-6-.33333v-.66667h.66667v.66667h-.66667zm3-4v-.66667h1v.66667h-1zm6.6667-.33333v-.66667h.66667v.66667h-.66667zm.33333-5h-1v-1h1v1zm-2.6667-2h-.66667v-.66667h.66667v.66667zm-6 0v-1h1v1h-1zm10.333-3h-12v6h12v.33333h-8.3333v.66667h-1v-.66667h-2.6667v5.6667h12v.33333h-12v5.6667h12v.33333h-12v5.6667h12v-24z" clip-path="url(#clipEmfPath4)" style="fill:#ffffff"/><path d="m48.667 66.333h-48 48m-47.667-1v-1h.66667v1h-.66667m6.6667-1.3333v-1h1v1h-1m4.6667-3.6667h-11.667v5.6667h11.667v-5.6667m5.6667 4.3333v-.66667h1v.66667h-1m-4.3333-.33333v-.66667h.66667v.66667h-.66667m8.3333-2.3333v-.66667h1v.66667h-1m2.3333-1.6667h-12v5.6667h12v-5.6667m10.333 5v-1h.66667v1h-.66667m-8-.66667v-.66667h.66667v.66667h-.66667m4.3333-2.3333.33333-.66667h.66667v.66667h-1m5.3333-2h-11.667v5.6667h11.667v-5.6667m4 5v-.66667h.66667v.66667h-.66667m5.3333-3.3333v-1h1v1h-1m3-1.6667h-12v5.6667h12v-5.6667m-45.667-.66667v-.66667h.66667v.66667h-.66667m8.6667-3.3333h-1v-1h1v1m-8.6667-.66667v-.66667h.66667v.66667h-.66667m9.3333-1.3333h-11.667v5.6667h11.667v-5.6667m6 5.3333h-.66667v-.66667h.66667v.66667m4-1.3333v-1h.66667v1h-.66667m2-4h-12v5.6667h1v-.66667h1v.66667h10v-5.6667m9.3333 4.6667v-1h1v1h-1m-7-2v-.66667h.66667v.66667h-.66667m4-1.6667v-.66667h.66667v.66667h-.66667m5.6667-1h-11.667v5.6667h11.667v-5.6667m2.6667 2v-.66667h.66667v.66667h-.66667m6.6667 0v-.66667h.66667l.33333.66667h-1m3-2h-12v5.6667h2.3333v-.66667h1v.66667h8.6667v-5.6667m-41-1h-1v-1h1v1m-4.3333-3.6667v-.66667h.66667v.66667h-.66667m9-1.3333h-11.667v5.6667h11.667v-5.6667m2.6667 4.6667v-.66667h.66667v.66667h-.66667m5.3333-1.3333v-1h1v1h-1m-7.3333-2v-1h.66667v1h-.66667m11.333-1.3333h-12v5.6667h12v-5.6667m1.3333 5.3333v-1h.66667v1h-.66667m8.3333-1.3333v-1h.66667v1h-.66667m-4.3333-3v-.66667h.66667v.66667h-.66667m6.6667-1h-11.667v5.6667h11.667v-5.6667m6.6667 5.3333v-1h1v1h-1m-2-3h-1v-.66667h1v.66667m5.3333-1.6667v-.66667h1v.66667h-1m2.3333-.66667h-12v5.6667h12v-5.6667m-41-1.6667v-.66667h.66667v.66667h-.66667m-6-2.6667v-.66667h.66667v.66667h-.66667m8-.66667v-1h.66667v1h-.66667m2.6667-1h-11.667v5.6667h11.667v-5.6667m10 4.6667h-.66667v-1h.66667v1m-4.6667-.33333v-1h.66667v1h-.66667m-4-2.6667v-.66667h.66667v.66667h-.66667m10.667-1.6667h-12v5.6667h12v-5.6667m10.333 3.6667v-.66667h1v.66667h-1m-9.6667-.33333v-.66667h.66667v.66667h-.66667m4.6667-1.3333v-.66667h.66667v.66667h-.66667m6.6667-2h-11.667v5.6667h11.667v-5.6667m2.3333 2.3333v-.66667h1v.66667h-1m6-.66667h-1v-.66667h1v.66667m4-1.6667h-12v5.6667h12v-5.6667m-41.667-1.6667h-.66667v-.66667h.66667v.66667m-6 0v-.66667h1v.66667h-1m10.333-.33333v-1h.66667l.33333 1h-1m1-4h-11.667v5.6667h11.667v-5.6667m8.3333 5-.33333-.66667h1v.66667h-.66667m-5.6667-2.3333v-.66667h1v.66667h-1m3.6667-1.6667v-1h1v1h-1m5.6667-1h-12v5.6667h12v-5.6667m8.3333 4.6667v-1h.66667v1h-.66667m-7.6667-.66667v-1h1v1h-1m4.3333-3.3333v-.66667h.66667v.66667h-.66667m7-.66667h-11.667v5.6667h11.667v-5.6667m-32-.66667v-1h1v1h-1m-1-3.3333v-.66667h1v.66667h-1m9-2h-11.667v5.6667h7.3333v-.66667h.66667v.66667h3.6667v-5.6667m8.3333 4.6667v-1h1v1h-1m-7-2v-1h1v1h-1m8.6667-1.6667v-.66667h.66667v.66667h-.66667m2-1h-12v5.6667h12v-5.6667m2.6667 2.6667v-.66667h.66667v.66667h-.66667m9.3333-2.6667h-2.3333v.66667h-.66667v-.66667h-8.6667v5.6667h9.3333v-.66667h.66667v.66667h1.6667v-5.6667m-26-1.3333v-.66667h.66667v.66667h-.66667m-9.3333-1.3333v-1h.66667v1h-.66667m11.333-3.3333h-9.6667v.66667h-1v-.66667h-1v5.6667h6v-.66667h.66667v.66667h5v-5.6667m5.6667 5v-1h.66667v1h-.66667m-4-1.6667v-.66667h.66667v.66667h-.66667m10.333-3.3333h-11v.66667h-1v5h12v-5.6667m5.3333 4v-.66667h.66667v.66667h-.66667m-3.6667-2v-.66667h1v.66667h-1m10.333-2h-2.3333v.66667h-1v-.66667h-8.3333v5.6667h11.667v-5.6667m-30-1.3333v-.66667h.66667v.66667h-.66667m3.3333-2.6667v-1h.66667v1h-.66667m-8.6667-.66667v-1h1v1h-1m11.333-1.6667h-11.667v6h11.667v-6m8.3333 6v-1h.66667v1h-.66667m-3-2.6667v-1h1v1h-1m-3.6667-.66667v-1h.66667v1h-.66667m10.333-2.6667h-12v6h12v-6m.33333 3.3333v-.66667h1v.66667h-1m4.6667-1v-1h1v1h-1m5.3333-.33333h-1v-.66667h1v.66667m1.6667-2h-11.667v6h11.667v-6m10.667 23.667v-1h1v1h-1m-5.6667-1h-.66667v-.66667h.66667v.66667m-2.6667-3.3333v-1h.66667v1h-.66667m4.6667-1.3333v-1h.66667v1h-.66667m3.3333-2.3333v-.66667h.66667v.66667h-.66667m-3.6667-1h-1v-.66667h1v.66667m-6-.33333v-.66667h.66667v.66667h-.66667m3-4v-.66667h1v.66667h-1m6.6667-.33333v-.66667h.66667v.66667h-.66667m.33333-5h-1v-1h1v1m-2.6667-2h-.66667v-.66667h.66667v.66667m-6 0v-1h1v1h-1m10.333-3h-12v6h12v.33333h-8.3333v.66667h-1v-.66667h-2.6667v5.6667h12v.33333h-12v5.6667h12v.33333h-12v5.6667h12v-24" clip-path="url(#clipEmfPath4)" style="fill:none"/><path d="m2 18.667h-1v1h1v-1z" clip-path="url(#clipEmfPath4)" style="fill:#0075bf"/><path d="m2 18.667h-1v1h1v-1" clip-path="url(#clipEmfPath4)" style="fill:none"/><path d="m7 22.333h-.66667v.66667h.66667v-.66667z" clip-path="url(#clipEmfPath4)" style="fill:#0075bf"/><path d="m7 22.333h-.66667v.66667h.66667v-.66667" clip-path="url(#clipEmfPath4)" style="fill:none"/><path d="m10.333 19.333h-.66667v1h.66667v-1z" clip-path="url(#clipEmfPath4)" style="fill:#0075bf"/><path d="m10.333 19.333h-.66667v1h.66667v-1" clip-path="url(#clipEmfPath4)" style="fill:none"/><path d="m11 28.333h-.66667v.66667h.66667v-.66667z" clip-path="url(#clipEmfPath4)" style="fill:#0075bf"/><path d="m11 28.333h-.66667v.66667h.66667v-.66667" clip-path="url(#clipEmfPath4)" style="fill:none"/><path d="m2.6667 24.333h-1v.66667h1v-.66667z" clip-path="url(#clipEmfPath4)" style="fill:#0075bf"/><path d="m2.6667 24.333h-1v.66667h1v-.66667" clip-path="url(#clipEmfPath4)" style="fill:none"/><path d="m1 26.667v1h.66667v-1h-.66667z" clip-path="url(#clipEmfPath4)" style="fill:#0075bf"/><path d="m1 26.667v1h.66667v-1h-.66667" clip-path="url(#clipEmfPath4)" style="fill:none"/><path d="m7.3333 29.333h-.66667v.66667h.66667v-.66667z" clip-path="url(#clipEmfPath4)" style="fill:#0075bf"/><path d="m7.3333 29.333h-.66667v.66667h.66667v-.66667" clip-path="url(#clipEmfPath4)" style="fill:none"/><path d="m13.333 24.333h-1v.66667h1v-.66667z" clip-path="url(#clipEmfPath4)" style="fill:#0075bf"/><path d="m13.333 24.333h-1v.66667h1v-.66667" clip-path="url(#clipEmfPath4)" style="fill:none"/><path d="m14.667 19.667h-.66667v1h.66667v-1z" clip-path="url(#clipEmfPath4)" style="fill:#0075bf"/><path d="m14.667 19.667h-.66667v1h.66667v-1" clip-path="url(#clipEmfPath4)" style="fill:none"/><path d="m18.667 20.333h-1v1h1v-1z" clip-path="url(#clipEmfPath4)" style="fill:#0075bf"/><path d="m18.667 20.333h-1v1h1v-1" clip-path="url(#clipEmfPath4)" style="fill:none"/><path d="m14.667 27h-.66667v.66667h.66667v-.66667z" clip-path="url(#clipEmfPath4)" style="fill:#0075bf"/><path d="m14.667 27h-.66667v.66667h.66667v-.66667" clip-path="url(#clipEmfPath4)" style="fill:none"/><path d="m18.667 28.333h-.66667v1h.66667v-1z" clip-path="url(#clipEmfPath4)" style="fill:#0075bf"/><path d="m18.667 28.333h-.66667v1h.66667v-1" clip-path="url(#clipEmfPath4)" style="fill:none"/><path d="m14.667 32h-1v1h1v-1z" clip-path="url(#clipEmfPath4)" style="fill:#0075bf"/><path d="m14.667 32h-1v1h1v-1" clip-path="url(#clipEmfPath4)" style="fill:none"/><path d="m16 38.333h-1v.66667h1v-.66667z" clip-path="url(#clipEmfPath4)" style="fill:#0075bf"/><path d="m16 38.333h-1v.66667h1v-.66667" clip-path="url(#clipEmfPath4)" style="fill:none"/><path d="m8.6667 35.333h-.66667v.66667h.66667v-.66667z" clip-path="url(#clipEmfPath4)" style="fill:#0075bf"/><path d="m8.6667 35.333h-.66667v.66667h.66667v-.66667" clip-path="url(#clipEmfPath4)" style="fill:none"/><path d="m5.3333 34.667h-1v1h1v-1z" clip-path="url(#clipEmfPath4)" style="fill:#0075bf"/><path d="m5.3333 34.667h-1v1h1v-1" clip-path="url(#clipEmfPath4)" style="fill:none"/><path d="m3.3333 31.667v.66667h1v-.66667h-1z" clip-path="url(#clipEmfPath4)" style="fill:#0075bf"/><path d="m3.3333 31.667v.66667h1v-.66667h-1" clip-path="url(#clipEmfPath4)" style="fill:none"/><path d="m21.667 34h-1v1h1v-1z" clip-path="url(#clipEmfPath4)" style="fill:#0075bf"/><path d="m21.667 34h-1v1h1v-1" clip-path="url(#clipEmfPath4)" style="fill:none"/><path d="m23 30.667h-.66667v.66667h.66667v-.66667z" clip-path="url(#clipEmfPath4)" style="fill:#0075bf"/><path d="m23 30.667h-.66667v.66667h.66667v-.66667" clip-path="url(#clipEmfPath4)" style="fill:none"/><path d="m29.667 27.667v.66667h.66667v-.66667h-.66667z" clip-path="url(#clipEmfPath4)" style="fill:#0075bf"/><path d="m29.667 27.667v.66667h.66667v-.66667h-.66667" clip-path="url(#clipEmfPath4)" style="fill:none"/><path d="m27 25.667h-1v.66667h1v-.66667z" clip-path="url(#clipEmfPath4)" style="fill:#0075bf"/><path d="m27 25.667h-1v.66667h1v-.66667" clip-path="url(#clipEmfPath4)" style="fill:none"/><path d="m25.667 20.667h-1v.66667h1v-.66667z" clip-path="url(#clipEmfPath4)" style="fill:#0075bf"/><path d="m25.667 20.667h-1v.66667h1v-.66667" clip-path="url(#clipEmfPath4)" style="fill:none"/><path d="m30.333 19.333h-1v1h1v-1z" clip-path="url(#clipEmfPath4)" style="fill:#0075bf"/><path d="m30.333 19.333h-1v1h1v-1" clip-path="url(#clipEmfPath4)" style="fill:none"/><path d="m21.333 23h-.66667v1h.66667v-1z" clip-path="url(#clipEmfPath4)" style="fill:#0075bf"/><path d="m21.333 23h-.66667v1h.66667v-1" clip-path="url(#clipEmfPath4)" style="fill:none"/><path d="m34.667 19.333h-1v.66667h1v-.66667z" clip-path="url(#clipEmfPath4)" style="fill:#0075bf"/><path d="m34.667 19.333h-1v.66667h1v-.66667" clip-path="url(#clipEmfPath4)" style="fill:none"/><path d="m34 24.333h-1v.66667h1v-.66667z" clip-path="url(#clipEmfPath4)" style="fill:#0075bf"/><path d="m34 24.333h-1v.66667h1v-.66667" clip-path="url(#clipEmfPath4)" style="fill:none"/><path d="m34 30.333h-.66667v.66667h.66667v-.66667z" clip-path="url(#clipEmfPath4)" style="fill:#0075bf"/><path d="m34 30.333h-.66667v.66667h.66667v-.66667" clip-path="url(#clipEmfPath4)" style="fill:none"/><path d="m37.667 31.667h-.66667v.66667h.66667v-.66667z" clip-path="url(#clipEmfPath4)" style="fill:#0075bf"/><path d="m37.667 31.667h-.66667v.66667h.66667v-.66667" clip-path="url(#clipEmfPath4)" style="fill:none"/><path d="m27.667 32.333h-.66667v.66667h.66667v-.66667z" clip-path="url(#clipEmfPath4)" style="fill:#0075bf"/><path d="m27.667 32.333h-.66667v.66667h.66667v-.66667" clip-path="url(#clipEmfPath4)" style="fill:none"/><path d="m34.667 35.333h-.66667v.66667h.66667v-.66667z" clip-path="url(#clipEmfPath4)" style="fill:#0075bf"/><path d="m34.667 35.333h-.66667v.66667h.66667v-.66667" clip-path="url(#clipEmfPath4)" style="fill:none"/><path d="m30 36.333h-.66667v.66667h.66667v-.66667z" clip-path="url(#clipEmfPath4)" style="fill:#0075bf"/><path d="m30 36.333h-.66667v.66667h.66667v-.66667" clip-path="url(#clipEmfPath4)" style="fill:none"/><path d="m19.667 36.333h-1v1h1v-1z" clip-path="url(#clipEmfPath4)" style="fill:#0075bf"/><path d="m19.667 36.333h-1v1h1v-1" clip-path="url(#clipEmfPath4)" style="fill:none"/><path d="m41 27.667h-1v.66667h1v-.66667z" clip-path="url(#clipEmfPath4)" style="fill:#0075bf"/><path d="m41 27.667h-1v.66667h1v-.66667" clip-path="url(#clipEmfPath4)" style="fill:none"/><path d="m40.333 24.333h-1v.66667h1v-.66667z" clip-path="url(#clipEmfPath4)" style="fill:#0075bf"/><path d="m40.333 24.333h-1v.66667h1v-.66667" clip-path="url(#clipEmfPath4)" style="fill:none"/><path d="m39.333 20h-1v1h1v-1z" clip-path="url(#clipEmfPath4)" style="fill:#0075bf"/><path d="m39.333 20h-1v1h1v-1" clip-path="url(#clipEmfPath4)" style="fill:none"/><path d="m44.333 20.333h-.66667v.66667h.66667v-.66667z" clip-path="url(#clipEmfPath4)" style="fill:#0075bf"/><path d="m44.333 20.333h-.66667v.66667h.66667v-.66667" clip-path="url(#clipEmfPath4)" style="fill:none"/><path d="m46 22v1h1v-1h-1z" clip-path="url(#clipEmfPath4)" style="fill:#0075bf"/><path d="m46 22v1h1v-1h-1" clip-path="url(#clipEmfPath4)" style="fill:none"/><path d="m47.333 27.333h-.66667v.66667h.66667v-.66667z" clip-path="url(#clipEmfPath4)" style="fill:#0075bf"/><path d="m47.333 27.333h-.66667v.66667h.66667v-.66667" clip-path="url(#clipEmfPath4)" style="fill:none"/><path d="m46.667 33v.66667h.66667v-.66667h-.66667z" clip-path="url(#clipEmfPath4)" style="fill:#0075bf"/><path d="m46.667 33v.66667h.66667v-.66667h-.66667" clip-path="url(#clipEmfPath4)" style="fill:none"/><path d="m43 32h-1v.66667h1v-.66667z" clip-path="url(#clipEmfPath4)" style="fill:#0075bf"/><path d="m43 32h-1v.66667h1v-.66667" clip-path="url(#clipEmfPath4)" style="fill:none"/><path d="m44 35h-.66667v1h.66667v-1z" clip-path="url(#clipEmfPath4)" style="fill:#0075bf"/><path d="m44 35h-.66667v1h.66667v-1" clip-path="url(#clipEmfPath4)" style="fill:none"/><path d="m39.333 36.333h-.66667v1h.66667v-1z" clip-path="url(#clipEmfPath4)" style="fill:#0075bf"/><path d="m39.333 36.333h-.66667v1h.66667v-1" clip-path="url(#clipEmfPath4)" style="fill:none"/><path d="m40.667 40v.66667h.66667v-.66667h-.66667z" clip-path="url(#clipEmfPath4)" style="fill:#0075bf"/><path d="m40.667 40v.66667h.66667v-.66667h-.66667" clip-path="url(#clipEmfPath4)" style="fill:none"/><path d="m43.667 43.333v.66667h1v-.66667h-1z" clip-path="url(#clipEmfPath4)" style="fill:#0075bf"/><path d="m43.667 43.333v.66667h1v-.66667h-1" clip-path="url(#clipEmfPath4)" style="fill:none"/><path d="m48 40.667h-1v1h1v-1z" clip-path="url(#clipEmfPath4)" style="fill:#0075bf"/><path d="m48 40.667h-1v1h1v-1" clip-path="url(#clipEmfPath4)" style="fill:none"/><path d="m39.667 44h-1v.66667h1v-.66667z" clip-path="url(#clipEmfPath4)" style="fill:#0075bf"/><path d="m39.667 44h-1v.66667h1v-.66667" clip-path="url(#clipEmfPath4)" style="fill:none"/><path d="m41 50h-1v.66667h1v-.66667z" clip-path="url(#clipEmfPath4)" style="fill:#0075bf"/><path d="m41 50h-1v.66667h1v-.66667" clip-path="url(#clipEmfPath4)" style="fill:none"/><path d="m47.333 48.333h-1v.66667h1v-.66667z" clip-path="url(#clipEmfPath4)" style="fill:#0075bf"/><path d="m47.333 48.333h-1v.66667h1v-.66667" clip-path="url(#clipEmfPath4)" style="fill:none"/><path d="m44 52.667h-1v1h1v-1z" clip-path="url(#clipEmfPath4)" style="fill:#0075bf"/><path d="m44 52.667h-1v1h1v-1" clip-path="url(#clipEmfPath4)" style="fill:none"/><path d="m46.333 55.667h-.66667v.66667h1l-.33333-.66667z" clip-path="url(#clipEmfPath4)" style="fill:#0075bf"/><path d="m46.333 55.667h-.66667v.66667h1l-.33333-.66667" clip-path="url(#clipEmfPath4)" style="fill:none"/><path d="m39.667 55.667h-.66667v.66667h.66667v-.66667z" clip-path="url(#clipEmfPath4)" style="fill:#0075bf"/><path d="m39.667 55.667h-.66667v.66667h.66667v-.66667" clip-path="url(#clipEmfPath4)" style="fill:none"/><path d="m40 59.333h-1v.66667h1v-.66667z" clip-path="url(#clipEmfPath4)" style="fill:#0075bf"/><path d="m40 59.333h-1v.66667h1v-.66667" clip-path="url(#clipEmfPath4)" style="fill:none"/><path d="m46.667 61h-1v1h1v-1z" clip-path="url(#clipEmfPath4)" style="fill:#0075bf"/><path d="m46.667 61h-1v1h1v-1" clip-path="url(#clipEmfPath4)" style="fill:none"/><path d="m41 64.667h-.66667v.66667h.66667v-.66667z" clip-path="url(#clipEmfPath4)" style="fill:#0075bf"/><path d="m41 64.667h-.66667v.66667h.66667v-.66667" clip-path="url(#clipEmfPath4)" style="fill:none"/><path d="m35.333 64.333h-.66667v1h.66667v-1z" clip-path="url(#clipEmfPath4)" style="fill:#0075bf"/><path d="m35.333 64.333h-.66667v1h.66667v-1" clip-path="url(#clipEmfPath4)" style="fill:none"/><path d="m34.667 58h-1v1h1v-1z" clip-path="url(#clipEmfPath4)" style="fill:#0075bf"/><path d="m34.667 58h-1v1h1v-1" clip-path="url(#clipEmfPath4)" style="fill:none"/><path d="m32 61.667h-.66667l-.33333.66667h1v-.66667z" clip-path="url(#clipEmfPath4)" style="fill:#0075bf"/><path d="m32 61.667h-.66667l-.33333.66667h1v-.66667" clip-path="url(#clipEmfPath4)" style="fill:none"/><path d="m31.333 54.667h-.66667v.66667h.66667v-.66667z" clip-path="url(#clipEmfPath4)" style="fill:#0075bf"/><path d="m31.333 54.667h-.66667v.66667h.66667v-.66667" clip-path="url(#clipEmfPath4)" style="fill:none"/><path d="m34.667 51.333h-.66667v1h.66667v-1z" clip-path="url(#clipEmfPath4)" style="fill:#0075bf"/><path d="m34.667 51.333h-.66667v1h.66667v-1" clip-path="url(#clipEmfPath4)" style="fill:none"/><path d="m26.333 52.667h-.66667v1h.66667v-1z" clip-path="url(#clipEmfPath4)" style="fill:#0075bf"/><path d="m26.333 52.667h-.66667v1h.66667v-1" clip-path="url(#clipEmfPath4)" style="fill:none"/><path d="m27.333 56.333h-.66667v.66667h.66667v-.66667z" clip-path="url(#clipEmfPath4)" style="fill:#0075bf"/><path d="m27.333 56.333h-.66667v.66667h.66667v-.66667" clip-path="url(#clipEmfPath4)" style="fill:none"/><path d="m27.333 64h-.66667v.66667h.66667v-.66667z" clip-path="url(#clipEmfPath4)" style="fill:#0075bf"/><path d="m27.333 64h-.66667v.66667h.66667v-.66667" clip-path="url(#clipEmfPath4)" style="fill:none"/><path d="m33.333 40h-.66667v1h.66667v-1z" clip-path="url(#clipEmfPath4)" style="fill:#0075bf"/><path d="m33.333 40h-.66667v1h.66667v-1" clip-path="url(#clipEmfPath4)" style="fill:none"/><path d="m26 39.333h-1v1h1v-1z" clip-path="url(#clipEmfPath4)" style="fill:#0075bf"/><path d="m26 39.333h-1v1h1v-1" clip-path="url(#clipEmfPath4)" style="fill:none"/><path d="m25.667 45h-.66667v.66667h.66667v-.66667z" clip-path="url(#clipEmfPath4)" style="fill:#0075bf"/><path d="m25.667 45h-.66667v.66667h.66667v-.66667" clip-path="url(#clipEmfPath4)" style="fill:none"/><path d="m30.333 43.667h-.66667v.66667h.66667v-.66667z" clip-path="url(#clipEmfPath4)" style="fill:#0075bf"/><path d="m30.333 43.667h-.66667v.66667h.66667v-.66667" clip-path="url(#clipEmfPath4)" style="fill:none"/><path d="m35.667 45.333h-1v.66667h1v-.66667z" clip-path="url(#clipEmfPath4)" style="fill:#0075bf"/><path d="m35.667 45.333h-1v.66667h1v-.66667" clip-path="url(#clipEmfPath4)" style="fill:none"/><path d="m30.333 48.667h-.66667v.66667h.66667v-.66667z" clip-path="url(#clipEmfPath4)" style="fill:#0075bf"/><path d="m30.333 48.667h-.66667v.66667h.66667v-.66667" clip-path="url(#clipEmfPath4)" style="fill:none"/><path d="m12 39.333h-.66667v1h1l-.33333-1z" clip-path="url(#clipEmfPath4)" style="fill:#0075bf"/><path d="m12 39.333h-.66667v1h1l-.33333-1" clip-path="url(#clipEmfPath4)" style="fill:none"/><path d="m21.333 40.667h-1l.33333.66667h.66667v-.66667z" clip-path="url(#clipEmfPath4)" style="fill:#0075bf"/><path d="m21.333 40.667h-1l.33333.66667h.66667v-.66667" clip-path="url(#clipEmfPath4)" style="fill:none"/><path d="m18.333 45.667h-.66667v1h.66667v-1z" clip-path="url(#clipEmfPath4)" style="fill:#0075bf"/><path d="m18.333 45.667h-.66667v1h.66667v-1" clip-path="url(#clipEmfPath4)" style="fill:none"/><path d="m14.333 43.333h-.66667v.66667h.66667v-.66667z" clip-path="url(#clipEmfPath4)" style="fill:#0075bf"/><path d="m14.333 43.333h-.66667v.66667h.66667v-.66667" clip-path="url(#clipEmfPath4)" style="fill:none"/><path d="m10.333 42.333h-.66667v1h.66667v-1z" clip-path="url(#clipEmfPath4)" style="fill:#0075bf"/><path d="m10.333 42.333h-.66667v1h.66667v-1" clip-path="url(#clipEmfPath4)" style="fill:none"/><path d="m6.3333 40v.66667h.66667v-.66667h-.66667z" clip-path="url(#clipEmfPath4)" style="fill:#0075bf"/><path d="m6.3333 40v.66667h.66667v-.66667h-.66667" clip-path="url(#clipEmfPath4)" style="fill:none"/><path d="m8.3333 46h-.66667v.66667h.66667v-.66667z" clip-path="url(#clipEmfPath4)" style="fill:#0075bf"/><path d="m8.3333 46h-.66667v.66667h.66667v-.66667" clip-path="url(#clipEmfPath4)" style="fill:none"/><path d="m13.667 48.667h-.66667v1h.66667v-1z" clip-path="url(#clipEmfPath4)" style="fill:#0075bf"/><path d="m13.667 48.667h-.66667v1h.66667v-1" clip-path="url(#clipEmfPath4)" style="fill:none"/><path d="m22.333 46h-.66667v1h.66667v-1z" clip-path="url(#clipEmfPath4)" style="fill:#0075bf"/><path d="m22.333 46h-.66667v1h.66667v-1" clip-path="url(#clipEmfPath4)" style="fill:none"/><path d="m2.3333 43.333h-.66667v.66667h.66667v-.66667z" clip-path="url(#clipEmfPath4)" style="fill:#0075bf"/><path d="m2.3333 43.333h-.66667v.66667h.66667v-.66667" clip-path="url(#clipEmfPath4)" style="fill:none"/><path d="m3.3333 49v.66667h.66667v-.66667h-.66667z" clip-path="url(#clipEmfPath4)" style="fill:#0075bf"/><path d="m3.3333 49v.66667h.66667v-.66667h-.66667" clip-path="url(#clipEmfPath4)" style="fill:none"/><path d="m2 40h-1v.66667h1v-.66667z" clip-path="url(#clipEmfPath4)" style="fill:#0075bf"/><path d="m2 40h-1v.66667h1v-.66667" clip-path="url(#clipEmfPath4)" style="fill:none"/><path d="m6.6667 52.333v1h1v-1h-1z" clip-path="url(#clipEmfPath4)" style="fill:#0075bf"/><path d="m6.6667 52.333v1h1v-1h-1" clip-path="url(#clipEmfPath4)" style="fill:none"/><path d="m3.6667 55h-.66667v.66667h.66667v-.66667z" clip-path="url(#clipEmfPath4)" style="fill:#0075bf"/><path d="m3.6667 55h-.66667v.66667h.66667v-.66667" clip-path="url(#clipEmfPath4)" style="fill:none"/><path d="m3.6667 59h-.66667v.66667h.66667v-.66667z" clip-path="url(#clipEmfPath4)" style="fill:#0075bf"/><path d="m3.6667 59h-.66667v.66667h.66667v-.66667" clip-path="url(#clipEmfPath4)" style="fill:none"/><path d="m1.6667 64.333h-.66667v1h.66667v-1z" clip-path="url(#clipEmfPath4)" style="fill:#0075bf"/><path d="m1.6667 64.333h-.66667v1h.66667v-1" clip-path="url(#clipEmfPath4)" style="fill:none"/><path d="m8.6667 63h-1v1h1v-1z" clip-path="url(#clipEmfPath4)" style="fill:#0075bf"/><path d="m8.6667 63h-1v1h1v-1" clip-path="url(#clipEmfPath4)" style="fill:none"/><path d="m10.667 55.333v1h1v-1h-1z" clip-path="url(#clipEmfPath4)" style="fill:#0075bf"/><path d="m10.667 55.333v1h1v-1h-1" clip-path="url(#clipEmfPath4)" style="fill:none"/><path d="m14.333 59.333h-1v.66667h1v-.66667z" clip-path="url(#clipEmfPath4)" style="fill:#0075bf"/><path d="m14.333 59.333h-1v.66667h1v-.66667" clip-path="url(#clipEmfPath4)" style="fill:none"/><path d="m14.333 63.667h-.66667v.66667h.66667v-.66667z" clip-path="url(#clipEmfPath4)" style="fill:#0075bf"/><path d="m14.333 63.667h-.66667v.66667h.66667v-.66667" clip-path="url(#clipEmfPath4)" style="fill:none"/><path d="m15.667 52.333h-.66667v.66667h.66667v-.66667z" clip-path="url(#clipEmfPath4)" style="fill:#0075bf"/><path d="m15.667 52.333h-.66667v.66667h.66667v-.66667" clip-path="url(#clipEmfPath4)" style="fill:none"/><path d="m21.333 50.667h-1v1h1v-1z" clip-path="url(#clipEmfPath4)" style="fill:#0075bf"/><path d="m21.333 50.667h-1v1h1v-1" clip-path="url(#clipEmfPath4)" style="fill:none"/><path d="m22.333 57.333v1h.66667v-1h-.66667z" clip-path="url(#clipEmfPath4)" style="fill:#0075bf"/><path d="m22.333 57.333v1h.66667v-1h-.66667" clip-path="url(#clipEmfPath4)" style="fill:none"/><path d="m18.333 59h-.66667v.66667h.66667v-.66667z" clip-path="url(#clipEmfPath4)" style="fill:#0075bf"/><path d="m18.333 59h-.66667v.66667h.66667v-.66667" clip-path="url(#clipEmfPath4)" style="fill:none"/><path d="m18 64v.66667h1v-.66667h-1z" clip-path="url(#clipEmfPath4)" style="fill:#0075bf"/><path d="m18 64v.66667h1v-.66667h-1" clip-path="url(#clipEmfPath4)" style="fill:none"/><path d="m23 61.333h-1v.66667h1v-.66667z" clip-path="url(#clipEmfPath4)" style="fill:#0075bf"/><path d="m23 61.333h-1v.66667h1v-.66667" clip-path="url(#clipEmfPath4)" style="fill:none"/><path d="m48.667 66h-12-.33333-11.667-.33333-12-11.667v.33333h48v-.33333z" clip-path="url(#clipEmfPath4)" style="fill:#0075bf"/><path d="m48.667 66h-12-.33333-11.667-.33333-12-11.667v.33333h48v-.33333" clip-path="url(#clipEmfPath4)" style="fill:none"/><path d="m12.333 54.333h12v5.6667h-10-1-1v-5.6667zm12.333 0h11.667v5.6667h-11.667v-5.6667zm-12.333-6h12v5.6667h-12v-5.6667zm12.333 0h11.667v5.6667h-11.667v-5.6667zm-12.333-6h12v5.6667h-12v-5.6667zm12.333 0h11.667v5.6667h-11.667v-5.6667zm-12.333-6h12v5.6667h-12v-5.6667zm12.333 0h11.667v5.6667h-11.667v-5.6667zm-12.333-6h12v5.6667h-12v-5.6667zm21 0h.66667 2.3333v5.6667h-1.6667-.66667-9.3333v-5.6667h8.6667zm-21-5.3333v-.66667h1 11v5.6667h-12v-5zm20.667-.66667h1 2.3333v5.6667h-11.667v-5.6667h8.3333zm3.6667-6.3333h-.33333v6h-11.667v-6h-.33333v6h-12v-6 6h-11.667v.33333h1 1 9.6667v5.6667h-5-.66667-6v.33333h11.667v5.6667h-3.6667-.66667-7.3333v.33333h11.667v5.6667h-11.667v.33333h11.667v5.6667h-11.667v.33333h11.667v5.6667h-11.667v.33333h11.667v5.6667h-11.667v.33333h11.667v5.6667-5.6667h12v5.6667h.33333v-5.6667h11.667v5.6667h.33333v-5.6667h12v-.33333h-8.6667-1-2.3333v-5.6667h12v-.33333h-12v-5.6667h12v-.33333h-12v-5.6667h12v-.33333h-12v-5.6667h12v-.33333h-12v-5.6667h12v-.33333h-12v-5.6667h2.6667 1 8.3333v-.33333h-12v-6z" clip-path="url(#clipEmfPath4)" style="fill:#0075bf"/><path d="m12.333 54.333h12v5.6667h-10-1-1v-5.6667m12.333 0h11.667v5.6667h-11.667v-5.6667m-12.333-6h12v5.6667h-12v-5.6667m12.333 0h11.667v5.6667h-11.667v-5.6667m-12.333-6h12v5.6667h-12v-5.6667m12.333 0h11.667v5.6667h-11.667v-5.6667m-12.333-6h12v5.6667h-12v-5.6667m12.333 0h11.667v5.6667h-11.667v-5.6667m-12.333-6h12v5.6667h-12v-5.6667m21 0h.66667 2.3333v5.6667h-1.6667-.66667-9.3333v-5.6667h8.6667m-21-5.3333v-.66667h1 11v5.6667h-12v-5m20.667-.66667h1 2.3333v5.6667h-11.667v-5.6667h8.3333m3.6667-6.3333h-.33333v6h-11.667v-6h-.33333v6h-12v-6 6h-11.667v.33333h1 1 9.6667v5.6667h-5-.66667-6v.33333h11.667v5.6667h-3.6667-.66667-7.3333v.33333h11.667v5.6667h-11.667v.33333h11.667v5.6667h-11.667v.33333h11.667v5.6667h-11.667v.33333h11.667v5.6667h-11.667v.33333h11.667v5.6667-5.6667h12v5.6667h.33333v-5.6667h11.667v5.6667h.33333v-5.6667h12v-.33333h-8.6667-1-2.3333v-5.6667h12v-.33333h-12v-5.6667h12v-.33333h-12v-5.6667h12v-.33333h-12v-5.6667h12v-.33333h-12v-5.6667h12v-.33333h-12v-5.6667h2.6667 1 8.3333v-.33333h-12v-6" clip-path="url(#clipEmfPath4)" style="fill:none"/><path d="m1.6667 24.333h1-1z" clip-path="url(#clipEmfPath4)" style="fill:#0075bf"/><path d="m1.6667 24.333h1-1" clip-path="url(#clipEmfPath4)" style="fill:none"/><path d="m7.3333 30h-.66667.66667z" clip-path="url(#clipEmfPath4)" style="fill:#0075bf"/><path d="m7.3333 30h-.66667.66667" clip-path="url(#clipEmfPath4)" style="fill:none"/><path d="m13.333 24.333h-1v.66667-.66667h1z" clip-path="url(#clipEmfPath4)" style="fill:#0075bf"/><path d="m13.333 24.333h-1v.66667-.66667h1" clip-path="url(#clipEmfPath4)" style="fill:none"/><path d="m8.6667 36h-.66667.66667z" clip-path="url(#clipEmfPath4)" style="fill:#0075bf"/><path d="m8.6667 36h-.66667.66667" clip-path="url(#clipEmfPath4)" style="fill:none"/><path d="m34 24.333h-1 1z" clip-path="url(#clipEmfPath4)" style="fill:#0075bf"/><path d="m34 24.333h-1 1" clip-path="url(#clipEmfPath4)" style="fill:none"/><path d="m34 30.333h-.66667.66667z" clip-path="url(#clipEmfPath4)" style="fill:#0075bf"/><path d="m34 30.333h-.66667.66667" clip-path="url(#clipEmfPath4)" style="fill:none"/><path d="m34.667 36h-.66667.66667z" clip-path="url(#clipEmfPath4)" style="fill:#0075bf"/><path d="m34.667 36h-.66667.66667" clip-path="url(#clipEmfPath4)" style="fill:none"/><path d="m39.333 24.333h1-1z" clip-path="url(#clipEmfPath4)" style="fill:#0075bf"/><path d="m39.333 24.333h1-1" clip-path="url(#clipEmfPath4)" style="fill:none"/><path d="m40 60h-1 1z" clip-path="url(#clipEmfPath4)" style="fill:#0075bf"/><path d="m40 60h-1 1" clip-path="url(#clipEmfPath4)" style="fill:none"/><path d="m14.333 60h-1 1z" clip-path="url(#clipEmfPath4)" style="fill:#0075bf"/><path d="m14.333 60h-1 1" clip-path="url(#clipEmfPath4)" style="fill:none"/><path d="m12.333 66zm12.333 0h-.33333.33333zm12 0h-.33333.33333z" clip-path="url(#clipEmfPath4)" style="fill:#0075bf"/><path d="m12.333 66m12.333 0h-.33333.33333m12 0h-.33333.33333" clip-path="url(#clipEmfPath4)" style="fill:none"/><path d="m49.667 65.333v-1h.66667v1h-.66667zm6.6667-1.3333v-1h1v1h-1zm4.3333-3.6667h-11.667v5.6667h11.667v-5.6667zm6 4.3333v-.66667h1v.66667h-1zm-4.6667-.33333v-.66667h1v.66667h-1zm8.6667-2.3333v-.66667h1v.66667h-1zm2.3333-1.6667h-12v5.6667h12v-5.6667zm2.3333 4.3333v-.66667h.66667v.66667h-.66667zm4.3333-2.3333v-.66667h1v.66667h-1zm4-2h-10.667v5.6667h10.667v-.66667h-.33333v-1h.33333v-4zm-32.333-.66667v-.66667h1v.66667h-1zm8.6667-3.3333h-.66667v-1h.66667v1zm-8.3333-.66667v-.66667h.66667v.66667h-.66667zm9-1.3333h-11.667v5.6667h11.667v-5.6667zm6.3333 5.3333h-.66667v-.66667h.66667v.66667zm4-1.3333v-1h.66667v1h-.66667zm2-4h-12v5.6667h1v-.66667h1v.66667h10v-5.6667zm9.3333 4.6667v-1h.66667v1h-.66667zm-7.3333-2v-.66667h1v.66667h-1zm4.3333-1.6667v-.66667h.66667v.66667h-.66667zm4.3333-1h-10.667v5.6667h10.667v-5.6667zm-27.667-1h-.66667v-1h.66667v1zm-4.3333-3.6667v-.66667h1v.66667h-1zm9-1.3333h-11.667v5.6667h11.667v-5.6667zm3 4.6667v-.66667h.66667v.66667h-.66667zm5.3333-1.3333v-1h1v1h-1zm-7.3333-2v-1h.66667v1h-.66667zm11.333-1.3333h-12v5.6667h12v-5.6667zm1 5.3333v-1h1v1h-1zm8.6667-1.3333v-1h.66667v1h-.66667zm-4.3333-3v-.66667h.66667v.66667h-.66667zm5.3333-1h-10.667v5.6667h10.667v-5.6667zm-27.333-1.6667v-.66667h.66667v.66667h-.66667zm-6-2.6667v-.66667h.66667v.66667h-.66667zm8-.66667v-1h.66667v1h-.66667zm2.3333-1h-11.667v5.6667h11.667v-5.6667zm10.333 4.6667h-1v-1h1v1zm-4.6667-.33333v-1h.66667v1h-.66667zm-4-2.6667v-.66667h.66667v.66667h-.66667zm10.667-1.6667h-12v5.6667h12v-5.6667zm.33333 3.3333v-.66667h1v.66667h-1zm5-1.3333v-.66667h.66667v.66667h-.66667zm5.3333-2h-10.667v5.6667h10.667v-2h-.33333v-.66667h.33333v-3zm-28-1.6667h-.66667v-.66667h.66667v.66667zm-6 0v-.66667h.66667v.66667h-.66667zm10.333-.33333v-1h.66667v1h-.66667zm.66667-4h-11.667v5.6667h11.667v-5.6667zm8.3333 5v-.66667h1v.66667h-1zm-5.3333-2.3333v-.66667h1v.66667h-1zm3.6667-1.6667v-1h.66667v1h-.66667zm5.6667-1h-12v5.6667h12v-5.6667zm8.3333 4.6667v-1h.66667v1h-.66667zm-7.6667-.66667v-1h.66667v1h-.66667zm4-3.3333v-.66667h1v.66667h-1zm6-.66667h-10.667v5.6667h10.667v-5.6667zm-30.667-.66667v-1h.66667v1h-.66667zm-1-3.3333v-.66667h.66667v.66667h-.66667zm8.6667-2h-11.667v5.6667h7.6667v-.66667h.66667v.66667h3.3333v-5.6667zm8.6667 4.6667v-1h.66667v1h-.66667zm-7-2v-1h1v1h-1zm8.6667-1.6667v-.66667h.66667v.66667h-.66667zm2-1h-12v5.6667h12v-5.6667zm2.6667 2.6667v-.66667h.66667v.66667h-.66667zm8-2.6667h-1v.66667h-1v-.66667h-8.6667v5.6667h9.6667v-.66667h.66667v.66667h.33333v-5.6667zm-25-1.3333v-.66667h1v.66667h-1zm-9-1.3333v-1h.66667v1h-.66667zm11-3.3333h-9.3333v.66667h-1v-.66667h-1.3333v5.6667h6v-.66667h1v.66667h4.6667v-5.6667zm6 5v-1h.66667v1h-.66667zm-4.3333-1.6667v-.66667h1v.66667h-1zm10.667-3.3333h-11v.66667h-1v5h12v-5.6667zm5.3333 4v-.66667h.66667v.66667h-.66667zm-3.6667-2v-.66667h.66667v.66667h-.66667zm9-2h-1.3333v.66667h-.66667v-.66667h-8.6667v5.6667h10.667v-5.6667zm-35-6.3333v48.333h35-35v-.33333-48zm6.3333 5v-.66667h.66667v.66667h-.66667zm3.3333-2.6667v-1h.66667v1h-.66667zm-8.6667-.66667v-1h.66667v1h-.66667zm11-1.6667h-11.667v6h11.667v-6zm8.3333 6v-1h1v1h-1zm-2.6667-2.6667v-1h1v1h-1zm-3.6667-.66667v-1h.66667v1h-.66667zm10.333-2.6667h-12v6h12v-6zm.33333 3.3333v-.66667h.66667v.66667h-.66667zm4.6667-1v-1h.66667v1h-.66667zm5-.33333h-.66667v-.66667h.66667v.66667zm.66667-2h-10.667v6h10.667v-6z" clip-path="url(#clipEmfPath5)" style="fill:#ffffff"/><path d="m49.667 65.333v-1h.66667v1h-.66667m6.6667-1.3333v-1h1v1h-1m4.3333-3.6667h-11.667v5.6667h11.667v-5.6667m6 4.3333v-.66667h1v.66667h-1m-4.6667-.33333v-.66667h1v.66667h-1m8.6667-2.3333v-.66667h1v.66667h-1m2.3333-1.6667h-12v5.6667h12v-5.6667m2.3333 4.3333v-.66667h.66667v.66667h-.66667m4.3333-2.3333v-.66667h1v.66667h-1m4-2h-10.667v5.6667h10.667v-.66667h-.33333v-1h.33333v-4m-32.333-.66667v-.66667h1v.66667h-1m8.6667-3.3333h-.66667v-1h.66667v1m-8.3333-.66667v-.66667h.66667v.66667h-.66667m9-1.3333h-11.667v5.6667h11.667v-5.6667m6.3333 5.3333h-.66667v-.66667h.66667v.66667m4-1.3333v-1h.66667v1h-.66667m2-4h-12v5.6667h1v-.66667h1v.66667h10v-5.6667m9.3333 4.6667v-1h.66667v1h-.66667m-7.3333-2v-.66667h1v.66667h-1m4.3333-1.6667v-.66667h.66667v.66667h-.66667m4.3333-1h-10.667v5.6667h10.667v-5.6667m-27.667-1h-.66667v-1h.66667v1m-4.3333-3.6667v-.66667h1v.66667h-1m9-1.3333h-11.667v5.6667h11.667v-5.6667m3 4.6667v-.66667h.66667v.66667h-.66667m5.3333-1.3333v-1h1v1h-1m-7.3333-2v-1h.66667v1h-.66667m11.333-1.3333h-12v5.6667h12v-5.6667m1 5.3333v-1h1v1h-1m8.6667-1.3333v-1h.66667v1h-.66667m-4.3333-3v-.66667h.66667v.66667h-.66667m5.3333-1h-10.667v5.6667h10.667v-5.6667m-27.333-1.6667v-.66667h.66667v.66667h-.66667m-6-2.6667v-.66667h.66667v.66667h-.66667m8-.66667v-1h.66667v1h-.66667m2.3333-1h-11.667v5.6667h11.667v-5.6667m10.333 4.6667h-1v-1h1v1m-4.6667-.33333v-1h.66667v1h-.66667m-4-2.6667v-.66667h.66667v.66667h-.66667m10.667-1.6667h-12v5.6667h12v-5.6667m.33333 3.3333v-.66667h1v.66667h-1m5-1.3333v-.66667h.66667v.66667h-.66667m5.3333-2h-10.667v5.6667h10.667v-2h-.33333v-.66667h.33333v-3m-28-1.6667h-.66667v-.66667h.66667v.66667m-6 0v-.66667h.66667v.66667h-.66667m10.333-.33333v-1h.66667v1h-.66667m.66667-4h-11.667v5.6667h11.667v-5.6667m8.3333 5v-.66667h1v.66667h-1m-5.3333-2.3333v-.66667h1v.66667h-1m3.6667-1.6667v-1h.66667v1h-.66667m5.6667-1h-12v5.6667h12v-5.6667m8.3333 4.6667v-1h.66667v1h-.66667m-7.6667-.66667v-1h.66667v1h-.66667m4-3.3333v-.66667h1v.66667h-1m6-.66667h-10.667v5.6667h10.667v-5.6667m-30.667-.66667v-1h.66667v1h-.66667m-1-3.3333v-.66667h.66667v.66667h-.66667m8.6667-2h-11.667v5.6667h7.6667v-.66667h.66667v.66667h3.3333v-5.6667m8.6667 4.6667v-1h.66667v1h-.66667m-7-2v-1h1v1h-1m8.6667-1.6667v-.66667h.66667v.66667h-.66667m2-1h-12v5.6667h12v-5.6667m2.6667 2.6667v-.66667h.66667v.66667h-.66667m8-2.6667h-1v.66667h-1v-.66667h-8.6667v5.6667h9.6667v-.66667h.66667v.66667h.33333v-5.6667m-25-1.3333v-.66667h1v.66667h-1m-9-1.3333v-1h.66667v1h-.66667m11-3.3333h-9.3333v.66667h-1v-.66667h-1.3333v5.6667h6v-.66667h1v.66667h4.6667v-5.6667m6 5v-1h.66667v1h-.66667m-4.3333-1.6667v-.66667h1v.66667h-1m10.667-3.3333h-11v.66667h-1v5h12v-5.6667m5.3333 4v-.66667h.66667v.66667h-.66667m-3.6667-2v-.66667h.66667v.66667h-.66667m9-2h-1.3333v.66667h-.66667v-.66667h-8.6667v5.6667h10.667v-5.6667m-35-6.3333v48.333h35-35v-.33333-48m6.3333 5v-.66667h.66667v.66667h-.66667m3.3333-2.6667v-1h.66667v1h-.66667m-8.6667-.66667v-1h.66667v1h-.66667m11-1.6667h-11.667v6h11.667v-6m8.3333 6v-1h1v1h-1m-2.6667-2.6667v-1h1v1h-1m-3.6667-.66667v-1h.66667v1h-.66667m10.333-2.6667h-12v6h12v-6m.33333 3.3333v-.66667h.66667v.66667h-.66667m4.6667-1v-1h.66667v1h-.66667m5-.33333h-.66667v-.66667h.66667v.66667m.66667-2h-10.667v6h10.667v-6" clip-path="url(#clipEmfPath5)" style="fill:none"/><path d="m50.333 18.667h-.66667v1h.66667v-1z" clip-path="url(#clipEmfPath5)" style="fill:#0075bf"/><path d="m50.333 18.667h-.66667v1h.66667v-1" clip-path="url(#clipEmfPath5)" style="fill:none"/><path d="m55.667 22.333h-.66667v.66667h.66667v-.66667z" clip-path="url(#clipEmfPath5)" style="fill:#0075bf"/><path d="m55.667 22.333h-.66667v.66667h.66667v-.66667" clip-path="url(#clipEmfPath5)" style="fill:none"/><path d="m59 19.333h-.66667v1h.66667v-1z" clip-path="url(#clipEmfPath5)" style="fill:#0075bf"/><path d="m59 19.333h-.66667v1h.66667v-1" clip-path="url(#clipEmfPath5)" style="fill:none"/><path d="m59.667 28.333h-1v.66667h1v-.66667z" clip-path="url(#clipEmfPath5)" style="fill:#0075bf"/><path d="m59.667 28.333h-1v.66667h1v-.66667" clip-path="url(#clipEmfPath5)" style="fill:none"/><path d="m51.333 24.333h-1v.66667h1v-.66667z" clip-path="url(#clipEmfPath5)" style="fill:#0075bf"/><path d="m51.333 24.333h-1v.66667h1v-.66667" clip-path="url(#clipEmfPath5)" style="fill:none"/><path d="m49.667 26.667v1h.66667v-1h-.66667z" clip-path="url(#clipEmfPath5)" style="fill:#0075bf"/><path d="m49.667 26.667v1h.66667v-1h-.66667" clip-path="url(#clipEmfPath5)" style="fill:none"/><path d="m56 29.333h-1v.66667h1v-.66667z" clip-path="url(#clipEmfPath5)" style="fill:#0075bf"/><path d="m56 29.333h-1v.66667h1v-.66667" clip-path="url(#clipEmfPath5)" style="fill:none"/><path d="m62 24.333h-1v.66667h1v-.66667z" clip-path="url(#clipEmfPath5)" style="fill:#0075bf"/><path d="m62 24.333h-1v.66667h1v-.66667" clip-path="url(#clipEmfPath5)" style="fill:none"/><path d="m63.333 19.667h-.66667v1h.66667v-1z" clip-path="url(#clipEmfPath5)" style="fill:#0075bf"/><path d="m63.333 19.667h-.66667v1h.66667v-1" clip-path="url(#clipEmfPath5)" style="fill:none"/><path d="m67.333 20.333h-1v1h1v-1z" clip-path="url(#clipEmfPath5)" style="fill:#0075bf"/><path d="m67.333 20.333h-1v1h1v-1" clip-path="url(#clipEmfPath5)" style="fill:none"/><path d="m63.333 27h-1v.66667h1v-.66667z" clip-path="url(#clipEmfPath5)" style="fill:#0075bf"/><path d="m63.333 27h-1v.66667h1v-.66667" clip-path="url(#clipEmfPath5)" style="fill:none"/><path d="m67.333 28.333h-.66667v1h.66667v-1z" clip-path="url(#clipEmfPath5)" style="fill:#0075bf"/><path d="m67.333 28.333h-.66667v1h.66667v-1" clip-path="url(#clipEmfPath5)" style="fill:none"/><path d="m63.333 32h-1v1h1v-1z" clip-path="url(#clipEmfPath5)" style="fill:#0075bf"/><path d="m63.333 32h-1v1h1v-1" clip-path="url(#clipEmfPath5)" style="fill:none"/><path d="m64.667 38.333h-1v.66667h1v-.66667z" clip-path="url(#clipEmfPath5)" style="fill:#0075bf"/><path d="m64.667 38.333h-1v.66667h1v-.66667" clip-path="url(#clipEmfPath5)" style="fill:none"/><path d="m57.333 35.333h-.66667v.66667h.66667v-.66667z" clip-path="url(#clipEmfPath5)" style="fill:#0075bf"/><path d="m57.333 35.333h-.66667v.66667h.66667v-.66667" clip-path="url(#clipEmfPath5)" style="fill:none"/><path d="m53.667 34.667h-.66667v1h.66667v-1z" clip-path="url(#clipEmfPath5)" style="fill:#0075bf"/><path d="m53.667 34.667h-.66667v1h.66667v-1" clip-path="url(#clipEmfPath5)" style="fill:none"/><path d="m52 31.667v.66667h.66667v-.66667h-.66667z" clip-path="url(#clipEmfPath5)" style="fill:#0075bf"/><path d="m52 31.667v.66667h.66667v-.66667h-.66667" clip-path="url(#clipEmfPath5)" style="fill:none"/><path d="m70 34h-.66667v1h.66667v-1z" clip-path="url(#clipEmfPath5)" style="fill:#0075bf"/><path d="m70 34h-.66667v1h.66667v-1" clip-path="url(#clipEmfPath5)" style="fill:none"/><path d="m71.667 30.667h-.66667v.66667h.66667v-.66667z" clip-path="url(#clipEmfPath5)" style="fill:#0075bf"/><path d="m71.667 30.667h-.66667v.66667h.66667v-.66667" clip-path="url(#clipEmfPath5)" style="fill:none"/><path d="m78.333 27.667v.66667h.66667v-.66667h-.66667z" clip-path="url(#clipEmfPath5)" style="fill:#0075bf"/><path d="m78.333 27.667v.66667h.66667v-.66667h-.66667" clip-path="url(#clipEmfPath5)" style="fill:none"/><path d="m75.333 25.667h-.66667v.66667h.66667v-.66667z" clip-path="url(#clipEmfPath5)" style="fill:#0075bf"/><path d="m75.333 25.667h-.66667v.66667h.66667v-.66667" clip-path="url(#clipEmfPath5)" style="fill:none"/><path d="m74 20.667h-.66667v.66667h.66667v-.66667z" clip-path="url(#clipEmfPath5)" style="fill:#0075bf"/><path d="m74 20.667h-.66667v.66667h.66667v-.66667" clip-path="url(#clipEmfPath5)" style="fill:none"/><path d="m78.667 19.333h-.66667v1h.66667v-1z" clip-path="url(#clipEmfPath5)" style="fill:#0075bf"/><path d="m78.667 19.333h-.66667v1h.66667v-1" clip-path="url(#clipEmfPath5)" style="fill:none"/><path d="m70 23h-1v1h1v-1z" clip-path="url(#clipEmfPath5)" style="fill:#0075bf"/><path d="m70 23h-1v1h1v-1" clip-path="url(#clipEmfPath5)" style="fill:none"/><path d="m83 19.333h-.66667v.66667h.66667v-.66667z" clip-path="url(#clipEmfPath5)" style="fill:#0075bf"/><path d="m83 19.333h-.66667v.66667h.66667v-.66667" clip-path="url(#clipEmfPath5)" style="fill:none"/><path d="m82.333 24.333h-.66667v.66667h.66667v-.66667z" clip-path="url(#clipEmfPath5)" style="fill:#0075bf"/><path d="m82.333 24.333h-.66667v.66667h.66667v-.66667" clip-path="url(#clipEmfPath5)" style="fill:none"/><path d="m82.667 30.333h-1v.66667h1v-.66667z" clip-path="url(#clipEmfPath5)" style="fill:#0075bf"/><path d="m82.667 30.333h-1v.66667h1v-.66667" clip-path="url(#clipEmfPath5)" style="fill:none"/><path d="m76.333 32.333h-.66667v.66667h.66667v-.66667z" clip-path="url(#clipEmfPath5)" style="fill:#0075bf"/><path d="m76.333 32.333h-.66667v.66667h.66667v-.66667" clip-path="url(#clipEmfPath5)" style="fill:none"/><path d="m83.333 35.333h-.66667v.66667h.66667v-.66667z" clip-path="url(#clipEmfPath5)" style="fill:#0075bf"/><path d="m83.333 35.333h-.66667v.66667h.66667v-.66667" clip-path="url(#clipEmfPath5)" style="fill:none"/><path d="m78.667 36.333h-1v.66667h1v-.66667z" clip-path="url(#clipEmfPath5)" style="fill:#0075bf"/><path d="m78.667 36.333h-1v.66667h1v-.66667" clip-path="url(#clipEmfPath5)" style="fill:none"/><path d="m68 36.333h-.66667v1h.66667v-1z" clip-path="url(#clipEmfPath5)" style="fill:#0075bf"/><path d="m68 36.333h-.66667v1h.66667v-1" clip-path="url(#clipEmfPath5)" style="fill:none"/><path d="m83.667 64.333h-.33333v1h.33333v-1z" clip-path="url(#clipEmfPath5)" style="fill:#0075bf"/><path d="m83.667 64.333h-.33333v1h.33333v-1" clip-path="url(#clipEmfPath5)" style="fill:none"/><path d="m83 58h-.66667v1h.66667v-1z" clip-path="url(#clipEmfPath5)" style="fill:#0075bf"/><path d="m83 58h-.66667v1h.66667v-1" clip-path="url(#clipEmfPath5)" style="fill:none"/><path d="m80.667 61.667h-1v.66667h1v-.66667z" clip-path="url(#clipEmfPath5)" style="fill:#0075bf"/><path d="m80.667 61.667h-1v.66667h1v-.66667" clip-path="url(#clipEmfPath5)" style="fill:none"/><path d="m80 54.667h-.66667v.66667h.66667v-.66667z" clip-path="url(#clipEmfPath5)" style="fill:#0075bf"/><path d="m80 54.667h-.66667v.66667h.66667v-.66667" clip-path="url(#clipEmfPath5)" style="fill:none"/><path d="m83.333 51.333h-.66667v1h.66667v-1z" clip-path="url(#clipEmfPath5)" style="fill:#0075bf"/><path d="m83.333 51.333h-.66667v1h.66667v-1" clip-path="url(#clipEmfPath5)" style="fill:none"/><path d="m75 52.667h-1v1h1v-1z" clip-path="url(#clipEmfPath5)" style="fill:#0075bf"/><path d="m75 52.667h-1v1h1v-1" clip-path="url(#clipEmfPath5)" style="fill:none"/><path d="m76 56.333h-1v.66667h1v-.66667z" clip-path="url(#clipEmfPath5)" style="fill:#0075bf"/><path d="m76 56.333h-1v.66667h1v-.66667" clip-path="url(#clipEmfPath5)" style="fill:none"/><path d="m76 64h-.66667v.66667h.66667v-.66667z" clip-path="url(#clipEmfPath5)" style="fill:#0075bf"/><path d="m76 64h-.66667v.66667h.66667v-.66667" clip-path="url(#clipEmfPath5)" style="fill:none"/><path d="m82 40h-.66667v1h.66667v-1z" clip-path="url(#clipEmfPath5)" style="fill:#0075bf"/><path d="m82 40h-.66667v1h.66667v-1" clip-path="url(#clipEmfPath5)" style="fill:none"/><path d="m74.333 39.333h-.66667v1h.66667v-1z" clip-path="url(#clipEmfPath5)" style="fill:#0075bf"/><path d="m74.333 39.333h-.66667v1h.66667v-1" clip-path="url(#clipEmfPath5)" style="fill:none"/><path d="m74.333 45h-1v.66667h1v-.66667z" clip-path="url(#clipEmfPath5)" style="fill:#0075bf"/><path d="m74.333 45h-1v.66667h1v-.66667" clip-path="url(#clipEmfPath5)" style="fill:none"/><path d="m79 43.667h-.66667v.66667h.66667v-.66667z" clip-path="url(#clipEmfPath5)" style="fill:#0075bf"/><path d="m79 43.667h-.66667v.66667h.66667v-.66667" clip-path="url(#clipEmfPath5)" style="fill:none"/><path d="m83.667 45.333h-.33333v.66667h.33333v-.66667z" clip-path="url(#clipEmfPath5)" style="fill:#0075bf"/><path d="m83.667 45.333h-.33333v.66667h.33333v-.66667" clip-path="url(#clipEmfPath5)" style="fill:none"/><path d="m79 48.667h-.66667v.66667h.66667v-.66667z" clip-path="url(#clipEmfPath5)" style="fill:#0075bf"/><path d="m79 48.667h-.66667v.66667h.66667v-.66667" clip-path="url(#clipEmfPath5)" style="fill:none"/><path d="m60.667 39.333h-.66667v1h.66667v-1z" clip-path="url(#clipEmfPath5)" style="fill:#0075bf"/><path d="m60.667 39.333h-.66667v1h.66667v-1" clip-path="url(#clipEmfPath5)" style="fill:none"/><path d="m70 40.667h-1v.66667h1v-.66667z" clip-path="url(#clipEmfPath5)" style="fill:#0075bf"/><path d="m70 40.667h-1v.66667h1v-.66667" clip-path="url(#clipEmfPath5)" style="fill:none"/><path d="m67 45.667h-.66667v1h.66667v-1z" clip-path="url(#clipEmfPath5)" style="fill:#0075bf"/><path d="m67 45.667h-.66667v1h.66667v-1" clip-path="url(#clipEmfPath5)" style="fill:none"/><path d="m63 43.333h-.66667v.66667h.66667v-.66667z" clip-path="url(#clipEmfPath5)" style="fill:#0075bf"/><path d="m63 43.333h-.66667v.66667h.66667v-.66667" clip-path="url(#clipEmfPath5)" style="fill:none"/><path d="m59 42.333h-.66667v1h.66667v-1z" clip-path="url(#clipEmfPath5)" style="fill:#0075bf"/><path d="m59 42.333h-.66667v1h.66667v-1" clip-path="url(#clipEmfPath5)" style="fill:none"/><path d="m55 40v.66667h.66667v-.66667h-.66667z" clip-path="url(#clipEmfPath5)" style="fill:#0075bf"/><path d="m55 40v.66667h.66667v-.66667h-.66667" clip-path="url(#clipEmfPath5)" style="fill:none"/><path d="m57 46h-.66667v.66667h.66667v-.66667z" clip-path="url(#clipEmfPath5)" style="fill:#0075bf"/><path d="m57 46h-.66667v.66667h.66667v-.66667" clip-path="url(#clipEmfPath5)" style="fill:none"/><path d="m62.333 48.667h-.66667v1h.66667v-1z" clip-path="url(#clipEmfPath5)" style="fill:#0075bf"/><path d="m62.333 48.667h-.66667v1h.66667v-1" clip-path="url(#clipEmfPath5)" style="fill:none"/><path d="m71 46h-1v1h1v-1z" clip-path="url(#clipEmfPath5)" style="fill:#0075bf"/><path d="m71 46h-1v1h1v-1" clip-path="url(#clipEmfPath5)" style="fill:none"/><path d="m51 43.333h-.66667v.66667h.66667v-.66667z" clip-path="url(#clipEmfPath5)" style="fill:#0075bf"/><path d="m51 43.333h-.66667v.66667h.66667v-.66667" clip-path="url(#clipEmfPath5)" style="fill:none"/><path d="m51.667 49v.66667h1v-.66667h-1z" clip-path="url(#clipEmfPath5)" style="fill:#0075bf"/><path d="m51.667 49v.66667h1v-.66667h-1" clip-path="url(#clipEmfPath5)" style="fill:none"/><path d="m50.333 40h-.66667v.66667h.66667v-.66667z" clip-path="url(#clipEmfPath5)" style="fill:#0075bf"/><path d="m50.333 40h-.66667v.66667h.66667v-.66667" clip-path="url(#clipEmfPath5)" style="fill:none"/><path d="m55.333 52.333v1h.66667v-1h-.66667z" clip-path="url(#clipEmfPath5)" style="fill:#0075bf"/><path d="m55.333 52.333v1h.66667v-1h-.66667" clip-path="url(#clipEmfPath5)" style="fill:none"/><path d="m52.333 55h-.66667v.66667h.66667v-.66667z" clip-path="url(#clipEmfPath5)" style="fill:#0075bf"/><path d="m52.333 55h-.66667v.66667h.66667v-.66667" clip-path="url(#clipEmfPath5)" style="fill:none"/><path d="m52.333 59h-1v.66667h1v-.66667z" clip-path="url(#clipEmfPath5)" style="fill:#0075bf"/><path d="m52.333 59h-1v.66667h1v-.66667" clip-path="url(#clipEmfPath5)" style="fill:none"/><path d="m50.333 64.333h-.66667v1h.66667v-1z" clip-path="url(#clipEmfPath5)" style="fill:#0075bf"/><path d="m50.333 64.333h-.66667v1h.66667v-1" clip-path="url(#clipEmfPath5)" style="fill:none"/><path d="m57.333 63h-1v1h1v-1z" clip-path="url(#clipEmfPath5)" style="fill:#0075bf"/><path d="m57.333 63h-1v1h1v-1" clip-path="url(#clipEmfPath5)" style="fill:none"/><path d="m59.333 55.333v1h.66667v-1h-.66667z" clip-path="url(#clipEmfPath5)" style="fill:#0075bf"/><path d="m59.333 55.333v1h.66667v-1h-.66667" clip-path="url(#clipEmfPath5)" style="fill:none"/><path d="m63 59.333h-1v.66667h1v-.66667z" clip-path="url(#clipEmfPath5)" style="fill:#0075bf"/><path d="m63 59.333h-1v.66667h1v-.66667" clip-path="url(#clipEmfPath5)" style="fill:none"/><path d="m63 63.667h-1v.66667h1v-.66667z" clip-path="url(#clipEmfPath5)" style="fill:#0075bf"/><path d="m63 63.667h-1v.66667h1v-.66667" clip-path="url(#clipEmfPath5)" style="fill:none"/><path d="m64.333 52.333h-.66667v.66667h.66667v-.66667z" clip-path="url(#clipEmfPath5)" style="fill:#0075bf"/><path d="m64.333 52.333h-.66667v.66667h.66667v-.66667" clip-path="url(#clipEmfPath5)" style="fill:none"/><path d="m70 50.667h-1v1h1v-1z" clip-path="url(#clipEmfPath5)" style="fill:#0075bf"/><path d="m70 50.667h-1v1h1v-1" clip-path="url(#clipEmfPath5)" style="fill:none"/><path d="m71 57.333v1h.66667v-1h-.66667z" clip-path="url(#clipEmfPath5)" style="fill:#0075bf"/><path d="m71 57.333v1h.66667v-1h-.66667" clip-path="url(#clipEmfPath5)" style="fill:none"/><path d="m67 59h-.66667v.66667h.66667v-.66667z" clip-path="url(#clipEmfPath5)" style="fill:#0075bf"/><path d="m67 59h-.66667v.66667h.66667v-.66667" clip-path="url(#clipEmfPath5)" style="fill:none"/><path d="m66.667 64v.66667h1v-.66667h-1z" clip-path="url(#clipEmfPath5)" style="fill:#0075bf"/><path d="m66.667 64v.66667h1v-.66667h-1" clip-path="url(#clipEmfPath5)" style="fill:none"/><path d="m71.667 61.333h-1v.66667h1v-.66667z" clip-path="url(#clipEmfPath5)" style="fill:#0075bf"/><path d="m71.667 61.333h-1v.66667h1v-.66667" clip-path="url(#clipEmfPath5)" style="fill:none"/><path d="m83.667 66h-10.667-12-.33333-11.667-.33333v.33333h35v-.33333z" clip-path="url(#clipEmfPath5)" style="fill:#0075bf"/><path d="m83.667 66h-10.667-12-.33333-11.667-.33333v.33333h35v-.33333" clip-path="url(#clipEmfPath5)" style="fill:none"/><path d="m49 54.333h11.667v5.6667h-11.667v-5.6667zm12 0h12v5.6667h-10-1-1v-5.6667zm-12-6h11.667v5.6667h-11.667v-5.6667zm12 0h12v5.6667h-12v-5.6667zm-12-6h11.667v5.6667h-11.667v-5.6667zm12 0h12v5.6667h-12v-5.6667zm-12-6h11.667v5.6667h-11.667v-5.6667zm12 0h12v5.6667h-12v-5.6667zm-12-6h11.667v5.6667h-3.3333-.66667-7.6667v-5.6667zm12 0h12v5.6667h-12v-5.6667zm-10.667-6h1 9.3333v5.6667h-4.6667-1-6v-5.6667h1.3333zm10.667.66667v-.66667h1 11v5.6667h-12v-5zm12-7v6h-12v-6h-.33333v6h-11.667v-6h-.33333v48h.33333v-5.6667h11.667v5.6667h.33333v-5.6667h12v5.6667-5.6667h10.667v-.33333h-10.667v-5.6667h10.667v-.33333h-10.667v-5.6667h10.667v-.33333h-10.667v-5.6667h10.667v-.33333h-10.667v-5.6667h10.667v-.33333h-.33333-.66667-9.6667v-5.6667h8.6667 1 1v-.33333h-10.667v-5.6667h8.6667.66667 1.3333v-.33333h-10.667v-6z" clip-path="url(#clipEmfPath5)" style="fill:#0075bf"/><path d="m49 54.333h11.667v5.6667h-11.667v-5.6667m12 0h12v5.6667h-10-1-1v-5.6667m-12-6h11.667v5.6667h-11.667v-5.6667m12 0h12v5.6667h-12v-5.6667m-12-6h11.667v5.6667h-11.667v-5.6667m12 0h12v5.6667h-12v-5.6667m-12-6h11.667v5.6667h-11.667v-5.6667m12 0h12v5.6667h-12v-5.6667m-12-6h11.667v5.6667h-3.3333-.66667-7.6667v-5.6667m12 0h12v5.6667h-12v-5.6667m-10.667-6h1 9.3333v5.6667h-4.6667-1-6v-5.6667h1.3333m10.667.66667v-.66667h1 11v5.6667h-12v-5m12-7v6h-12v-6h-.33333v6h-11.667v-6h-.33333v48h.33333v-5.6667h11.667v5.6667h.33333v-5.6667h12v5.6667-5.6667h10.667v-.33333h-10.667v-5.6667h10.667v-.33333h-10.667v-5.6667h10.667v-.33333h-10.667v-5.6667h10.667v-.33333h-10.667v-5.6667h10.667v-.33333h-.33333-.66667-9.6667v-5.6667h8.6667 1 1v-.33333h-10.667v-5.6667h8.6667.66667 1.3333v-.33333h-10.667v-6" clip-path="url(#clipEmfPath5)" style="fill:none"/><path d="m50.333 24.333h1-1z" clip-path="url(#clipEmfPath5)" style="fill:#0075bf"/><path d="m50.333 24.333h1-1" clip-path="url(#clipEmfPath5)" style="fill:none"/><path d="m56 30h-1 1z" clip-path="url(#clipEmfPath5)" style="fill:#0075bf"/><path d="m56 30h-1 1" clip-path="url(#clipEmfPath5)" style="fill:none"/><path d="m62 24.333h-1v.66667-.66667h1z" clip-path="url(#clipEmfPath5)" style="fill:#0075bf"/><path d="m62 24.333h-1v.66667-.66667h1" clip-path="url(#clipEmfPath5)" style="fill:none"/><path d="m57.333 36h-.66667.66667z" clip-path="url(#clipEmfPath5)" style="fill:#0075bf"/><path d="m57.333 36h-.66667.66667" clip-path="url(#clipEmfPath5)" style="fill:none"/><path d="m82.333 24.333h-.66667.66667z" clip-path="url(#clipEmfPath5)" style="fill:#0075bf"/><path d="m82.333 24.333h-.66667.66667" clip-path="url(#clipEmfPath5)" style="fill:none"/><path d="m82.667 30.333h-1 1z" clip-path="url(#clipEmfPath5)" style="fill:#0075bf"/><path d="m82.667 30.333h-1 1" clip-path="url(#clipEmfPath5)" style="fill:none"/><path d="m83.333 36h-.66667.66667z" clip-path="url(#clipEmfPath5)" style="fill:#0075bf"/><path d="m83.333 36h-.66667.66667" clip-path="url(#clipEmfPath5)" style="fill:none"/><path d="m63 60h-1 1z" clip-path="url(#clipEmfPath5)" style="fill:#0075bf"/><path d="m63 60h-1 1" clip-path="url(#clipEmfPath5)" style="fill:none"/><path d="m49 66h-.33333.33333zm12 0h-.33333.33333zm12 0z" clip-path="url(#clipEmfPath5)" style="fill:#0075bf"/><path d="m49 66h-.33333.33333m12 0h-.33333.33333m12 0" clip-path="url(#clipEmfPath5)" style="fill:none"/><path d="m48.667 18h-48 48zm-47.667-1v-1h.66667v1h-.66667zm6.6667-1.3333v-.66667h1v.66667h-1zm4.6667-3.6667h-11.667v5.6667h11.667v-5.6667zm5.6667 4.6667v-1h1v1h-1zm-4.3333-.33333v-1h.66667v1h-.66667zm8.3333-2.3333v-1h1v1h-1zm2.3333-2h-12v5.6667h12v-5.6667zm10.333 5v-.66667h.66667v.66667h-.66667zm-8-.66667v-.66667h.66667v.66667h-.66667zm4.3333-2.3333.33333-.66667h.66667v.66667h-1zm5.3333-2h-11.667v5.6667h11.667v-5.6667zm4 5v-.66667h.66667v.66667h-.66667zm5.3333-3.3333v-.66667h1v.66667h-1zm3-1.6667h-12v5.6667h12v-5.6667zm-45.667-.66667v-.66667h.66667v.66667h-.66667zm8.6667-3.3333h-1v-1l1 .33333v.66667zm-8.6667-.33333v-1h.66667v1h-.66667zm9.3333-1.6667h-11.667v5.6667h11.667v-5.6667zm6 5.6667h-.66667v-1h.66667v1zm4-1.6667v-1h.66667v1h-.66667zm2-4h-12v5.6667h1v-.66667h1v.66667h10v-5.6667zm9.3333 4.6667v-.66667h1v.66667h-1zm-7-1.6667v-1h.66667v1h-.66667zm4-2v-.66667h.66667v.66667h-.66667zm5.6667-1h-11.667v5.6667h11.667v-5.6667zm2.6667 2v-.66667h.66667v.66667h-.66667zm6.6667 0v-.66667h.66667l.33333.66667h-1zm3-2h-12v5.6667h2.3333v-.66667h1v.66667h8.6667v-5.6667zm-41-1h-1v-.66667h1v.66667zm-4.3333-3.3333v-1h.66667v1h-.66667zm9-1.6667h-11.667v5.6667h11.667v-5.6667zm2.6667 5v-1h.66667v1h-.66667zm5.3333-1.6667v-1h1v1h-1zm-7.3333-2v-1h.66667v1h-.66667zm11.333-1.3333h-12v5.6667h12v-5.6667zm1.3333 5.3333v-.66667h.66667v.66667h-.66667zm8.3333-1.3333v-.66667h.66667v.66667h-.66667zm-4.3333-3v-.66667h.66667v.66667h-.66667zm6.6667-1h-3-8.6667v5.6667h11.667v-5.6667zm6.6667 5.3333v-.66667h1v.66667h-1zm-2-3h-1v-.66667h1v.66667zm5.3333-1.3333v-1h1v1h-1zm2.3333-1h-12v5.6667h12v-5.6667z" clip-path="url(#clipEmfPath6)" style="fill:#ffffff"/><path d="m48.667 18h-48 48m-47.667-1v-1h.66667v1h-.66667m6.6667-1.3333v-.66667h1v.66667h-1m4.6667-3.6667h-11.667v5.6667h11.667v-5.6667m5.6667 4.6667v-1h1v1h-1m-4.3333-.33333v-1h.66667v1h-.66667m8.3333-2.3333v-1h1v1h-1m2.3333-2h-12v5.6667h12v-5.6667m10.333 5v-.66667h.66667v.66667h-.66667m-8-.66667v-.66667h.66667v.66667h-.66667m4.3333-2.3333.33333-.66667h.66667v.66667h-1m5.3333-2h-11.667v5.6667h11.667v-5.6667m4 5v-.66667h.66667v.66667h-.66667m5.3333-3.3333v-.66667h1v.66667h-1m3-1.6667h-12v5.6667h12v-5.6667m-45.667-.66667v-.66667h.66667v.66667h-.66667m8.6667-3.3333h-1v-1l1 .33333v.66667m-8.6667-.33333v-1h.66667v1h-.66667m9.3333-1.6667h-11.667v5.6667h11.667v-5.6667m6 5.6667h-.66667v-1h.66667v1m4-1.6667v-1h.66667v1h-.66667m2-4h-12v5.6667h1v-.66667h1v.66667h10v-5.6667m9.3333 4.6667v-.66667h1v.66667h-1m-7-1.6667v-1h.66667v1h-.66667m4-2v-.66667h.66667v.66667h-.66667m5.6667-1h-11.667v5.6667h11.667v-5.6667m2.6667 2v-.66667h.66667v.66667h-.66667m6.6667 0v-.66667h.66667l.33333.66667h-1m3-2h-12v5.6667h2.3333v-.66667h1v.66667h8.6667v-5.6667m-41-1h-1v-.66667h1v.66667m-4.3333-3.3333v-1h.66667v1h-.66667m9-1.6667h-11.667v5.6667h11.667v-5.6667m2.6667 5v-1h.66667v1h-.66667m5.3333-1.6667v-1h1v1h-1m-7.3333-2v-1h.66667v1h-.66667m11.333-1.3333h-12v5.6667h12v-5.6667m1.3333 5.3333v-.66667h.66667v.66667h-.66667m8.3333-1.3333v-.66667h.66667v.66667h-.66667m-4.3333-3v-.66667h.66667v.66667h-.66667m6.6667-1h-3-8.6667v5.6667h11.667v-5.6667m6.6667 5.3333v-.66667h1v.66667h-1m-2-3h-1v-.66667h1v.66667m5.3333-1.3333v-1h1v1h-1m2.3333-1h-12v5.6667h12v-5.6667" clip-path="url(#clipEmfPath6)" style="fill:none"/><path d="m41 1.6667h-1v.66667h1v-.66667z" clip-path="url(#clipEmfPath6)" style="fill:#0075bf"/><path d="m41 1.6667h-1v.66667h1v-.66667" clip-path="url(#clipEmfPath6)" style="fill:none"/><path d="m47.333 0h-1v1h1v-1z" clip-path="url(#clipEmfPath6)" style="fill:#0075bf"/><path d="m47.333 0h-1v1h1v-1" clip-path="url(#clipEmfPath6)" style="fill:none"/><path d="m44 4.6667h-1v.66667h1v-.66667z" clip-path="url(#clipEmfPath6)" style="fill:#0075bf"/><path d="m44 4.6667h-1v.66667h1v-.66667" clip-path="url(#clipEmfPath6)" style="fill:none"/><path d="m46.333 7.3333h-.66667v.66667h1l-.33333-.66667z" clip-path="url(#clipEmfPath6)" style="fill:#0075bf"/><path d="m46.333 7.3333h-.66667v.66667h1l-.33333-.66667" clip-path="url(#clipEmfPath6)" style="fill:none"/><path d="m39.667 7.3333h-.66667v.66667h.66667v-.66667z" clip-path="url(#clipEmfPath6)" style="fill:#0075bf"/><path d="m39.667 7.3333h-.66667v.66667h.66667v-.66667" clip-path="url(#clipEmfPath6)" style="fill:none"/><path d="m40 11h-1v.66667h1v-.66667z" clip-path="url(#clipEmfPath6)" style="fill:#0075bf"/><path d="m40 11h-1v.66667h1v-.66667" clip-path="url(#clipEmfPath6)" style="fill:none"/><path d="m46.667 13h-1v.66667h1v-.66667z" clip-path="url(#clipEmfPath6)" style="fill:#0075bf"/><path d="m46.667 13h-1v.66667h1v-.66667" clip-path="url(#clipEmfPath6)" style="fill:none"/><path d="m41 16.333h-.66667v.66667h.66667v-.66667z" clip-path="url(#clipEmfPath6)" style="fill:#0075bf"/><path d="m41 16.333h-.66667v.66667h.66667v-.66667" clip-path="url(#clipEmfPath6)" style="fill:none"/><path d="m35.333 16.333h-.66667v.66667h.66667v-.66667z" clip-path="url(#clipEmfPath6)" style="fill:#0075bf"/><path d="m35.333 16.333h-.66667v.66667h.66667v-.66667" clip-path="url(#clipEmfPath6)" style="fill:none"/><path d="m34.667 10h-1v.66667h1v-.66667z" clip-path="url(#clipEmfPath6)" style="fill:#0075bf"/><path d="m34.667 10h-1v.66667h1v-.66667" clip-path="url(#clipEmfPath6)" style="fill:none"/><path d="m32 13.333h-.66667l-.33333.66667h1v-.66667z" clip-path="url(#clipEmfPath6)" style="fill:#0075bf"/><path d="m32 13.333h-.66667l-.33333.66667h1v-.66667" clip-path="url(#clipEmfPath6)" style="fill:none"/><path d="m31.333 6.3333h-.66667v.66667h.66667v-.66667z" clip-path="url(#clipEmfPath6)" style="fill:#0075bf"/><path d="m31.333 6.3333h-.66667v.66667h.66667v-.66667" clip-path="url(#clipEmfPath6)" style="fill:none"/><path d="m34.667 3.3333h-.66667v.66667h.66667v-.66667z" clip-path="url(#clipEmfPath6)" style="fill:#0075bf"/><path d="m34.667 3.3333h-.66667v.66667h.66667v-.66667" clip-path="url(#clipEmfPath6)" style="fill:none"/><path d="m26.333 4.6667h-.66667v.66667h.66667v-.66667z" clip-path="url(#clipEmfPath6)" style="fill:#0075bf"/><path d="m26.333 4.6667h-.66667v.66667h.66667v-.66667" clip-path="url(#clipEmfPath6)" style="fill:none"/><path d="m27.333 8h-.66667v1h.66667v-1z" clip-path="url(#clipEmfPath6)" style="fill:#0075bf"/><path d="m27.333 8h-.66667v1h.66667v-1" clip-path="url(#clipEmfPath6)" style="fill:none"/><path d="m27.333 15.667h-.66667v.66667h.66667v-.66667z" clip-path="url(#clipEmfPath6)" style="fill:#0075bf"/><path d="m27.333 15.667h-.66667v.66667h.66667v-.66667" clip-path="url(#clipEmfPath6)" style="fill:none"/><path d="m30.333.33333h-.66667v.66667h.66667v-.66667z" clip-path="url(#clipEmfPath6)" style="fill:#0075bf"/><path d="m30.333.33333h-.66667v.66667h.66667v-.66667" clip-path="url(#clipEmfPath6)" style="fill:none"/><path d="m13.667.33333h-.66667v1h.66667v-1z" clip-path="url(#clipEmfPath6)" style="fill:#0075bf"/><path d="m13.667.33333h-.66667v1h.66667v-1" clip-path="url(#clipEmfPath6)" style="fill:none"/><path d="m3.3333.66667v1h.66667v-1h-.66667z" clip-path="url(#clipEmfPath6)" style="fill:#0075bf"/><path d="m3.3333.66667v1h.66667v-1h-.66667" clip-path="url(#clipEmfPath6)" style="fill:none"/><path d="m6.6667 4.3333v.66667h1v-.66667h-1z" clip-path="url(#clipEmfPath6)" style="fill:#0075bf"/><path d="m6.6667 4.3333v.66667h1v-.66667h-1" clip-path="url(#clipEmfPath6)" style="fill:none"/><path d="m3.6667 6.6667h-.66667v1h.66667v-1z" clip-path="url(#clipEmfPath6)" style="fill:#0075bf"/><path d="m3.6667 6.6667h-.66667v1h.66667v-1" clip-path="url(#clipEmfPath6)" style="fill:none"/><path d="m3.6667 10.667h-.66667v.66667h.66667v-.66667z" clip-path="url(#clipEmfPath6)" style="fill:#0075bf"/><path d="m3.6667 10.667h-.66667v.66667h.66667v-.66667" clip-path="url(#clipEmfPath6)" style="fill:none"/><path d="m1.6667 16h-.66667v1h.66667v-1z" clip-path="url(#clipEmfPath6)" style="fill:#0075bf"/><path d="m1.6667 16h-.66667v1h.66667v-1" clip-path="url(#clipEmfPath6)" style="fill:none"/><path d="m8.6667 15h-1v.66667h1v-.66667z" clip-path="url(#clipEmfPath6)" style="fill:#0075bf"/><path d="m8.6667 15h-1v.66667h1v-.66667" clip-path="url(#clipEmfPath6)" style="fill:none"/><path d="m10.667 7v1h1v-.66667l-1-.33333z" clip-path="url(#clipEmfPath6)" style="fill:#0075bf"/><path d="m10.667 7v1h1v-.66667l-1-.33333" clip-path="url(#clipEmfPath6)" style="fill:none"/><path d="m14.333 11h-1v.66667h1v-.66667z" clip-path="url(#clipEmfPath6)" style="fill:#0075bf"/><path d="m14.333 11h-1v.66667h1v-.66667" clip-path="url(#clipEmfPath6)" style="fill:none"/><path d="m14.333 15.333h-.66667v1h.66667v-1z" clip-path="url(#clipEmfPath6)" style="fill:#0075bf"/><path d="m14.333 15.333h-.66667v1h.66667v-1" clip-path="url(#clipEmfPath6)" style="fill:none"/><path d="m15.667 4h-.66667v1h.66667v-1z" clip-path="url(#clipEmfPath6)" style="fill:#0075bf"/><path d="m15.667 4h-.66667v1h.66667v-1" clip-path="url(#clipEmfPath6)" style="fill:none"/><path d="m21.333 2.3333h-1v1h1v-1z" clip-path="url(#clipEmfPath6)" style="fill:#0075bf"/><path d="m21.333 2.3333h-1v1h1v-1" clip-path="url(#clipEmfPath6)" style="fill:none"/><path d="m22.333 9v1h.66667v-1h-.66667z" clip-path="url(#clipEmfPath6)" style="fill:#0075bf"/><path d="m22.333 9v1h.66667v-1h-.66667" clip-path="url(#clipEmfPath6)" style="fill:none"/><path d="m18.333 10.667h-.66667v1h.66667v-1z" clip-path="url(#clipEmfPath6)" style="fill:#0075bf"/><path d="m18.333 10.667h-.66667v1h.66667v-1" clip-path="url(#clipEmfPath6)" style="fill:none"/><path d="m18 15.667v1h1v-1h-1z" clip-path="url(#clipEmfPath6)" style="fill:#0075bf"/><path d="m18 15.667v1h1v-1h-1" clip-path="url(#clipEmfPath6)" style="fill:none"/><path d="m23 13h-1v1h1v-1z" clip-path="url(#clipEmfPath6)" style="fill:#0075bf"/><path d="m23 13h-1v1h1v-1" clip-path="url(#clipEmfPath6)" style="fill:none"/><path d="m48.667 17.667h-12v.33333h-.33333v-.33333h-11.667v.33333h-.33333v-.33333h-12v.33333-.33333h-11.667v.33333h48v-.33333z" clip-path="url(#clipEmfPath6)" style="fill:#0075bf"/><path d="m48.667 17.667h-12v.33333h-.33333v-.33333h-11.667v.33333h-.33333v-.33333h-12v.33333-.33333h-11.667v.33333h48v-.33333" clip-path="url(#clipEmfPath6)" style="fill:none"/><path d="m12.333 6h12v5.6667h-10-1-1v-5.6667zm12.333 0h11.667v5.6667h-11.667v-5.6667zm-12.333-6h12v5.6667h-12v-5.6667zm24.333 0h-.33333v5.6667h-11.667v-5.6667h8.6667-32.667 11.667v5.6667h-11.667v.33333h11.667v5.6667h-11.667v.33333h11.667v5.6667-5.6667h12v5.6667h.33333v-5.6667h11.667v5.6667h.33333v-5.6667h12v-.33333h-8.6667-1-2.3333v-5.6667h12v-.33333h-12v-5.6667z" clip-path="url(#clipEmfPath6)" style="fill:#0075bf"/><path d="m12.333 6h12v5.6667h-10-1-1v-5.6667m12.333 0h11.667v5.6667h-11.667v-5.6667m-12.333-6h12v5.6667h-12v-5.6667m24.333 0h-.33333v5.6667h-11.667v-5.6667h8.6667-32.667 11.667v5.6667h-11.667v.33333h11.667v5.6667h-11.667v.33333h11.667v5.6667-5.6667h12v5.6667h.33333v-5.6667h11.667v5.6667h.33333v-5.6667h12v-.33333h-8.6667-1-2.3333v-5.6667h12v-.33333h-12v-5.6667" clip-path="url(#clipEmfPath6)" style="fill:none"/><path d="m40 11.667h-1 1z" clip-path="url(#clipEmfPath6)" style="fill:#0075bf"/><path d="m40 11.667h-1 1" clip-path="url(#clipEmfPath6)" style="fill:none"/><path d="m14.333 11.667h-1 1z" clip-path="url(#clipEmfPath6)" style="fill:#0075bf"/><path d="m14.333 11.667h-1 1" clip-path="url(#clipEmfPath6)" style="fill:none"/><path d="m12.333 17.667v.33333-.33333zm12.333 0h-.33333v.33333h.33333v-.33333zm12 0h-.33333v.33333h.33333v-.33333z" clip-path="url(#clipEmfPath6)" style="fill:#0075bf"/><path d="m12.333 17.667v.33333-.33333m12.333 0h-.33333v.33333h.33333v-.33333m12 0h-.33333v.33333h.33333v-.33333" clip-path="url(#clipEmfPath6)" style="fill:none"/><path d="m49.667 17v-1h.66667v1h-.66667zm6.6667-1.3333v-.66667h1v.66667h-1zm4.3333-3.6667h-11.667v5.6667h11.667v-5.6667zm6 4.6667v-1h1v1h-1zm-4.6667-.33333v-1h1v1h-1zm8.6667-2.3333v-1h1v1h-1zm2.3333-2h-12v5.6667h12v-5.6667zm2.3333 4.3333v-.66667h.66667v.66667h-.66667zm4.3333-2.3333v-.66667h1v.66667h-1zm4-2h-10.667v5.6667h10.667v-.66667h-.33333v-.66667h.33333v-4.3333zm-32.333-.66667v-.66667h1v.66667h-1zm8.6667-3.3333h-.66667v-1l.66667.33333v.66667zm-8.3333-.33333v-1h.66667v1h-.66667zm9-1.6667h-11.667v5.6667h11.667v-5.6667zm6.3333 5.6667h-.66667v-1h.66667v1zm4-1.6667v-1h.66667v1h-.66667zm2-4h-12v5.6667h1v-.66667h1v.66667h10v-5.6667zm9.3333 4.6667v-.66667h.66667v.66667h-.66667zm-7.3333-1.6667v-1h1v1h-1zm4.3333-2v-.66667h.66667v.66667h-.66667zm4.3333-1h-10.667v5.6667h10.667v-5.6667zm-27.667-1h-.66667v-.66667h.66667v.66667zm-4.3333-3.3333v-1h1v1h-1zm9-1.6667h-11.667v5.6667h11.667v-5.6667zm3 5v-1h.66667v1h-.66667zm5.3333-1.6667v-1h1v1h-1zm-7.3333-2v-1h.66667v1h-.66667zm11.333-1.3333h-12v5.6667h12v-5.6667zm-24.333 0v18h35-35v-18zm25.333 5.3333v-.66667h1v.66667h-1zm8.6667-1.3333v-.66667h.66667v.66667h-.66667zm-4.3333-3v-.66667h.66667v.66667h-.66667zm5.3333-1h-1.6667-9v5.6667h10.667v-5.6667z" clip-path="url(#clipEmfPath7)" style="fill:#ffffff"/><path d="m49.667 17v-1h.66667v1h-.66667m6.6667-1.3333v-.66667h1v.66667h-1m4.3333-3.6667h-11.667v5.6667h11.667v-5.6667m6 4.6667v-1h1v1h-1m-4.6667-.33333v-1h1v1h-1m8.6667-2.3333v-1h1v1h-1m2.3333-2h-12v5.6667h12v-5.6667m2.3333 4.3333v-.66667h.66667v.66667h-.66667m4.3333-2.3333v-.66667h1v.66667h-1m4-2h-10.667v5.6667h10.667v-.66667h-.33333v-.66667h.33333v-4.3333m-32.333-.66667v-.66667h1v.66667h-1m8.6667-3.3333h-.66667v-1l.66667.33333v.66667m-8.3333-.33333v-1h.66667v1h-.66667m9-1.6667h-11.667v5.6667h11.667v-5.6667m6.3333 5.6667h-.66667v-1h.66667v1m4-1.6667v-1h.66667v1h-.66667m2-4h-12v5.6667h1v-.66667h1v.66667h10v-5.6667m9.3333 4.6667v-.66667h.66667v.66667h-.66667m-7.3333-1.6667v-1h1v1h-1m4.3333-2v-.66667h.66667v.66667h-.66667m4.3333-1h-10.667v5.6667h10.667v-5.6667m-27.667-1h-.66667v-.66667h.66667v.66667m-4.3333-3.3333v-1h1v1h-1m9-1.6667h-11.667v5.6667h11.667v-5.6667m3 5v-1h.66667v1h-.66667m5.3333-1.6667v-1h1v1h-1m-7.3333-2v-1h.66667v1h-.66667m11.333-1.3333h-12v5.6667h12v-5.6667m-24.333 0v18h35-35v-18m25.333 5.3333v-.66667h1v.66667h-1m8.6667-1.3333v-.66667h.66667v.66667h-.66667m-4.3333-3v-.66667h.66667v.66667h-.66667m5.3333-1h-1.6667-9v5.6667h10.667v-5.6667" clip-path="url(#clipEmfPath7)" style="fill:none"/><path d="m83.667 16.333h-.33333v.66667h.33333v-.66667z" clip-path="url(#clipEmfPath7)" style="fill:#0075bf"/><path d="m83.667 16.333h-.33333v.66667h.33333v-.66667" clip-path="url(#clipEmfPath7)" style="fill:none"/><path d="m83 10h-.66667v.66667h.66667v-.66667z" clip-path="url(#clipEmfPath7)" style="fill:#0075bf"/><path d="m83 10h-.66667v.66667h.66667v-.66667" clip-path="url(#clipEmfPath7)" style="fill:none"/><path d="m80.667 13.333h-1v.66667h1v-.66667z" clip-path="url(#clipEmfPath7)" style="fill:#0075bf"/><path d="m80.667 13.333h-1v.66667h1v-.66667" clip-path="url(#clipEmfPath7)" style="fill:none"/><path d="m80 6.3333h-.66667v.66667h.66667v-.66667z" clip-path="url(#clipEmfPath7)" style="fill:#0075bf"/><path d="m80 6.3333h-.66667v.66667h.66667v-.66667" clip-path="url(#clipEmfPath7)" style="fill:none"/><path d="m83.333 3.3333h-.66667v.66667h.66667v-.66667z" clip-path="url(#clipEmfPath7)" style="fill:#0075bf"/><path d="m83.333 3.3333h-.66667v.66667h.66667v-.66667" clip-path="url(#clipEmfPath7)" style="fill:none"/><path d="m75 4.6667h-1v.66667h1v-.66667z" clip-path="url(#clipEmfPath7)" style="fill:#0075bf"/><path d="m75 4.6667h-1v.66667h1v-.66667" clip-path="url(#clipEmfPath7)" style="fill:none"/><path d="m76 8h-1v1h1v-1z" clip-path="url(#clipEmfPath7)" style="fill:#0075bf"/><path d="m76 8h-1v1h1v-1" clip-path="url(#clipEmfPath7)" style="fill:none"/><path d="m76 15.667h-.66667v.66667h.66667v-.66667z" clip-path="url(#clipEmfPath7)" style="fill:#0075bf"/><path d="m76 15.667h-.66667v.66667h.66667v-.66667" clip-path="url(#clipEmfPath7)" style="fill:none"/><path d="m79 .33333h-.66667v.66667h.66667v-.66667z" clip-path="url(#clipEmfPath7)" style="fill:#0075bf"/><path d="m79 .33333h-.66667v.66667h.66667v-.66667" clip-path="url(#clipEmfPath7)" style="fill:none"/><path d="m62.333.33333h-.66667v1h.66667v-1z" clip-path="url(#clipEmfPath7)" style="fill:#0075bf"/><path d="m62.333.33333h-.66667v1h.66667v-1" clip-path="url(#clipEmfPath7)" style="fill:none"/><path d="m51.667.66667v1h1v-1h-1z" clip-path="url(#clipEmfPath7)" style="fill:#0075bf"/><path d="m51.667.66667v1h1v-1h-1" clip-path="url(#clipEmfPath7)" style="fill:none"/><path d="m55.333 4.3333v.66667h.66667v-.66667h-.66667z" clip-path="url(#clipEmfPath7)" style="fill:#0075bf"/><path d="m55.333 4.3333v.66667h.66667v-.66667h-.66667" clip-path="url(#clipEmfPath7)" style="fill:none"/><path d="m52.333 6.6667h-.66667v1h.66667v-1z" clip-path="url(#clipEmfPath7)" style="fill:#0075bf"/><path d="m52.333 6.6667h-.66667v1h.66667v-1" clip-path="url(#clipEmfPath7)" style="fill:none"/><path d="m52.333 10.667h-1v.66667h1v-.66667z" clip-path="url(#clipEmfPath7)" style="fill:#0075bf"/><path d="m52.333 10.667h-1v.66667h1v-.66667" clip-path="url(#clipEmfPath7)" style="fill:none"/><path d="m50.333 16h-.66667v1h.66667v-1z" clip-path="url(#clipEmfPath7)" style="fill:#0075bf"/><path d="m50.333 16h-.66667v1h.66667v-1" clip-path="url(#clipEmfPath7)" style="fill:none"/><path d="m57.333 15h-1v.66667h1v-.66667z" clip-path="url(#clipEmfPath7)" style="fill:#0075bf"/><path d="m57.333 15h-1v.66667h1v-.66667" clip-path="url(#clipEmfPath7)" style="fill:none"/><path d="m59.333 7v1h.66667v-.66667l-.66667-.33333z" clip-path="url(#clipEmfPath7)" style="fill:#0075bf"/><path d="m59.333 7v1h.66667v-.66667l-.66667-.33333" clip-path="url(#clipEmfPath7)" style="fill:none"/><path d="m63 11h-1v.66667h1v-.66667z" clip-path="url(#clipEmfPath7)" style="fill:#0075bf"/><path d="m63 11h-1v.66667h1v-.66667" clip-path="url(#clipEmfPath7)" style="fill:none"/><path d="m63 15.333h-1v1h1v-1z" clip-path="url(#clipEmfPath7)" style="fill:#0075bf"/><path d="m63 15.333h-1v1h1v-1" clip-path="url(#clipEmfPath7)" style="fill:none"/><path d="m64.333 4h-.66667v1h.66667v-1z" clip-path="url(#clipEmfPath7)" style="fill:#0075bf"/><path d="m64.333 4h-.66667v1h.66667v-1" clip-path="url(#clipEmfPath7)" style="fill:none"/><path d="m70 2.3333h-1v1h1v-1z" clip-path="url(#clipEmfPath7)" style="fill:#0075bf"/><path d="m70 2.3333h-1v1h1v-1" clip-path="url(#clipEmfPath7)" style="fill:none"/><path d="m71 9v1h.66667v-1h-.66667z" clip-path="url(#clipEmfPath7)" style="fill:#0075bf"/><path d="m71 9v1h.66667v-1h-.66667" clip-path="url(#clipEmfPath7)" style="fill:none"/><path d="m67 10.667h-.66667v1h.66667v-1z" clip-path="url(#clipEmfPath7)" style="fill:#0075bf"/><path d="m67 10.667h-.66667v1h.66667v-1" clip-path="url(#clipEmfPath7)" style="fill:none"/><path d="m66.667 15.667v1h1v-1h-1z" clip-path="url(#clipEmfPath7)" style="fill:#0075bf"/><path d="m66.667 15.667v1h1v-1h-1" clip-path="url(#clipEmfPath7)" style="fill:none"/><path d="m71.667 13h-1v1h1v-1z" clip-path="url(#clipEmfPath7)" style="fill:#0075bf"/><path d="m71.667 13h-1v1h1v-1" clip-path="url(#clipEmfPath7)" style="fill:none"/><path d="m83.667 17.667h-10.667v.33333-.33333h-12v.33333h-.33333v-.33333h-11.667v.33333h-.33333 35v-.33333z" clip-path="url(#clipEmfPath7)" style="fill:#0075bf"/><path d="m83.667 17.667h-10.667v.33333-.33333h-12v.33333h-.33333v-.33333h-11.667v.33333h-.33333 35v-.33333" clip-path="url(#clipEmfPath7)" style="fill:none"/><path d="m49 6h11.667v5.6667h-11.667v-5.6667zm12 0h12v5.6667h-10-1-1v-5.6667zm-12-6h11.667v5.6667h-11.667v-5.6667zm12 0h12v5.6667h-12v-5.6667zm21 0h-33.333v18-.33333h.33333v-5.6667h11.667v5.6667h.33333v-5.6667h12v5.6667-5.6667h10.667v-.33333h-10.667v-5.6667h10.667v-.33333h-10.667v-5.6667h9z" clip-path="url(#clipEmfPath7)" style="fill:#0075bf"/><path d="m49 6h11.667v5.6667h-11.667v-5.6667m12 0h12v5.6667h-10-1-1v-5.6667m-12-6h11.667v5.6667h-11.667v-5.6667m12 0h12v5.6667h-12v-5.6667m21 0h-33.333v18-.33333h.33333v-5.6667h11.667v5.6667h.33333v-5.6667h12v5.6667-5.6667h10.667v-.33333h-10.667v-5.6667h10.667v-.33333h-10.667v-5.6667h9" clip-path="url(#clipEmfPath7)" style="fill:none"/><path d="m63 11.667h-1 1z" clip-path="url(#clipEmfPath7)" style="fill:#0075bf"/><path d="m63 11.667h-1 1" clip-path="url(#clipEmfPath7)" style="fill:none"/><path d="m49 17.667h-.33333v.33333h.33333v-.33333zm12 0h-.33333v.33333h.33333v-.33333zm12 0v.33333-.33333z" clip-path="url(#clipEmfPath7)" style="fill:#0075bf"/><path d="m49 17.667h-.33333v.33333h.33333v-.33333m12 0h-.33333v.33333h.33333v-.33333m12 0v.33333-.33333" clip-path="url(#clipEmfPath7)" style="fill:none"/><path d="m82 0h1.6667v5.6667.33333 5.6667.33333 4.3333.66667.66667.33333 6 .33333 5.6667.33333 5.6667.33333 5.6667.33333 3 .66667 2 .33333 5.6667.33333 5.6667.33333 4 1 .66667.33333 6 6 5h-10.667-12-.33333-3.3333-.66667-3-.66667-4-.33333-4.6667-.66667-6.6667-.33333-11.667-.33333-12-3.6667-.66667-2.6667-1-3.6667v-5-5.6667-.33333-6-.33333-5.6667-.33333-5.6667-.33333-5.6667-.33333-5.6667-.33333-5.6667-.33333-5.6667-.33333-5.6667-.33333-6-.33333-5.6667-.33333-5.6667-.33333-5.6667h32.667 3 .33333 12 33.333zm1.6667 0zm.33333-.33333h-.33333-83.333v84h83.667v-84z" style="fill:#0075bf"/><path d="m82 0h1.6667v5.6667.33333 5.6667.33333 4.3333.66667.66667.33333 6 .33333 5.6667.33333 5.6667.33333 5.6667.33333 3 .66667 2 .33333 5.6667.33333 5.6667.33333 4 1 .66667.33333 6 6 5h-10.667-12-.33333-3.3333-.66667-3-.66667-4-.33333-4.6667-.66667-6.6667-.33333-11.667-.33333-12-3.6667-.66667-2.6667-1-3.6667v-5-5.6667-.33333-6-.33333-5.6667-.33333-5.6667-.33333-5.6667-.33333-5.6667-.33333-5.6667-.33333-5.6667-.33333-5.6667-.33333-6-.33333-5.6667-.33333-5.6667-.33333-5.6667h32.667 3 .33333 12 33.333m1.6667 0m.33333-.33333h-.33333-83.333v84h83.667v-84" style="fill:none"/></svg>
