<?xml version="1.0" encoding="UTF-8"?>
<svg width="7.9745mm" height="7.9745mm" version="1.1" viewBox="0 0 7.9745 7.9745" xmlns="http://www.w3.org/2000/svg" xmlns:cc="http://creativecommons.org/ns#" xmlns:dc="http://purl.org/dc/elements/1.1/" xmlns:rdf="http://www.w3.org/1999/02/22-rdf-syntax-ns#">
 <defs>
  <clipPath id="clipPath85757">
   <path d="m-2.2601 2.2608h4.5212v-4.5217h-4.5212z"/>
  </clipPath>
 </defs>
 <metadata>
  <rdf:RDF>
   <cc:Work rdf:about="">
    <dc:format>image/svg+xml</dc:format>
    <dc:type rdf:resource="http://purl.org/dc/dcmitype/StillImage"/>
    <dc:title/>
   </cc:Work>
  </rdf:RDF>
 </metadata>
 <g transform="matrix(1.7639 0 0 1.7639 3.9862 3.9873)">
  <g clip-path="url(#clipPath85757)">
   <g transform="translate(1.9846)">
    <path d="m0 0c0 1.096-0.888 1.984-1.984 1.984s-1.984-0.888-1.984-1.984 0.888-1.984 1.984-1.984 1.984 0.888 1.984 1.984" fill="#fff"/>
   </g>
   <g transform="translate(1.9846)">
    <path d="m0 0c0 1.096-0.888 1.984-1.984 1.984s-1.984-0.888-1.984-1.984 0.888-1.984 1.984-1.984 1.984 0.888 1.984 1.984z" fill="none" stroke="#231f20" stroke-miterlimit="2" stroke-width=".553"/>
   </g>
   <g transform="translate(1.4055,-1.3994)">
    <path d="m0 0-2.811 2.8" fill="none" stroke="#231f20" stroke-miterlimit="2" stroke-width=".57"/>
   </g>
   <g transform="translate(-1.405,-1.3994)">
    <path d="m0 0 2.811 2.8" fill="none" stroke="#231f20" stroke-miterlimit="2" stroke-width=".57"/>
   </g>
  </g>
 </g>
</svg>
