<!-- Generated by IcoMoon.io -->
<svg version="1.1" xmlns="http://www.w3.org/2000/svg" width="1024" height="1024" viewBox="0 0 1024 1024">
<title></title>
<g id="icomoon-ignore">
</g>
<path fill="#000" d="M778.968 0c-65.438 0-126.97 25.501-173.251 71.781l-190.809 190.809c14.583-2.036 29.152-4.247 44.058-4.247 41.101 0 81.375 7.985 118.4 22.79l118.853-118.853c22.124-22.095 51.5-34.282 82.749-34.282 64.532 0 117.031 52.499 117.031 117.031 0 31.251-12.187 60.625-34.282 82.749l-213.934 213.938c-44.251 44.187-121.25 44.219-165.501 0.032l-90.438 90.563c46.251 46.219 107.781 71.688 173.187 71.688 65.438 0 126.968-25.501 173.251-71.781l213.938-213.938c46.281-46.281 71.781-107.813 71.781-173.251-0.002-135.124-109.909-245.030-245.034-245.030zM445.512 743.989l-117.73 117.73c-22.124 22.095-51.5 34.282-82.749 34.282-64.532 0-117.031-52.499-117.031-117.031 0-31.249 12.187-60.625 34.282-82.749l213.938-213.938c44.251-44.187 121.25-44.219 165.501-0.032l90.438-90.563c-92.531-92.438-253.875-92.468-346.438 0.093l-213.94 213.938c-46.283 46.281-71.781 107.811-71.781 173.249 0 135.126 109.907 245.030 245.030 245.030 65.438 0 126.968-25.501 173.251-71.781l188.276-188.276c-13.747 1.847-27.422 4.058-41.528 4.058-41.734 0.002-82.155-8.342-119.518-24.009z"></path>
</svg>
