<!-- Generated by IcoMoon.io -->
<svg version="1.1" xmlns="http://www.w3.org/2000/svg" width="1024" height="1024" viewBox="0 0 1024 1024">
<title></title>
<g id="icomoon-ignore">
</g>
<path d="M744.862 20.368l-708.536 708.545 265.703 265.703 708.536-708.545-265.703-265.703zM302.026 906.046l-177.133-177.133 66.423-66.426 88.567 88.57 44.285-44.285-88.564-88.57 44.282-44.282 44.285 44.282 44.282-44.282-44.282-44.282 44.285-44.294 88.567 88.576 44.285-44.282-88.567-88.576 44.282-44.285 44.285 44.285 44.285-44.285-44.285-44.285 44.285-44.285 88.564 88.57 44.285-44.285-88.567-88.567 44.282-44.285 44.285 44.285 44.282-44.285-44.282-44.285 66.426-66.426 177.133 177.133-619.972 619.981z"></path>
</svg>
