<?xml version="1.0" encoding="UTF-8"?>
<!-- Created with Inkscape (http://www.inkscape.org/) -->
<svg width="12.576" height="4.2576" version="1.1" viewBox="0 0 12.576 4.2576" xml:space="preserve" xmlns="http://www.w3.org/2000/svg" xmlns:cc="http://creativecommons.org/ns#" xmlns:dc="http://purl.org/dc/elements/1.1/" xmlns:rdf="http://www.w3.org/1999/02/22-rdf-syntax-ns#"><metadata><rdf:RDF><cc:Work rdf:about=""><dc:format>image/svg+xml</dc:format><dc:type rdf:resource="http://purl.org/dc/dcmitype/StillImage"/><dc:title/></cc:Work></rdf:RDF></metadata><defs><clipPath id="clipPath866"><path d="M 0,3.193 H 9.432 V 0 H 0 Z"/></clipPath></defs><g transform="matrix(1.3333 0 0 -1.3333 0 4.2576)"><g clip-path="url(#clipPath866)"><g transform="translate(.4631 1.5687)"><path d="m0 0h8.537" style="fill:none;stroke-miterlimit:10;stroke-width:1.559;stroke:#ed1c24"/></g><g transform="translate(.4631 1.5687)"><path d="m0 0h8.537" style="fill:none;stroke-miterlimit:10;stroke-width:.992;stroke:#ffffff"/></g><g transform="translate(.4631 1.5687)"><path d="m0 0h8.537" style="fill:none;stroke-miterlimit:10;stroke-width:.425;stroke:#127bca"/></g><g transform="translate(9.321,2.5985)"><path d="m0 0c0-.195-.158-.354-.354-.354s-.354.159-.354.354c0 .197.158.354.354.354s.354-.157.354-.354" style="fill:#ed1c24"/></g><g transform="translate(9.321 .5375)"><path d="m0 0c0-.195-.158-.354-.354-.354s-.354.159-.354.354c0 .196.158.354.354.354s.354-.158.354-.354" style="fill:#ed1c24"/></g><g transform="translate(.8171 2.5985)"><path d="m0 0c0-.195-.158-.354-.354-.354s-.354.159-.354.354c0 .197.158.354.354.354s.354-.157.354-.354" style="fill:#ed1c24"/></g><g transform="translate(.8171 .5375)"><path d="m0 0c0-.195-.158-.354-.354-.354s-.354.159-.354.354c0 .196.158.354.354.354s.354-.158.354-.354" style="fill:#ed1c24"/></g></g></g></svg>
