<?xml version="1.0" encoding="UTF-8"?>
<!-- Created with Inkscape (http://www.inkscape.org/) -->
<svg width="16.242" height="4" version="1.1" viewBox="0 0 16.242 4" xml:space="preserve" xmlns="http://www.w3.org/2000/svg" xmlns:cc="http://creativecommons.org/ns#" xmlns:dc="http://purl.org/dc/elements/1.1/" xmlns:rdf="http://www.w3.org/1999/02/22-rdf-syntax-ns#"><metadata><rdf:RDF><cc:Work rdf:about=""><dc:format>image/svg+xml</dc:format><dc:type rdf:resource="http://purl.org/dc/dcmitype/StillImage"/><dc:title/></cc:Work></rdf:RDF></metadata><g transform="matrix(1.3333 0 0 -1.3333 0 4)"><g transform="translate(.094188 .53373)"><g transform="translate(.9006 1.0375)"><path d="m0 0h10.443" style="fill:none;stroke-miterlimit:10;stroke-width:.227;stroke:#231f20"/></g><g transform="translate(11.218 1.2042)"><path d="m0 0-.606.807-.171-.13.646-.859-.625-.848.169-.121.587.798.607-.788.171.123-.647.846.637.861-.172.129z" style="fill:#231f20"/></g><g transform="translate(.9054 1.2042)"><path d="m0 0-.607.807-.171-.13.647-.859-.626-.848.169-.121.588.798.607-.788.172.123-.648.846.636.861-.172.129z" style="fill:#231f20"/></g></g></g></svg>
