<?xml version="1.0" encoding="UTF-8"?>
<svg width="9.7719mm" height="11.747mm" version="1.1" viewBox="0 0 9.7719 11.747" xmlns="http://www.w3.org/2000/svg" xmlns:cc="http://creativecommons.org/ns#" xmlns:dc="http://purl.org/dc/elements/1.1/" xmlns:rdf="http://www.w3.org/1999/02/22-rdf-syntax-ns#">
 <defs>
  <clipPath id="clipPath84343">
   <path d="m-2.77 3.3301h5.54v-6.6602h-5.54z"/>
  </clipPath>
 </defs>
 <metadata>
  <rdf:RDF>
   <cc:Work rdf:about="">
    <dc:format>image/svg+xml</dc:format>
    <dc:type rdf:resource="http://purl.org/dc/dcmitype/StillImage"/>
    <dc:title/>
   </cc:Work>
  </rdf:RDF>
 </metadata>
 <g transform="matrix(1.7639 0 0 1.7639 4.886 5.8736)">
  <g clip-path="url(#clipPath84343)">
   <g transform="translate(-2.77 .1191)">
    <path d="m0 0 5.19-0.1-4.92 1.362 0.19 0.25 4.73-1.58-4.06 2.648 0.3 0.102 3.77-2.711-2.79 3.121 0.28 0.049 2.53-3.141-1.71 3.211 0.19-0.02 1.54-3.16-0.38 1.561 0.43 0.01v-0.981l0.18-0.291 0.07-0.43-0.06-0.4-0.18-0.33 0.01-0.988h-0.42l0.37 1.58-1.51-3.192-0.19-0.019 1.68 3.24-2.51-3.16-0.27 0.019 2.76 3.161-3.75-2.77-0.3 0.109 4.03 2.692-4.72-1.631-0.19 0.26 4.91 1.4-5.2-0.15z" fill="#ec008c" fill-rule="evenodd"/>
   </g>
  </g>
 </g>
</svg>
