<?xml version="1.0" encoding="UTF-8"?>
<svg width="13.246mm" height="8.5188mm" version="1.1" viewBox="0 0 13.246 8.5188" xmlns="http://www.w3.org/2000/svg" xmlns:cc="http://creativecommons.org/ns#" xmlns:dc="http://purl.org/dc/elements/1.1/" xmlns:rdf="http://www.w3.org/1999/02/22-rdf-syntax-ns#">
 <defs>
  <clipPath id="clipPath87007">
   <path d="m-3.7549 2.4148h7.5098v-4.8296h-7.5098z"/>
  </clipPath>
 </defs>
 <metadata>
  <rdf:RDF>
   <cc:Work rdf:about="">
    <dc:format>image/svg+xml</dc:format>
    <dc:type rdf:resource="http://purl.org/dc/dcmitype/StillImage"/>
    <dc:title/>
   </cc:Work>
  </rdf:RDF>
 </metadata>
 <g transform="matrix(1.7639 0 0 1.7639 6.6232 4.2594)">
  <g clip-path="url(#clipPath87007)">
   <g transform="translate(3.7549,-2.2849)">
    <path d="m0 0-0.37-0.08-0.38-0.04-0.38-0.01-0.38 0.03-0.38 0.06-0.36 0.1-0.36 0.13-0.35 0.16-0.32 0.2-0.31 0.23-0.28 0.25-0.26 0.28-0.18 0.24-2.55 3 0.19 0.15 0.41-0.53 0.43-0.52 0.47-0.48 0.48-0.46 0.52-0.44 0.53-0.4 0.56-0.38 0.58-0.35 0.59-0.31 0.61-0.29 0.62-0.25 0.64-0.22z" fill="#231f20" fill-rule="evenodd"/>
   </g>
   <g transform="translate(-3.7549,-2.2849)">
    <path d="m0 0 0.23 0.07 0.63 0.22 0.63 0.25 0.6 0.29 0.6 0.31 0.58 0.35 0.55 0.38 0.54 0.4 0.51 0.44 0.49 0.46 0.46 0.48 0.44 0.52 0.41 0.53 0.19-0.15-2.55-3-0.19-0.24-0.25-0.28-0.29-0.25-0.3-0.23-0.33-0.2-0.34-0.16-0.36-0.13-0.37-0.1-0.37-0.06-0.38-0.03-0.39 0.01-0.37 0.04z" fill="#231f20" fill-rule="evenodd"/>
   </g>
   <g transform="translate(-2.2349,1.2351)">
    <path d="m0 0-0.11-0.11-0.13-0.09-0.15-0.05-0.16-0.02-0.15 0.02-0.15 0.05-0.13 0.09-0.11 0.11-0.09 0.14-0.04 0.15-0.02 0.15 0.02 0.16 0.06 0.15 0.09 0.13 0.12 0.1 0.08 0.05 0.13-0.02-0.09-0.06-0.12-0.09-0.09-0.11-0.07-0.13-0.03-0.14v-0.15l0.05-0.14 0.07-0.12 0.1-0.11 0.12-0.08 0.14-0.04 0.15-0.01 0.14 0.02 0.13 0.06 0.12 0.1 0.05 0.05 0.33 0.4 0.05-0.03z" fill="#231f20" fill-rule="evenodd"/>
   </g>
   <g transform="translate(2.2148,1.2351)">
    <path d="m0 0h0.01l-0.31 0.43 0.04 0.03 0.34-0.4 0.05-0.05 0.11-0.1 0.13-0.06 0.15-0.02 0.14 0.01 0.14 0.04 0.13 0.08 0.1 0.11 0.07 0.12 0.04 0.14v0.15l-0.03 0.14-0.06 0.13-0.1 0.11-0.12 0.09h0.01l-0.1 0.06 0.14 0.02 0.08-0.05 0.11-0.1 0.09-0.13 0.06-0.15 0.02-0.16-0.01-0.15-0.05-0.15-0.08-0.14-0.11-0.11-0.13-0.09-0.15-0.05-0.16-0.02-0.16 0.02-0.14 0.05-0.14 0.09z" fill="#231f20" fill-rule="evenodd"/>
   </g>
  </g>
 </g>
</svg>
