<?xml version="1.0" encoding="UTF-8"?>
<svg width="17.977mm" height="12.47mm" version="1.1" viewBox="0 0 17.977 12.47" xmlns="http://www.w3.org/2000/svg" xmlns:cc="http://creativecommons.org/ns#" xmlns:dc="http://purl.org/dc/elements/1.1/" xmlns:rdf="http://www.w3.org/1999/02/22-rdf-syntax-ns#">
 <defs>
  <clipPath id="clipPath86919">
   <path d="m-3.4914 3.4002h10.192v-7.07h-10.192z"/>
  </clipPath>
 </defs>
 <metadata>
  <rdf:RDF>
   <cc:Work rdf:about="">
    <dc:format>image/svg+xml</dc:format>
    <dc:type rdf:resource="http://purl.org/dc/dcmitype/StillImage"/>
    <dc:title/>
   </cc:Work>
  </rdf:RDF>
 </metadata>
 <g transform="matrix(1.7639 0 0 1.7639 6.1585 6.4728)">
  <g clip-path="url(#clipPath86919)">
   <g transform="translate(3.3999,-3.1203)">
    <path d="m0 0-0.851 0.29" fill="none" stroke="#ed1c24" stroke-miterlimit="2" stroke-width=".567"/>
   </g>
   <g transform="translate(3.3999,-3.1203)">
    <path d="m0 0-0.851-0.28" fill="none" stroke="#ed1c24" stroke-miterlimit="2" stroke-width=".567"/>
   </g>
   <g transform="translate(-3.3999,-3.1203)">
    <path d="m0 0 0.85 0.29" fill="none" stroke="#ed1c24" stroke-miterlimit="2" stroke-width=".567"/>
   </g>
   <g transform="translate(-3.3999,-3.1203)">
    <path d="m0 0 0.85-0.28" fill="none" stroke="#ed1c24" stroke-miterlimit="2" stroke-width=".567"/>
   </g>
   <g transform="translate(-3.3999,-3.1203)">
    <path d="m0 0h6.8" fill="none" stroke="#ed1c24" stroke-miterlimit="2" stroke-width=".567"/>
   </g>
   <g transform="translate(1.4205,-2e-4)">
    <path d="m0 0h1.979" fill="none" stroke="#ed1c24" stroke-miterlimit="2" stroke-width=".567"/>
   </g>
   <g transform="translate(5e-4,1.4198)">
    <path d="m0 0v1.98" fill="none" stroke="#ed1c24" stroke-miterlimit="2" stroke-width=".567"/>
   </g>
   <g transform="translate(-1.4204,-2e-4)">
    <path d="m0 0h-1.979" fill="none" stroke="#ed1c24" stroke-miterlimit="2" stroke-width=".567"/>
   </g>
   <g transform="translate(5e-4,-1.4201)">
    <path d="m0 0v-1.7" fill="none" stroke="#ed1c24" stroke-miterlimit="2" stroke-width=".567"/>
   </g>
   <g transform="translate(1.4175 -.0128)">
    <path d="m0 0c0 0.783-0.634 1.417-1.417 1.417s-1.417-0.634-1.417-1.417c0-0.782 0.634-1.417 1.417-1.417s1.417 0.635 1.417 1.417" fill="#fff"/>
   </g>
   <g transform="translate(1.4175 -.0128)">
    <path d="m0 0c0 0.783-0.634 1.417-1.417 1.417s-1.417-0.634-1.417-1.417c0-0.782 0.634-1.417 1.417-1.417s1.417 0.635 1.417 1.417z" fill="none" stroke="#ed1c24" stroke-miterlimit="2" stroke-width=".564"/>
   </g>
   <g transform="translate(3.8926,1.7402)">
    <path d="m0 0v-3.579h0.474v1.47h1.86v-1.47h0.474v3.579h-0.474v-1.687h-1.86v1.687z" fill="#ed1c24"/>
   </g>
  </g>
 </g>
</svg>
