<?xml version="1.0" encoding="UTF-8"?>
<svg width="7.9992mm" height="8.0571mm" version="1.1" viewBox="0 0 7.9992 8.0571" xmlns="http://www.w3.org/2000/svg" xmlns:cc="http://creativecommons.org/ns#" xmlns:dc="http://purl.org/dc/elements/1.1/" xmlns:rdf="http://www.w3.org/1999/02/22-rdf-syntax-ns#">
 <defs>
  <clipPath id="clipPath85533">
   <path d="m-2.2677 2.2843h4.5354v-4.5682h-4.5354z"/>
  </clipPath>
 </defs>
 <metadata>
  <rdf:RDF>
   <cc:Work rdf:about="">
    <dc:format>image/svg+xml</dc:format>
    <dc:type rdf:resource="http://purl.org/dc/dcmitype/StillImage"/>
    <dc:title/>
   </cc:Work>
  </rdf:RDF>
 </metadata>
 <g transform="matrix(1.7639 0 0 1.7639 3.9996 4.0278)">
  <g clip-path="url(#clipPath85533)">
   <g transform="translate(2.126)">
    <path d="m0 0c0 1.184-0.952 2.143-2.126 2.143s-2.126-0.959-2.126-2.143c0-1.183 0.952-2.142 2.126-2.142s2.126 0.959 2.126 2.142" fill="#fff"/>
   </g>
   <g transform="translate(2.126)">
    <path d="m0 0c0 1.184-0.952 2.143-2.126 2.143s-2.126-0.959-2.126-2.143c0-1.183 0.952-2.142 2.126-2.142s2.126 0.959 2.126 2.142z" fill="none" stroke="#231f20" stroke-miterlimit="2" stroke-width=".283"/>
   </g>
   <g transform="translate(-2.1147 .001)">
    <path d="m0 0h4.229" fill="#fff"/>
   </g>
   <g transform="translate(-2.1147 .001)">
    <path d="m0 0h4.229" fill="none" stroke="#231f20" stroke-miterlimit="2" stroke-width=".283"/>
   </g>
   <g transform="translate(-1.7251,1.2207)">
    <path d="m0 0h3.45" fill="#fff"/>
   </g>
   <g transform="translate(-1.7251,1.2207)">
    <path d="m0 0h3.45" fill="none" stroke="#231f20" stroke-miterlimit="2" stroke-width=".283"/>
   </g>
   <g transform="translate(-1.7251,-1.2197)">
    <path d="m0 0h3.45" fill="#fff"/>
   </g>
   <g transform="translate(-1.7251,-1.2197)">
    <path d="m0 0h3.45" fill="none" stroke="#231f20" stroke-miterlimit="2" stroke-width=".283"/>
   </g>
  </g>
 </g>
</svg>
