<?xml version="1.0" encoding="UTF-8"?>
<svg width="45mm" height="1mm" version="1.0" xmlns="http://www.w3.org/2000/svg" xmlns:cc="http://creativecommons.org/ns#" xmlns:dc="http://purl.org/dc/elements/1.1/" xmlns:rdf="http://www.w3.org/1999/02/22-rdf-syntax-ns#"><metadata><rdf:RDF><cc:Work rdf:about=""><dc:format>image/svg+xml</dc:format><dc:type rdf:resource="http://purl.org/dc/dcmitype/StillImage"/><dc:title/></cc:Work></rdf:RDF></metadata><path d="m.33333.66667h12m1.3333 0h1.3333m1.3333 0h12m1.3333 0h1.3333m1.3333 0h12m1.3333 0h1.3333m1.3333 0h12m1.3333 0h1.3333m1.3333 0h12m1.3333 0h1.3333m1.3333 0h12m1.3333 0h1.3333m1.3333 0h12m1.3333 0h1.3333m1.3333 0h12m1.3333 0h1.3333m1.3333 0h12m1.3333 0h1.3333m1.3333 0h12m1.3333 0h1.3333m1.3333 0h12m1.3333 0h1.3333m1.3333 0h4" style="fill:none;stroke-dasharray:12,1.3333333,1.3333333,1.3333333;stroke-miterlimit:10;stroke-width:1.5px;stroke:#0075bf"/></svg>
