<?xml version="1.0" encoding="UTF-8"?>
<svg width="9.9285mm" height="5.4998mm" version="1.1" viewBox="0 0 9.9285 5.4998" xmlns="http://www.w3.org/2000/svg" xmlns:cc="http://creativecommons.org/ns#" xmlns:dc="http://purl.org/dc/elements/1.1/" xmlns:rdf="http://www.w3.org/1999/02/22-rdf-syntax-ns#">
 <defs>
  <clipPath id="clipPath84243">
   <path d="m-2.8144 1.5602h5.6289v-3.1184h-5.6289z"/>
  </clipPath>
 </defs>
 <metadata>
  <rdf:RDF>
   <cc:Work rdf:about="">
    <dc:format>image/svg+xml</dc:format>
    <dc:type rdf:resource="http://purl.org/dc/dcmitype/StillImage"/>
    <dc:title/>
   </cc:Work>
  </rdf:RDF>
 </metadata>
 <g transform="matrix(1.7639 0 0 1.7639 4.9641 2.7481)">
  <g clip-path="url(#clipPath84243)">
   <g transform="translate(2.8145,5e-4)">
    <path d="m0 0h-1.409" fill="none" stroke="#127bca" stroke-miterlimit="2" stroke-width=".283"/>
   </g>
   <g transform="translate(-1.4043,5e-4)">
    <path d="m0 0h-1.41" fill="none" stroke="#127bca" stroke-miterlimit="2" stroke-width=".283"/>
   </g>
   <g transform="translate(1.4302,5e-4)">
    <path d="m0 0c0 0.783-0.635 1.418-1.417 1.418-0.783 0-1.417-0.635-1.417-1.418 0-0.782 0.634-1.417 1.417-1.417 0.782 0 1.417 0.635 1.417 1.417" fill="#fff" fill-rule="evenodd"/>
   </g>
   <g transform="translate(1.4302,5e-4)">
    <path d="m0 0c0 0.783-0.635 1.418-1.417 1.418-0.783 0-1.417-0.635-1.417-1.418 0-0.782 0.634-1.417 1.417-1.417 0.782 0 1.417 0.635 1.417 1.417z" fill="none" stroke="#127bca" stroke-miterlimit="2" stroke-width=".283"/>
   </g>
  </g>
 </g>
</svg>
