<?xml version="1.0" encoding="UTF-8"?>
<!-- Created with Inkscape (http://www.inkscape.org/) -->
<svg width="41.575" height="4" version="1.1" viewBox="0 0 41.575 4" xml:space="preserve" xmlns="http://www.w3.org/2000/svg" xmlns:cc="http://creativecommons.org/ns#" xmlns:dc="http://purl.org/dc/elements/1.1/" xmlns:rdf="http://www.w3.org/1999/02/22-rdf-syntax-ns#"><metadata><rdf:RDF><cc:Work rdf:about=""><dc:format>image/svg+xml</dc:format><dc:type rdf:resource="http://purl.org/dc/dcmitype/StillImage"/><dc:title/></cc:Work></rdf:RDF></metadata><defs><clipPath id="clipPath26"><path d="m0 3h31.181v-3h-31.181z"/></clipPath><clipPath id="clipPath34"><path d="m1.7025 2.126h26.221v-1.4173h-26.221z"/></clipPath></defs><g transform="matrix(1.3333 0 0 -1.3333 0 4)"><g clip-path="url(#clipPath26)"><g clip-path="url(#clipPath34)"><g transform="translate(2.4111,1.1336)"><path d="m0 0v.567zm1.701 0h1.134v.567h-1.134zm2.268 0h1.134v.567h-1.134zm9.637 0v.567zm1.701 0h1.134v.567h-1.134zm2.268 0h1.134v.567h-1.134z" style="fill:#231f20"/></g><g transform="translate(2.4111,1.1336)"><path d="m0 0v.567zm6.236 0h1.134v.567h-1.134zm2.268 0h1.134v.567h-1.134zm5.102 0v.567zm6.237 0h1.134v.567h-1.134zm2.267 0h1.134v.567h-1.134z" style="fill:#231f20"/></g><g transform="translate(2.4111,1.1336)"><path d="m0 0v.567zm10.772 0h1.134v.567h-1.134zm2.834 0v.567zm10.772 0h1.134v.567h-1.134z" style="fill:#231f20"/></g><g transform="translate(2.4111 .7083)"><path d="m0 0c.392 0 .709.317.709.709s-.317.708-.709.708c-.391 0-.708-.316-.708-.708s.317-.709.708-.709m13.606 0c.392 0 .709.317.709.709s-.317.708-.709.708c-.391 0-.709-.316-.709-.708s.318-.709.709-.709" style="fill:#231f20"/></g></g></g></g></svg>
