<?xml version="1.0" encoding="UTF-8"?>
<svg width="11.766mm" height="13.92mm" version="1.1" viewBox="0 0 11.766 13.92" xmlns="http://www.w3.org/2000/svg" xmlns:cc="http://creativecommons.org/ns#" xmlns:dc="http://purl.org/dc/elements/1.1/" xmlns:rdf="http://www.w3.org/1999/02/22-rdf-syntax-ns#">
 <defs>
  <clipPath id="clipPath86869">
   <path d="m-3.3349 3.9469h6.6707v-7.8938h-6.6707z"/>
  </clipPath>
 </defs>
 <metadata>
  <rdf:RDF>
   <cc:Work rdf:about="">
    <dc:format>image/svg+xml</dc:format>
    <dc:type rdf:resource="http://purl.org/dc/dcmitype/StillImage"/>
    <dc:title/>
   </cc:Work>
  </rdf:RDF>
 </metadata>
 <g transform="matrix(1.7639 0 0 1.7639 5.8823 6.958)">
  <g clip-path="url(#clipPath86869)">
   <g transform="translate(-3.3349,3.6634)">
    <path d="m0 0h4.76" fill="#fff"/>
   </g>
   <g transform="translate(-3.3349,3.6634)">
    <path d="m0 0h4.76" fill="none" stroke="#231f20" stroke-miterlimit="2" stroke-width=".567"/>
   </g>
   <g transform="translate(.3351 -.7067)">
    <path d="m0 0-1.3 1.051" fill="#fff"/>
   </g>
   <g transform="translate(.3351 -.7067)">
    <path d="m0 0-1.3 1.051" fill="none" stroke="#231f20" stroke-miterlimit="2" stroke-width=".567"/>
   </g>
   <g transform="translate(-2.6747,3.6634)">
    <path d="m0 0 0.8-3.31h1.85l0.789 3.31z" fill="#fff"/>
   </g>
   <g transform="translate(-2.6747,3.6634)">
    <path d="m0 0 0.8-3.31h1.85l0.789 3.31z" fill="none" stroke="#231f20" stroke-miterlimit="2" stroke-width=".567"/>
   </g>
   <g transform="translate(1.3248,-1.5114)">
    <path d="m0 0 0.239-0.211" fill="#fff"/>
   </g>
   <g transform="translate(1.3248,-1.5114)">
    <path d="m0 0 0.239-0.211" fill="none" stroke="#231f20" stroke-miterlimit="2" stroke-width=".567"/>
   </g>
   <g transform="translate(2.9151 .7035)">
    <path d="m0 0-3.439-4.229-0.071 0.069-0.07 0.11-0.04 0.14-0.021 0.16v0.18l0.031 0.2 0.049 0.221 0.081 0.229 0.1 0.24 0.12 0.241 0.14 0.25 0.16 0.259 0.17 0.25 0.19 0.241 0.19 0.239 0.21 0.221 0.22 0.209 0.21 0.19 0.219 0.17 0.211 0.16 0.21 0.12 0.21 0.1 0.19 0.08 0.179 0.051 0.171 0.019 0.14-0.01 0.13-0.04z" fill="#fff"/>
   </g>
   <g transform="translate(2.9151 .7035)">
    <path d="m0 0-3.439-4.229-0.071 0.069-0.07 0.11-0.04 0.14-0.021 0.16v0.18l0.031 0.2 0.049 0.221 0.081 0.229 0.1 0.24 0.12 0.241 0.14 0.25 0.16 0.259 0.17 0.25 0.19 0.241 0.19 0.239 0.21 0.221 0.22 0.209 0.21 0.19 0.219 0.17 0.211 0.16 0.21 0.12 0.21 0.1 0.19 0.08 0.179 0.051 0.171 0.019 0.14-0.01 0.13-0.04z" fill="none" stroke="#231f20" stroke-miterlimit="2" stroke-width=".567"/>
   </g>
  </g>
 </g>
</svg>
