<?xml version="1.0" encoding="UTF-8"?>
<svg width="23mm" height="23mm" version="1.0" xmlns="http://www.w3.org/2000/svg" xmlns:cc="http://creativecommons.org/ns#" xmlns:dc="http://purl.org/dc/elements/1.1/" xmlns:rdf="http://www.w3.org/1999/02/22-rdf-syntax-ns#"><metadata><rdf:RDF><cc:Work rdf:about=""><dc:format>image/svg+xml</dc:format><dc:type rdf:resource="http://purl.org/dc/dcmitype/StillImage"/><dc:title/></cc:Work></rdf:RDF></metadata><defs><clipPath id="clipEmfPath1"><path d="m83.679 85.359h-83.039v-85.039h83.039z"/></clipPath></defs><path d="m-40-1.36 66.64-66.96" clip-path="url(#clipEmfPath1)" style="fill:none;stroke-miterlimit:2;stroke-width:.32px;stroke:#52ae32"/><path d="m-42.64-4 66.64-67.04" clip-path="url(#clipEmfPath1)" style="fill:none;stroke-miterlimit:2;stroke-width:.32px;stroke:#52ae32"/><path d="m-45.36-6.64 66.72-67.04" clip-path="url(#clipEmfPath1)" style="fill:none;stroke-miterlimit:2;stroke-width:.32px;stroke:#52ae32"/><path d="m-48-9.3599 66.64-66.96" clip-path="url(#clipEmfPath1)" style="fill:none;stroke-miterlimit:2;stroke-width:.32px;stroke:#52ae32"/><path d="m-50.64-12 66.64-67.04" clip-path="url(#clipEmfPath1)" style="fill:none;stroke-miterlimit:2;stroke-width:.32px;stroke:#52ae32"/><path d="m-53.36-14.64 66.72-67.04" clip-path="url(#clipEmfPath1)" style="fill:none;stroke-miterlimit:2;stroke-width:.32px;stroke:#52ae32"/><path d="m-56-17.36 66.64-66.96" clip-path="url(#clipEmfPath1)" style="fill:none;stroke-miterlimit:2;stroke-width:.32px;stroke:#52ae32"/><path d="m-58.64-20 66.64-67.04" clip-path="url(#clipEmfPath1)" style="fill:none;stroke-miterlimit:2;stroke-width:.32px;stroke:#52ae32"/><path d="m-61.36-22.64 66.72-67.04" clip-path="url(#clipEmfPath1)" style="fill:none;stroke-miterlimit:2;stroke-width:.32px;stroke:#52ae32"/><path d="m-64-25.36 66.64-66.96" clip-path="url(#clipEmfPath1)" style="fill:none;stroke-miterlimit:2;stroke-width:.32px;stroke:#52ae32"/><path d="m-66.64-28 66.64-67.04" clip-path="url(#clipEmfPath1)" style="fill:none;stroke-miterlimit:2;stroke-width:.32px;stroke:#52ae32"/><path d="m-69.359-31.04 66.72-66.64" clip-path="url(#clipEmfPath1)" style="fill:none;stroke-miterlimit:2;stroke-width:.32px;stroke:#52ae32"/><path d="m-71.999-33.68 66.64-66.64" clip-path="url(#clipEmfPath1)" style="fill:none;stroke-miterlimit:2;stroke-width:.32px;stroke:#52ae32"/><path d="m126.64 165.36 67.04-66.72" clip-path="url(#clipEmfPath1)" style="fill:none;stroke-miterlimit:2;stroke-width:.32px;stroke:#52ae32"/><path d="m124 162.64 67.04-66.64" clip-path="url(#clipEmfPath1)" style="fill:none;stroke-miterlimit:2;stroke-width:.32px;stroke:#52ae32"/><path d="m121.36 160 66.96-66.64" clip-path="url(#clipEmfPath1)" style="fill:none;stroke-miterlimit:2;stroke-width:.32px;stroke:#52ae32"/><path d="m118.64 157.36 67.04-66.72" clip-path="url(#clipEmfPath1)" style="fill:none;stroke-miterlimit:2;stroke-width:.32px;stroke:#52ae32"/><path d="m116 154.64 67.04-66.64" clip-path="url(#clipEmfPath1)" style="fill:none;stroke-miterlimit:2;stroke-width:.32px;stroke:#52ae32"/><path d="m113.36 152 66.96-66.64" clip-path="url(#clipEmfPath1)" style="fill:none;stroke-miterlimit:2;stroke-width:.32px;stroke:#52ae32"/><path d="m110.64 149.36 67.04-66.72" clip-path="url(#clipEmfPath1)" style="fill:none;stroke-miterlimit:2;stroke-width:.32px;stroke:#52ae32"/><path d="m108 146.64 67.04-66.64" clip-path="url(#clipEmfPath1)" style="fill:none;stroke-miterlimit:2;stroke-width:.32px;stroke:#52ae32"/><path d="m105.36 144 66.96-66.64" clip-path="url(#clipEmfPath1)" style="fill:none;stroke-miterlimit:2;stroke-width:.32px;stroke:#52ae32"/><path d="m102.64 141.36 67.04-66.72" clip-path="url(#clipEmfPath1)" style="fill:none;stroke-miterlimit:2;stroke-width:.32px;stroke:#52ae32"/><path d="m99.999 138.64 67.04-66.64" clip-path="url(#clipEmfPath1)" style="fill:none;stroke-miterlimit:2;stroke-width:.32px;stroke:#52ae32"/><path d="m97.359 136 66.96-66.64" clip-path="url(#clipEmfPath1)" style="fill:none;stroke-miterlimit:2;stroke-width:.32px;stroke:#52ae32"/><path d="m94.639 133.36 67.04-66.72" clip-path="url(#clipEmfPath1)" style="fill:none;stroke-miterlimit:2;stroke-width:.32px;stroke:#52ae32"/><path d="m91.999 130.64 67.04-66.64" clip-path="url(#clipEmfPath1)" style="fill:none;stroke-miterlimit:2;stroke-width:.32px;stroke:#52ae32"/><path d="m89.359 128 66.96-66.64" clip-path="url(#clipEmfPath1)" style="fill:none;stroke-miterlimit:2;stroke-width:.32px;stroke:#52ae32"/><path d="m86.639 125.36 67.04-66.72" clip-path="url(#clipEmfPath1)" style="fill:none;stroke-miterlimit:2;stroke-width:.32px;stroke:#52ae32"/><path d="m83.999 122.64 67.04-66.64" clip-path="url(#clipEmfPath1)" style="fill:none;stroke-miterlimit:2;stroke-width:.32px;stroke:#52ae32"/><path d="m-7.3599 165.04 66.72-67.04" clip-path="url(#clipEmfPath1)" style="fill:none;stroke-miterlimit:2;stroke-width:.32px;stroke:#52ae32"/><path d="m-9.9999 162.32 66.64-66.96" clip-path="url(#clipEmfPath1)" style="fill:none;stroke-miterlimit:2;stroke-width:.32px;stroke:#52ae32"/><path d="m-12.64 159.68 66.64-67.04" clip-path="url(#clipEmfPath1)" style="fill:none;stroke-miterlimit:2;stroke-width:.32px;stroke:#52ae32"/><path d="m-15.36 156.64 66.72-66.64" clip-path="url(#clipEmfPath1)" style="fill:none;stroke-miterlimit:2;stroke-width:.32px;stroke:#52ae32"/><path d="m-18 154 66.64-66.64" clip-path="url(#clipEmfPath1)" style="fill:none;stroke-miterlimit:2;stroke-width:.32px;stroke:#52ae32"/><path d="m-69.039 103.36 67.04-66.72" clip-path="url(#clipEmfPath1)" style="fill:none;stroke-miterlimit:2;stroke-width:.32px;stroke:#52ae32"/><path d="m-71.679 100.64 67.04-66.64" clip-path="url(#clipEmfPath1)" style="fill:none;stroke-miterlimit:2;stroke-width:.32px;stroke:#52ae32"/><path d="m115.26 85.359h-114.62v-95.775h114.62z" style="fill:#e9efc6"/><path transform="matrix(1.3784 0 0 1.1256 -.24214 -10.723)" d="m-7.9999 30.64 66.64-66.96" clip-path="url(#clipEmfPath1)" style="fill:none;stroke-miterlimit:2;stroke-width:.32px;stroke:#52ae32"/><path transform="matrix(1.3784 0 0 1.1256 -.24214 -10.723)" d="m-10.64 28 66.64-67.04" clip-path="url(#clipEmfPath1)" style="fill:none;stroke-miterlimit:2;stroke-width:.32px;stroke:#52ae32"/><path transform="matrix(1.3784 0 0 1.1256 -.24214 -10.723)" d="m-13.36 25.36 66.72-67.04" clip-path="url(#clipEmfPath1)" style="fill:none;stroke-miterlimit:2;stroke-width:.32px;stroke:#52ae32"/><path transform="matrix(1.3784 0 0 1.1256 -.24214 -10.723)" d="m-16 22.64 66.64-66.96" clip-path="url(#clipEmfPath1)" style="fill:none;stroke-miterlimit:2;stroke-width:.32px;stroke:#52ae32"/><path transform="matrix(1.3784 0 0 1.1256 -.24214 -10.723)" d="m-18.64 20 66.64-67.04" clip-path="url(#clipEmfPath1)" style="fill:none;stroke-miterlimit:2;stroke-width:.32px;stroke:#52ae32"/><path transform="matrix(1.3784 0 0 1.1256 -.24214 -10.723)" d="m-21.36 17.36 66.72-67.04" clip-path="url(#clipEmfPath1)" style="fill:none;stroke-miterlimit:2;stroke-width:.32px;stroke:#52ae32"/><path transform="matrix(1.3784 0 0 1.1256 -.24214 -10.723)" d="m-24 14.64 66.64-66.96" clip-path="url(#clipEmfPath1)" style="fill:none;stroke-miterlimit:2;stroke-width:.32px;stroke:#52ae32"/><path transform="matrix(1.3784 0 0 1.1256 -.24214 -10.723)" d="m-26.64 12 66.64-67.04" clip-path="url(#clipEmfPath1)" style="fill:none;stroke-miterlimit:2;stroke-width:.32px;stroke:#52ae32"/><path transform="matrix(1.3784 0 0 1.1256 -.24214 -10.723)" d="m-29.36 9.3599 66.72-67.04" clip-path="url(#clipEmfPath1)" style="fill:none;stroke-miterlimit:2;stroke-width:.32px;stroke:#52ae32"/><path transform="matrix(1.3784 0 0 1.1256 -.24214 -10.723)" d="m-32 6.64 66.64-66.96" clip-path="url(#clipEmfPath1)" style="fill:none;stroke-miterlimit:2;stroke-width:.32px;stroke:#52ae32"/><path transform="matrix(1.3784 0 0 1.1256 -.24214 -10.723)" d="m-34.64 4 66.64-67.04" clip-path="url(#clipEmfPath1)" style="fill:none;stroke-miterlimit:2;stroke-width:.32px;stroke:#52ae32"/><path transform="matrix(1.3784 0 0 1.1256 -.24214 -10.723)" d="m-37.36 1.36 66.72-67.04" clip-path="url(#clipEmfPath1)" style="fill:none;stroke-miterlimit:2;stroke-width:.32px;stroke:#52ae32"/><path transform="matrix(1.3784 0 0 1.1256 -.24214 -10.723)" d="m59.36 97.999 66.96-66.64" clip-path="url(#clipEmfPath1)" style="fill:none;stroke-miterlimit:2;stroke-width:.32px;stroke:#52ae32"/><path transform="matrix(1.3784 0 0 1.1256 -.24214 -10.723)" d="m56.64 95.359 67.04-66.72" clip-path="url(#clipEmfPath1)" style="fill:none;stroke-miterlimit:2;stroke-width:.32px;stroke:#52ae32"/><path transform="matrix(1.3784 0 0 1.1256 -.24214 -10.723)" d="m54 92.639 67.04-66.64" clip-path="url(#clipEmfPath1)" style="fill:none;stroke-miterlimit:2;stroke-width:.32px;stroke:#52ae32"/><path transform="matrix(1.3784 0 0 1.1256 -.24214 -10.723)" d="m51.36 89.999 66.96-66.64" clip-path="url(#clipEmfPath1)" style="fill:none;stroke-miterlimit:2;stroke-width:.32px;stroke:#52ae32"/><path transform="matrix(1.3784 0 0 1.1256 -.24214 -10.723)" d="m48.64 87.359 67.04-66.72" clip-path="url(#clipEmfPath1)" style="fill:none;stroke-miterlimit:2;stroke-width:.32px;stroke:#52ae32"/><path transform="matrix(1.3784 0 0 1.1256 -.24214 -10.723)" d="m46 84.639 67.04-66.64" clip-path="url(#clipEmfPath1)" style="fill:none;stroke-miterlimit:2;stroke-width:.32px;stroke:#52ae32"/><path transform="matrix(1.3784 0 0 1.1256 -.24214 -10.723)" d="m43.36 81.999 66.96-66.64" clip-path="url(#clipEmfPath1)" style="fill:none;stroke-miterlimit:2;stroke-width:.32px;stroke:#52ae32"/><path transform="matrix(1.3784 0 0 1.1256 -.24214 -10.723)" d="m40.64 79.359 67.04-66.72" clip-path="url(#clipEmfPath1)" style="fill:none;stroke-miterlimit:2;stroke-width:.32px;stroke:#52ae32"/><path transform="matrix(1.3784 0 0 1.1256 -.24214 -10.723)" d="m38 76.639 66.64-66.64" clip-path="url(#clipEmfPath1)" style="fill:none;stroke-miterlimit:2;stroke-width:.32px;stroke:#52ae32"/><path transform="matrix(1.3784 0 0 1.1256 -.24214 -10.723)" d="m35.36 73.999 66.64-66.64" clip-path="url(#clipEmfPath1)" style="fill:none;stroke-miterlimit:2;stroke-width:.32px;stroke:#52ae32"/><path transform="matrix(1.3784 0 0 1.1256 -.24214 -10.723)" d="m32.64 71.359 66.72-67.04" clip-path="url(#clipEmfPath1)" style="fill:none;stroke-miterlimit:2;stroke-width:.32px;stroke:#52ae32"/><path transform="matrix(1.3784 0 0 1.1256 -.24214 -10.723)" d="m30 68.639 66.64-66.96" clip-path="url(#clipEmfPath1)" style="fill:none;stroke-miterlimit:2;stroke-width:.32px;stroke:#52ae32"/><path transform="matrix(1.3784 0 0 1.1256 -.24214 -10.723)" d="m27.36 66 66.64-67.04" clip-path="url(#clipEmfPath1)" style="fill:none;stroke-miterlimit:2;stroke-width:.32px;stroke:#52ae32"/><path transform="matrix(1.3784 0 0 1.1256 -.24214 -10.723)" d="m24.64 63.36 66.72-67.04" clip-path="url(#clipEmfPath1)" style="fill:none;stroke-miterlimit:2;stroke-width:.32px;stroke:#52ae32"/><path transform="matrix(1.3784 0 0 1.1256 -.24214 -10.723)" d="m22 60.64 66.64-66.96" clip-path="url(#clipEmfPath1)" style="fill:none;stroke-miterlimit:2;stroke-width:.32px;stroke:#52ae32"/><path transform="matrix(1.3784 0 0 1.1256 -.24214 -10.723)" d="m19.36 58 66.64-67.04" clip-path="url(#clipEmfPath1)" style="fill:none;stroke-miterlimit:2;stroke-width:.32px;stroke:#52ae32"/><path transform="matrix(1.3784 0 0 1.1256 -.24214 -10.723)" d="m16.64 55.36 66.72-67.04" clip-path="url(#clipEmfPath1)" style="fill:none;stroke-miterlimit:2;stroke-width:.32px;stroke:#52ae32"/><path transform="matrix(1.3784 0 0 1.1256 -.24214 -10.723)" d="m14 52.64 66.64-66.96" clip-path="url(#clipEmfPath1)" style="fill:none;stroke-miterlimit:2;stroke-width:.32px;stroke:#52ae32"/><path transform="matrix(1.3784 0 0 1.1256 -.24214 -10.723)" d="m11.36 50 66.64-67.04" clip-path="url(#clipEmfPath1)" style="fill:none;stroke-miterlimit:2;stroke-width:.32px;stroke:#52ae32"/><path transform="matrix(1.3784 0 0 1.1256 -.24214 -10.723)" d="m8.6399 47.36 66.72-67.04" clip-path="url(#clipEmfPath1)" style="fill:none;stroke-miterlimit:2;stroke-width:.32px;stroke:#52ae32"/><path transform="matrix(1.3784 0 0 1.1256 -.24214 -10.723)" d="m6 44.64 66.64-66.96" clip-path="url(#clipEmfPath1)" style="fill:none;stroke-miterlimit:2;stroke-width:.32px;stroke:#52ae32"/><path transform="matrix(1.3784 0 0 1.1256 -.24214 -10.723)" d="m3.36 42 66.64-67.04" clip-path="url(#clipEmfPath1)" style="fill:none;stroke-miterlimit:2;stroke-width:.32px;stroke:#52ae32"/><path transform="matrix(1.3784 0 0 1.1256 -.24214 -10.723)" d="m.64 39.36 66.72-67.04" clip-path="url(#clipEmfPath1)" style="fill:none;stroke-miterlimit:2;stroke-width:.32px;stroke:#52ae32"/><path transform="matrix(1.3784 0 0 1.1256 -.24214 -10.723)" d="m-2 36.64 66.64-66.96" clip-path="url(#clipEmfPath1)" style="fill:none;stroke-miterlimit:2;stroke-width:.32px;stroke:#52ae32"/><path transform="matrix(1.3784 0 0 1.1256 -.24214 -10.723)" d="m-4.64 34 66.64-67.04" clip-path="url(#clipEmfPath1)" style="fill:none;stroke-miterlimit:2;stroke-width:.32px;stroke:#52ae32"/><path transform="matrix(1.3784 0 0 1.1256 -.24214 -10.723)" d="m81.359 120 66.96-66.64" clip-path="url(#clipEmfPath1)" style="fill:none;stroke-miterlimit:2;stroke-width:.32px;stroke:#52ae32"/><path transform="matrix(1.3784 0 0 1.1256 -.24214 -10.723)" d="m78.639 117.36 67.04-66.72" clip-path="url(#clipEmfPath1)" style="fill:none;stroke-miterlimit:2;stroke-width:.32px;stroke:#52ae32"/><path transform="matrix(1.3784 0 0 1.1256 -.24214 -10.723)" d="m75.999 114.64 66.64-66.64" clip-path="url(#clipEmfPath1)" style="fill:none;stroke-miterlimit:2;stroke-width:.32px;stroke:#52ae32"/><path transform="matrix(1.3784 0 0 1.1256 -.24214 -10.723)" d="m73.359 112 66.64-66.96" clip-path="url(#clipEmfPath1)" style="fill:none;stroke-miterlimit:2;stroke-width:.32px;stroke:#52ae32"/><path transform="matrix(1.3784 0 0 1.1256 -.24214 -10.723)" d="m70.639 109.36 66.72-67.04" clip-path="url(#clipEmfPath1)" style="fill:none;stroke-miterlimit:2;stroke-width:.32px;stroke:#52ae32"/><path transform="matrix(1.3784 0 0 1.1256 -.24214 -10.723)" d="m67.999 106.64 66.64-66.96" clip-path="url(#clipEmfPath1)" style="fill:none;stroke-miterlimit:2;stroke-width:.32px;stroke:#52ae32"/><path transform="matrix(1.3784 0 0 1.1256 -.24214 -10.723)" d="m65.36 104 66.64-66.96" clip-path="url(#clipEmfPath1)" style="fill:none;stroke-miterlimit:2;stroke-width:.32px;stroke:#52ae32"/><path transform="matrix(1.3784 0 0 1.1256 -.24214 -10.723)" d="m62.64 101.36 66.72-67.04" clip-path="url(#clipEmfPath1)" style="fill:none;stroke-miterlimit:2;stroke-width:.32px;stroke:#52ae32"/><path transform="matrix(1.3784 0 0 1.1256 -.24214 -10.723)" d="m-20.64 151.36 66.64-66.72" clip-path="url(#clipEmfPath1)" style="fill:none;stroke-miterlimit:2;stroke-width:.32px;stroke:#52ae32"/><path transform="matrix(1.3784 0 0 1.1256 -.24214 -10.723)" d="m-23.36 148.64 66.72-66.64" clip-path="url(#clipEmfPath1)" style="fill:none;stroke-miterlimit:2;stroke-width:.32px;stroke:#52ae32"/><path transform="matrix(1.3784 0 0 1.1256 -.24214 -10.723)" d="m-26 146 66.64-66.64" clip-path="url(#clipEmfPath1)" style="fill:none;stroke-miterlimit:2;stroke-width:.32px;stroke:#52ae32"/><path transform="matrix(1.3784 0 0 1.1256 -.24214 -10.723)" d="m-28.64 143.36 66.64-66.72" clip-path="url(#clipEmfPath1)" style="fill:none;stroke-miterlimit:2;stroke-width:.32px;stroke:#52ae32"/><path transform="matrix(1.3784 0 0 1.1256 -.24214 -10.723)" d="m-31.36 140.64 66.72-66.64" clip-path="url(#clipEmfPath1)" style="fill:none;stroke-miterlimit:2;stroke-width:.32px;stroke:#52ae32"/><path transform="matrix(1.3784 0 0 1.1256 -.24214 -10.723)" d="m-34 138 66.64-66.64" clip-path="url(#clipEmfPath1)" style="fill:none;stroke-miterlimit:2;stroke-width:.32px;stroke:#52ae32"/><path transform="matrix(1.3784 0 0 1.1256 -.24214 -10.723)" d="m-36.64 135.36 66.64-66.72" clip-path="url(#clipEmfPath1)" style="fill:none;stroke-miterlimit:2;stroke-width:.32px;stroke:#52ae32"/><path transform="matrix(1.3784 0 0 1.1256 -.24214 -10.723)" d="m-39.36 132.64 66.72-66.64" clip-path="url(#clipEmfPath1)" style="fill:none;stroke-miterlimit:2;stroke-width:.32px;stroke:#52ae32"/><path transform="matrix(1.3784 0 0 1.1256 -.24214 -10.723)" d="m-42 130 66.64-66.64" clip-path="url(#clipEmfPath1)" style="fill:none;stroke-miterlimit:2;stroke-width:.32px;stroke:#52ae32"/><path transform="matrix(1.3784 0 0 1.1256 -.24214 -10.723)" d="m-44.64 127.36 66.64-66.72" clip-path="url(#clipEmfPath1)" style="fill:none;stroke-miterlimit:2;stroke-width:.32px;stroke:#52ae32"/><path transform="matrix(1.3784 0 0 1.1256 -.24214 -10.723)" d="m-47.68 124.64 67.04-66.64" clip-path="url(#clipEmfPath1)" style="fill:none;stroke-miterlimit:2;stroke-width:.32px;stroke:#52ae32"/><path transform="matrix(1.3784 0 0 1.1256 -.24214 -10.723)" d="m-50.32 122 66.96-66.64" clip-path="url(#clipEmfPath1)" style="fill:none;stroke-miterlimit:2;stroke-width:.32px;stroke:#52ae32"/><path transform="matrix(1.3784 0 0 1.1256 -.24214 -10.723)" d="m-53.04 119.36 67.04-66.72" clip-path="url(#clipEmfPath1)" style="fill:none;stroke-miterlimit:2;stroke-width:.32px;stroke:#52ae32"/><path transform="matrix(1.3784 0 0 1.1256 -.24214 -10.723)" d="m-55.68 116.64 67.04-66.64" clip-path="url(#clipEmfPath1)" style="fill:none;stroke-miterlimit:2;stroke-width:.32px;stroke:#52ae32"/><path transform="matrix(1.3784 0 0 1.1256 -.24214 -10.723)" d="m-58.32 114 66.96-66.64" clip-path="url(#clipEmfPath1)" style="fill:none;stroke-miterlimit:2;stroke-width:.32px;stroke:#52ae32"/><path transform="matrix(1.3784 0 0 1.1256 -.24214 -10.723)" d="m-61.04 111.36 67.04-66.72" clip-path="url(#clipEmfPath1)" style="fill:none;stroke-miterlimit:2;stroke-width:.32px;stroke:#52ae32"/><path transform="matrix(1.3784 0 0 1.1256 -.24214 -10.723)" d="m-63.68 108.64 67.04-66.64" clip-path="url(#clipEmfPath1)" style="fill:none;stroke-miterlimit:2;stroke-width:.32px;stroke:#52ae32"/></svg>
