<?xml version="1.0" encoding="UTF-8"?>
<!-- Created with Inkscape (http://www.inkscape.org/) -->
<svg width="39.34" height="6.6509" version="1.1" viewBox="0 0 39.34 6.6509" xml:space="preserve" xmlns="http://www.w3.org/2000/svg" xmlns:cc="http://creativecommons.org/ns#" xmlns:dc="http://purl.org/dc/elements/1.1/" xmlns:rdf="http://www.w3.org/1999/02/22-rdf-syntax-ns#"><metadata><rdf:RDF><cc:Work rdf:about=""><dc:format>image/svg+xml</dc:format><dc:type rdf:resource="http://purl.org/dc/dcmitype/StillImage"/><dc:title/></cc:Work></rdf:RDF></metadata><defs><clipPath id="clipPath1198"><path d="M 0,4.988 H 29.505 V 0 H 0 Z"/></clipPath></defs><g transform="matrix(1.3333 0 0 -1.3333 0 6.6509)"><g clip-path="url(#clipPath1198)"><g transform="translate(3.3287,2.4104)"><path d="m0 0h26.083" style="fill:none;stroke-dasharray:0, 4.252, 0.85, 4.252;stroke-miterlimit:10;stroke-width:.709;stroke:#9c8dce"/></g></g><g transform="translate(21.703 4.536)"><path d="m0 0v-1.785h-1.791v-.681h1.791v-1.786h.671v1.786h1.79v.681h-1.79v1.785z" style="fill:#9c8dce"/></g><g transform="translate(12.348,4.536)"><path d="m0 0v-1.785h-1.791v-.681h1.791v-1.786h.671v1.786h1.79v.681h-1.79v1.785z" style="fill:#9c8dce"/></g><g transform="translate(2.9934,4.536)"><path d="m0 0v-1.785h-1.791v-.681h1.791v-1.786h.671v1.786h1.791v.681h-1.791v1.785z" style="fill:#9c8dce"/></g></g></svg>
