<?xml version="1.0" encoding="UTF-8"?>
<svg width="21.971mm" height="22.496mm" version="1.0" xmlns="http://www.w3.org/2000/svg" xmlns:cc="http://creativecommons.org/ns#" xmlns:dc="http://purl.org/dc/elements/1.1/" xmlns:rdf="http://www.w3.org/1999/02/22-rdf-syntax-ns#">
 <metadata>
  <rdf:RDF>
   <cc:Work rdf:about="">
    <dc:format>image/svg+xml</dc:format>
    <dc:type rdf:resource="http://purl.org/dc/dcmitype/StillImage"/>
    <dc:title/>
   </cc:Work>
  </rdf:RDF>
 </metadata>
 <defs>
  <clipPath id="clipEmfPath1">
   <path d="m39 71.667-1 .66667-.33333.66667-.33333 1.3333.66667.33333 1-.33333-.66667-.66667.33333-.33333 1 .66667.66667-.33333.33333.33333-.33333.33333v.33333h.33333.66667l.33333-1v-1l-.66667-.66667h-.66667.33333l-.33333.33333-.66667-.33333h-.33333l-.33333-.33333m19.667-5.3333-1 4.6667h.66667.33333 1l-1-4.6667m-46.333-2.6667-1 4.6667h.66667.33333.66667l-.66667-4.6667m19.667-24.333-.66667 4.6667h.33333v-.33333h.66667.66667l-1-4.3333m24-6-1 .66667-.33333.66667v1.3333l.66667.33333h.66667l-.66667-.66667.66667-.66667.66667 1 .66667-.66667.66667.66667-.33333.33333h.33333.66667l.33333-1-.33333-1-.33333-.66667h-.66667v.33333.33333l-.66667-.33333h-.33333v-.33333l-.66667-.33333m-36.333-12-1 .66667-.33333.66667v1.3333l.66667.33333h.66667l-.66667-.66667.66667-.66667 1 1 .66667-.66667.33333.66667-.33333.33333.33333.33333.66667-.33333.33333-1-.33333-.66667-.33333-1-.66667.33333h.33333l-.33333.33333-.66667-.33333h-.33333v-.33333l-.66667-.33333m53.333-8.6667-1 4.6667h.66667.33333.66667l-.66667-4.6667m-31-5.3333-1 4.6667h.66667.33333.66667l-.66667-4.6667m-2.6667 64 2-.33333 1 1.3333.33333 1.3333-.66667 1.6667h-.33333-1l-.66667-.33333v.66667h.33333v.66667h-1.3333v-1.6667l-1 .33333-1-.66667v-1.6667l1.6667-1.6667.66667.33333m19.333-6.3333.33333-.33333 1.3333 7h-.33333-1l.33333 1h-1v-1.3333h-1l1-6v-.33333h.33333v-.33333.33333m-46.333-2.6667h.33333l1.3333 6.6667h-.33333-1v1.3333h-.66667v-1.6667h-1l1-6v-.33333h.33333m63-9.6667 2-.33333.66667 1.3333.33333 1.3333-.66667 1.6667h-1.3333l-.66667-.33333v.66667h.33333v.66667h-1.3333v-.33333-1.3333l-.66667.33333h-.33333l-1-.66667.33333-1.6667.33333-.66667 1.3333-1 .66667.33333m-43-15h.33333l1.3333 7h-.66667-.66667v1h-1v-1.3333h-1l1.3333-6-.33333-.66667h.33333.33333m24.333-4.3333v-.33333h2l.66667 1.3333.33333 1-.66667 1.6667-1.3333.33333-.66667-.33333v.66667h.33333v.66667h-1.3333v-.33333-1.3333h-.66667-.33333l-1-.33333v-.33333l.33333-1.3333.33333-1 1.3333-.66667.66667.33333m-36.333-12 2-.33333 1 1.3333v1.3333l-.66667 1.3333-1 .33333h-.33333l-.66667-.33333.33333.66667h.33333l-.33333.66667h-1v-.33333l-.33333-1.3333h-.66667l-1-.33333v-1.6667l.33333-.66667 1.3333-1 .66667.33333m52.667-10h.33333l1.3333 6.6667h-.33333-1v1.3333h-.66667v-1.6667h-1l1-6v-.33333h.33333m-31-5.3333h.33333l1.3333 6.6667h-.33333-1v1.3333h-.66667v-1.3333h-1l1-6.3333v-.33333h.33333m41-5.6667h-83v85h83v-85"/>
  </clipPath>
 </defs>
 <path d="m12 62.333 1 6h-.66667-.33333v2h.66667v-1.3333h1 .33333l-1.3333-6.6667h-.66667z" style="fill:#52ae32"/>
 <path d="m12 62.333 1 6h-.66667-.33333v2h.66667v-1.3333h1 .33333l-1.3333-6.6667h-.66667" style="fill:none"/>
 <path d="m12.333 68.333h-1l1.3333-6h-.66667l-1 6.3333h1.3333v-.33333z" style="fill:#52ae32"/>
 <path d="m12.333 68.333h-1l1.3333-6h-.66667l-1 6.3333h1.3333v-.33333" style="fill:none"/>
 <path d="m31.667 37.667 1.3333 6h-.66667-.66667v2h1v-1h.66667.66667l-1.3333-7h-1z" style="fill:#52ae32"/>
 <path d="m31.667 37.667 1.3333 6h-.66667-.66667v2h1v-1h.66667.66667l-1.3333-7h-1" style="fill:none"/>
 <path d="m32.333 44h-1l1-6.3333h-.33333l-1.3333 6.6667h1.6667v-.33333z" style="fill:#52ae32"/>
 <path d="m32.333 44h-1l1-6.3333h-.33333l-1.3333 6.6667h1.6667v-.33333" style="fill:none"/>
 <path d="m58.333 65 1.3333 6h-1-.33333v1.6667h1l-.33333-1h1 .33333l-1.3333-7-.66667.33333z" style="fill:#52ae32"/>
 <path d="m58.333 65 1.3333 6h-1-.33333v1.6667h1l-.33333-1h1 .33333l-1.3333-7-.66667.33333" style="fill:none"/>
 <path d="m58.667 71h-1l1.3333-6-.33333-.33333-1.3333 6.6667h1.3333v-.33333z" style="fill:#52ae32"/>
 <path d="m58.667 71h-1l1.3333-6-.33333-.33333-1.3333 6.6667h1.3333v-.33333" style="fill:none"/>
 <path d="m72.667 11.333 1 6h-.66667-.33333v2h.66667v-1.3333h1 .33333l-1.3333-6.6667h-.66667z" style="fill:#52ae32"/>
 <path d="m72.667 11.333 1 6h-.66667-.33333v2h.66667v-1.3333h1 .33333l-1.3333-6.6667h-.66667" style="fill:none"/>
 <path d="m73 17.333h-1l1.3333-6h-.33333l-1.3333 6.3333h1.3333v-.33333z" style="fill:#52ae32"/>
 <path d="m73 17.333h-1l1.3333-6h-.33333l-1.3333 6.3333h1.3333v-.33333" style="fill:none"/>
 <path d="m41.667 6 1 6h-.66667-.33333v2h.66667v-1.3333h1 .33333l-1.3333-6.6667h-.66667z" style="fill:#52ae32"/>
 <path d="m41.667 6 1 6h-.66667-.33333v2h.66667v-1.3333h1 .33333l-1.3333-6.6667h-.66667" style="fill:none"/>
 <path d="m42 12h-1l1.3333-6h-.33333l-1.3333 6.6667h1.3333v-.66667z" style="fill:#52ae32"/>
 <path d="m42 12h-1l1.3333-6h-.33333l-1.3333 6.6667h1.3333v-.66667" style="fill:none"/>
 <path d="m20.333 22 1.6667-.33333.33333 1 .33333.66667-.33333 1-.66667.33333-.66667-.66667-.66667.33333.33333.66667.66667.33333h.33333l1-.33333.66667-1.3333v-1.3333l-1-1.3333-2 .33333v.66667z" style="fill:#52ae32"/>
 <path d="m20.333 22 1.6667-.33333.33333 1 .33333.66667-.33333 1-.66667.33333-.66667-.66667-.66667.33333.33333.66667.66667.33333h.33333l1-.33333.66667-1.3333v-1.3333l-1-1.3333-2 .33333v.66667" style="fill:none"/>
 <path d="m21.667 22-2-1-1.3333 1-.33333.66667v1.6667l1 .33333h1v-.33333h-1l-.66667-.33333v-1.3333l.33333-.66667 1-.66667 1.6667 1 .33333-.33333z" style="fill:#52ae32"/>
 <path d="m21.667 22-2-1-1.3333 1-.33333.66667v1.6667l1 .33333h1v-.33333h-1l-.66667-.33333v-1.3333l.33333-.66667 1-.66667 1.6667 1 .33333-.33333" style="fill:none"/>
 <path d="m19 23.667.66667.66667.33333 1.6667v.33333h1l.33333-.66667h-.33333l-.33333-1 1-.66667-.33333-.66667-1.3333 1.3333.33333 1.3333v.33333h.66667v-.33333-.33333h-.33333v-1.6667l-1-1-.66667.66667zm37.667 10.333 1.6667-.33333.33333.66667.33333 1-.33333 1h-.66667-.33333l-.33333-.66667-.66667.33333.33333.66667v.33333l.66667.33333 1.3333-.33333.66667-1.6667-.33333-1-.66667-1.3333h-2v1z" style="fill:#52ae32"/>
 <path d="m19 23.667.66667.66667.33333 1.6667v.33333h1l.33333-.66667h-.33333l-.33333-1 1-.66667-.33333-.66667-1.3333 1.3333.33333 1.3333v.33333h.66667v-.33333-.33333h-.33333v-1.6667l-1-1-.66667.66667m37.667 10.333 1.6667-.33333.33333.66667.33333 1-.33333 1h-.66667-.33333l-.33333-.66667-.66667.33333.33333.66667v.33333l.66667.33333 1.3333-.33333.66667-1.6667-.33333-1-.66667-1.3333h-2v1" style="fill:none"/>
 <path d="m57.667 34-1.6667-1-1.3333.66667-.33333 1-.33333 1.3333v.33333l1 .33333h.33333 1v-.66667l-1 .33333-.66667-.33333v-1.3333l.33333-.66667 1-.66667 1.6667 1v-.33333z" style="fill:#52ae32"/>
 <path d="m57.667 34-1.6667-1-1.3333.66667-.33333 1-.33333 1.3333v.33333l1 .33333h.33333 1v-.66667l-1 .33333-.66667-.33333v-1.3333l.33333-.66667 1-.66667 1.6667 1v-.33333" style="fill:none"/>
 <path d="m55.333 35.667.66667.66667v1.6667.33333h1.3333v-.66667h-.33333v-1l1-.66667-.66667-.66667-1 1v1.6667.33333h1v-.33333-.33333h-.66667v-1.6667l-.66667-1-.66667.66667zm-16 36.333h1.6667l.66667.66667v1l-.33333 1h-.66667-.33333v-.66667l-.66667.33333v.66667h.33333l.66667.33333h1 .33333l.66667-1.6667-.33333-1.3333-1-1.3333-2 .33333v.66667z" style="fill:#52ae32"/>
 <path d="m55.333 35.667.66667.66667v1.6667.33333h1.3333v-.66667h-.33333v-1l1-.66667-.66667-.66667-1 1v1.6667.33333h1v-.33333-.33333h-.66667v-1.6667l-.66667-1-.66667.66667m-16 36.333h1.6667l.66667.66667v1l-.33333 1h-.66667-.33333v-.66667l-.66667.33333v.66667h.33333l.66667.33333h1 .33333l.66667-1.6667-.33333-1.3333-1-1.3333-2 .33333v.66667" style="fill:none"/>
 <path d="m40.667 72-2-1-1.6667 1.6667v1.6667l1 .66667 1.3333-.33333-.33333-.33333-1 .33333-.66667-.33333.33333-1.3333.33333-.66667 1-.66667 1.3333.66667.33333-.33333z" style="fill:#52ae32"/>
 <path d="m40.667 72-2-1-1.6667 1.6667v1.6667l1 .66667 1.3333-.33333-.33333-.33333-1 .33333-.66667-.33333.33333-1.3333.33333-.66667 1-.66667 1.3333.66667.33333-.33333" style="fill:none"/>
 <path d="m38.333 73.667.66667.66667v2h1.3333v-.66667h-.33333v-.66667l.66667-1-.33333-.33333-1.3333 1 .33333 1.3333v.33333h1v-.33333-.33333h-.66667v-1.3333-.33333l-1-.66667-.33333.33333zm37-20.333h1.6667l.33333.66667.33333 1-.33333 1h-.66667-.33333l-.33333-.66667-.66667.33333.33333.66667.66667.33333h1.3333l.66667-1.6667-.33333-1.3333-.66667-1.3333-2 .33333v.66667z" style="fill:#52ae32"/>
 <path d="m38.333 73.667.66667.66667v2h1.3333v-.66667h-.33333v-.66667l.66667-1-.33333-.33333-1.3333 1 .33333 1.3333v.33333h1v-.33333-.33333h-.66667v-1.3333-.33333l-1-.66667-.33333.33333m37-20.333h1.6667l.33333.66667.33333 1-.33333 1h-.66667-.33333l-.33333-.66667-.66667.33333.33333.66667.66667.33333h1.3333l.66667-1.6667-.33333-1.3333-.66667-1.3333-2 .33333v.66667" style="fill:none"/>
 <path d="m76.333 53.333-1.6667-1-1.3333 1-.33333.66667-.33333 1.6667 1 .66667h.33333l1-.33333v-.33333h-1-.66667v-1.3333l.33333-.66667 1-.66667 1.6667.66667v-.33333z" style="fill:#52ae32"/>
 <path d="m76.333 53.333-1.6667-1-1.3333 1-.33333.66667-.33333 1.6667 1 .66667h.33333l1-.33333v-.33333h-1-.66667v-1.3333l.33333-.66667 1-.66667 1.6667.66667v-.33333" style="fill:none"/>
 <path d="m76 55-1 1v1.3333.33333h1v-.33333-.33333h-.66667v-1.3333-.33333l-.66667-.66667-.66667.33333.66667.66667v1.6667.33333h1.3333v-.66667h-.33333v-.66667l1-1-.66667-.33333z" style="fill:#52ae32"/>
 <path d="m76 55-1 1v1.3333.33333h1v-.33333-.33333h-.66667v-1.3333-.33333l-.66667-.66667-.66667.33333.66667.66667v1.6667.33333h1.3333v-.66667h-.33333v-.66667l1-1-.66667-.33333" style="fill:none"/>
 <path d="m0 85.333h83v-85h-83v85z" clip-path="url(#clipEmfPath1)" style="fill:#dee7a2"/>
 <path d="m12 62.333v.33333-.33333zm.66667 0h-.33333.33333l-.33333 1.3333.66667 4.6667h-.66667-.33333.33333v.33333h-.33333v1.6667h.66667v-1.3333h1 .33333l-1.3333-6.6667z" style="fill:#39aa35"/>
 <path d="m12 62.333v.33333-.33333m.66667 0h-.33333.33333l-.33333 1.3333.66667 4.6667h-.66667-.33333.33333v.33333h-.33333v1.6667h.66667v-1.3333h1 .33333l-1.3333-6.6667" style="fill:none"/>
 <path d="m12 62.667-1 6h1v-.33333h-.66667l1-4.6667-.33333-1zm0-.33333h.33333-.33333z" style="fill:#39aa35"/>
 <path d="m12 62.667-1 6h1v-.33333h-.66667l1-4.6667-.33333-1m0-.33333h.33333-.33333" style="fill:none"/>
 <path d="m12.333 68.333h-.33333v.33333h.33333v-.33333zm0-6h-.33333v.33333l.33333 1 .33333-1.3333h-.33333z" style="fill:#39aa35"/>
 <path d="m12.333 68.333h-.33333v.33333h.33333v-.33333m0-6h-.33333v.33333l.33333 1 .33333-1.3333h-.33333" style="fill:none"/>
 <path d="m32 37.667h-.33333l.33333.66667v-.66667zm.66667 0h-.33333l-.33333 1.6667 1 4.3333h-.66667-.66667v.33333h.66667v.33333h-.66667v1.3333h1v-1h.66667.66667l-1.3333-7z" style="fill:#39aa35"/>
 <path d="m32 37.667h-.33333l.33333.66667v-.66667m.66667 0h-.33333l-.33333 1.6667 1 4.3333h-.66667-.66667v.33333h.66667v.33333h-.66667v1.3333h1v-1h.66667.66667l-1.3333-7" style="fill:none"/>
 <path d="m32 38.333-1.3333 6h1v-.33333h-.33333l.66667-4.6667v-1zm0-.66667h.33333-.33333z" style="fill:#39aa35"/>
 <path d="m32 38.333-1.3333 6h1v-.33333h-.33333l.66667-4.6667v-1m0-.66667h.33333-.33333" style="fill:none"/>
 <path d="m32.333 44h-.66667v.33333h.66667v-.33333zm0-6.3333h-.33333v.66667 1l.33333-1.6667z" style="fill:#39aa35"/>
 <path d="m32.333 44h-.66667v.33333h.66667v-.33333m0-6.3333h-.33333v.66667 1l.33333-1.6667" style="fill:none"/>
 <path d="m58.667 65h-.33333v.33333l.33333-.33333zm.33333-.33333-.33333.33333h.33333l-.33333 1.3333 1 4.6667h-1-.33333.33333v.33333h-.33333v1.3333h1l-.33333-1h1 .33333l-1.3333-7z" style="fill:#39aa35"/>
 <path d="m58.667 65h-.33333v.33333l.33333-.33333m.33333-.33333-.33333.33333h.33333l-.33333 1.3333 1 4.6667h-1-.33333.33333v.33333h-.33333v1.3333h1l-.33333-1h1 .33333l-1.3333-7" style="fill:none"/>
 <path d="m58.333 65.333-1 6h1v-.33333h-.66667l1-4.6667-.33333-1zm.33333-.66667v.33333-.33333z" style="fill:#39aa35"/>
 <path d="m58.333 65.333-1 6h1v-.33333h-.66667l1-4.6667-.33333-1m.33333-.66667v.33333-.33333" style="fill:none"/>
 <path d="m58.667 71h-.33333v.33333h.33333v-.33333zm0-6-.33333.33333.33333 1 .33333-1.3333h-.33333z" style="fill:#39aa35"/>
 <path d="m58.667 71h-.33333v.33333h.33333v-.33333m0-6-.33333.33333.33333 1 .33333-1.3333h-.33333" style="fill:none"/>
 <path d="m73 11.333h-.33333v.33333l.33333-.33333zm.33333 0h-.33333.33333l-.33333 1.3333.66667 4.6667h-.66667-.33333.33333v.33333h-.33333v1.6667h.66667v-1.3333h1 .33333l-1.3333-6.6667z" style="fill:#39aa35"/>
 <path d="m73 11.333h-.33333v.33333l.33333-.33333m.33333 0h-.33333.33333l-.33333 1.3333.66667 4.6667h-.66667-.33333.33333v.33333h-.33333v1.6667h.66667v-1.3333h1 .33333l-1.3333-6.6667" style="fill:none"/>
 <path d="m72.667 11.667-1 6h1v-.33333h-.66667l1-4.6667-.33333-1zm.33333-.33333z" style="fill:#39aa35"/>
 <path d="m72.667 11.667-1 6h1v-.33333h-.66667l1-4.6667-.33333-1m.33333-.33333" style="fill:none"/>
 <path d="m73 17.333h-.33333v.33333h.33333v-.33333zm0-6-.33333.33333.33333 1 .33333-1.3333h-.33333z" style="fill:#39aa35"/>
 <path d="m73 17.333h-.33333v.33333h.33333v-.33333m0-6-.33333.33333.33333 1 .33333-1.3333h-.33333" style="fill:none"/>
 <path d="m42 6h-.33333v.33333l.33333-.33333zm.33333 0h-.33333.33333l-.33333 1.3333.66667 4.6667h-.66667-.33333.33333v.66667h-.33333v1.3333h.66667v-1.3333h1 .33333l-1.3333-6.6667z" style="fill:#39aa35"/>
 <path d="m42 6h-.33333v.33333l.33333-.33333m.33333 0h-.33333.33333l-.33333 1.3333.66667 4.6667h-.66667-.33333.33333v.66667h-.33333v1.3333h.66667v-1.3333h1 .33333l-1.3333-6.6667" style="fill:none"/>
 <path d="m41.667 6.3333-1 6.3333h1v-.66667h-.66667l1-4.6667-.33333-1zm.33333-.33333z" style="fill:#39aa35"/>
 <path d="m41.667 6.3333-1 6.3333h1v-.66667h-.66667l1-4.6667-.33333-1m.33333-.33333" style="fill:none"/>
 <path d="m42 12h-.33333v.66667h.33333v-.66667zm0-6-.33333.33333.33333 1 .33333-1.3333h-.33333z" style="fill:#39aa35"/>
 <path d="m42 12h-.33333v.66667h.33333v-.66667m0-6-.33333.33333.33333 1 .33333-1.3333h-.33333" style="fill:none"/>
 <path d="m20.333 22zm0-.33333v.33333h.33333l-.33333-.33333zm2-.66667-2 .33333 1 .66667.66667-.33333.33333 1 .33333.66667-.33333 1-.66667.33333-.33333-.33333-.66667.33333v.33333l.66667.33333h.33333l1-.33333.66667-1.3333v-1.3333l-1-1.3333z" style="fill:#39aa35"/>
 <path d="m20.333 22m0-.33333v.33333h.33333l-.33333-.33333m2-.66667-2 .33333 1 .66667.66667-.33333.33333 1 .33333.66667-.33333 1-.66667.33333-.33333-.33333-.66667.33333v.33333l.66667.33333h.33333l1-.33333.66667-1.3333v-1.3333l-1-1.3333" style="fill:none"/>
 <path d="m21.333 22h-.66667l.66667.33333.33333-.33333h-.33333zm-1.6667-1-1.3333 1-.33333.66667v1.6667l1 .33333h.66667v-.33333h-.66667l-.66667-.33333v-1.3333l.33333-.66667 1-.66667.66667.33333v-.33333l-.66667-.33333z" style="fill:#39aa35"/>
 <path d="m21.333 22h-.66667l.66667.33333.33333-.33333h-.33333m-1.6667-1-1.3333 1-.33333.66667v1.6667l1 .33333h.66667v-.33333h-.66667l-.66667-.33333v-1.3333l.33333-.66667 1-.66667.66667.33333v-.33333l-.66667-.33333" style="fill:none"/>
 <path d="m20.333 21.333v.33333l.33333.33333h.66667l-1-.66667z" style="fill:#39aa35"/>
 <path d="m20.333 21.333v.33333l.33333.33333h.66667l-1-.66667" style="fill:none"/>
 <path d="m19.667 23-.66667.66667.66667.66667h.33333v.33333h-.33333l.33333 1.3333v.33333h1l.33333-.66667h-.33333l-.66667-1.3333.66667-.33333.33333.33333.33333-.33333-.33333-.66667-.66667.66667-1-1z" style="fill:#39aa35"/>
 <path d="m19.667 23-.66667.66667.66667.66667h.33333v.33333h-.33333l.33333 1.3333v.33333h1l.33333-.66667h-.33333l-.66667-1.3333.66667-.33333.33333.33333.33333-.33333-.33333-.66667-.66667.66667-1-1" style="fill:none"/>
 <path d="m21 24-.66667.33333.33333.66667v-.33333l.66667-.33333-.33333-.33333z" style="fill:#39aa35"/>
 <path d="m21 24-.66667.33333.33333.66667v-.33333l.66667-.33333-.33333-.33333" style="fill:none"/>
 <path d="m20 24.333h-.33333v.33333h.33333v-.33333z" style="fill:#39aa35"/>
 <path d="m20 24.333h-.33333v.33333h.33333v-.33333" style="fill:none"/>
 <path d="m56.667 33.667v.33333h.33333l-.33333-.33333zm2-.66667h-2v.33333l1 .33333h.66667l.33333.66667.33333 1-.33333 1h-.66667-.33333l-.66667.33333v.33333l.66667.33333 1.3333-.33333.66667-1.6667-.33333-1-.66667-1.3333z" style="fill:#39aa35"/>
 <path d="m56.667 33.667v.33333h.33333l-.33333-.33333m2-.66667h-2v.33333l1 .33333h.66667l.33333.66667.33333 1-.33333 1h-.66667-.33333l-.66667.33333v.33333l.66667.33333 1.3333-.33333.66667-1.6667-.33333-1-.66667-1.3333" style="fill:none"/>
 <path d="m57.667 33.667-.66667.33333.66667.33333v-.33333-.33333zm-1.6667-.66667-1.3333.66667-.33333 1-.33333 1.3333v.33333l1 .33333h.33333.66667v-.33333h-.66667l-.66667-.33333v-1.3333l.33333-.66667 1-.66667.66667.33333v-.33333l-.66667-.33333z" style="fill:#39aa35"/>
 <path d="m57.667 33.667-.66667.33333.66667.33333v-.33333-.33333m-1.6667-.66667-1.3333.66667-.33333 1-.33333 1.3333v.33333l1 .33333h.33333.66667v-.33333h-.66667l-.66667-.33333v-1.3333l.33333-.66667 1-.66667.66667.33333v-.33333l-.66667-.33333" style="fill:none"/>
 <path d="m56.667 33.333v.33333l.33333.33333.66667-.33333-1-.33333z" style="fill:#39aa35"/>
 <path d="m56.667 33.333v.33333l.33333.33333.66667-.33333-1-.33333" style="fill:none"/>
 <path d="m56 35-.66667.66667.66667.66667.33333-.33333v.66667h-.33333v1.3333.33333h1.3333v-.66667h-.33333v-.66667-.33333l-.33333-.66667.66667-.33333.33333.66667.33333-.33333-.66667-.66667-.66667.66667-.66667-1z" style="fill:#39aa35"/>
 <path d="m56 35-.66667.66667.66667.66667.33333-.33333v.66667h-.33333v1.3333.33333h1.3333v-.66667h-.33333v-.66667-.33333l-.33333-.66667.66667-.33333.33333.66667.33333-.33333-.66667-.66667-.66667.66667-.66667-1" style="fill:none"/>
 <path d="m57.333 35.667-.66667.33333.33333.66667v.33333-.33333l.66667-.33333-.33333-.66667z" style="fill:#39aa35"/>
 <path d="m57.333 35.667-.66667.33333.33333.66667v.33333-.33333l.66667-.33333-.33333-.66667" style="fill:none"/>
 <path d="m39.333 72h.33333-.33333zm2-1-2 .33333 1 .66667h.66667l.66667.66667v1l-.33333 1h-.66667-.33333v-.33333l-.33333.66667.66667.33333h1 .33333l.66667-1.6667-.33333-1.3333-1-1.3333z" style="fill:#39aa35"/>
 <path d="m39.333 72h.33333-.33333m2-1-2 .33333 1 .66667h.66667l.66667.66667v1l-.33333 1h-.66667-.33333v-.33333l-.33333.66667.66667.33333h1 .33333l.66667-1.6667-.33333-1.3333-1-1.3333" style="fill:none"/>
 <path d="m56.333 36-.33333.33333v.33333h.33333v-.66667z" style="fill:#39aa35"/>
 <path d="m56.333 36-.33333.33333v.33333h.33333v-.66667" style="fill:none"/>
 <path d="m74.667 53-1 .66667-.33333.66667v1.3333h.66667.66667l-.66667-.66667.66667-.33333.66667.66667.66667-.33333.66667.33333-.33333.33333v.33333h.33333.66667l.33333-1-.33333-1-.33333-.66667h-.66667v.33333l-.66667-.33333h-.33333l-.66667-.33333z" style="fill:#dee7a2"/>
 <path d="m74.667 53-1 .66667-.33333.66667v1.3333h.66667.66667l-.66667-.66667.66667-.33333.66667.66667.66667-.33333.66667.33333-.33333.33333v.33333h.33333.66667l.33333-1-.33333-1-.33333-.66667h-.66667v.33333l-.66667-.33333h-.33333l-.66667-.33333" style="fill:none"/>
 <path d="m40.333 72h-.66667l.66667.33333.33333-.33333h-.33333zm-1.6667-1-1.6667 1.6667v1.6667l1 .66667 1-.33333v-.33333l-1 .33333-.66667-.33333.33333-1.3333.33333-.66667 1-.66667.33333.33333v-.66667l-.66667-.33333z" style="fill:#39aa35"/>
 <path d="m40.333 72h-.66667l.66667.33333.33333-.33333h-.33333m-1.6667-1-1.6667 1.6667v1.6667l1 .66667 1-.33333v-.33333l-1 .33333-.66667-.33333.33333-1.3333.33333-.66667 1-.66667.33333.33333v-.66667l-.66667-.33333" style="fill:none"/>
 <path d="m39.333 71.333v.66667h.33333.66667l-1-.66667z" style="fill:#39aa35"/>
 <path d="m39.333 71.333v.66667h.33333.66667l-1-.66667" style="fill:none"/>
 <path d="m38.667 73.333-.33333.33333 1 1h-.33333v1.6667h1.3333v-.66667h-.33333v-.66667h-.33333v-.66667l.66667-.33333v.33333l.33333-.33333-.33333-.33333-.66667.33333-1-.66667zm36.667-20zm0 0h.33333-.33333zm2-1-2 .33333 1 .66667h.66667l.33333.66667.33333 1-.33333 1h-.66667-.33333v-.33333l-.66667.66667.66667.33333h1.3333l.66667-1.6667-.33333-1.3333-.66667-1.3333z" style="fill:#39aa35"/>
 <path d="m38.667 73.333-.33333.33333 1 1h-.33333v1.6667h1.3333v-.66667h-.33333v-.66667h-.33333v-.66667l.66667-.33333v.33333l.33333-.33333-.33333-.33333-.66667.33333-1-.66667m36.667-20h.33333-.33333m2-1-2 .33333 1 .66667h.66667l.33333.66667.33333 1-.33333 1h-.66667-.33333v-.33333l-.66667.66667.66667.33333h1.3333l.66667-1.6667-.33333-1.3333-.66667-1.3333" style="fill:none"/>
 <path d="m40.333 74-.66667.33333v.66667h.33333l.33333-.66667v-.33333z" style="fill:#39aa35"/>
 <path d="m40.333 74-.66667.33333v.66667h.33333l.33333-.66667v-.33333" style="fill:none"/>
 <path d="m39 74.333v.33333h.33333l-.33333-.33333z" style="fill:#39aa35"/>
 <path d="m39 74.333v.33333h.33333l-.33333-.33333" style="fill:none"/>
 <path d="m76.333 53.333h-.66667l.66667.33333v-.33333zm-1.6667-1-1.3333 1-.33333.66667-.33333 1.6667 1 .66667h.33333l.66667-.33333v-.33333h-.66667-.66667v-1.3333l.33333-.66667 1-.66667.66667.33333v-.66667l-.66667-.33333z" style="fill:#39aa35"/>
 <path d="m76.333 53.333h-.66667l.66667.33333v-.33333m-1.6667-1-1.3333 1-.33333.66667-.33333 1.6667 1 .66667h.33333l.66667-.33333v-.33333h-.66667-.66667v-1.3333l.33333-.66667 1-.66667.66667.33333v-.66667l-.66667-.33333" style="fill:none"/>
 <path d="m75.333 52.667v.66667h.33333.66667l-1-.66667z" style="fill:#39aa35"/>
 <path d="m75.333 52.667v.66667h.33333.66667l-1-.66667" style="fill:none"/>
 <path d="m74.667 54.667-.66667.33333.66667.66667h.33333v.33333h-.33333v1.3333.33333h1.3333v-.66667h-.33333v-.66667l-.33333-.66667.66667-.33333.33333.33333.33333-.33333-.66667-.33333-.66667.33333-.66667-.66667z" style="fill:#39aa35"/>
 <path d="m74.667 54.667-.66667.33333.66667.66667h.33333v.33333h-.33333v1.3333.33333h1.3333v-.66667h-.33333v-.66667l-.33333-.66667.66667-.33333.33333.33333.33333-.33333-.66667-.33333-.66667.33333-.66667-.66667" style="fill:none"/>
 <path d="m76 55.333-.66667.33333.33333.66667.66667-.66667-.33333-.33333z" style="fill:#39aa35"/>
 <path d="m76 55.333-.66667.33333.33333.66667.66667-.66667-.33333-.33333" style="fill:none"/>
 <path d="m75 55.667h-.33333v.33333h.33333v-.33333z" style="fill:#39aa35"/>
 <path d="m75 55.667h-.33333v.33333h.33333v-.33333" style="fill:none"/>
</svg>
