<?xml version="1.0" encoding="UTF-8"?>
<svg width="7.5844mm" height="7.5844mm" version="1.1" viewBox="0 0 7.5844 7.5844" xmlns="http://www.w3.org/2000/svg" xmlns:cc="http://creativecommons.org/ns#" xmlns:dc="http://purl.org/dc/elements/1.1/" xmlns:rdf="http://www.w3.org/1999/02/22-rdf-syntax-ns#">
 <defs>
  <clipPath id="clipPath84125">
   <path d="m-2.1499 2.1499h4.2998v-4.2998h-4.2998z"/>
  </clipPath>
 </defs>
 <metadata>
  <rdf:RDF>
   <cc:Work rdf:about="">
    <dc:format>image/svg+xml</dc:format>
    <dc:type rdf:resource="http://purl.org/dc/dcmitype/StillImage"/>
    <dc:title/>
   </cc:Work>
  </rdf:RDF>
 </metadata>
 <g transform="matrix(1.7639 0 0 1.7639 3.7922 3.7922)">
  <g clip-path="url(#clipPath84125)">
   <path d="m2.15-0.23h-0.459v0.47h0.459z" fill="#ed1c24" fill-rule="evenodd"/>
   <g transform="translate(1.6909,-1.3501)">
    <path d="m0 0-0.33-0.33-0.33 0.33 0.34 0.33z" fill="#ed1c24" fill-rule="evenodd"/>
   </g>
   <path d="m0.24-2.15h-0.469v0.46h0.469z" fill="#ed1c24" fill-rule="evenodd"/>
   <g transform="translate(-1.3501,-1.6899)">
    <path d="m0 0-0.33 0.34 0.32 0.32 0.33-0.33z" fill="#ed1c24" fill-rule="evenodd"/>
   </g>
   <path d="m-2.15 0.23h0.46v-0.471h-0.46z" fill="#ed1c24" fill-rule="evenodd"/>
   <g transform="translate(-1.6899,1.3501)">
    <path d="m0 0 0.33 0.33 0.33-0.32-0.33-0.33z" fill="#ed1c24" fill-rule="evenodd"/>
   </g>
   <path d="m-0.24 2.15h0.47v-0.46h-0.47z" fill="#ed1c24" fill-rule="evenodd"/>
   <g transform="translate(1.3501,1.6899)">
    <path d="m0 0 0.33-0.33-0.319-0.319-0.33 0.33z" fill="#ed1c24" fill-rule="evenodd"/>
   </g>
   <g transform="translate(1.6958 .0044)">
    <path d="m0 0c0 0.948-0.761 1.716-1.701 1.716-0.939 0-1.7-0.768-1.7-1.716 0-0.947 0.761-1.715 1.7-1.715 0.94 0 1.701 0.768 1.701 1.715" fill="#fff"/>
   </g>
   <g transform="translate(1.6958 .0044)">
    <path d="m0 0c0 0.948-0.761 1.716-1.701 1.716-0.939 0-1.7-0.768-1.7-1.716 0-0.947 0.761-1.715 1.7-1.715 0.94 0 1.701 0.768 1.701 1.715z" fill="none" stroke="#ed1c24" stroke-miterlimit="2" stroke-width=".227"/>
   </g>
  </g>
 </g>
</svg>
