<?xml version="1.0" encoding="UTF-8"?>
<svg width="8.4188mm" height="8.4629mm" version="1.1" viewBox="0 0 8.4188 8.4629" xmlns="http://www.w3.org/2000/svg" xmlns:cc="http://creativecommons.org/ns#" xmlns:dc="http://purl.org/dc/elements/1.1/" xmlns:rdf="http://www.w3.org/1999/02/22-rdf-syntax-ns#">
 <defs>
  <clipPath id="clipPath85855">
   <path d="m-2.3863 2.3989h4.773v-4.7979h-4.773z"/>
  </clipPath>
 </defs>
 <metadata>
  <rdf:RDF>
   <cc:Work rdf:about="">
    <dc:format>image/svg+xml</dc:format>
    <dc:type rdf:resource="http://purl.org/dc/dcmitype/StillImage"/>
    <dc:title/>
   </cc:Work>
  </rdf:RDF>
 </metadata>
 <g transform="matrix(1.7639 0 0 1.7639 4.2088 4.2315)">
  <g clip-path="url(#clipPath85855)">
   <g transform="translate(1.9844)">
    <path d="m0 0c0 1.103-0.889 1.997-1.985 1.997-1.095 0-1.983-0.894-1.983-1.997s0.888-1.997 1.983-1.997c1.096 0 1.985 0.894 1.985 1.997" fill="#fff" fill-rule="evenodd"/>
   </g>
   <g transform="translate(1.9844)">
    <path d="m0 0c0 1.103-0.889 1.997-1.985 1.997-1.095 0-1.983-0.894-1.983-1.997s0.888-1.997 1.983-1.997c1.096 0 1.985 0.894 1.985 1.997z" fill="none" stroke="#ed1c24" stroke-miterlimit="2" stroke-width=".805"/>
   </g>
  </g>
 </g>
</svg>
