<?xml version="1.0" encoding="UTF-8"?>
<svg width="7.2055mm" height="6.0685mm" version="1.1" viewBox="0 0 7.2055 6.0685" xmlns="http://www.w3.org/2000/svg" xmlns:cc="http://creativecommons.org/ns#" xmlns:dc="http://purl.org/dc/elements/1.1/" xmlns:rdf="http://www.w3.org/1999/02/22-rdf-syntax-ns#">
 <defs>
  <clipPath id="clipPath86727">
   <path d="m-2.0432 1.5171h4.0854v-3.4404h-4.0854z"/>
  </clipPath>
 </defs>
 <metadata>
  <rdf:RDF>
   <cc:Work rdf:about="">
    <dc:format>image/svg+xml</dc:format>
    <dc:type rdf:resource="http://purl.org/dc/dcmitype/StillImage"/>
    <dc:title/>
   </cc:Work>
  </rdf:RDF>
 </metadata>
 <g transform="matrix(1.7639 0 0 1.7639 3.6033 3.3926)">
  <g clip-path="url(#clipPath86727)">
   <g transform="translate(2.0422 .8794)">
    <path d="m0 0c0 0.352-0.285 0.638-0.638 0.638-0.352 0-0.637-0.286-0.637-0.638s0.285-0.638 0.637-0.638c0.353 0 0.638 0.286 0.638 0.638" fill="#231f20" fill-rule="evenodd"/>
   </g>
   <g transform="translate(.657 -1.2856)">
    <path d="m0 0c0 0.352-0.285 0.638-0.638 0.638-0.352 0-0.637-0.286-0.637-0.638s0.285-0.638 0.637-0.638c0.353 0 0.638 0.286 0.638 0.638" fill="#231f20" fill-rule="evenodd"/>
   </g>
   <g transform="translate(-.7678 .8794)">
    <path d="m0 0c0 0.352-0.285 0.638-0.638 0.638-0.352 0-0.637-0.286-0.637-0.638s0.285-0.638 0.637-0.638c0.353 0 0.638 0.286 0.638 0.638" fill="#231f20" fill-rule="evenodd"/>
   </g>
  </g>
 </g>
</svg>
