<?xml version="1.0" encoding="UTF-8"?><svg id="Capa_2" xmlns="http://www.w3.org/2000/svg" width="18" height="18" viewBox="0 0 18 18"><defs><style>.cls-1{fill:#fff;}.cls-2{fill:#e56e47;}</style></defs><g id="iconos"><g id="_2.2.2"><circle class="cls-2" cx="9" cy="9" r="9"/><path class="cls-1" d="M11.81,6.97v.4h.58v-.4h.74v.4h.58v-.37h.74v1.11h-3.38v-1.14h.74Zm-4.9,1.13v-1.11h-.74v.37h-.58v-.4h-.74v.4h-.58v-.4h-.74v1.14h3.38Zm7.29,.27v4.38c-.37-.21-.79-.33-1.21-.33h-.19c-.29-.29-.65-.45-1.04-.45-.1,0-.21,.01-.31,.04-.7-.56-1.56-.86-2.45-.86-.65,0-1.29,.16-1.86,.47-.3-.34-.69-.54-1.11-.54-.73,0-1.34,.57-1.53,1.38-.25,.05-.48,.15-.71,.27v-4.38h2.9v1.19h.87v-3.98h-.93l2.25-2.25V1.62h.25v.09c.7,1.25,1.39-.89,2.09,.53-.7-1.01-1.39,1.53-2.09,.69v.39l2.25,2.25h-.93v3.98h.87v-1.19h2.88Zm-4.57-1.75c0-.35-.29-.64-.64-.64s-.64,.29-.64,.64v1.25h1.27v-1.25h.01Zm3.36,6.13c-.11,0-.21,.01-.32,.03-.23-.29-.55-.47-.91-.47-.13,0-.26,.03-.38,.08-.64-.56-1.47-.9-2.38-.9-.72,0-1.38,.21-1.95,.57-.23-.38-.6-.64-1.02-.64-.64,0-1.17,.58-1.26,1.34-.74,.08-1.39,.55-1.81,1.25H15.03c-.47-.77-1.21-1.26-2.04-1.26Z"/></g></g></svg>