<?xml version="1.0" encoding="UTF-8" ?>
<svg
   id="Capa_2"
   width="18"
   height="18"
   viewBox="0 0 18 18"
   version="1.1"
   xmlns="http://www.w3.org/2000/svg" >
  <defs
     id="defs4">
    <style
       id="style2">.cls-2{fill:#fff;}.cls-1{fill:#11491e;}</style>
  </defs>
  <g
     id="iconos">
    <g
       id="_4.3.2">
      <circle
         class="cls-2"
         cx="9.0110025"
         cy="9.0110025"
         r="9"
         id="circle6-7"
         style="display:inline;fill:#11491e" />
      <path
         id="circle6"
         style="display:inline;fill:#fff"
         class="cls-2"
         d="M 3.1308594 2.1796875 A 9 9 0 0 0 3.0820312 2.2226562 C 3.098359 2.2083851 3.1144279 2.1938423 3.1308594 2.1796875 z M 2.2226562 3.0820312 A 9 9 0 0 0 2.1796875 3.1308594 C 2.1938423 3.1144279 2.2083851 3.098359 2.2226562 3.0820312 z M 8.9394531 3.2695312 L 7.7207031 5.3691406 L 8.4101562 5.3691406 L 6.9707031 7.359375 L 7.9101562 7.3300781 L 6.2890625 9.3808594 L 7.5898438 9.3808594 L 5.9101562 11.759766 L 12.050781 11.759766 L 10.390625 9.4101562 L 11.599609 9.4101562 L 10.039062 7.3398438 L 10.900391 7.3398438 L 9.5507812 5.390625 L 10.130859 5.390625 L 8.9394531 3.2695312 z M 4.8203125 3.8808594 L 3.609375 5.6191406 L 4.2792969 5.6191406 L 3.0898438 7.4003906 L 3.8398438 7.4003906 L 2.359375 9.2207031 L 3.5097656 9.2207031 L 2.0703125 11.410156 L 5.7695312 11.410156 L 7.0507812 9.6894531 L 5.5703125 9.6894531 L 6.5605469 8.4902344 L 5.7597656 7.4296875 L 6.4296875 7.4296875 L 5.2792969 5.609375 L 5.859375 5.609375 L 4.8203125 3.8808594 z M 13.169922 3.8808594 L 12.130859 5.609375 L 12.699219 5.609375 L 11.550781 7.4296875 L 12.230469 7.4296875 L 11.419922 8.4902344 L 12.410156 9.6796875 L 10.939453 9.6796875 L 12.210938 11.410156 L 15.910156 11.410156 L 14.480469 9.2207031 L 15.619141 9.2207031 L 14.150391 7.4003906 L 14.890625 7.4003906 L 13.699219 5.6191406 L 14.369141 5.6191406 L 13.169922 3.8808594 z M 4.5195312 11.689453 L 4.5195312 13.380859 L 5.1542969 13.402344 L 5.109375 11.689453 L 4.5195312 11.689453 z M 12.839844 11.689453 L 12.839844 13.380859 L 13.429688 13.380859 L 13.429688 11.689453 L 12.839844 11.689453 z M 8.640625 12.060547 L 8.640625 14.109375 L 9.3007812 14.109375 L 9.3007812 12.060547 L 8.640625 12.060547 z M 2.1796875 14.869141 A 9 9 0 0 0 2.2226562 14.917969 C 2.2083851 14.901641 2.1938423 14.885572 2.1796875 14.869141 z M 15.820312 14.869141 C 15.806158 14.885572 15.791615 14.901641 15.777344 14.917969 A 9 9 0 0 0 15.820312 14.869141 z M 3.0820312 15.777344 A 9 9 0 0 0 3.1308594 15.820312 C 3.1144279 15.806158 3.098359 15.791615 3.0820312 15.777344 z M 14.917969 15.777344 C 14.901641 15.791615 14.885572 15.806158 14.869141 15.820312 A 9 9 0 0 0 14.917969 15.777344 z " />
    </g>
  </g>
</svg>
