<?xml version="1.0" encoding="UTF-8"?><svg id="Capa_2" xmlns="http://www.w3.org/2000/svg" width="18" height="18" viewBox="0 0 18 18"><defs><style>.cls-1{fill:#fff;}.cls-2{fill:#11491e;}</style></defs><g id="iconos"><g id="_4.1.4"><circle class="cls-2" cx="9" cy="9" r="9"/><g id="field"><path class="cls-1" d="M2.16,7.84c.26-1.19,.52-2.38,.77-3.56,.29,.48,.59,1.08,.85,1.79,.23,.63,.39,1.21,.49,1.71-.3-.04-.67-.07-1.09-.06-.39,.01-.74,.06-1.03,.12h0Z"/><path class="cls-1" d="M14.91,8.55c.25-1.27,.5-2.54,.75-3.8,.34,1.12,.69,2.25,1.03,3.37-.23-.01-.56-.01-.95,.09-.36,.09-.64,.23-.83,.34Z"/><path class="cls-1" d="M2.45,14.34c.74-.09,2.34-.19,4.16,.54,1.75,.71,2.82,1.83,3.3,2.41h-.95c-.68-.02-1.62-.13-2.69-.5-1.28-.44-2.21-1.08-2.78-1.55-.34-.31-.69-.61-1.03-.92v.02Z"/><path class="cls-1" d="M.93,11.24c.08,.29,.19,.63,.37,1,.21,.43,.45,.78,.66,1.03,.78-.16,3.4-.68,6.21,1,1.47,.87,2.62,2.01,3.1,2.74,.35-.07,.82-.2,1.33-.47,.39-.2,.69-.43,.92-.63-.85-.96-2.56-2.65-5.27-3.75-3.19-1.3-6.01-1.09-7.31-.92h-.01Z"/><path class="cls-1" d="M.64,9c0,.21,0,.46,0,.73,.02,.24,.06,.46,.1,.65,1.31-.23,4.61-.36,7.86,.73,3.34,1.12,5.06,3.38,5.78,4.16,.23-.14,.54-.36,.84-.69,.27-.3,.46-.59,.57-.82-1.04-1.1-3.52-3.14-7.31-4.3-3.44-1.06-6.38-.73-7.85-.46Z"/><path class="cls-1" d="M16.24,12.91c.16-.19,.36-.47,.52-.83,.12-.28,.19-.54,.23-.75h-2.84c.7,.53,1.39,1.05,2.09,1.58Z"/><path class="cls-1" d="M17.26,9c.05,.17-.07,1.44-.16,1.57-1.34-.04-2.77-.09-4.11-.13,.45-.3,1.03-.63,1.76-.9,.98-.37,1.87-.5,2.51-.54Z"/><path class="cls-1" d="M10.13,9.22c-.03-.54-.11-1.23-.32-2.01-.27-.98-.66-1.73-.97-2.24-.17,.61-.32,1.18-.48,1.75-.27-.97-.65-1.72-.96-2.22-.33,1.19-.65,2.38-.98,3.56,.54,.04,1.24,.14,2.02,.39,.69,.22,1.25,.51,1.68,.76h0Z"/></g></g></g></svg>