<!-- Generated by IcoMoon.io -->
<svg version="1.1" xmlns="http://www.w3.org/2000/svg" width="1024" height="1024" viewBox="0 0 1024 1024">
<title></title>
<g id="icomoon-ignore">
</g>
<path d="M381.932 725.264c-8.7 44.354-14.344 65.8-47.35 68.549-8.135 0.678-14.758 7.043-16.026 15.403-1.272 8.356 3.146 16.531 10.684 19.767 2.12 0.907 52.601 22.305 111.581 22.309 0.008 0 0.014 0 0.020 0 41.099 0 76.356-10.332 104.784-30.712 33.692-24.15 56.922-61.944 69.27-112.284l-113.496-118.671c-95.916 16.103-109.505 84.814-119.468 135.639zM984.779 204.098c-3.052-3.193-8.493-7-17.084-7-10.072 0-36.827 0-199.324 143.43-75.057 66.253-161.597 148.212-230.435 217.958l107.704 112.607c70.795-76.331 153.387-172.007 219.066-254.12 41.48-51.845 73.374-94.624 94.796-127.146 28.377-43.076 40.806-69.497 25.276-85.729zM572.391 860.754c-36.45 26.128-80.71 39.371-131.576 39.371-66.949-0.002-123.343-23.343-129.604-26.026-27.732-11.921-43.835-41.732-39.164-72.485 4.577-30.128 27.845-53.029 56.91-56.302 2.533-7.848 5.335-22.143 6.836-29.784 5.526-28.17 13.091-66.759 36.362-101.108 25.414-37.503 63.724-61.546 114.024-71.623 28.869-29.721 61.807-62.396 96.176-95.558-17.373-3.912-32.909-15.649-41.245-33.405-14.344-30.581-1.833-67.371 27.906-82.090 29.817-14.754 65.579-1.868 79.907 28.76 2.822 6.038 4.571 12.311 5.388 18.606 28.506-26.483 56.818-52.191 83.542-75.78 0.158-0.141 0.309-0.274 0.469-0.414-30.038-59.623-73.114-112.454-125.6-152.906-75.37-58.087-165.114-88.805-259.529-88.832-0.031 0-0.049 0-0.074 0-63.715 0-141.167 23.093-202.138 60.279-74.734 45.574-115.888 106.529-115.872 171.622 0.025 78.588 42.754 111.46 77.091 137.871 27.998 21.539 50.108 38.55 50.121 75.829 0.010 37.276-22.092 54.272-50.074 75.79-34.324 26.395-77.048 59.249-77.021 137.847 0.016 65.083 41.196 126.052 115.952 171.665 61.014 37.233 138.504 60.373 202.234 60.389 0.043 0 0.084 0 0.125 0 115.653 0 224.373-46.303 306.145-130.388 61.311-63.044 101.974-141.67 118.499-227.211-41.050 47.223-82.381 93.071-119.351 132.229-15.686 58.831-44.724 103.748-86.442 133.65zM361.886 246.116c7.35-33.18 39.43-53.891 71.664-46.293 32.186 7.561 52.353 40.538 45.056 73.675-7.354 33.096-39.449 53.811-71.684 46.252-32.213-7.52-52.392-40.536-45.036-73.634zM167.684 359.197c-20.611-26.601-16.376-65.321 9.464-86.495 25.833-21.137 63.472-16.804 84.122 9.751 20.566 26.565 16.314 65.28-9.501 86.499-25.78 21.182-63.476 16.804-84.085-9.755zM199.145 765.188c-25.854-21.195-30.104-59.912-9.492-86.505 20.599-26.542 58.249-30.896 84.099-9.705 25.829 21.193 30.085 59.912 9.488 86.46-20.595 26.591-58.251 30.941-84.095 9.751z"></path>
</svg>
