<!-- Generated by IcoMoon.io -->
<svg version="1.1" xmlns="http://www.w3.org/2000/svg" width="1024" height="1024" viewBox="0 0 1024 1024">
<title></title>
<g id="icomoon-ignore">
</g>
<path fill="#000" d="M384 191.333v60q-54-22-112-22-56 0-111 22t-99 66l142 142h46v48q28 26 63 41t71 17v96h-128v128q0 36 25 61t61 25h426q36 0 65-18t46-47 17-63v-556h-512zM336 465.333v-92h-96l-46-44q38-14 78-14 88 0 152 62l60 60-8 8q-34 34-82 34-30 0-58-14zM810 747.333q0 16-12 29t-30 13-30-13-12-29v-86h-256v-110q38-16 66-44l8-8 122 120h60v-60l-256-256v-26h340v470z"></path>
</svg>
