<?xml version="1.0" encoding="UTF-8" standalone="no"?>
<svg
   xmlns:dc="http://purl.org/dc/elements/1.1/"
   xmlns:cc="http://creativecommons.org/ns#"
   xmlns:rdf="http://www.w3.org/1999/02/22-rdf-syntax-ns#"
   xmlns:svg="http://www.w3.org/2000/svg"
   xmlns="http://www.w3.org/2000/svg"
   xmlns:sodipodi="http://sodipodi.sourceforge.net/DTD/sodipodi-0.dtd"
   xmlns:inkscape="http://www.inkscape.org/namespaces/inkscape"
   version="1.1"
   width="512"
   height="512"
   viewBox="0 0 512 512"
   id="svg891"
   sodipodi:docname="file-pdf.svg"
   inkscape:version="1.0.2 (1.0.2+r75+1)">
  <metadata
     id="metadata897">
    <rdf:RDF>
      <cc:Work
         rdf:about="">
        <dc:format>image/svg+xml</dc:format>
        <dc:type
           rdf:resource="http://purl.org/dc/dcmitype/StillImage" />
      </cc:Work>
    </rdf:RDF>
  </metadata>
  <defs
     id="defs895" />
  <sodipodi:namedview
     pagecolor="#ffffff"
     bordercolor="#666666"
     borderopacity="1"
     objecttolerance="10"
     gridtolerance="10"
     guidetolerance="10"
     inkscape:pageopacity="0"
     inkscape:pageshadow="2"
     inkscape:window-width="1920"
     inkscape:window-height="1080"
     id="namedview893"
     showgrid="false"
     inkscape:zoom="1.7480469"
     inkscape:cx="256"
     inkscape:cy="253.99777"
     inkscape:window-x="0"
     inkscape:window-y="0"
     inkscape:window-maximized="1"
     inkscape:current-layer="svg891" />
  <title
     id="title884" />
  <g
     id="icomoon-ignore" />
  <path
     d="M421.006 294.74c-6.824-6.723-21.957-10.283-44.986-10.586-15.589-0.172-34.351 1.201-54.085 3.964-8.837-5.099-17.946-10.647-25.094-17.329-19.231-17.958-35.284-42.886-45.288-70.297 0.652-2.56 1.207-4.81 1.724-7.106 0 0 10.833-61.53 7.966-82.333-0.396-2.853-0.638-3.681-1.404-5.898l-0.941-2.417c-2.947-6.796-8.724-13.997-17.782-13.604l-5.458-0.172c-10.101 0-18.332 5.166-20.493 12.887-6.569 24.217 0.209 60.446 12.49 107.369l-3.144 7.643c-8.794 21.438-19.815 43.030-29.539 62.079l-1.264 2.477c-10.23 20.020-19.513 37.014-27.928 51.411l-8.688 4.594c-0.632 0.334-15.522 8.209-19.014 10.322-29.628 17.69-49.262 37.771-52.519 53.708-1.036 5.085-0.265 11.593 5.007 14.606l8.403 4.229c3.646 1.826 7.489 2.751 11.427 2.751 21.103 0 45.601-26.286 79.349-85.183 38.965-12.685 83.326-23.229 122.206-29.045 29.629 16.684 66.071 28.272 89.071 28.272 4.084 0 7.606-0.39 10.466-1.147 4.411-1.168 8.129-3.684 10.396-7.097 4.463-6.716 5.367-15.966 4.156-25.438-0.36-2.811-2.605-6.287-5.034-8.66zM105.823 407.024c3.849-10.521 19.080-31.322 41.603-49.778 1.416-1.148 4.904-4.416 8.097-7.451-23.552 37.562-39.324 52.533-49.7 57.229zM239.217 99.843c6.783 0 10.642 17.097 10.962 33.127s-3.429 27.28-8.079 35.604c-3.851-12.324-5.713-31.75-5.713-44.452 0 0-0.283-24.279 2.83-24.279v0zM199.426 318.747c4.725-8.458 9.641-17.378 14.665-26.839 12.246-23.158 19.979-41.278 25.739-56.173 11.455 20.842 25.722 38.56 42.492 52.756 2.093 1.771 4.31 3.551 6.638 5.325-34.105 6.748-63.582 14.955-89.534 24.931v0zM414.451 316.826c-2.076 1.299-8.026 2.050-11.854 2.050-12.354 0-27.636-5.647-49.063-14.833 8.234-0.609 15.781-0.919 22.551-0.919 12.391 0 16.060-0.054 28.175 3.036 12.114 3.090 12.269 9.367 10.191 10.666v0z"
     id="path887"
     style="fill:#ff0000" />
  <path
     d="M458.903 114.538c-11.105-15.146-26.587-32.85-43.589-49.852s-34.706-32.482-49.852-43.589c-25.787-18.91-38.296-21.097-45.462-21.097h-248c-22.056 0-40 17.944-40 40v432c0 22.056 17.943 40 40 40h368c22.056 0 40-17.944 40-40v-312c0-7.166-2.186-19.675-21.097-45.462v0zM392.687 87.313c15.35 15.35 27.4 29.199 36.29 40.687h-76.977v-76.973c11.491 8.89 25.339 20.939 40.687 36.286v0zM448 472c0 4.336-3.664 8-8 8h-368c-4.336 0-8-3.664-8-8v-432c0-4.336 3.664-8 8-8 0 0 247.978-0.001 248 0v112c0 8.836 7.162 16 16 16h112v312z"
     id="path889" />
  <path
     style="fill:#ff0000;stroke:#11491e;stroke-width:0.572067"
     d="m 108.69274,422.60348 c -4.94471,-0.44387 -16.281494,-5.24522 -19.668765,-8.3301 -3.332569,-3.03507 -4.339808,-8.78846 -2.577501,-14.72279 2.466222,-8.30467 8.122775,-16.38283 18.606266,-26.57174 12.31354,-11.96754 24.91098,-20.62733 48.00561,-33.00028 l 13.05356,-6.99345 5.99729,-10.60429 c 17.8546,-31.57017 42.72184,-81.33131 52.79001,-105.63659 l 3.10928,-7.50604 -3.14519,-12.51631 c -8.16722,-32.50153 -11.07958,-49.73333 -11.59055,-68.57887 -0.35251,-13.00096 0.48981,-21.46728 2.73204,-27.46016 2.11584,-5.655091 8.71955,-10.191095 16.05276,-11.026437 5.53647,-0.630671 13.53804,0.0134 16.21954,1.305568 5.24663,2.528242 10.72388,10.563049 12.26251,17.988369 0.81535,3.93486 0.82701,19.54188 0.0212,28.43351 -1.50542,16.61205 -5.88237,47.9116 -8.06756,57.69099 -1.35982,6.08563 -1.39383,5.91872 3.50547,17.20636 8.87507,20.44756 21.70073,39.5959 36.61055,54.6585 7.27438,7.34891 12.4049,11.33352 22.42926,17.41963 l 6.69442,4.0644 3.31675,-0.45897 c 16.62892,-2.30106 27.35522,-3.01163 45.93575,-3.04302 20.47321,-0.0346 25.34236,0.36358 34.76849,2.84315 7.06721,1.85906 11.24196,3.90979 14.79974,7.26994 4.34589,4.10449 5.44162,7.09224 5.4871,14.96191 0.0904,15.63546 -5.27568,23.77284 -17.22712,26.12415 -4.45072,0.87562 -17.05907,0.41364 -24.38463,-0.89348 -20.57099,-3.67053 -45.79493,-12.63697 -66.81978,-23.75266 -6.47973,-3.42579 -3.88197,-3.43224 -23.61949,0.0586 -29.04887,5.13775 -60.07726,12.56768 -88.61771,21.22004 -6.29274,1.90771 -12.38553,3.72209 -13.53954,4.03196 -1.95422,0.52473 -2.51017,1.25619 -8.10222,10.65994 -28.91179,48.61891 -51.48927,72.83219 -69.85733,74.9187 -1.90522,0.21642 -4.23632,0.32416 -5.18023,0.23943 z m 1.72848,-17.80777 c 7.05583,-4.60055 16.97881,-14.71715 25.8651,-26.36981 5.53853,-7.26271 19.69249,-28.13499 19.32689,-28.50059 -0.23077,-0.23076 -9.89041,8.08257 -18.03109,15.51801 -8.84781,8.08131 -19.34901,20.21444 -25.59189,29.56897 -2.54309,3.81065 -6.44386,10.8999 -6.44386,11.71106 0,0.79822 1.76402,0.10068 4.87485,-1.92764 z m 96.21107,-88.37916 c 18.87231,-7.02133 48.86363,-15.37828 73.25833,-20.4131 5.11661,-1.05602 9.23549,-2.08842 9.15308,-2.29422 -0.0824,-0.20581 -2.20929,-2.01419 -4.72638,-4.01863 -6.48751,-5.16622 -18.59418,-17.42756 -24.51043,-24.82356 -5.59379,-6.9929 -13.92304,-19.10635 -17.20579,-25.02284 -1.17682,-2.121 -2.32967,-3.97378 -2.56188,-4.11729 -0.23221,-0.14351 -1.79481,3.13621 -3.47246,7.28828 -7.37047,18.24146 -17.53702,39.26084 -30.11699,62.26698 -3.89642,7.12576 -7.08441,13.11101 -7.08441,13.30056 0,0.53105 0.0865,0.50526 7.26693,-2.16618 z m 206.82916,1.21373 c 1.92524,-0.83712 2.14525,-1.15022 2.14525,-3.05279 0,-6.46178 -12.82734,-11.00938 -32.53819,-11.53557 -10.58852,-0.28267 -29.82023,0.31739 -29.81245,0.93019 0.013,1.02243 24.5302,10.31705 33.27446,12.61453 8.82813,2.31952 8.37334,2.26324 17.06278,2.11139 5.63875,-0.0985 8.30183,-0.38669 9.86815,-1.06775 z M 245.17099,162.85393 c 0.98614,-2.36882 2.45921,-6.77153 3.27347,-9.7838 1.38892,-5.13809 1.48114,-6.29063 1.49095,-18.63438 0.009,-11.29167 -0.16008,-13.92822 -1.19214,-18.59217 -2.39464,-10.8216 -5.46207,-16.248569 -8.98965,-15.904734 -1.66736,0.162514 -1.81951,0.378734 -2.53716,3.605284 -1.04338,4.69107 -1.15267,30.45706 -0.16621,39.1866 0.96267,8.51906 2.06126,15.0674 3.58986,21.39809 1.42465,5.90015 1.55972,5.86214 4.53088,-1.27489 z"
     id="path899" />
</svg>
