<?xml version="1.0" encoding="UTF-8"?>
<!-- Generator: Adobe Illustrator 13.0.0, SVG Export Plug-In . SVG Version: 6.00 Build 14948)  -->
<!DOCTYPE svg PUBLIC "-//W3C//DTD SVG 1.1//EN" "http://www.w3.org/Graphics/SVG/1.1/DTD/svg11.dtd">
<svg version="1.1" id="Capa_1" xmlns="http://www.w3.org/2000/svg" xmlns:xlink="http://www.w3.org/1999/xlink" x="0px" y="0px" width="283.465px" height="283.465px" viewBox="0 0 283.465 283.465" enable-background="new 0 0 283.465 283.465" xml:space="preserve">
<g>
	<g>
		<path fill="#364B5F" d="M96.18,177.743c8.003,3.179,16.21,4.769,24.623,4.769c8.412,0,16.62-1.59,24.622-4.769    c8.002-3.181,15.184-7.952,21.545-14.313c6.36-6.362,11.131-13.543,14.312-21.546c3.181-8.002,4.771-16.158,4.771-24.469    c0-8.31-1.59-16.518-4.771-24.622s-7.951-15.338-14.312-21.698c-6.361-6.361-13.543-11.08-21.545-14.158    c-8.001-3.078-16.209-4.616-24.622-4.616s-16.62,1.538-24.623,4.616c-8.001,3.078-15.184,7.797-21.544,14.158    c-6.359,6.36-11.132,13.594-14.313,21.698c-3.179,8.104-4.769,16.313-4.769,24.622c0,8.311,1.59,16.467,4.769,24.469    c3.181,8.003,7.952,15.186,14.313,21.546S88.178,174.561,96.18,177.743z M76.637,8.618C91.101,2.873,105.825,0,120.802,0    c14.979,0,29.701,2.873,44.167,8.618c14.466,5.746,27.443,14.261,38.935,25.546c9.849,9.85,17.595,20.878,23.237,33.087    c5.643,12.208,9.131,24.776,10.464,37.703c1.334,12.925,0.564,25.852-2.308,38.779c-2.873,12.926-7.9,25.033-15.082,36.318    l51.092,51.092c3.078,3.078,5.335,6.462,6.771,10.157c1.437,3.692,2.154,7.539,2.154,11.54s-0.718,7.849-2.154,11.542    s-3.693,7.078-6.771,10.156s-6.463,5.335-10.156,6.771s-7.541,2.154-11.542,2.154s-7.849-0.718-11.542-2.154    c-3.693-1.438-7.079-3.693-10.156-6.771L174.971,221.6c-11.078,5.746-22.724,9.645-34.933,11.696    c-12.208,2.052-24.365,2.154-36.472,0.306c-12.107-1.847-23.803-5.538-35.087-11.078c-11.285-5.54-21.546-12.927-30.778-22.16    c-11.49-11.49-20.107-24.469-25.854-38.935c-5.745-14.466-8.617-29.188-8.617-44.166s2.872-29.701,8.617-44.167    c5.746-14.465,14.362-27.443,25.854-38.934C49.193,22.878,62.171,14.362,76.637,8.618z"/>
	</g>
</g>
</svg>
