<?xml version="1.0" encoding="utf-8"?>
<!-- Generator: Adobe Illustrator 27.3.1, SVG Export Plug-In . SVG Version: 6.00 Build 0)  -->
<svg version="1.1" id="Capa_1" xmlns="http://www.w3.org/2000/svg" xmlns:xlink="http://www.w3.org/1999/xlink" x="0px" y="0px"
	 viewBox="0 0 473.4 473" style="enable-background:new 0 0 473.4 473;" xml:space="preserve">
<style type="text/css">
	.st0{fill:#ffffff;}
</style>
<path class="st0" d="M336,250.8c0-8.6,7-15.7,15.7-15.7c3.8,0,7.5,1.4,10.4,4l80.8,71.8c9.8-25.4,15.1-53.1,15.1-82
	C458,102.5,355.5,0,229,0S0,102.5,0,229s102.5,229,229,229c38.7,0,75.1-9.6,107-26.5V250.8z M233,89.8c18.9,0,34.2,15.3,34.2,34.2
	s-15.3,34.2-34.2,34.2s-34.2-15.3-34.2-34.2S214.1,89.8,233,89.8z M275.7,363.2h-85.5c-14.2,0-25.6-11.4-25.6-25.6
	s11.4-25.6,25.6-25.6h25.6v-68.4h-25.6c-14.2,0-25.6-11.4-25.6-25.6s11.4-25.6,25.6-25.6h51.3c14.2,0,25.6,11.4,25.6,25.6v94h8.5
	c14.2,0,25.6,11.4,25.6,25.6S289.9,363.2,275.7,363.2z"/>
<path class="st0" d="M357,284.5v134.8c0,4.4,3.6,8,8,8c2.3,0,4.5-1,6-2.7l30-34.4l21.1,42.3c2.9,5.7,9.9,8.1,15.6,5.2
	c5.7-2.9,8.1-9.9,5.2-15.6l-20.6-41.3h42.9c4.4,0,8-3.6,8-8c0-2.3-1-4.5-2.7-6L371,278.3c-1.6-1.4-3.5-2.1-5.6-2.1
	C360.8,276.1,357,279.9,357,284.5L357,284.5z"/>
</svg>
