<!-- Generated by IcoMoon.io -->
<svg version="1.1" xmlns="http://www.w3.org/2000/svg" width="1076" height="1024" viewBox="0 0 1076 1024">
<title></title>
<g id="icomoon-ignore">
</g>
<path fill="#000" d="M170.667 285.681v174.377h89.043v-259.71l325.009 1.484 324.267 2.226v645.565l-127.629 2.226-128.371 1.484v89.043h348.754v-831.072h-831.072v174.377zM746.481 316.104l-47.49 48.974-24.487-23.745-25.229-23.745-8.904 36.359c-5.194 19.293-9.646 47.49-9.646 61.588s-3.71 38.586-8.162 54.168c-4.452 16.325-6.678 29.681-5.194 31.165s32.649-3.71 69.009-11.872c36.359-7.42 77.171-14.099 91.27-14.099h25.229l-23.003-25.971c-12.614-14.841-23.003-28.939-23.003-31.907s20.035-25.229 44.522-48.232c24.487-23.745 44.522-45.264 44.522-48.974 0-2.968-11.872-16.325-25.971-29.681l-25.971-23.003-47.49 48.974zM175.861 546.875c-2.968 2.226-5.194 92.754-5.194 200.348v195.154h401.438l-2.226-198.864-2.226-198.122-193.67-2.226c-106.11-0.742-195.154 0.742-198.122 3.71zM476.383 742.029l-0.742 107.594h-212.22l-2.226-99.432c-0.742-54.91-0.742-103.884 0.742-108.336 2.226-5.194 40.812-7.42 109.078-7.42h106.11l-0.742 107.594z"></path>
</svg>
