<!-- Generated by IcoMoon.io -->
<svg version="1.1" xmlns="http://www.w3.org/2000/svg" width="1024" height="1024" viewBox="0 0 1024 1024">
<title></title>
<g id="icomoon-ignore">
</g>
<path d="M832 96c-88.376 0-160 71.626-160 160 0 23.876 5.25 46.562 14.624 66.876l145.376 285.124 145.376-285.126c9.374-20.312 14.624-42.998 14.624-66.874 0-88.374-71.624-160-160-160zM832 352c-53 0-96-43-96-96s43-96 96-96 96 43 96 96-43 96-96 96zM879.876 654.938l58.25 116.438-147.688 73.812-49.5-247.624 9.188-9.188-30.5-60-15.626 15.624-192-128-192 128-128-128-192 384 256 128 256-128 256 128 256-128-108-215.938-36.124 70.876zM233.5 845.188l-147.626-73.812 123.626-247.376 73.562 73.562-49.562 247.626zM480 744.438l-179 89.5 46.25-231.188 132.75-88.5v230.188zM544 744.438v-230.188l132.688 88.5 46.25 231.188-178.938-89.5z"></path>
</svg>
