<!-- Generated by IcoMoon.io -->
<svg version="1.1" xmlns="http://www.w3.org/2000/svg" width="1024" height="1024" viewBox="0 0 1024 1024">
<title></title>
<g id="icomoon-ignore">
</g>
<path d="M695.536 481.9c0-70.546-25.071-130.89-75.216-181.034s-110.489-75.216-181.034-75.216c-70.545 0-130.89 25.071-181.034 75.216s-75.216 110.489-75.216 181.034c0 70.545 25.072 130.89 75.216 181.034s110.489 75.216 181.034 75.216c70.546 0 130.89-25.072 181.034-75.216s75.216-110.489 75.216-181.034zM988.394 957.792c0 19.828-7.245 36.988-21.735 51.479s-31.65 21.735-51.479 21.735c-20.591 0-37.751-7.245-51.479-21.735l-196.192-195.62c-68.257 47.284-144.331 70.926-228.223 70.926-54.529 0-106.675-10.581-156.439-31.745s-92.661-49.763-128.697-85.798-64.634-78.934-85.798-128.697-31.745-101.91-31.745-156.439c0-54.53 10.581-106.675 31.745-156.439s49.763-92.661 85.798-128.697 78.934-64.634 128.697-85.798 101.91-31.745 156.439-31.745c54.53 0 106.675 10.581 156.439 31.745s92.661 49.763 128.697 85.798 64.634 78.934 85.798 128.697 31.745 101.909 31.745 156.439c0 83.891-23.642 159.965-70.926 228.223l196.192 196.192c14.109 14.109 21.164 31.269 21.164 51.479zM367.027 582.418c0 3.071-3.25 6.532-7.221 7.694l-91.875 26.838c-3.973 1.16-7.222-0.402-7.222-3.474v-236.929c0-3.071 3.249-6.532 7.222-7.694l91.875-26.838c3.971-1.16 7.221 0.402 7.221 3.474v236.929zM487.573 613.474c0 3.072-3.25 4.635-7.222 3.474l-91.874-26.838c-3.972-1.16-7.221-4.623-7.221-7.691v-236.932c0-3.071 3.249-4.634 7.221-3.474l91.874 26.839c3.973 1.16 7.222 4.623 7.222 7.693v236.93zM608.119 582.418c0 3.071-3.248 6.532-7.221 7.694l-91.875 26.838c-3.973 1.16-7.222-0.402-7.222-3.474v-236.929c0-3.071 3.249-6.532 7.222-7.694l91.874-26.838c3.974-1.16 7.222 0.402 7.222 3.474l0.001 236.929z"></path>
</svg>
