<!-- Generated by IcoMoon.io -->
<svg version="1.1" xmlns="http://www.w3.org/2000/svg" width="1024" height="1024" viewBox="0 0 1024 1024">
<title></title>
<g id="icomoon-ignore">
</g>
<path d="M512 34.002v0c-263.612 0.022-477.978 214.384-478 478 0.022 263.602 214.394 477.968 478 478 263.614-0.032 477.972-214.398 478.002-478-0.030-263.612-214.394-477.976-478.002-478zM496.050 872.962c-9.138-5.308-19.736-15.58-30.104-30.45-10.402-14.852-20.638-34.18-29.88-57.214-24.738-61.516-40.26-142.208-44.084-229.842h240.044c-3.826 87.632-19.346 168.326-44.090 229.842-12.31 30.708-26.46 54.84-40.268 70.538-6.882 7.858-13.646 13.568-19.728 17.126-6.118 3.572-11.378 4.984-15.942 4.984-4.566 0-9.826-1.412-15.948-4.984zM305.012 555.45c3.994 98.23 21.34 189.782 50.402 262.228 9.926 24.684 21.018 46.556 33.236 65.448-142.13-47.354-248.328-174.32-265.332-327.676h181.694zM123.316 468.538c17.004-153.354 123.198-280.322 265.33-327.678-12.218 18.898-23.316 40.766-33.238 65.448-29.062 72.444-46.404 164-50.402 262.232v-0.002h-181.69zM718.982 468.546c-3.984-98.236-21.336-189.792-50.398-262.238-9.92-24.68-21.014-46.546-33.23-65.442 142.138 47.356 248.322 174.324 265.332 327.678h-181.704zM632.020 468.548h-240.048c3.824-87.638 19.34-168.324 44.084-229.848 12.304-30.708 26.462-54.842 40.268-70.532 6.878-7.864 13.638-13.576 19.722-17.128 6.126-3.574 11.386-4.984 15.948-4.99 4.562 0.004 9.83 1.416 15.944 4.99 9.148 5.308 19.74 15.578 30.11 30.448 10.398 14.842 20.636 34.176 29.88 57.208 24.75 61.528 40.264 142.216 44.092 229.852v0zM635.362 883.13c12.218-18.894 23.31-40.766 33.226-65.446 29.066-72.448 46.408-163.992 50.402-262.222h181.698c-17.006 153.334-123.21 280.298-265.326 327.668z"></path>
</svg>
