<!-- Generated by IcoMoon.io -->
<svg version="1.1" xmlns="http://www.w3.org/2000/svg" width="1024" height="1024" viewBox="0 0 1024 1024">
<title></title>
<g id="icomoon-ignore">
</g>
<path d="M218.112 776.192l33.792 25.6c9.216 7.168 22.528 5.12 29.696-4.096l80.896-107.52 94.208 124.928c8.192 10.24 20.48 16.384 33.792 16.384 2.048 0 5.12 0 7.168 0 15.36-3.072 28.672-13.312 33.792-28.672l104.448-314.368 143.36 158.72c8.192 9.216 19.456 14.336 31.744 14.336 3.072 0 7.168-1.024 11.264-2.048 15.36-4.096 26.624-16.384 29.696-31.744l97.28-465.92c19.456-11.264 31.744-31.744 31.744-55.296 0-34.816-28.672-63.488-63.488-63.488s-64.512 28.672-64.512 63.488c0 14.336 5.12 27.648 13.312 37.888l-79.872 382.976-104.448-115.712c0-2.048 1.024-4.096 1.024-6.144 0-35.84-28.672-64.512-64.512-64.512s-63.488 28.672-63.488 64.512c0 11.264 3.072 21.504 8.192 30.72l-87.040 262.144-51.2-67.584c1.024-4.096 2.048-8.192 2.048-12.288 0-34.816-28.672-63.488-64.512-63.488s-63.488 28.672-63.488 63.488c0 4.096 0 8.192 1.024 12.288l-87.040 115.712c-7.168 9.216-5.12 22.528 5.12 29.696zM1002.496 852.992h-831.488v-831.488c0-12.288-10.24-21.504-21.504-21.504h-43.008c-11.264 0-21.504 9.216-21.504 21.504v831.488h-63.488c-12.288 0-21.504 10.24-21.504 21.504v43.008c0 11.264 9.216 21.504 21.504 21.504h63.488v63.488c0 12.288 10.24 21.504 21.504 21.504h43.008c11.264 0 21.504-9.216 21.504-21.504v-63.488h831.488c12.288 0 21.504-10.24 21.504-21.504v-43.008c0-11.264-9.216-21.504-21.504-21.504z"></path>
</svg>
