<?xml version="1.0" encoding="UTF-8"?><svg id="Capa_2" xmlns="http://www.w3.org/2000/svg" width="18" height="18" viewBox="0 0 18 18"><defs><style>.cls-1{fill:#11491e;}</style></defs><path class="cls-1" d="M9,0C4.03,0,0,4.03,0,9s4.03,9,9,9,9-4.03,9-9S13.97,0,9,0Zm-3.89,13.38h-.59v-1.69h.59v1.69Zm-3.04-1.97l1.44-2.19h-1.15l1.48-1.82h-.75l1.19-1.78h-.67l1.21-1.74,1.04,1.73h-.58l1.15,1.82h-.67l.8,1.06-.99,1.2h1.48s-1.28,1.72-1.28,1.72H2.07Zm7.23,2.7h-.66v-2.05h.66v2.05Zm-3.39-2.35l1.68-2.38h-1.3l1.62-2.05-.94,.03,1.44-1.99h-.69s1.22-2.1,1.22-2.1l1.19,2.12h-.58l1.35,1.95h-.86l1.56,2.07h-1.21l1.66,2.35H5.91Zm7.52,1.62h-.59v-1.69h.59v1.69Zm-1.22-1.97l-1.27-1.73h1.47s-.99-1.19-.99-1.19l.81-1.06h-.68l1.15-1.82h-.57l1.04-1.73,1.2,1.74h-.67l1.19,1.78h-.74l1.47,1.82h-1.14l1.43,2.19h-3.7Z"/></svg>