<?xml version="1.0" encoding="UTF-8"?>
<svg width="11.43mm" height="10.749mm" version="1.1" viewBox="0 0 11.43 10.749" xmlns="http://www.w3.org/2000/svg" xmlns:cc="http://creativecommons.org/ns#" xmlns:dc="http://purl.org/dc/elements/1.1/" xmlns:rdf="http://www.w3.org/1999/02/22-rdf-syntax-ns#">
 <defs>
  <clipPath id="clipPath85589">
   <path d="m-3.2402 3.047h7.9043v-6.094h-7.9043z"/>
  </clipPath>
 </defs>
 <metadata>
  <rdf:RDF>
   <cc:Work rdf:about="">
    <dc:format>image/svg+xml</dc:format>
    <dc:type rdf:resource="http://purl.org/dc/dcmitype/StillImage"/>
    <dc:title/>
   </cc:Work>
  </rdf:RDF>
 </metadata>
 <g transform="matrix(1.7639 0 0 1.7639 5.7154 5.3746)">
  <g clip-path="url(#clipPath85589)">
   <g transform="translate(-2.5596,2.7635)">
    <path d="m0 0h5.13l-2.57-4.51z" fill="#fff" fill-rule="evenodd"/>
   </g>
   <g transform="translate(.6797 -2.9064)">
    <path d="m0 0-3.24 5.67" fill="#fff"/>
   </g>
   <g transform="translate(.6797 -2.9064)">
    <path d="m0 0-3.24 5.67" fill="none" stroke="#231f20" stroke-miterlimit="2" stroke-width=".567"/>
   </g>
   <g transform="translate(2.5703,2.7635)">
    <path d="m0 0-3.24-5.67" fill="#fff"/>
   </g>
   <g transform="translate(2.5703,2.7635)">
    <path d="m0 0-3.24-5.67" fill="none" stroke="#231f20" stroke-miterlimit="2" stroke-width=".567"/>
   </g>
   <g transform="translate(-3.2402,2.7635)">
    <path d="m0 0h6.48" fill="#fff"/>
   </g>
   <g transform="translate(-3.2402,2.7635)">
    <path d="m0 0h6.48" fill="none" stroke="#231f20" stroke-miterlimit="2" stroke-width=".567"/>
   </g>
   <g transform="translate(-.9395 2.7635)">
    <path d="m0 0h1.89l-0.951-2.02z" fill="#231f20" fill-rule="evenodd"/>
   </g>
  </g>
 </g>
</svg>
