<?xml version="1.0" encoding="UTF-8"?>
<svg width="5.498mm" height="5.498mm" version="1.1" viewBox="0 0 5.498 5.498" xmlns="http://www.w3.org/2000/svg" xmlns:cc="http://creativecommons.org/ns#" xmlns:dc="http://purl.org/dc/elements/1.1/" xmlns:rdf="http://www.w3.org/1999/02/22-rdf-syntax-ns#">
 <defs>
  <clipPath id="clipPath84071">
   <path d="m-1.5587 1.5592h3.1179v-3.1179h-3.1179z"/>
  </clipPath>
 </defs>
 <metadata>
  <rdf:RDF>
   <cc:Work rdf:about="">
    <dc:format>image/svg+xml</dc:format>
    <dc:type rdf:resource="http://purl.org/dc/dcmitype/StillImage"/>
    <dc:title/>
   </cc:Work>
  </rdf:RDF>
 </metadata>
 <g transform="matrix(1.7639 0 0 1.7639 2.7481 2.7481)">
  <g clip-path="url(#clipPath84071)">
   <g transform="translate(1.4175,5e-4)">
    <path d="m0 0c0 0.783-0.635 1.417-1.417 1.417-0.783 0-1.417-0.634-1.417-1.417s0.634-1.417 1.417-1.417c0.782 0 1.417 0.634 1.417 1.417" fill="#fff" fill-rule="evenodd"/>
   </g>
   <g transform="translate(1.4175,5e-4)">
    <path d="m0 0c0 0.783-0.635 1.417-1.417 1.417-0.783 0-1.417-0.634-1.417-1.417s0.634-1.417 1.417-1.417c0.782 0 1.417 0.634 1.417 1.417z" fill="none" stroke="#127bca" stroke-miterlimit="2" stroke-width=".283"/>
   </g>
   <g transform="translate(-1.0005,1.0049)">
    <path d="m0 0 2-2.01" fill="none" stroke="#127bca" stroke-miterlimit="2" stroke-width=".283"/>
   </g>
  </g>
 </g>
</svg>
