<?xml version="1.0" encoding="UTF-8"?>
<!-- Created with Inkscape (http://www.inkscape.org/) -->
<svg width="68.031" height="4" version="1.1" viewBox="0 0 68.031 4" xml:space="preserve" xmlns="http://www.w3.org/2000/svg" xmlns:cc="http://creativecommons.org/ns#" xmlns:dc="http://purl.org/dc/elements/1.1/" xmlns:rdf="http://www.w3.org/1999/02/22-rdf-syntax-ns#"><metadata><rdf:RDF><cc:Work rdf:about=""><dc:format>image/svg+xml</dc:format><dc:type rdf:resource="http://purl.org/dc/dcmitype/StillImage"/><dc:title/></cc:Work></rdf:RDF></metadata><defs><clipPath id="clipPath202"><path d="m0 3h51.024v-3h-51.024z"/></clipPath></defs><g transform="matrix(1.3333 0 0 -1.3333 0 4)"><g transform="translate(9.2259,2.4921)"><path d="m0 0-.609-.141-1.054-.313-.968-.213-1.18-.211-1.648-.122.975-.341.8-.081h.904l1.29.322 1.704.535-.293-.394-.286-.404-.157-.515.062-.261.206-.092.175.03.61.162.753.161.847.263.904.161.878.191 1.831.143-.982.323-1.118.101-1.093-.142-2.384-.657.555.848.102.305-.047.261-.119.141-.253.022z" style="fill:#ed1c24"/></g><g clip-path="url(#clipPath202)"><g transform="translate(17.1 1.4642)"><path d="m0 0c0 .088-.057.16-.128.16-.068 0-.125-.072-.125-.16 0-.09.057-.162.125-.162.071 0 .128.072.128.162" style="fill-rule:evenodd;fill:#ed1c24"/></g><g transform="translate(18.985 1.4642)"><path d="m0 0c0 .145-.093.262-.206.262-.114 0-.207-.117-.207-.262 0-.146.093-.264.207-.264.113 0 .206.118.206.264" style="fill-rule:evenodd;fill:#ed1c24"/></g><g transform="translate(21.378 1.4642)"><path d="m0 0c0 .256-.164.463-.365.463s-.364-.207-.364-.463c0-.258.163-.465.364-.465s.365.207.365.465" style="fill-rule:evenodd;fill:#ed1c24"/></g><g transform="translate(25.18 1.4642)"><path d="m0 0c0 .088-.057.16-.127.16s-.126-.072-.126-.16c0-.09.056-.162.126-.162s.127.072.127.162" style="fill-rule:evenodd;fill:#ed1c24"/></g><g transform="translate(23.454 1.4642)"><path d="m0 0c0 .145-.092.262-.207.262-.112 0-.205-.117-.205-.262 0-.146.093-.264.205-.264.115 0 .207.118.207.264" style="fill-rule:evenodd;fill:#ed1c24"/></g><g transform="translate(27.322 1.4925)"><path d="m0 0 1.647.121 1.181.212.966.212 1.055.313.609.142.405.081.253-.021.118-.141.049-.262-.103-.304-.555-.848 2.384.657 1.094.142 1.117-.102.982-.322-1.83-.143-.879-.192-.904-.161-.847-.263-.753-.161-.61-.162-.174-.029-.206.091-.063.261.158.515.285.404.293.395-1.703-.536-1.291-.322h-.903l-.801.081z" style="fill-rule:evenodd;fill:#ed1c24"/></g><g transform="translate(40.654 1.4642)"><path d="m0 0c0 .088-.057.16-.127.16-.069 0-.126-.072-.126-.16 0-.09.057-.162.126-.162.07 0 .127.072.127.162" style="fill-rule:evenodd;fill:#ed1c24"/></g><g transform="translate(42.539 1.4642)"><path d="m0 0c0 .145-.093.262-.206.262-.114 0-.207-.117-.207-.262 0-.146.093-.264.207-.264.113 0 .206.118.206.264" style="fill-rule:evenodd;fill:#ed1c24"/></g><g transform="translate(44.932 1.4642)"><path d="m0 0c0 .256-.164.463-.365.463s-.364-.207-.364-.463c0-.258.163-.465.364-.465s.365.207.365.465" style="fill-rule:evenodd;fill:#ed1c24"/></g><g transform="translate(48.735 1.4642)"><path d="m0 0c0 .088-.056.16-.127.16-.07 0-.126-.072-.126-.16 0-.09.056-.162.126-.162.071 0 .127.072.127.162" style="fill-rule:evenodd;fill:#ed1c24"/></g><g transform="translate(47.008 1.4642)"><path d="m0 0c0 .145-.092.262-.207.262-.112 0-.205-.117-.205-.262 0-.146.093-.264.205-.264.115 0 .207.118.207.264" style="fill-rule:evenodd;fill:#ed1c24"/></g></g></g></svg>
