<?xml version="1.0" encoding="UTF-8"?>
<svg width="9.3979mm" height="9.8383mm" version="1.1" viewBox="0 0 9.3979 9.8383" xmlns="http://www.w3.org/2000/svg" xmlns:cc="http://creativecommons.org/ns#" xmlns:dc="http://purl.org/dc/elements/1.1/" xmlns:rdf="http://www.w3.org/1999/02/22-rdf-syntax-ns#">
 <defs>
  <clipPath id="clipPath86829">
   <path d="m-2.6641 2.7891h5.3281v-5.5776h-5.3281z"/>
  </clipPath>
 </defs>
 <metadata>
  <rdf:RDF>
   <cc:Work rdf:about="">
    <dc:format>image/svg+xml</dc:format>
    <dc:type rdf:resource="http://purl.org/dc/dcmitype/StillImage"/>
    <dc:title/>
   </cc:Work>
  </rdf:RDF>
 </metadata>
 <g transform="matrix(1.7639 0 0 1.7639 4.6988 4.9187)">
  <g clip-path="url(#clipPath86829)">
   <g transform="translate(1.6211,-1.1787)">
    <path d="m0 0 1.035 1.041v-1.261l-0.406-0.409 0.414-0.414-0.473-0.151-0.252 0.252-0.662-0.668-0.631 0.631 0.664 0.666-1.31 1.31-1.311-1.31 0.664-0.666-0.63-0.631-0.663 0.668-0.252-0.252-0.472 0.151 0.414 0.414-0.406 0.409v1.261l1.035-1.041 1.309 1.309-2.352 2.352 0.317 0.307 2.347-2.347 2.347 2.347 0.317-0.307-2.352-2.352z" fill="#231f20" fill-rule="evenodd"/>
   </g>
  </g>
 </g>
</svg>
