<?xml version="1.0" encoding="UTF-8"?>
<svg width="8.8542mm" height="10.001mm" version="1.1" viewBox="0 0 8.8542 10.001" xmlns="http://www.w3.org/2000/svg" xmlns:cc="http://creativecommons.org/ns#" xmlns:dc="http://purl.org/dc/elements/1.1/" xmlns:rdf="http://www.w3.org/1999/02/22-rdf-syntax-ns#">
 <defs>
  <clipPath id="clipPath83995">
   <path d="M 0,841.89 H 595.276 V 0 H 0 Z"/>
  </clipPath>
  <clipPath id="clipPath84005">
   <path d="m-2.51 2.835h5.02v-5.6699h-5.02z"/>
  </clipPath>
 </defs>
 <metadata>
  <rdf:RDF>
   <cc:Work rdf:about="">
    <dc:format>image/svg+xml</dc:format>
    <dc:type rdf:resource="http://purl.org/dc/dcmitype/StillImage"/>
    <dc:title/>
   </cc:Work>
  </rdf:RDF>
 </metadata>
 <g transform="matrix(1.7639 0 0 -1.7639 -452.9 963.16)">
  <g clip-path="url(#clipPath83995)">
   <g transform="matrix(1 0 0 -1 259.27 543.21)">
    <g clip-path="url(#clipPath84005)">
     <g transform="translate(.5603 -2.3857)">
      <path d="m0 0-0.13-0.131-0.14-0.109-0.16-0.09-0.17-0.07-0.18-0.039-0.19-0.01-0.18 0.019-0.18 0.039-0.17 0.071-0.16 0.099-0.14 0.121-0.12 0.129-0.1 0.16-0.08 0.17-0.05 0.17-0.02 0.18 0.01 0.191 0.03 0.18 0.01 0.049-0.13-0.029-0.14-0.01-0.14 0.019-0.13 0.051-0.12 0.07-0.1 0.09-0.09 0.11-0.06 0.131-0.03 0.138-0.01 0.141 0.03 0.131 0.04 0.129 0.08 0.121 0.09 0.109 0.11 0.08 0.13 0.061 0.07 0.019v0.151l0.02 0.148 0.05 0.15 0.08 0.131 0.1 0.119 0.12 0.1 0.13 0.07 0.15 0.051 0.15 0.029 0.15-9e-3 0.16-0.03 0.14-0.05 0.13-0.09 0.05-0.039 0.11 0.138 0.13 0.131 0.14 0.11 0.16 0.08 0.17 0.06 0.18 0.03h0.18l0.18-0.03 0.17-0.051 0.16-0.08 0.15-0.099 0.13-0.119 0.11-0.151 0.09-0.15 0.02-0.061 0.17-0.019 0.16-0.051 0.14-0.068 0.14-0.09 0.12-0.121 0.09-0.129 0.07-0.151 0.05-0.16 0.02-0.16-0.01-0.17-0.03-0.16-0.07-0.15-0.08-0.141-0.11-0.129-0.13-0.1-0.14-0.08-0.16-0.06-0.05-0.01 0.01-0.17-0.03-0.16-0.05-0.16-0.07-0.141-0.1-0.129-0.12-0.121-0.14-0.09-0.15-0.07-0.16-0.039-0.16-0.01-0.17 0.01z" fill="#4dbd38" fill-rule="evenodd"/>
     </g>
     <g transform="translate(-.1697 1.1943)">
      <path d="m0 0-0.23 1.641h0.8l-0.22-1.481z" fill="#4dbd38" fill-rule="evenodd"/>
     </g>
    </g>
   </g>
  </g>
 </g>
</svg>
