<?xml version="1.0" encoding="UTF-8"?>
<svg width="12.653mm" height="8.0815mm" version="1.1" viewBox="0 0 12.653 8.0815" xmlns="http://www.w3.org/2000/svg" xmlns:cc="http://creativecommons.org/ns#" xmlns:dc="http://purl.org/dc/elements/1.1/" xmlns:rdf="http://www.w3.org/1999/02/22-rdf-syntax-ns#">
 <defs>
  <clipPath id="clipPath85995">
   <path d="m-3.587 2.2911h7.1741v-4.5823h-7.1741z"/>
  </clipPath>
 </defs>
 <metadata>
  <rdf:RDF>
   <cc:Work rdf:about="">
    <dc:format>image/svg+xml</dc:format>
    <dc:type rdf:resource="http://purl.org/dc/dcmitype/StillImage"/>
    <dc:title/>
   </cc:Work>
  </rdf:RDF>
 </metadata>
 <g transform="matrix(1.7639 0 0 1.7639 6.3271 4.0413)">
  <g clip-path="url(#clipPath85995)">
   <path d="m3.445 2.149h-6.891v-4.299h6.891z" fill="#fff"/>
   <path d="m3.445 2.149h-6.891v-4.299h6.891z" fill="none" stroke="#231f20" stroke-miterlimit="2" stroke-width=".283"/>
   <g transform="translate(-3.4453,1.0771)">
    <path d="m0 0h1.294v-2.152h-1.294" fill="none" stroke="#231f20" stroke-miterlimit="2" stroke-width=".283"/>
   </g>
   <g transform="translate(3.4453,-1.0752)">
    <path d="m0 0h-1.294v2.152h1.294" fill="none" stroke="#231f20" stroke-miterlimit="2" stroke-width=".283"/>
   </g>
   <g transform="translate(0,-2.1533)">
    <path d="m0 0v4.299" fill="none" stroke="#231f20" stroke-miterlimit="2" stroke-width=".28"/>
   </g>
   <g transform="translate(.8506 -.001)">
    <path d="m0 0c0 0.471-0.381 0.852-0.851 0.852-0.469 0-0.85-0.381-0.85-0.852 0-0.469 0.381-0.85 0.85-0.85 0.47 0 0.851 0.381 0.851 0.85z" fill="none" stroke="#231f20" stroke-miterlimit="2" stroke-width=".221"/>
   </g>
  </g>
 </g>
</svg>
