<?xml version="1.0" encoding="UTF-8"?>
<svg width="10.547mm" height="10.828mm" version="1.1" viewBox="0 0 10.547 10.828" xmlns="http://www.w3.org/2000/svg" xmlns:cc="http://creativecommons.org/ns#" xmlns:dc="http://purl.org/dc/elements/1.1/" xmlns:rdf="http://www.w3.org/1999/02/22-rdf-syntax-ns#">
 <defs>
  <clipPath id="clipPath85515">
   <path d="m-2.9901 3.0696h5.9803v-6.1391h-5.9803z"/>
  </clipPath>
 </defs>
 <metadata>
  <rdf:RDF>
   <cc:Work rdf:about="">
    <dc:format>image/svg+xml</dc:format>
    <dc:type rdf:resource="http://purl.org/dc/dcmitype/StillImage"/>
    <dc:title/>
   </cc:Work>
  </rdf:RDF>
 </metadata>
 <g transform="matrix(1.7639 0 0 1.7639 5.2743 5.4143)">
  <g clip-path="url(#clipPath85515)">
   <g transform="translate(1.353,-1.1092)">
    <path d="m0 0 0.702 0.589 0.735-0.878-1.753-1.472-0.737 0.877 0.746 0.626-1.08 1.293-1.012-1.211 0.746-0.626-0.736-0.877-1.755 1.472 0.736 0.877 0.702-0.588 1.06 1.263-1.922 2.302 0.297 0.25 1.884-2.244 1.951 2.326 0.299-0.251-1.991-2.383z" fill="#fff" fill-rule="evenodd"/>
   </g>
   <g transform="translate(1.353,-1.1092)">
    <path d="m0 0 0.702 0.589 0.735-0.878-1.753-1.472-0.737 0.877 0.746 0.626-1.08 1.293-1.012-1.211 0.746-0.626-0.736-0.877-1.755 1.472 0.736 0.877 0.702-0.588 1.06 1.263-1.922 2.302 0.297 0.25 1.884-2.244 1.951 2.326 0.299-0.251-1.991-2.383z" fill="none" stroke="#231f20" stroke-miterlimit="2" stroke-width=".283"/>
   </g>
  </g>
 </g>
</svg>
