<?xml version="1.0" encoding="UTF-8"?>
<!-- Created with Inkscape (http://www.inkscape.org/) -->
<svg width="98.268" height="4" version="1.1" viewBox="0 0 98.268 4" xml:space="preserve" xmlns="http://www.w3.org/2000/svg" xmlns:cc="http://creativecommons.org/ns#" xmlns:dc="http://purl.org/dc/elements/1.1/" xmlns:rdf="http://www.w3.org/1999/02/22-rdf-syntax-ns#"><metadata><rdf:RDF><cc:Work rdf:about=""><dc:format>image/svg+xml</dc:format><dc:type rdf:resource="http://purl.org/dc/dcmitype/StillImage"/><dc:title/></cc:Work></rdf:RDF></metadata><defs><clipPath id="clipPath2266"><path d="m0 3h73.701v-3h-73.701z"/></clipPath></defs><g transform="matrix(1.3333 0 0 -1.3333 0 4)"><g transform="translate(3.2912,1.4174)"><path d="m0 0h68.042" style="fill:none;stroke-dasharray:0, 2.551, 7.937, 1.701, 7.937, 2.551;stroke-miterlimit:10;stroke-width:.283;stroke:#231f20"/></g><g clip-path="url(#clipPath2266)"><g transform="translate(72.176 1.4169)"><path d="m0 0c0-.47-.381-.851-.851-.851-.469 0-.85.381-.85.851s.381.852.85.852c.47 0 .851-.382.851-.852z" style="fill:none;stroke-miterlimit:10;stroke-width:.283;stroke:#231f20"/></g><g transform="translate(49.498 1.4169)"><path d="m0 0c0-.47-.381-.851-.851-.851-.469 0-.85.381-.85.851s.381.852.85.852c.47 0 .851-.382.851-.852z" style="fill:none;stroke-miterlimit:10;stroke-width:.283;stroke:#231f20"/></g><g transform="translate(26.82 1.4169)"><path d="m0 0c0-.47-.381-.851-.851-.851-.469 0-.85.381-.85.851s.381.852.85.852c.47 0 .851-.382.851-.852z" style="fill:none;stroke-miterlimit:10;stroke-width:.283;stroke:#231f20"/></g><g transform="translate(4.1418,1.4169)"><path d="m0 0c0-.47-.381-.851-.851-.851-.469 0-.85.381-.85.851s.381.852.85.852c.47 0 .851-.382.851-.852z" style="fill:none;stroke-miterlimit:10;stroke-width:.283;stroke:#231f20"/></g></g></g></svg>
