<?xml version="1.0" encoding="UTF-8"?>
<svg width="7.299mm" height="7.2989mm" version="1.1" viewBox="0 0 7.299 7.2989" xmlns="http://www.w3.org/2000/svg" xmlns:cc="http://creativecommons.org/ns#" xmlns:dc="http://purl.org/dc/elements/1.1/" xmlns:rdf="http://www.w3.org/1999/02/22-rdf-syntax-ns#">
 <defs>
  <clipPath id="clipPath84269">
   <path d="m-2.0695 2.069h4.1384v-4.1384h-4.1384z"/>
  </clipPath>
 </defs>
 <metadata>
  <rdf:RDF>
   <cc:Work rdf:about="">
    <dc:format>image/svg+xml</dc:format>
    <dc:type rdf:resource="http://purl.org/dc/dcmitype/StillImage"/>
    <dc:title/>
   </cc:Work>
  </rdf:RDF>
 </metadata>
 <g transform="matrix(1.7639 0 0 1.7639 3.65 3.6503)">
  <g clip-path="url(#clipPath84269)">
   <g transform="translate(1.9272)">
    <path d="m0 0c0 1.065-0.863 1.927-1.928 1.927-1.064 0-1.927-0.862-1.927-1.927 0-1.064 0.863-1.928 1.927-1.928 1.065 0 1.928 0.864 1.928 1.928" fill="#fff" fill-rule="evenodd"/>
   </g>
   <g transform="translate(1.9272)">
    <path d="m0 0c0 1.065-0.863 1.927-1.928 1.927-1.064 0-1.927-0.862-1.927-1.927 0-1.064 0.863-1.928 1.927-1.928 1.065 0 1.928 0.864 1.928 1.928z" fill="none" stroke="#127bca" stroke-miterlimit="2" stroke-width=".283"/>
   </g>
   <g transform="translate(-1.9302)">
    <path d="m0 0h3.86" fill="none" stroke="#127bca" stroke-miterlimit="2" stroke-width=".283"/>
   </g>
   <g transform="translate(-5e-4,-1.9307)">
    <path d="m0 0v3.86" fill="none" stroke="#127bca" stroke-miterlimit="2" stroke-width=".283"/>
   </g>
  </g>
 </g>
</svg>
