<?xml version="1.0" encoding="UTF-8"?>
<!-- Created with Inkscape (http://www.inkscape.org/) -->
<svg width="23.413" height="4" version="1.1" viewBox="0 0 23.413 4" xml:space="preserve" xmlns="http://www.w3.org/2000/svg" xmlns:cc="http://creativecommons.org/ns#" xmlns:dc="http://purl.org/dc/elements/1.1/" xmlns:rdf="http://www.w3.org/1999/02/22-rdf-syntax-ns#"><metadata><rdf:RDF><cc:Work rdf:about=""><dc:format>image/svg+xml</dc:format><dc:type rdf:resource="http://purl.org/dc/dcmitype/StillImage"/><dc:title/></cc:Work></rdf:RDF></metadata><defs><clipPath id="clipPath3789"><path d="m0 3h17.56v-3h-17.56z"/></clipPath></defs><g transform="matrix(1.3333 0 0 -1.3333 0 4)"><g clip-path="url(#clipPath3789)"><g transform="translate(2.0195,1.305)"><path d="m0 0h15.206" style="fill:none;stroke-dasharray:0.283, 3.118, 2.268, 2.268, 2.268, 3.402;stroke-miterlimit:1.5;stroke-width:1.134;stroke:#5c2591"/></g><g transform="translate(17.212 1.8011)"><path d="m0 0h-.747c-.173.292-.477.497-.84.497-.364 0-.668-.205-.841-.497h-.747v-.992h.747c.173-.292.477-.497.841-.497.363 0 .667.205.84.497h.747z" style="fill:#5c2591"/></g><g transform="translate(3.6069,1.8011)"><path d="m0 0h-.747c-.173.292-.477.497-.84.497-.364 0-.668-.205-.841-.497h-.747v-.992h.747c.173-.292.477-.497.841-.497.363 0 .667.205.84.497h.747z" style="fill:#5c2591"/></g></g></g></svg>
