<?xml version="1.0" encoding="UTF-8"?>
<svg width="13.998mm" height="14mm" version="1.1" viewBox="0 0 13.998 14" xmlns="http://www.w3.org/2000/svg" xmlns:cc="http://creativecommons.org/ns#" xmlns:dc="http://purl.org/dc/elements/1.1/" xmlns:rdf="http://www.w3.org/1999/02/22-rdf-syntax-ns#">
 <defs>
  <clipPath id="clipPath84357">
   <path d="m-3.9686 3.9688h7.9368v-7.9368h-7.9368z"/>
  </clipPath>
 </defs>
 <metadata>
  <rdf:RDF>
   <cc:Work rdf:about="">
    <dc:format>image/svg+xml</dc:format>
    <dc:type rdf:resource="http://purl.org/dc/dcmitype/StillImage"/>
    <dc:title/>
   </cc:Work>
  </rdf:RDF>
 </metadata>
 <g transform="matrix(1.7639 0 0 1.7639 6.9993 6.9991)">
  <g clip-path="url(#clipPath84357)">
   <g transform="translate(3.8264,4e-4)">
    <path d="m0 0c0 2.113-1.713 3.827-3.827 3.827-2.113 0-3.826-1.714-3.826-3.827s1.713-3.827 3.826-3.827c2.114 0 3.827 1.714 3.827 3.827" fill="#fff"/>
   </g>
   <g transform="translate(3.8264,4e-4)">
    <path d="m0 0c0 2.113-1.713 3.827-3.827 3.827-2.113 0-3.826-1.714-3.826-3.827s1.713-3.827 3.826-3.827c2.114 0 3.827 1.714 3.827 3.827z" fill="none" stroke="#231f20" stroke-miterlimit="2" stroke-width=".283"/>
   </g>
   <g transform="translate(-1.8005,2.3153)">
    <path d="m0 0h0.51v-2.06h2.57v2.06h0.52v-4.63h-0.52v2.05h-2.57v-2.05h-0.51z" fill="#231f20" fill-rule="evenodd"/>
   </g>
  </g>
 </g>
</svg>
