<?xml version="1.0" encoding="UTF-8"?>
<!-- Created with Inkscape (http://www.inkscape.org/) -->
<svg width="22.117" height="4" version="1.1" viewBox="0 0 22.117 4" xml:space="preserve" xmlns="http://www.w3.org/2000/svg" xmlns:cc="http://creativecommons.org/ns#" xmlns:dc="http://purl.org/dc/elements/1.1/" xmlns:rdf="http://www.w3.org/1999/02/22-rdf-syntax-ns#"><metadata><rdf:RDF><cc:Work rdf:about=""><dc:format>image/svg+xml</dc:format><dc:type rdf:resource="http://purl.org/dc/dcmitype/StillImage"/><dc:title/></cc:Work></rdf:RDF></metadata><defs><clipPath id="clipPath1038"><path d="m0 3h16.588v-3h-16.588z"/></clipPath></defs><g transform="matrix(1.3333 0 0 -1.3333 0 4)"><g clip-path="url(#clipPath1038)"><g transform="translate(.9006 1.4125)"><path d="m0 0h14.849" style="fill:none;stroke-miterlimit:10;stroke-width:.85;stroke:#231f20"/></g><g transform="translate(16.349 .8226)"><path d="m0 0c0-.392-.317-.709-.709-.709s-.708.317-.708.709c0 .391.316.709.708.709s.709-.318.709-.709" style="fill-rule:evenodd;fill:#231f20"/></g><g transform="translate(1.6096 .8226)"><path d="m0 0c0-.392-.317-.709-.709-.709-.393 0-.708.317-.708.709 0 .391.315.709.708.709.392 0 .709-.318.709-.709" style="fill-rule:evenodd;fill:#231f20"/></g></g></g></svg>
