<?xml version="1.0" encoding="UTF-8"?>
<svg width="43mm" height="0.3mm" version="1.0" xmlns="http://www.w3.org/2000/svg" xmlns:cc="http://creativecommons.org/ns#" xmlns:dc="http://purl.org/dc/elements/1.1/" xmlns:rdf="http://www.w3.org/1999/02/22-rdf-syntax-ns#"><metadata><rdf:RDF><cc:Work rdf:about=""><dc:format>image/svg+xml</dc:format><dc:type rdf:resource="http://purl.org/dc/dcmitype/StillImage"/><dc:title/></cc:Work></rdf:RDF></metadata><path d="m.33333.66667h5.3333m1.3333 0h5.3333m1.3333 0h5.3333m1.3333 0h5.3333m1.3333 0h5.3333m1.3333 0h5.3333m1.3333 0h5.3333m1.3333 0h5.3333m1.3333 0h5.3333m1.3333 0h5.3333m1.3333 0h5.3333m1.3333 0h5.3333m1.3333 0h5.3333m1.3333 0h5.3333m1.3333 0h5.3333m1.3333 0h5.3333m1.3333 0h5.3333m1.3333 0h5.3333m1.3333 0h5.3333m1.3333 0h5.3333m1.3333 0h5.3333m1.3333 0h5.3333m1.3333 0h5.3333m1.3333 0h5.3333m1.3333 0h4.3333" style="fill:none;stroke-dasharray:5.3333333,1.3333333,0,0;stroke-miterlimit:10;stroke-width:0.5px;stroke:#000000"/></svg>
