<!-- Generated by IcoMoon.io -->
<svg version="1.1" xmlns="http://www.w3.org/2000/svg" width="1123" height="1024" viewBox="0 0 1123 1024">
<title></title>
<g id="icomoon-ignore">
</g>
<path d="M648.192 993.28c-60.416-10.24-115.712-38.912-158.72-80.896-23.552-24.576-38.912-45.056-55.296-75.776l-11.264-21.504-195.584-1.024c-184.32 0-196.608-1.024-196.608-5.12 0-2.048 3.072-7.168 5.12-12.288 5.12-8.192 195.584-336.896 291.84-504.832 31.744-54.272 58.368-101.376 60.416-103.424 4.096-3.072 4.096-3.072 7.168 1.024 2.048 2.048 30.72 52.224 64.512 109.568 36.864 64.512 61.44 105.472 64.512 105.472 2.048 0 88.064-83.968 190.464-186.368l186.368-187.392h22.528l87.040 88.064 88.064 87.040v22.528l-111.616 110.592-110.592 111.616 25.6 24.576c28.672 28.672 44.032 49.152 60.416 80.896 81.92 165.888-1.024 367.616-174.080 425.984-43.008 14.336-96.256 18.432-140.288 11.264zM757.76 949.248c51.2-13.312 104.448-48.128 138.24-89.088 38.912-49.152 57.344-103.424 57.344-168.96 0-76.8-28.672-142.336-87.040-194.56-8.192-7.168-16.384-13.312-19.456-13.312-6.144 0-179.2 174.080-177.152 178.176 0 2.048 19.456 35.84 41.984 74.752s40.96 72.704 39.936 73.728c-1.024 3.072-27.648 4.096-139.264 4.096-92.16 0-139.264 1.024-140.288 2.048-4.096 6.144 24.576 46.080 50.176 70.656 36.864 35.84 86.016 59.392 137.216 67.584 19.456 3.072 76.8 0 98.304-5.12zM674.816 765.952c2.048-2.048-39.936-76.8-52.224-95.232l-5.12-7.168h-71.68c-62.464 0-72.704 0-75.776-4.096-4.096-3.072-4.096-15.36-4.096-97.28v-94.208l11.264-12.288c6.144-7.168 11.264-14.336 10.24-16.384-1.024-9.216-94.208-166.912-97.28-165.888-2.048 0-57.344 93.184-122.88 207.872-165.888 285.696-162.816 281.6-160.768 284.672s566.272 3.072 568.32 0zM618.496 601.088c0-2.048-87.040-90.112-90.112-90.112-2.048 0-2.048 88.064 0 90.112s90.112 2.048 90.112 0zM814.080 434.176l135.168-136.192-58.368-59.392-59.392-58.368-136.192 135.168c-74.752 74.752-136.192 137.216-136.192 139.264 0 3.072 112.64 115.712 115.712 115.712 2.048 0 64.512-61.44 139.264-136.192zM1010.688 236.544c9.216-9.216 16.384-17.408 16.384-18.432 0-3.072-112.64-115.712-115.712-115.712-4.096 0-33.792 31.744-33.792 35.84s108.544 113.664 113.664 113.664c2.048 0 11.264-7.168 19.456-15.36z"></path>
</svg>
