<!-- Generated by IcoMoon.io -->
<svg version="1.1" xmlns="http://www.w3.org/2000/svg" width="819" height="1024" viewBox="0 0 819 1024">
<title></title>
<g id="icomoon-ignore">
</g>
<path fill="#000" d="M665.6 665.6q63.488 0 108.544 44.032t45.056 109.568q0 63.488-45.056 108.544t-108.544 45.056-108.544-45.056-45.056-108.544q0-6.144 1.024-14.336t1.024-12.288l-266.24-159.744q-43.008 32.768-94.208 32.768-63.488 0-108.544-45.056t-45.056-108.544 45.056-108.544 108.544-45.056q55.296 0 94.208 30.72l266.24-159.744q0-4.096-1.024-12.288t-1.024-12.288q0-63.488 45.056-108.544t108.544-45.056 108.544 44.032 45.056 109.568q0 63.488-45.056 108.544t-108.544 45.056q-53.248 0-92.16-32.768l-268.288 159.744q2.048 8.192 2.048 26.624 0 16.384-2.048 24.576l268.288 159.744q36.864-30.72 92.16-30.72z"></path>
</svg>
