<!-- Generated by IcoMoon.io -->
<svg version="1.1" xmlns="http://www.w3.org/2000/svg" width="1024" height="1024" viewBox="0 0 1024 1024">
<title></title>
<g id="icomoon-ignore">
</g>
<path d="M0 824.32c0-13.312 2.048-26.624 8.192-38.912 18.432-33.792 45.056-54.272 83.968-54.272 31.744 1.024 63.488 0 95.232 0 3.072 0 5.12-1.024 7.168-4.096 17.408-28.672 34.816-58.368 52.224-88.064 2.048-3.072 2.048-4.096 0-7.168-18.432-19.456-26.624-41.984-26.624-68.608-1.024-33.792-1.024-68.608 0-103.424 0-25.6 8.192-49.152 25.6-68.608 3.072-2.048 3.072-4.096 1.024-7.168-17.408-29.696-34.816-58.368-52.224-88.064-2.048-3.072-4.096-4.096-7.168-4.096-31.744 0-62.464 0-94.208 0-10.24 0-21.504-2.048-30.72-5.12-29.696-9.216-63.488-43.008-62.464-88.064 1.024-34.816 0-69.632 0-104.448 1.024-11.264 2.048-21.504 5.12-32.768 5.12-16.384 16.384-29.696 29.696-40.96 14.336-12.288 30.72-19.456 50.176-19.456 40.96-1.024 81.92-1.024 123.904 0 35.84 0 67.584 31.744 77.824 58.368 6.144 13.312 6.144 27.648 6.144 41.984 0 3.072 0 5.12 0 8.192h391.168l-73.728 73.728h-317.44c0 3.072 0 7.168 0 10.24 0 28.672-8.192 53.248-27.648 73.728-2.048 2.048-2.048 3.072-1.024 5.12 18.432 30.72 36.864 60.416 54.272 91.136 1.024 1.024 4.096 2.048 6.144 2.048 31.744 0 62.464 0 94.208 0 25.6 0 46.080 8.192 62.464 23.552 8.192 8.192 16.384 18.432 22.528 30.72s8.192 25.6 8.192 38.912c0 29.696-1.024 58.368 0 88.064 0 6.144 0 12.288 0 18.432 1.024 45.056-32.768 78.848-62.464 88.064-9.216 3.072-20.48 4.096-30.72 5.12-31.744 0-62.464 0-94.208 0-3.072 0-5.12 1.024-6.144 3.072-17.408 29.696-35.84 59.392-53.248 89.088-2.048 3.072-2.048 4.096 1.024 7.168 17.408 18.432 25.6 41.984 26.624 67.584 0 5.12 0 10.24 0 15.36h439.296c0-6.144 0-12.288 0-18.432-1.024-41.984 32.768-75.776 61.44-86.016 10.24-3.072 20.48-4.096 30.72-4.096 6.144 0 11.264 0 17.408 0v-318.464l73.728-73.728v392.192c5.12 0 11.264 0 16.384 0 10.24 0 20.48 1.024 30.72 4.096 30.72 11.264 62.464 44.032 61.44 88.064 0 35.84 1.024 70.656 0 106.496 0 11.264-2.048 21.504-5.12 31.744-10.24 29.696-43.008 62.464-88.064 61.44-35.84-1.024-70.656 0-105.472 0-7.168 0-15.36-1.024-22.528-2.048-24.576-5.12-41.984-20.48-56.32-40.96-11.264-14.336-14.336-30.72-14.336-49.152 0-5.12 0-11.264 0-17.408h-439.296c0 4.096 0 8.192 0 11.264 0 12.288-1.024 24.576-5.12 36.864-10.24 29.696-44.032 62.464-88.064 61.44-35.84-1.024-70.656 0-106.496 0-10.24 0-20.48-2.048-29.696-4.096-31.744-10.24-64.512-45.056-63.488-89.088 1.024-35.84 0-70.656 0-106.496zM220.16 94.208c0-13.312-9.216-21.504-21.504-21.504-17.408 0-34.816 0-52.224 0s-34.816 0-52.224 0c-12.288 0-20.48 9.216-20.48 21.504 0 34.816 0 69.632 0 104.448 0 12.288 8.192 21.504 20.48 21.504 34.816 0 69.632 0 104.448 0 12.288 0 21.504-9.216 21.504-21.504 0-34.816 0-69.632 0-104.448zM292.864 563.2c0 13.312 8.192 21.504 21.504 21.504 33.792 0 68.608 0 102.4 0 14.336 0 22.528-8.192 22.528-21.504 0-33.792 0-68.608 0-102.4 0-14.336-8.192-22.528-21.504-22.528-17.408 0-34.816 0-52.224 0s-34.816 0-52.224 0c-13.312 0-21.504 8.192-21.504 22.528 1.024 33.792 1.024 68.608 1.024 102.4zM804.864 929.792c0 13.312 8.192 21.504 20.48 21.504 34.816 0 69.632 0 104.448 0 13.312 0 21.504-9.216 21.504-21.504 0-17.408 0-34.816 0-52.224s0-34.816 0-52.224c0-12.288-8.192-21.504-21.504-21.504-34.816 0-69.632 0-104.448 0-12.288 0-20.48 9.216-20.48 21.504-1.024 34.816-1.024 69.632 0 104.448zM73.728 929.792c0 13.312 8.192 21.504 20.48 21.504 34.816 0 69.632 0 104.448 0 12.288 0 21.504-8.192 21.504-21.504 0-34.816 0-69.632 0-104.448 0-12.288-9.216-21.504-21.504-21.504-34.816 0-69.632 0-104.448 0-12.288 0-20.48 9.216-20.48 21.504 0 17.408 0 34.816 0 52.224s-1.024 34.816 0 52.224zM897.024 16.384l-41.984 40.96 111.616 111.616 40.96-41.984c21.504-21.504 21.504-56.32 0-76.8l-33.792-33.792c-20.48-21.504-55.296-21.504-76.8 0v0zM835.584 76.8l-199.68 199.68c-9.216 9.216-15.36 20.48-18.432 31.744l-30.72 103.424c-2.048 7.168 0 15.36 5.12 20.48s13.312 7.168 20.48 5.12l102.4-30.72c12.288-3.072 23.552-10.24 32.768-18.432l199.68-199.68-111.616-111.616z"></path>
</svg>
