<?xml version="1.0" encoding="UTF-8"?><svg id="Capa_2" xmlns="http://www.w3.org/2000/svg" width="18" height="18" viewBox="0 0 18 18"><defs><style>.cls-1{fill:#fff;}.cls-2{fill:#e56e47;}</style></defs><g id="iconos"><g id="_2.1.2"><circle class="cls-2" cx="9" cy="9" r="9"/><g id="icon"><g id="building"><polygon class="cls-1" points="8.76 6.56 8.76 6.94 16.53 6.94 16.53 6.56 12.64 4.46 8.76 6.56"/><polygon class="cls-1" points="9.67 7.16 9.67 7.55 15.65 7.55 15.65 7.18 9.67 7.16"/><polygon class="cls-1" points="9.92 7.79 9.84 11.11 10.65 11.11 10.56 7.79 9.92 7.79"/><polygon class="cls-1" points="11.5 7.79 11.42 11.11 12.24 11.11 12.14 7.79 11.5 7.79"/><polygon class="cls-1" points="13.11 7.8 13.03 11.11 13.85 11.11 13.75 7.8 13.11 7.8"/><polygon class="cls-1" points="14.71 7.79 14.63 11.11 15.45 11.11 15.35 7.79 14.71 7.79"/><polygon class="cls-1" points="9.62 11.3 15.65 11.3 15.65 11.69 16.09 11.69 16.09 12.17 16.53 12.17 16.53 12.67 8.76 12.67 8.76 12.18 9.2 12.17 9.2 11.76 9.62 11.76 9.62 11.3"/></g><path class="cls-1" d="M6.02,4.46H2.45V12.67h1.55v-3c5.94,.5,4.67-5.09,2.02-5.21Zm-.55,3.69h-1.4l-.02-2.15h1.5c1.63,0,1.68,2.15-.08,2.15Z"/></g></g></g></svg>