<!-- Generated by IcoMoon.io -->
<svg version="1.1" xmlns="http://www.w3.org/2000/svg" width="1024" height="1024" viewBox="0 0 1024 1024">
<title></title>
<g id="icomoon-ignore">
</g>
<path d="M77.824 318.464l421.888 225.28c4.096 2.048 9.216 3.072 13.312 3.072s9.216-1.024 13.312-3.072l420.864-225.28c9.216-5.12 14.336-15.36 14.336-25.6s-5.12-19.456-14.336-24.576l-420.864-225.28c-8.192-4.096-18.432-4.096-26.624 0l-421.888 225.28c-8.192 5.12-14.336 14.336-14.336 24.576s6.144 20.48 14.336 25.6zM513.024 116.736l340.992 176.128-340.992 172.032-342.016-172.032 342.016-176.128zM947.2 494.592l-122.88-66.56c-13.312-7.168-41.984-3.072-49.152 10.24-7.168 14.336-5.12 38.912 8.192 46.080l62.464 34.816-332.8 164.864-333.824-164.864 63.488-34.816c13.312-7.168 13.312-31.744 6.144-45.056-8.192-14.336-33.792-19.456-47.104-12.288l-123.904 67.584c-8.192 5.12-14.336 14.336-14.336 24.576s5.12 20.48 14.336 24.576l421.888 225.28c4.096 2.048 9.216 3.072 13.312 3.072s9.216-1.024 13.312-3.072l420.864-225.28c9.216-4.096 14.336-14.336 14.336-24.576s-5.12-19.456-14.336-24.576zM947.2 718.848l-118.784-63.488c-14.336-7.168-41.984-1.024-49.152 12.288-7.168 14.336-5.12 36.864 8.192 44.032l58.368 32.768-332.8 164.864-333.824-164.864 57.344-32.768c14.336-7.168 15.36-29.696 8.192-44.032s-34.816-18.432-48.128-11.264l-118.784 62.464c-8.192 5.12-14.336 14.336-14.336 25.6s5.12 19.456 14.336 24.576l421.888 225.28c4.096 2.048 9.216 3.072 13.312 3.072s9.216-1.024 13.312-3.072l420.864-225.28c9.216-5.12 14.336-14.336 14.336-24.576s-5.12-20.48-14.336-25.6z"></path>
</svg>
