<?xml version="1.0" encoding="UTF-8"?>
<svg xmlns="http://www.w3.org/2000/svg" xmlns:xlink="http://www.w3.org/1999/xlink" width="24pt" height="24pt" viewBox="0 0 24 24" version="1.1">
<g id="surface1">
<path style=" stroke:none;fill-rule:nonzero;fill:rgb(99.607843%,1.176471%,1.176471%);fill-opacity:1;" d="M 12 0 C 7.035156 0 3 4.035156 3 9 C 3 15.636719 10.75 23.351562 11.101562 23.6875 C 11.199219 23.773438 11.523438 23.929688 12 23.929688 C 12.421875 23.929688 12.777344 23.773438 12.875 23.679688 C 13.226562 23.347656 21 15.636719 21 9 C 21 4.035156 16.964844 0 12 0 Z M 12 14.644531 C 8.886719 14.644531 6.355469 12.109375 6.355469 9 C 6.355469 5.890625 8.886719 3.355469 12 3.355469 C 15.113281 3.355469 17.644531 5.886719 17.644531 9 C 17.644531 12.113281 15.113281 14.644531 12 14.644531 Z M 12 14.644531 "/>
<path style=" stroke:none;fill-rule:nonzero;fill:rgb(99.607843%,1.176471%,1.176471%);fill-opacity:1;" d="M 15.566406 9 C 15.566406 10.96875 13.96875 12.566406 12 12.566406 C 10.03125 12.566406 8.433594 10.96875 8.433594 9 C 8.433594 7.03125 10.03125 5.433594 12 5.433594 C 13.96875 5.433594 15.566406 7.03125 15.566406 9 Z M 15.566406 9 "/>
</g>
</svg>
